<svg width="1512" height="1003" viewBox="0 0 1512 1003" fill="none" xmlns="http://www.w3.org/2000/svg">
<g clip-path="url(#clip0_687_234)">
<path d="M1511.78 -0.317089L-85.4006 0.31958L-85.0012 1002.46L1512.18 1001.82L1511.78 -0.317089Z" fill="white"/>
<path d="M1058.11 1000.82C1058.43 942.517 1108.93 895.496 1170.87 895.792C1232.82 896.088 1282.78 943.61 1282.46 1001.91" stroke="#1D262D" stroke-width="2" stroke-miterlimit="10"/>
<path d="M1253.8 1001.77C1254.04 958.353 1216.84 922.992 1170.74 922.77C1124.61 922.548 1087.04 957.558 1086.8 1000.95L1253.8 1001.77Z" fill="#219EBC"/>
<path d="M644.009 501.099L713.406 538.772L782.772 501.044L782.742 425.643L713.346 387.97L643.979 425.698L644.009 501.099Z" fill="#114A82"/>
<path d="M644.039 576.5L713.436 614.173L782.802 576.445L782.772 501.044L713.376 463.371L644.009 501.099L644.039 576.5Z" stroke="#1D262D" stroke-width="2" stroke-miterlimit="10"/>
<path d="M409.898 218.589L322.508 76.2395L497.175 76.1699L409.898 218.589Z" fill="#219EBC"/>
<path d="M-42.7747 86.4867L-13.3095 119.225L16.1294 86.4632L45.5946 119.201L75.0336 86.4397L104.52 119.178L133.98 86.4162" stroke="#1D262D" stroke-width="4" stroke-miterlimit="10"/>
<path d="M-42.7922 42.3926L-13.3271 75.1308L16.1119 42.3691L45.577 75.1073L75.016 42.3456L104.502 75.0838L133.963 42.3221" stroke="#1D262D" stroke-width="4" stroke-miterlimit="10"/>
<path d="M891.152 354.688L891.142 328.632M904.989 341.655L877.305 341.666L904.989 341.655Z" stroke="#219EBC" stroke-miterlimit="10"/>
<path d="M891.126 290.551L891.116 264.495M904.963 277.518L877.279 277.529L904.963 277.518Z" stroke="#219EBC" stroke-miterlimit="10"/>
<path d="M891.102 228.418L891.091 202.363M904.939 215.385L877.254 215.396L904.939 215.385Z" stroke="#219EBC" stroke-miterlimit="10"/>
<path d="M891.152 354.688L891.142 328.632M904.989 341.655L877.305 341.666L904.989 341.655Z" stroke="#1D262D" stroke-width="2" stroke-miterlimit="10"/>
<path d="M891.126 290.551L891.116 264.495M904.963 277.518L877.279 277.529L904.963 277.518Z" stroke="#1D262D" stroke-width="2" stroke-miterlimit="10"/>
<path d="M891.102 228.418L891.091 202.363M904.939 215.385L877.254 215.396L904.939 215.385Z" stroke="#1D262D" stroke-width="2" stroke-miterlimit="10"/>
<path d="M955.039 354.663L955.029 328.607M968.876 341.629L941.192 341.64L968.876 341.629Z" stroke="#219EBC" stroke-miterlimit="10"/>
<path d="M955.014 290.526L955.003 264.47M968.851 277.492L941.166 277.503L968.851 277.492Z" stroke="#219EBC" stroke-miterlimit="10"/>
<path d="M954.989 228.393L954.978 202.337M968.826 215.36L941.141 215.371L968.826 215.36Z" stroke="#219EBC" stroke-miterlimit="10"/>
<path d="M955.039 354.663L955.029 328.607M968.876 341.629L941.192 341.64L968.876 341.629Z" stroke="#1D262D" stroke-width="2" stroke-miterlimit="10"/>
<path d="M955.014 290.526L955.003 264.47M968.851 277.492L941.166 277.503L968.851 277.492Z" stroke="#1D262D" stroke-width="2" stroke-miterlimit="10"/>
<path d="M954.989 228.393L954.978 202.337M968.826 215.36L941.141 215.371L968.826 215.36Z" stroke="#1D262D" stroke-width="2" stroke-miterlimit="10"/>
<path d="M1018.9 290.5L1018.89 264.444M1032.74 277.467L1005.05 277.478L1032.74 277.467Z" stroke="#219EBC" stroke-miterlimit="10"/>
<path d="M1018.88 228.367L1018.87 202.312M1032.71 215.334L1005.03 215.345L1032.71 215.334Z" stroke="#219EBC" stroke-miterlimit="10"/>
<path d="M1018.9 290.5L1018.89 264.444M1032.74 277.467L1005.05 277.478L1032.74 277.467Z" stroke="#1D262D" stroke-width="2" stroke-miterlimit="10"/>
<path d="M1018.88 228.367L1018.87 202.312M1032.71 215.334L1005.03 215.345L1032.71 215.334Z" stroke="#1D262D" stroke-width="2" stroke-miterlimit="10"/>
<path d="M1082.79 290.475L1082.78 264.419M1096.63 277.441L1068.94 277.452L1096.63 277.441Z" stroke="#219EBC" stroke-miterlimit="10"/>
<path d="M1082.76 228.342L1082.75 202.286M1096.6 215.309L1068.92 215.32L1096.6 215.309Z" stroke="#219EBC" stroke-miterlimit="10"/>
<path d="M1082.79 290.475L1082.78 264.419M1096.63 277.441L1068.94 277.452L1096.63 277.441Z" stroke="#1D262D" stroke-width="2" stroke-miterlimit="10"/>
<path d="M1082.76 228.342L1082.75 202.286M1096.6 215.309L1068.92 215.32L1096.6 215.309Z" stroke="#1D262D" stroke-width="2" stroke-miterlimit="10"/>
<path d="M1146.68 290.449L1146.67 264.394M1160.51 277.416L1132.83 277.427L1160.51 277.416Z" stroke="#219EBC" stroke-miterlimit="10"/>
<path d="M1146.65 228.316L1146.64 202.261M1160.49 215.283L1132.8 215.294L1160.49 215.283Z" stroke="#219EBC" stroke-miterlimit="10"/>
<path d="M1146.68 290.449L1146.67 264.394M1160.51 277.416L1132.83 277.427L1160.51 277.416Z" stroke="#1D262D" stroke-width="2" stroke-miterlimit="10"/>
<path d="M1146.65 228.316L1146.64 202.261M1160.49 215.283L1132.8 215.294L1160.49 215.283Z" stroke="#1D262D" stroke-width="2" stroke-miterlimit="10"/>
<path d="M78.4244 899.695L-42.4504 899.743L-42.4051 1013.51L78.4697 1013.46L78.4244 899.695Z" stroke="#1D262D" stroke-width="2" stroke-miterlimit="10"/>
<path d="M138.839 842.79L17.9641 842.838L18.0095 956.601L138.884 956.552L138.839 842.79Z" fill="#114A82"/>
<path d="M502.209 842.003C497.481 842.005 493.625 838.399 493.623 833.93C493.621 829.46 497.453 825.851 502.202 825.849C506.93 825.847 510.786 829.453 510.787 833.923C510.789 838.392 506.957 842.001 502.209 842.003Z" fill="#114A82"/>
<path d="M502.226 885.296C497.498 885.298 493.642 881.692 493.64 877.222C493.639 872.772 497.47 869.143 502.219 869.141C506.947 869.139 510.803 872.746 510.805 877.215C510.807 881.665 506.975 885.294 502.226 885.296Z" fill="#114A82"/>
<path d="M502.243 928.588C497.516 928.59 493.66 924.984 493.658 920.514C493.656 916.045 497.488 912.436 502.237 912.434C506.964 912.432 510.82 916.038 510.822 920.508C510.824 924.977 506.992 928.586 502.243 928.588Z" fill="#114A82"/>
<path d="M502.26 971.861C497.533 971.863 493.677 968.256 493.675 963.787C493.673 959.317 497.505 955.708 502.254 955.706C506.981 955.704 510.837 959.31 510.839 963.78C510.841 968.25 507.009 971.859 502.26 971.861Z" fill="#1D262D"/>
<path d="M502.278 1015.15C497.55 1015.15 493.694 1011.55 493.692 1007.08C493.69 1002.63 497.522 999 502.271 998.999C506.999 998.997 510.855 1002.6 510.857 1007.07C510.858 1011.54 507.027 1015.15 502.278 1015.15Z" fill="#114A82"/>
<path d="M466.687 842.018C471.427 842.016 475.268 838.398 475.266 833.937C475.264 829.476 471.421 825.861 466.681 825.863C461.941 825.865 458.1 829.483 458.102 833.944C458.104 838.405 461.947 842.019 466.687 842.018Z" fill="#114A82"/>
<path d="M466.704 885.31C461.977 885.312 458.121 881.706 458.119 877.236C458.117 872.787 461.949 869.157 466.698 869.155C471.426 869.154 475.282 872.76 475.283 877.229C475.285 881.679 471.432 885.308 466.704 885.31Z" stroke="#114A82" stroke-miterlimit="10"/>
<path d="M466.722 928.602C471.462 928.601 475.302 924.983 475.301 920.522C475.299 916.061 471.455 912.446 466.715 912.448C461.975 912.45 458.134 916.068 458.136 920.529C458.138 924.99 461.982 928.604 466.722 928.602Z" fill="#114A82"/>
<path d="M466.739 971.895C471.479 971.893 475.32 968.275 475.318 963.814C475.316 959.353 471.472 955.738 466.733 955.74C461.993 955.742 458.152 959.36 458.154 963.821C458.155 968.282 461.999 971.897 466.739 971.895Z" fill="#114A82"/>
<path d="M466.756 1015.17C462.028 1015.17 458.172 1011.56 458.171 1007.09C458.169 1002.64 462.001 999.015 466.75 999.013C471.477 999.011 475.333 1002.62 475.335 1007.09C475.337 1011.56 471.484 1015.17 466.756 1015.17Z" fill="#114A82"/>
<path d="M431.145 842.032C435.884 842.03 439.725 838.412 439.724 833.951C439.722 829.49 435.878 825.875 431.138 825.877C426.398 825.879 422.557 829.497 422.559 833.958C422.561 838.419 426.405 842.034 431.145 842.032Z" fill="#114A82"/>
<path d="M431.162 885.324C426.434 885.326 422.578 881.72 422.576 877.25C422.575 872.801 426.406 869.172 431.155 869.17C435.904 869.168 439.739 872.774 439.741 877.243C439.743 881.693 435.911 885.322 431.162 885.324Z" fill="#114A82"/>
<path d="M431.179 928.617C435.919 928.615 439.76 924.997 439.758 920.536C439.756 916.075 435.912 912.46 431.173 912.462C426.433 912.464 422.592 916.082 422.594 920.543C422.595 925.004 426.439 928.618 431.179 928.617Z" fill="#114A82"/>
<path d="M431.196 971.909C435.936 971.907 439.777 968.289 439.775 963.828C439.773 959.367 435.93 955.753 431.19 955.754C426.45 955.756 422.609 959.374 422.611 963.835C422.613 968.296 426.456 971.911 431.196 971.909Z" fill="#114A82"/>
<path d="M431.214 1015.18C426.486 1015.18 422.63 1011.58 422.628 1007.11C422.626 1002.66 426.458 999.029 431.207 999.027C435.956 999.025 439.791 1002.63 439.793 1007.1C439.794 1011.57 435.963 1015.18 431.214 1015.18Z" fill="#1D262D"/>
<path d="M395.602 842.046C400.342 842.044 404.183 838.426 404.181 833.965C404.179 829.504 400.335 825.889 395.595 825.891C390.856 825.893 387.015 829.511 387.016 833.972C387.018 838.433 390.862 842.048 395.602 842.046Z" fill="#114A82"/>
<path d="M395.619 885.338C390.891 885.34 387.036 881.734 387.034 877.264C387.032 872.815 390.864 869.186 395.613 869.184C400.362 869.182 404.196 872.788 404.198 877.258C404.2 881.707 400.368 885.336 395.619 885.338Z" fill="#1D262D"/>
<path d="M395.636 928.631C400.376 928.629 404.217 925.011 404.215 920.55C404.214 916.089 400.37 912.474 395.63 912.476C390.89 912.478 387.049 916.096 387.051 920.557C387.053 925.018 390.897 928.633 395.636 928.631Z" fill="#114A82"/>
<path d="M395.654 971.923C400.393 971.921 404.234 968.303 404.233 963.842C404.231 959.382 400.387 955.767 395.647 955.769C390.907 955.771 387.066 959.388 387.068 963.849C387.07 968.31 390.914 971.925 395.654 971.923Z" stroke="#114A82" stroke-miterlimit="10"/>
<path d="M395.671 1015.2C390.943 1015.2 387.087 1011.59 387.085 1007.12C387.084 1002.67 390.916 999.043 395.664 999.041C400.413 999.039 404.248 1002.65 404.25 1007.11C404.252 1011.58 400.42 1015.19 395.671 1015.2Z" fill="#114A82"/>
<path d="M360.081 842.06C364.82 842.058 368.661 838.44 368.66 833.979C368.658 829.518 364.814 825.904 360.074 825.906C355.334 825.907 351.493 829.525 351.495 833.986C351.497 838.447 355.341 842.062 360.081 842.06Z" stroke="#114A82" stroke-miterlimit="10"/>
<path d="M360.098 885.352C355.37 885.354 351.514 881.748 351.512 877.279C351.511 872.829 355.343 869.2 360.091 869.198C364.819 869.196 368.675 872.802 368.677 877.272C368.679 881.721 364.826 885.351 360.098 885.352Z" fill="#114A82"/>
<path d="M360.115 928.645C364.855 928.643 368.696 925.025 368.694 920.564C368.692 916.103 364.848 912.489 360.109 912.49C355.369 912.492 351.528 916.11 351.53 920.571C351.531 925.032 355.375 928.647 360.115 928.645Z" fill="#114A82"/>
<path d="M360.132 971.937C364.872 971.935 368.713 968.318 368.711 963.857C368.71 959.396 364.866 955.781 360.126 955.783C355.386 955.785 351.545 959.403 351.547 963.863C351.549 968.324 355.393 971.939 360.132 971.937Z" fill="#114A82"/>
<path d="M360.15 1015.21C355.422 1015.21 351.566 1011.61 351.564 1007.14C351.562 1002.69 355.394 999.057 360.143 999.055C364.871 999.053 368.727 1002.66 368.729 1007.13C368.73 1011.6 364.877 1015.21 360.15 1015.21Z" fill="#114A82"/>
<path d="M1094.37 344.706C1099.11 344.704 1102.95 341.086 1102.95 336.625C1102.95 332.164 1099.11 328.549 1094.37 328.551C1089.63 328.553 1085.79 332.171 1085.79 336.632C1085.79 341.093 1089.63 344.708 1094.37 344.706Z" fill="#114A82"/>
<path d="M1148.93 336.607C1148.93 341.056 1145.1 344.686 1140.35 344.688C1135.62 344.689 1131.77 341.083 1131.77 336.614C1131.76 332.164 1135.6 328.535 1140.34 328.533C1145.09 328.531 1148.93 332.137 1148.93 336.607Z" fill="#114A82"/>
<path d="M1094.39 378.137C1099.13 378.135 1102.97 374.517 1102.97 370.057C1102.96 365.596 1099.12 361.981 1094.38 361.983C1089.64 361.985 1085.8 365.602 1085.8 370.063C1085.8 374.524 1089.65 378.139 1094.39 378.137Z" fill="#114A82"/>
<path d="M1148.94 370.038C1148.95 374.488 1145.11 378.117 1140.36 378.119C1135.64 378.121 1131.78 374.515 1131.78 370.045C1131.78 365.576 1135.61 361.966 1140.36 361.964C1145.11 361.983 1148.94 365.589 1148.94 370.038Z" stroke="#114A82" stroke-miterlimit="10"/>
<path d="M1094.4 411.589C1099.14 411.587 1102.98 407.969 1102.98 403.508C1102.98 399.047 1099.13 395.432 1094.39 395.434C1089.65 395.436 1085.81 399.054 1085.81 403.515C1085.82 407.976 1089.66 411.591 1094.4 411.589Z" fill="#1D262D"/>
<path d="M1148.96 403.49C1148.96 407.939 1145.13 411.568 1140.38 411.57C1135.65 411.572 1131.79 407.966 1131.79 403.496C1131.79 399.027 1135.62 395.418 1140.37 395.416C1145.12 395.414 1148.96 399.04 1148.96 403.49Z" stroke="#114A82" stroke-miterlimit="10"/>
<path d="M1094.41 445.04C1099.15 445.038 1102.99 441.42 1102.99 436.959C1102.99 432.498 1099.15 428.884 1094.41 428.886C1089.67 428.887 1085.83 432.505 1085.83 436.966C1085.83 441.427 1089.67 445.042 1094.41 445.04Z" fill="#1D262D"/>
<path d="M1148.97 436.941C1148.97 441.391 1145.14 445.02 1140.39 445.022C1135.66 445.024 1131.81 441.417 1131.81 436.948C1131.8 432.498 1135.64 428.869 1140.38 428.867C1145.13 428.865 1148.97 432.472 1148.97 436.941Z" stroke="#114A82" stroke-miterlimit="10"/>
<path d="M1102.98 470.411C1102.99 474.86 1099.15 478.49 1094.41 478.492C1089.68 478.493 1085.82 474.887 1085.82 470.418C1085.82 465.968 1089.65 462.339 1094.4 462.337C1099.15 462.335 1102.98 465.941 1102.98 470.411Z" fill="#1D262D"/>
<path d="M1148.98 470.392C1148.99 474.842 1145.15 478.471 1140.4 478.473C1135.68 478.475 1131.82 474.869 1131.82 470.399C1131.82 465.95 1135.65 462.321 1140.4 462.319C1145.15 462.317 1148.98 465.923 1148.98 470.392Z" stroke="#114A82" stroke-miterlimit="10"/>
<path d="M1103 503.842C1103 508.292 1099.17 511.921 1094.42 511.923C1089.69 511.925 1085.84 508.319 1085.83 503.849C1085.83 499.4 1089.66 495.77 1094.41 495.768C1099.16 495.766 1103 499.393 1103 503.842Z" fill="#114A82"/>
<path d="M1149 503.824C1149 508.273 1145.17 511.903 1140.42 511.905C1135.69 511.906 1131.83 508.3 1131.83 503.831C1131.83 499.381 1135.66 495.752 1140.41 495.75C1145.16 495.748 1148.99 499.374 1149 503.824Z" stroke="#114A82" stroke-miterlimit="10"/>
<path d="M1103.01 537.294C1103.01 541.743 1099.18 545.372 1094.43 545.374C1089.7 545.376 1085.85 541.77 1085.85 537.301C1085.85 532.851 1089.68 529.222 1094.43 529.22C1099.17 529.218 1103.01 532.824 1103.01 537.294Z" fill="#114A82"/>
<path d="M1149.01 537.275C1149.01 541.725 1145.18 545.354 1140.43 545.356C1135.7 545.358 1131.85 541.752 1131.85 537.282C1131.84 532.833 1135.68 529.203 1140.42 529.201C1145.17 529.2 1149.01 532.806 1149.01 537.275Z" fill="#114A82"/>
<path d="M690.279 646.852L678.928 646.856L678.946 690.61L690.297 690.605L690.279 646.852Z" fill="#1D262D"/>
<path d="M719.114 646.84L707.763 646.845L707.78 690.598L719.131 690.594L719.114 646.84Z" fill="#1D262D"/>
<path d="M747.948 646.829L736.597 646.833L736.615 690.587L747.966 690.582L747.948 646.829Z" fill="#1D262D"/>
<path d="M690.304 709.165L678.953 709.169L678.971 752.923L690.321 752.918L690.304 709.165Z" fill="#1D262D"/>
<path d="M719.139 709.153L707.788 709.158L707.805 752.911L719.156 752.907L719.139 709.153Z" fill="#1D262D"/>
<path d="M719.163 771.446L707.812 771.451L707.83 815.204L719.181 815.2L719.163 771.446Z" fill="#1D262D"/>
<path d="M747.998 771.435L736.647 771.439L736.664 815.193L748.015 815.188L747.998 771.435Z" fill="#1D262D"/>
<path d="M690.354 833.771L679.003 833.775L679.02 877.529L690.371 877.524L690.354 833.771Z" fill="#1D262D"/>
<path d="M748.023 833.748L736.672 833.752L736.689 877.506L748.04 877.501L748.023 833.748Z" fill="#1D262D"/>
<path d="M690.378 896.084L679.028 896.088L679.045 939.842L690.396 939.837L690.378 896.084Z" fill="#1D262D"/>
<path d="M719.213 896.072L707.862 896.077L707.88 939.83L719.23 939.826L719.213 896.072Z" fill="#1D262D"/>
<path d="M690.403 958.397L679.053 958.402L679.07 1002.15L690.421 1002.15L690.403 958.397Z" fill="#1D262D"/>
<path d="M719.238 958.386L707.887 958.39L707.905 1002.14L719.255 1002.14L719.238 958.386Z" fill="#1D262D"/>
<path d="M748.072 958.374L736.722 958.379L736.739 1002.13L748.09 1002.13L748.072 958.374Z" fill="#1D262D"/>
<path d="M736.499 355.291L747.849 355.287L747.832 311.533L736.481 311.538L736.499 355.291Z" fill="#1D262D"/>
<path d="M707.668 355.303L719.019 355.298L719.001 311.545L707.65 311.549L707.668 355.303Z" fill="#1D262D"/>
<path d="M678.837 355.314L690.188 355.31L690.17 311.556L678.819 311.561L678.837 355.314Z" fill="#1D262D"/>
<path d="M736.474 292.987L747.824 292.983L747.807 249.229L736.456 249.234L736.474 292.987Z" fill="#1D262D"/>
<path d="M707.643 292.999L718.994 292.994L718.976 249.241L707.626 249.246L707.643 292.999Z" fill="#1D262D"/>
<path d="M707.618 230.695L718.969 230.69L718.951 186.937L707.601 186.941L707.618 230.695Z" fill="#1D262D"/>
<path d="M678.787 230.706L690.138 230.702L690.12 186.948L678.77 186.953L678.787 230.706Z" fill="#1D262D"/>
<path d="M736.424 168.359L747.775 168.354L747.757 124.601L736.407 124.605L736.424 168.359Z" fill="#1D262D"/>
<path d="M678.762 168.382L690.113 168.377L690.096 124.624L678.745 124.628L678.762 168.382Z" fill="#1D262D"/>
<path d="M736.399 106.055L747.75 106.051L747.733 62.2971L736.382 62.3016L736.399 106.055Z" fill="#1D262D"/>
<path d="M707.569 106.067L718.919 106.062L718.902 62.3086L707.551 62.3131L707.569 106.067Z" fill="#1D262D"/>
<path d="M736.374 43.7509L747.725 43.7463L747.708 -0.00709273L736.357 -0.00256812L736.374 43.7509Z" fill="#1D262D"/>
<path d="M707.544 43.7623L718.894 43.7578L718.877 0.00438188L707.526 0.00890649L707.544 43.7623Z" fill="#1D262D"/>
<path d="M678.713 43.7738L690.063 43.7693L690.046 0.0158565L678.695 0.0203811L678.713 43.7738Z" fill="#1D262D"/>
<path d="M1511.31 581.606C1402.32 581.649 1313.93 498.527 1313.89 395.948C1313.85 293.369 1402.17 210.176 1511.16 210.133" fill="#114A82"/>
<path d="M1291.21 395.957C1291.16 281.593 1389.64 188.835 1511.15 188.787" stroke="#1D262D" stroke-miterlimit="10"/>
<path d="M1511.32 602.952C1389.81 603 1291.26 510.321 1291.21 395.957" stroke="#1D262D" stroke-width="4" stroke-miterlimit="10"/>
<path d="M1291.21 395.957C1291.16 281.593 1389.64 188.835 1511.15 188.787" stroke="#1D262D" stroke-miterlimit="10"/>
<path d="M1511.32 602.952C1389.81 603 1291.26 510.321 1291.21 395.957" stroke="#1D262D" stroke-width="4" stroke-miterlimit="10"/>
<path d="M1270.89 395.965C1270.84 271.038 1378.41 169.719 1511.15 169.666" stroke="#1D262D" stroke-miterlimit="10"/>
<path d="M1511.33 622.072C1378.59 622.125 1270.94 520.892 1270.89 395.965" stroke="#1D262D" stroke-width="4" stroke-miterlimit="10"/>
<path d="M1270.89 395.965C1270.84 271.038 1378.41 169.719 1511.15 169.666" stroke="#1D262D" stroke-miterlimit="10"/>
<path d="M1511.33 622.072C1378.59 622.125 1270.94 520.892 1270.89 395.965" stroke="#1D262D" stroke-width="4" stroke-miterlimit="10"/>
<path d="M1250.66 395.973C1250.61 260.524 1367.22 150.683 1511.14 150.626" stroke="#1D262D" stroke-miterlimit="10"/>
<path d="M1511.34 641.113C1367.42 641.17 1250.72 531.422 1250.66 395.973" stroke="#1D262D" stroke-width="4" stroke-miterlimit="10"/>
<path d="M1228.71 395.982C1228.65 249.128 1355.1 130.024 1511.13 129.961" stroke="#1D262D" stroke-miterlimit="10"/>
<path d="M1511.34 661.777C1355.31 661.839 1228.77 542.836 1228.71 395.982" stroke="#1D262D" stroke-width="4" stroke-miterlimit="10"/>
<path d="M1492.62 19.4728L1212.58 19.5845L1212.61 80.8954L1492.65 80.7838L1492.62 19.4728Z" stroke="#1D262D" stroke-width="2" stroke-miterlimit="10"/>
<path d="M1511.78 -0.317074L1231.74 -0.205444L1231.77 61.1055L1511.81 60.9938L1511.78 -0.317074Z" fill="#114A82"/>
<path d="M1132.9 595.706L1117.46 581.185L1102.03 595.718L1117.47 610.238L1132.9 595.706Z" fill="#1D262D"/>
<path d="M1132.91 645.991L1117.47 631.47L1102.05 646.003L1117.49 660.523L1132.91 645.991Z" fill="#219EBC"/>
<path d="M1132.93 696.276L1117.49 681.755L1102.06 696.288L1117.5 710.809L1132.93 696.276Z" fill="#219EBC"/>
<path d="M1132.96 746.547L1117.52 732.026L1102.09 746.559L1117.53 761.08L1132.96 746.547Z" fill="#1D262D"/>
<path d="M-17.2122 266C29.5786 275.983 64.4981 315.353 64.5168 362.393C64.5371 413.262 23.7511 455.168 -28.7195 460.7" stroke="#1D262D" stroke-width="3" stroke-miterlimit="10" stroke-linecap="round"/>
<path d="M-12.2618 236.916C49.4369 249.177 95.7332 300.689 95.7578 362.401C95.7842 428.722 42.3323 483.32 -26.2587 490.062" stroke="#1D262D" stroke-width="3" stroke-miterlimit="10" stroke-linecap="round"/>
<path d="M-21.3533 294.883C10.3592 302.848 33.7316 330.056 33.7445 362.426C33.7586 397.941 5.63859 427.295 -30.818 431.779" stroke="#1D262D" stroke-width="3" stroke-miterlimit="10" stroke-linecap="round"/>
<path d="M-25.6222 323.807C-8.86013 329.552 3.11412 344.66 3.12121 362.438C3.12928 382.701 -12.4525 399.543 -32.9377 402.939" stroke="#1D262D" stroke-width="3" stroke-miterlimit="10" stroke-linecap="round"/>
<path d="M195.804 252.065L245.253 252.046L245.271 298.585L195.804 252.065Z" fill="#114A82"/>
<path d="M195.841 345.465L245.29 345.445L245.308 392.005L195.841 345.465Z" fill="#114A82"/>
<path d="M195.823 298.905L245.271 298.886L245.29 345.445L195.823 298.905Z" fill="#1D262D"/>
<path d="M358.591 418.436L468.096 315.272" stroke="#1D262D" stroke-width="2" stroke-miterlimit="10"/>
<path d="M385.658 418.425L495.184 315.261" stroke="#1D262D" stroke-width="2" stroke-miterlimit="10"/>
<path d="M412.746 418.414L522.251 315.25" stroke="#219EBC" stroke-width="2" stroke-miterlimit="10"/>
<path d="M439.814 418.404L549.339 315.24" stroke="#114A82" stroke-width="2" stroke-miterlimit="10"/>
<path d="M892.9 732.213L892.992 962.605" stroke="#219EBC" stroke-width="2" stroke-miterlimit="10"/>
<path d="M912.587 703.284L912.69 962.598" stroke="#114A82" stroke-width="2" stroke-miterlimit="10"/>
<path d="M932.274 674.374L932.389 962.59" stroke="#1D262D" stroke-width="2" stroke-miterlimit="10"/>
<path d="M951.961 645.465L952.087 962.582" stroke="#1D262D" stroke-width="2" stroke-miterlimit="10"/>
<path d="M1409.8 922.635C1409.81 928.687 1404.59 933.6 1398.16 933.603C1391.73 933.605 1386.51 928.697 1386.51 922.644C1386.5 916.591 1391.72 911.678 1398.15 911.676C1404.58 911.673 1409.8 916.582 1409.8 922.635Z" fill="#1D262D"/>
<path d="M1446 956.673C1446 962.726 1440.78 967.638 1434.35 967.641C1427.92 967.643 1422.7 962.735 1422.7 956.682C1422.7 950.629 1427.91 945.717 1434.34 945.714C1440.78 945.711 1446 950.62 1446 956.673Z" fill="#1D262D"/>
<path d="M1482.19 990.711C1482.2 996.764 1476.98 1001.68 1470.55 1001.68C1464.12 1001.68 1458.9 996.773 1458.9 990.72C1458.89 984.667 1464.11 979.755 1470.54 979.752C1476.99 979.75 1482.19 984.658 1482.19 990.711Z" fill="#219EBC"/>
<path d="M314.636 -9.86126L199.959 -9.81555L199.988 62.3385L314.665 62.2928L314.636 -9.86126Z" fill="#219EBC"/>
<path d="M1032.63 -0.126056L877.168 -0.0640869L877.178 23.9873L1032.64 23.9253L1032.63 -0.126056Z" fill="#219EBC"/>
<path d="M1032.65 60.0024L877.192 60.0643L877.202 84.1157L1032.66 84.0537L1032.65 60.0024Z" fill="#219EBC"/>
<path d="M1348.08 105.975L1301.01 150.328" stroke="#1D262D" stroke-width="2" stroke-miterlimit="10"/>
<path d="M1348.1 150.31L1301 105.994" stroke="#1D262D" stroke-width="2" stroke-miterlimit="10"/>
<path d="M931.752 540.008C954.645 539.998 973.208 522.514 973.199 500.968C973.191 479.422 954.614 461.952 931.721 461.961L931.752 540.008Z" fill="#219EBC"/>
<path d="M228.11 465.188L202.278 465.198L202.288 489.51L228.119 489.5L228.11 465.188Z" stroke="#219EBC" stroke-width="2" stroke-miterlimit="10"/>
<path d="M275.897 465.169L250.065 465.179L250.075 489.491L275.907 489.481L275.897 465.169Z" stroke="#219EBC" stroke-width="2" stroke-miterlimit="10"/>
<path d="M323.664 465.15L297.832 465.16L297.842 489.472L323.673 489.461L323.664 465.15Z" stroke="#219EBC" stroke-width="2" stroke-miterlimit="10"/>
<path d="M371.451 465.131L345.62 465.141L345.629 489.453L371.461 489.442L371.451 465.131Z" stroke="#219EBC" stroke-width="2" stroke-miterlimit="10"/>
<path d="M419.218 465.111L393.386 465.122L393.396 489.434L419.227 489.423L419.218 465.111Z" stroke="#219EBC" stroke-width="2" stroke-miterlimit="10"/>
<path d="M466.984 465.092L441.152 465.103L441.162 489.415L466.994 489.404L466.984 465.092Z" stroke="#219EBC" stroke-width="2" stroke-miterlimit="10"/>
<path d="M514.772 465.073L488.94 465.084L488.95 489.396L514.782 489.385L514.772 465.073Z" stroke="#219EBC" stroke-width="2" stroke-miterlimit="10"/>
<path d="M228.125 504.852L202.293 504.863L202.303 529.175L228.135 529.164L228.125 504.852Z" stroke="#219EBC" stroke-width="2" stroke-miterlimit="10"/>
<path d="M275.913 504.833L250.081 504.844L250.091 529.156L275.923 529.145L275.913 504.833Z" stroke="#219EBC" stroke-width="2" stroke-miterlimit="10"/>
<path d="M323.679 504.814L297.848 504.825L297.857 529.137L323.689 529.126L323.679 504.814Z" stroke="#219EBC" stroke-width="2" stroke-miterlimit="10"/>
<path d="M371.467 504.795L345.635 504.806L345.645 529.117L371.477 529.107L371.467 504.795Z" stroke="#219EBC" stroke-width="2" stroke-miterlimit="10"/>
<path d="M419.234 504.776L393.402 504.786L393.412 529.098L419.243 529.088L419.234 504.776Z" stroke="#219EBC" stroke-width="2" stroke-miterlimit="10"/>
<path d="M467 504.757L441.168 504.767L441.178 529.079L467.01 529.069L467 504.757Z" stroke="#219EBC" stroke-width="2" stroke-miterlimit="10"/>
<path d="M514.788 504.738L488.956 504.748L488.966 529.06L514.798 529.05L514.788 504.738Z" stroke="#219EBC" stroke-width="2" stroke-miterlimit="10"/>
<path d="M202.27 445.155L228.102 445.145" stroke="#219EBC" stroke-width="2" stroke-miterlimit="10" stroke-linecap="square"/>
<path d="M250.058 445.136L275.868 445.126" stroke="#219EBC" stroke-width="2" stroke-miterlimit="10" stroke-linecap="square"/>
<path d="M551.208 674.494V721.116H562.314V701.632H573.864C575.739 701.632 577.562 702.241 579.061 703.367V703.367C581.116 704.913 582.377 707.293 582.501 709.862L583.046 721.116H594.152V674.494H583.046V692.586H566.597C565.294 692.586 564.062 691.993 563.249 690.974V690.974C562.644 690.216 562.314 689.274 562.314 688.303V674.494H551.208Z" fill="#023047"/>
<path d="M-124.309 753.956L-120.756 742.219H-119.035L-120.031 746.782L-123.854 759.039H-125.562L-124.309 753.956ZM-127.984 742.219L-125.157 753.725L-124.309 759.039H-126.005L-130.344 742.219H-127.984ZM-114.438 753.714L-111.672 742.219H-109.3L-113.627 759.039H-115.323L-114.438 753.714ZM-118.777 742.219L-115.323 753.956L-114.069 759.039H-115.778L-119.465 746.782L-120.473 742.219H-118.777Z" fill="#023047"/>
<path d="M-94.4178 757.226V759.039H-103.895V757.226H-94.4178ZM-103.416 742.219V759.039H-105.788V742.219H-103.416ZM-95.6716 749.451V751.265H-103.895V749.451H-95.6716ZM-94.5407 742.219V744.045H-103.895V742.219H-94.5407Z" fill="#023047"/>
<path d="M-83.4733 742.219H-77.5485C-76.2045 742.219 -75.0696 742.412 -74.1435 742.797C-73.2093 743.182 -72.5005 743.752 -72.017 744.507C-71.5253 745.254 -71.2795 746.174 -71.2795 747.268C-71.2795 748.038 -71.4475 748.742 -71.7834 749.382C-72.1112 750.013 -72.5865 750.552 -73.2093 750.999C-73.8239 751.438 -74.5615 751.765 -75.4219 751.981L-76.0857 752.223H-81.6541L-81.6787 750.41H-77.4747C-76.6225 750.41 -75.9136 750.271 -75.3482 749.994C-74.7827 749.709 -74.3566 749.328 -74.0698 748.85C-73.783 748.373 -73.6396 747.845 -73.6396 747.268C-73.6396 746.621 -73.7748 746.055 -74.0452 745.569C-74.3156 745.084 -74.7418 744.711 -75.3236 744.449C-75.8972 744.179 -76.6389 744.045 -77.5485 744.045H-81.1009V759.039H-83.4733V742.219ZM-73.0127 759.039L-77.3641 751.415L-74.8934 751.403L-70.4805 758.901V759.039H-73.0127Z" fill="#023047"/>
<path d="M-64.535 742.219V759.039H-66.9074V742.219H-64.535Z" fill="#023047"/>
<path d="M-49.8006 754.788C-49.8006 754.395 -49.8661 754.049 -49.9972 753.748C-50.1202 753.44 -50.3414 753.163 -50.661 752.917C-50.9724 752.67 -51.4067 752.435 -51.964 752.212C-52.513 751.989 -53.2096 751.761 -54.0537 751.53C-54.9387 751.284 -55.7377 751.01 -56.4506 750.71C-57.1636 750.402 -57.7741 750.052 -58.2822 749.659C-58.7903 749.266 -59.1795 748.816 -59.4499 748.307C-59.7204 747.799 -59.8556 747.217 -59.8556 746.563C-59.8556 745.908 -59.7122 745.304 -59.4254 744.749C-59.1385 744.195 -58.7288 743.713 -58.1961 743.305C-57.6553 742.889 -57.012 742.566 -56.2663 742.335C-55.5205 742.104 -54.6888 741.988 -53.7709 741.988C-52.427 741.988 -51.2879 742.231 -50.3537 742.716C-49.4113 743.193 -48.6943 743.821 -48.2026 744.599C-47.7109 745.369 -47.465 746.193 -47.465 747.071H-49.8251C-49.8251 746.44 -49.9686 745.881 -50.2554 745.396C-50.5422 744.903 -50.9765 744.518 -51.5583 744.241C-52.1402 743.956 -52.8777 743.813 -53.7709 743.813C-54.615 743.813 -55.3116 743.933 -55.8606 744.172C-56.4097 744.41 -56.8194 744.734 -57.0898 745.142C-57.3521 745.55 -57.4832 746.016 -57.4832 746.54C-57.4832 746.894 -57.4053 747.217 -57.2496 747.51C-57.0857 747.795 -56.8358 748.061 -56.4998 748.307C-56.1556 748.554 -55.7213 748.781 -55.1968 748.989C-54.6642 749.197 -54.0291 749.397 -53.2915 749.59C-52.2754 749.859 -51.3985 750.159 -50.661 750.491C-49.9235 750.822 -49.3171 751.195 -48.8418 751.611C-48.3583 752.019 -48.0018 752.485 -47.7723 753.009C-47.5347 753.525 -47.4159 754.11 -47.4159 754.765C-47.4159 755.45 -47.5634 756.07 -47.8584 756.625C-48.1534 757.179 -48.5754 757.653 -49.1245 758.046C-49.6735 758.438 -50.3332 758.743 -51.1035 758.958C-51.8657 759.166 -52.7179 759.27 -53.6603 759.27C-54.488 759.27 -55.3034 759.162 -56.1065 758.947C-56.9014 758.731 -57.6266 758.408 -58.2822 757.976C-58.9296 757.545 -59.4499 757.014 -59.8433 756.382C-60.2284 755.743 -60.421 755.004 -60.421 754.164H-58.0609C-58.0609 754.742 -57.9421 755.239 -57.7044 755.654C-57.4668 756.063 -57.1431 756.401 -56.7334 756.671C-56.3154 756.941 -55.8442 757.141 -55.3198 757.272C-54.7871 757.395 -54.2339 757.457 -53.6603 757.457C-52.8326 757.457 -52.132 757.349 -51.5583 757.133C-50.9847 756.917 -50.5504 756.609 -50.2554 756.209C-49.9522 755.808 -49.8006 755.335 -49.8006 754.788Z" fill="#023047"/>
<path d="M-32.1406 757.226V759.039H-41.6179V757.226H-32.1406ZM-41.1385 742.219V759.039H-43.5109V742.219H-41.1385ZM-33.3944 749.451V751.265H-41.6179V749.451H-33.3944ZM-32.2635 742.219V744.045H-41.6179V742.219H-32.2635Z" fill="#023047"/>
<path d="M-14.8165 751.172H-19.3523L-19.3769 749.382H-15.259C-14.5788 749.382 -13.9847 749.274 -13.4766 749.058C-12.9685 748.843 -12.5752 748.534 -12.2965 748.134C-12.0097 747.726 -11.8663 747.241 -11.8663 746.678C-11.8663 746.062 -11.9933 745.562 -12.2474 745.177C-12.4932 744.784 -12.8743 744.499 -13.3906 744.322C-13.8986 744.137 -14.546 744.045 -15.3327 744.045H-18.8237V759.039H-21.1961V742.219H-15.3327C-14.4149 742.219 -13.5954 742.308 -12.8743 742.485C-12.1531 742.654 -11.5426 742.924 -11.0427 743.294C-10.5347 743.656 -10.1495 744.118 -9.88728 744.68C-9.62504 745.242 -9.49393 745.916 -9.49393 746.702C-9.49393 747.395 -9.68241 748.022 -10.0594 748.585C-10.4363 749.139 -10.9608 749.593 -11.6328 749.948C-12.2965 750.302 -13.0751 750.529 -13.9683 750.629L-14.8165 751.172ZM-14.9271 759.039H-20.2865L-18.9466 757.226H-14.9271C-14.1732 757.226 -13.534 757.102 -13.0095 756.856C-12.4768 756.609 -12.0712 756.263 -11.7926 755.816C-11.5139 755.362 -11.3746 754.827 -11.3746 754.21C-11.3746 753.587 -11.4935 753.047 -11.7311 752.593C-11.9688 752.139 -12.3416 751.788 -12.8497 751.542C-13.3578 751.295 -14.0134 751.172 -14.8165 751.172H-18.1968L-18.1722 749.382H-13.5504L-13.0464 750.029C-12.1859 750.098 -11.4566 750.329 -10.8584 750.722C-10.2601 751.107 -9.80533 751.6 -9.49393 752.2C-9.17433 752.801 -9.01453 753.463 -9.01453 754.187C-9.01453 755.235 -9.26037 756.12 -9.75206 756.844C-10.2356 757.561 -10.9198 758.107 -11.8049 758.485C-12.6899 758.854 -13.7306 759.039 -14.9271 759.039Z" fill="#023047"/>
<path d="M-4.49493 742.219L0.151522 750.664L4.81027 742.219H7.50226L1.33157 752.755V759.039H-1.04082V752.755L-7.21151 742.219H-4.49493Z" fill="#023047"/>
<path d="M28.6616 757.226V759.039H19.7128V757.226H28.6616ZM20.1799 742.219V759.039H17.8075V742.219H20.1799Z" fill="#023047"/>
<path d="M34.8037 742.219V759.039H32.4313V742.219H34.8037Z" fill="#023047"/>
<path d="M42.3718 742.219V759.039H39.9994V742.219H42.3718ZM49.87 749.786V751.611H41.8555V749.786H49.87ZM51.087 742.219V744.045H41.8555V742.219H51.087Z" fill="#023047"/>
<path d="M61.6543 742.219V759.039H59.3188V742.219H61.6543ZM67.4071 742.219V744.045H53.5784V742.219H67.4071Z" fill="#023047"/>
<path d="M73.4878 742.219V759.039H71.1154V742.219H73.4878Z" fill="#023047"/>
<path d="M92.4507 742.219V759.039H90.066L81.0559 746.066V759.039H78.6835V742.219H81.0559L90.1029 755.227V742.219H92.4507Z" fill="#023047"/>
<path d="M110.762 750.664V756.821C110.541 757.129 110.189 757.476 109.705 757.861C109.222 758.238 108.554 758.569 107.701 758.854C106.857 759.132 105.767 759.27 104.432 759.27C103.342 759.27 102.338 759.093 101.42 758.739C100.51 758.377 99.7197 757.853 99.0477 757.168C98.3839 756.475 97.8677 755.635 97.4989 754.649C97.1383 753.656 96.958 752.531 96.958 751.276V749.971C96.958 748.715 97.1137 747.595 97.4251 746.609C97.7447 745.623 98.2118 744.788 98.8265 744.102C99.4411 743.409 100.195 742.885 101.088 742.531C101.981 742.169 103.006 741.988 104.161 741.988C105.53 741.988 106.673 742.212 107.591 742.658C108.517 743.097 109.238 743.706 109.754 744.483C110.279 745.261 110.615 746.147 110.762 747.14H108.39C108.283 746.532 108.07 745.978 107.751 745.477C107.439 744.976 106.993 744.576 106.411 744.276C105.829 743.967 105.079 743.813 104.161 743.813C103.334 743.813 102.617 743.956 102.01 744.241C101.404 744.526 100.904 744.934 100.51 745.465C100.117 745.997 99.8221 746.64 99.6254 747.395C99.437 748.149 99.3427 749 99.3427 749.948V751.276C99.3427 752.247 99.4616 753.113 99.6992 753.875C99.945 754.638 100.293 755.289 100.744 755.828C101.195 756.359 101.732 756.763 102.354 757.041C102.985 757.318 103.682 757.457 104.444 757.457C105.288 757.457 105.972 757.391 106.497 757.26C107.021 757.122 107.431 756.96 107.726 756.775C108.021 756.582 108.246 756.401 108.402 756.232V752.466H104.26V750.664H110.762Z" fill="#023047"/>
<path d="M136.482 750.098V751.161C136.482 752.424 136.314 753.556 135.978 754.557C135.642 755.558 135.158 756.409 134.527 757.11C133.896 757.811 133.138 758.346 132.253 758.716C131.377 759.085 130.393 759.27 129.303 759.27C128.246 759.27 127.275 759.085 126.39 758.716C125.513 758.346 124.751 757.811 124.104 757.11C123.464 756.409 122.969 755.558 122.616 754.557C122.264 753.556 122.088 752.424 122.088 751.161V750.098C122.088 748.835 122.26 747.707 122.604 746.713C122.956 745.712 123.452 744.861 124.091 744.16C124.731 743.451 125.489 742.912 126.365 742.543C127.25 742.173 128.222 741.988 129.279 741.988C130.369 741.988 131.352 742.173 132.229 742.543C133.114 742.912 133.872 743.451 134.503 744.16C135.142 744.861 135.63 745.712 135.966 746.713C136.31 747.707 136.482 748.835 136.482 750.098ZM134.134 751.161V750.075C134.134 749.074 134.023 748.188 133.802 747.418C133.589 746.648 133.274 746.001 132.856 745.477C132.438 744.953 131.926 744.557 131.319 744.287C130.721 744.018 130.041 743.883 129.279 743.883C128.541 743.883 127.873 744.018 127.275 744.287C126.685 744.557 126.177 744.953 125.751 745.477C125.333 746.001 125.009 746.648 124.78 747.418C124.55 748.188 124.436 749.074 124.436 750.075V751.161C124.436 752.17 124.55 753.063 124.78 753.841C125.009 754.611 125.337 755.262 125.763 755.793C126.197 756.317 126.71 756.713 127.3 756.983C127.898 757.252 128.566 757.387 129.303 757.387C130.074 757.387 130.758 757.252 131.356 756.983C131.954 756.713 132.458 756.317 132.868 755.793C133.286 755.262 133.601 754.611 133.814 753.841C134.028 753.063 134.134 752.17 134.134 751.161Z" fill="#023047"/>
<path d="M147.184 742.219V759.039H144.849V742.219H147.184ZM152.937 742.219V744.045H139.108V742.219H152.937Z" fill="#023047"/>
<path d="M168.163 749.451V751.265H158.477V749.451H168.163ZM158.846 742.219V759.039H156.473V742.219H158.846ZM170.228 742.219V759.039H167.868V742.219H170.228Z" fill="#023047"/>
<path d="M186.696 757.226V759.039H177.219V757.226H186.696ZM177.698 742.219V759.039H175.326V742.219H177.698ZM185.442 749.451V751.265H177.219V749.451H185.442ZM186.573 742.219V744.045H177.219V742.219H186.573Z" fill="#023047"/>
<path d="M190.515 742.219H196.44C197.784 742.219 198.919 742.412 199.845 742.797C200.779 743.182 201.488 743.752 201.971 744.507C202.463 745.254 202.709 746.174 202.709 747.268C202.709 748.038 202.541 748.742 202.205 749.382C201.877 750.013 201.402 750.552 200.779 750.999C200.164 751.438 199.427 751.765 198.566 751.981L197.903 752.223H192.334L192.31 750.41H196.514C197.366 750.41 198.075 750.271 198.64 749.994C199.206 749.709 199.632 749.328 199.919 748.85C200.205 748.373 200.349 747.845 200.349 747.268C200.349 746.621 200.214 746.055 199.943 745.569C199.673 745.084 199.247 744.711 198.665 744.449C198.091 744.179 197.349 744.045 196.44 744.045H192.887V759.039H190.515V742.219ZM200.976 759.039L196.624 751.415L199.095 751.403L203.508 758.901V759.039H200.976Z" fill="#023047"/>
<path d="M216.448 754.788C216.448 754.395 216.382 754.049 216.251 753.748C216.128 753.44 215.907 753.163 215.587 752.917C215.276 752.67 214.841 752.435 214.284 752.212C213.735 751.989 213.039 751.761 212.194 751.53C211.309 751.284 210.51 751.01 209.798 750.71C209.085 750.402 208.474 750.052 207.966 749.659C207.458 749.266 207.069 748.816 206.798 748.307C206.528 747.799 206.393 747.217 206.393 746.563C206.393 745.908 206.536 745.304 206.823 744.749C207.11 744.195 207.519 743.713 208.052 743.305C208.593 742.889 209.236 742.566 209.982 742.335C210.728 742.104 211.559 741.988 212.477 741.988C213.821 741.988 214.96 742.231 215.894 742.716C216.837 743.193 217.554 743.821 218.046 744.599C218.537 745.369 218.783 746.193 218.783 747.071H216.423C216.423 746.44 216.28 745.881 215.993 745.396C215.706 744.903 215.272 744.518 214.69 744.241C214.108 743.956 213.37 743.813 212.477 743.813C211.633 743.813 210.937 743.933 210.388 744.172C209.838 744.41 209.429 744.734 209.158 745.142C208.896 745.55 208.765 746.016 208.765 746.54C208.765 746.894 208.843 747.217 208.999 747.51C209.162 747.795 209.412 748.061 209.748 748.307C210.093 748.554 210.527 748.781 211.051 748.989C211.584 749.197 212.219 749.397 212.957 749.59C213.973 749.859 214.85 750.159 215.587 750.491C216.325 750.822 216.931 751.195 217.406 751.611C217.89 752.019 218.246 752.485 218.476 753.009C218.713 753.525 218.832 754.11 218.832 754.765C218.832 755.45 218.685 756.07 218.39 756.625C218.095 757.179 217.673 757.653 217.124 758.046C216.575 758.438 215.915 758.743 215.145 758.958C214.383 759.166 213.53 759.27 212.588 759.27C211.76 759.27 210.945 759.162 210.142 758.947C209.347 758.731 208.622 758.408 207.966 757.976C207.319 757.545 206.798 757.014 206.405 756.382C206.02 755.743 205.827 755.004 205.827 754.164H208.187C208.187 754.742 208.306 755.239 208.544 755.654C208.781 756.063 209.105 756.401 209.515 756.671C209.933 756.941 210.404 757.141 210.928 757.272C211.461 757.395 212.014 757.457 212.588 757.457C213.416 757.457 214.116 757.349 214.69 757.133C215.263 756.917 215.698 756.609 215.993 756.209C216.296 755.808 216.448 755.335 216.448 754.788Z" fill="#023047"/>
<path d="M222.43 757.907C222.43 757.545 222.549 757.241 222.786 756.994C223.032 756.74 223.385 756.613 223.844 756.613C224.302 756.613 224.651 756.74 224.888 756.994C225.134 757.241 225.257 757.545 225.257 757.907C225.257 758.261 225.134 758.562 224.888 758.808C224.651 759.055 224.302 759.178 223.844 759.178C223.385 759.178 223.032 759.055 222.786 758.808C222.549 758.562 222.43 758.261 222.43 757.907Z" fill="#023047"/>
<path d="M422.374 674.494V682.844H436.442V721.116H448.288V682.844H462.356V674.494H422.374Z" fill="#023047"/>
<path d="M543.433 685.627V675.19L534.548 673.798H526.68C524.54 673.798 522.393 674.206 520.399 674.983V674.983C512.83 677.933 507.012 684.341 504.893 692.184L504.559 693.416C503.13 698.706 503.703 704.338 506.17 709.231V709.231C509.95 716.732 517.634 721.463 526.033 721.463H532.744C535.172 721.463 537.59 721.169 539.947 720.586L543.433 719.724V709.982L536.836 711.651C534.825 712.16 532.758 712.417 530.683 712.417H529.365C520.553 712.417 513.943 704.358 515.667 695.717V695.717V695.717C516.054 687.176 524.044 681.044 532.394 682.881L533.807 683.192L543.433 685.627Z" fill="#023047"/>
<path fill-rule="evenodd" clip-rule="evenodd" d="M103.991 594.471V716.592H133.238V670.319H143.944C147.168 670.319 150.146 672.044 151.748 674.842V674.842L178.774 716.592H212.833L196.174 691.542L183.477 674.14C180.123 669.543 175.963 665.592 171.199 662.477V662.477C170.605 662.089 170.638 661.207 171.26 660.864L182.148 654.854C189.241 650.939 194.521 644.404 196.86 636.647V636.647C201.8 620.263 192.54 602.973 176.165 598.003L174.125 597.384C171.557 596.605 168.904 596.14 166.224 596L136.94 594.471H103.991ZM133.608 648.747V614.999L152.916 615.873C159.669 616.179 165.395 620.94 166.927 627.524V627.524L167.098 629.24C167.685 635.126 165.301 640.918 160.74 644.684V644.684C157.56 647.311 153.565 648.747 149.44 648.747H133.608Z" fill="#023047"/>
<path fill-rule="evenodd" clip-rule="evenodd" d="M11.0676 596.211H84.3697V617.782H11.0676V596.211ZM11.0676 692.238H84.3697V713.809H11.0676V692.238ZM84.3697 644.224H11.0676V665.796H84.3697V644.224Z" fill="#219EBC"/>
<path fill-rule="evenodd" clip-rule="evenodd" d="M464.948 674.842H500.488V683.266H464.948V674.842ZM464.948 712.343H500.488V720.768H464.948V712.343ZM500.488 693.592H464.948V702.017H500.488V693.592Z" fill="#219EBC"/>
<path d="M342.778 655.01C342.778 687.484 314.932 713.809 280.582 713.809C246.233 713.809 218.387 687.484 218.387 655.01C218.387 622.536 246.233 596.211 280.582 596.211C314.932 596.211 342.778 622.536 342.778 655.01ZM239.87 655.01C239.87 676.267 258.098 693.499 280.582 693.499C303.067 693.499 321.295 676.267 321.295 655.01C321.295 633.753 303.067 616.521 280.582 616.521C258.098 616.521 239.87 633.753 239.87 655.01Z" fill="#219EBC"/>
<path d="M495.636 669.355C498.772 657.642 497.993 645.305 493.405 634.022C488.818 622.739 480.644 613.058 469.996 606.294C459.348 599.531 446.742 596.013 433.891 596.219C421.041 596.426 408.57 600.347 398.174 607.449C387.778 614.55 379.961 624.489 375.787 635.912C371.613 647.336 371.283 659.691 374.843 671.297C378.403 682.903 385.68 693.197 395.684 700.779C405.688 708.362 420.657 712.998 433.48 713.809V693.63C425.101 693.099 415.834 689.871 409.297 684.917C402.76 679.962 398.005 673.236 395.679 665.652C393.353 658.069 393.568 649.996 396.295 642.531C399.023 635.067 404.131 628.573 410.923 623.932C417.716 619.292 425.865 616.73 434.262 616.595C442.659 616.46 450.896 618.759 457.854 623.178C464.811 627.598 470.152 633.924 473.15 641.296C476.147 648.669 475.882 661.702 473.833 669.355L495.636 669.355Z" fill="#219EBC"/>
<path d="M1394.08 876.217L1397.63 864.48H1399.35L1398.36 869.043L1394.54 881.3H1392.83L1394.08 876.217ZM1390.41 864.48L1393.23 875.986L1394.08 881.3H1392.38L1388.04 864.48H1390.41ZM1403.95 875.975L1406.72 864.48H1409.09L1404.76 881.3H1403.07L1403.95 875.975ZM1399.61 864.48L1403.07 876.217L1404.32 881.3H1402.61L1398.92 869.043L1397.92 864.48H1399.61Z" fill="#023047"/>
<path d="M1423.97 879.487V881.3H1414.49V879.487H1423.97ZM1414.97 864.48V881.3H1412.6V864.48H1414.97ZM1422.72 871.712V873.526H1414.49V871.712H1422.72ZM1423.85 864.48V866.306H1414.49V864.48H1423.85Z" fill="#023047"/>
<path d="M1434.92 864.48H1440.84C1442.18 864.48 1443.32 864.673 1444.25 865.058C1445.18 865.443 1445.89 866.013 1446.37 866.768C1446.86 867.515 1447.11 868.435 1447.11 869.529C1447.11 870.299 1446.94 871.003 1446.61 871.643C1446.28 872.274 1445.8 872.813 1445.18 873.26C1444.56 873.699 1443.83 874.026 1442.97 874.242L1442.3 874.485H1436.73L1436.71 872.671H1440.91C1441.77 872.671 1442.48 872.532 1443.04 872.255C1443.61 871.97 1444.03 871.589 1444.32 871.111C1444.61 870.634 1444.75 870.106 1444.75 869.529C1444.75 868.882 1444.61 868.316 1444.34 867.83C1444.07 867.345 1443.65 866.972 1443.07 866.71C1442.49 866.44 1441.75 866.306 1440.84 866.306H1437.29V881.3H1434.92V864.48ZM1445.38 881.3L1441.02 873.676L1443.5 873.664L1447.91 881.162V881.3H1445.38Z" fill="#023047"/>
<path d="M1453.85 864.48V881.3H1451.48V864.48H1453.85Z" fill="#023047"/>
<path d="M1468.59 877.049C1468.59 876.656 1468.52 876.31 1468.39 876.009C1468.27 875.701 1468.05 875.424 1467.73 875.178C1467.42 874.931 1466.98 874.696 1466.42 874.473C1465.88 874.25 1465.18 874.022 1464.34 873.791C1463.45 873.545 1462.65 873.272 1461.94 872.971C1461.23 872.663 1460.61 872.313 1460.11 871.92C1459.6 871.527 1459.21 871.077 1458.94 870.568C1458.67 870.06 1458.53 869.479 1458.53 868.824C1458.53 868.169 1458.68 867.565 1458.96 867.01C1459.25 866.456 1459.66 865.974 1460.19 865.566C1460.73 865.15 1461.38 864.827 1462.12 864.596C1462.87 864.365 1463.7 864.249 1464.62 864.249C1465.96 864.249 1467.1 864.492 1468.04 864.977C1468.98 865.455 1469.69 866.082 1470.19 866.86C1470.68 867.63 1470.92 868.454 1470.92 869.332H1468.56C1468.56 868.701 1468.42 868.142 1468.13 867.657C1467.85 867.164 1467.41 866.779 1466.83 866.502C1466.25 866.217 1465.51 866.075 1464.62 866.075C1463.77 866.075 1463.08 866.194 1462.53 866.433C1461.98 866.671 1461.57 866.995 1461.3 867.403C1461.04 867.811 1460.91 868.277 1460.91 868.801C1460.91 869.155 1460.98 869.479 1461.14 869.771C1461.3 870.056 1461.55 870.322 1461.89 870.568C1462.23 870.815 1462.67 871.042 1463.19 871.25C1463.72 871.458 1464.36 871.658 1465.1 871.851C1466.11 872.12 1466.99 872.421 1467.73 872.752C1468.47 873.083 1469.07 873.456 1469.55 873.872C1470.03 874.28 1470.39 874.746 1470.62 875.27C1470.85 875.786 1470.97 876.371 1470.97 877.026C1470.97 877.711 1470.83 878.331 1470.53 878.886C1470.24 879.44 1469.81 879.914 1469.26 880.307C1468.72 880.7 1468.06 881.004 1467.29 881.219C1466.52 881.427 1465.67 881.531 1464.73 881.531C1463.9 881.531 1463.09 881.424 1462.28 881.208C1461.49 880.992 1460.76 880.669 1460.11 880.238C1459.46 879.806 1458.94 879.275 1458.55 878.643C1458.16 878.004 1457.97 877.265 1457.97 876.425H1460.33C1460.33 877.003 1460.45 877.5 1460.68 877.916C1460.92 878.324 1461.25 878.663 1461.66 878.932C1462.07 879.202 1462.54 879.402 1463.07 879.533C1463.6 879.656 1464.15 879.718 1464.73 879.718C1465.56 879.718 1466.26 879.61 1466.83 879.394C1467.4 879.179 1467.84 878.871 1468.13 878.47C1468.44 878.07 1468.59 877.596 1468.59 877.049Z" fill="#023047"/>
<path d="M1486.25 879.487V881.3H1476.77V879.487H1486.25ZM1477.25 864.48V881.3H1474.88V864.48H1477.25ZM1484.99 871.712V873.526H1476.77V871.712H1484.99ZM1486.13 864.48V866.306H1476.77V864.48H1486.13Z" fill="#023047"/>
<path d="M1503.57 873.433H1499.04L1499.01 871.643H1503.13C1503.81 871.643 1504.4 871.535 1504.91 871.319C1505.42 871.104 1505.81 870.796 1506.09 870.395C1506.38 869.987 1506.52 869.502 1506.52 868.94C1506.52 868.323 1506.4 867.823 1506.14 867.438C1505.9 867.045 1505.51 866.76 1505 866.583C1504.49 866.398 1503.84 866.306 1503.06 866.306H1499.57V881.3H1497.19V864.48H1503.06C1503.97 864.48 1504.79 864.569 1505.51 864.746C1506.24 864.916 1506.85 865.185 1507.35 865.555C1507.85 865.917 1508.24 866.379 1508.5 866.941C1508.76 867.503 1508.89 868.177 1508.89 868.963C1508.89 869.656 1508.71 870.283 1508.33 870.846C1507.95 871.4 1507.43 871.854 1506.76 872.209C1506.09 872.563 1505.31 872.79 1504.42 872.89L1503.57 873.433ZM1503.46 881.3H1498.1L1499.44 879.487H1503.46C1504.22 879.487 1504.85 879.363 1505.38 879.117C1505.91 878.871 1506.32 878.524 1506.6 878.077C1506.87 877.623 1507.01 877.088 1507.01 876.472C1507.01 875.848 1506.9 875.309 1506.66 874.854C1506.42 874.4 1506.05 874.049 1505.54 873.803C1505.03 873.557 1504.38 873.433 1503.57 873.433H1500.19L1500.22 871.643H1504.84L1505.34 872.29C1506.2 872.359 1506.93 872.59 1507.53 872.983C1508.13 873.368 1508.58 873.861 1508.89 874.461C1509.21 875.062 1509.37 875.724 1509.37 876.448C1509.37 877.496 1509.13 878.381 1508.64 879.105C1508.15 879.822 1507.47 880.368 1506.58 880.746C1505.7 881.115 1504.66 881.3 1503.46 881.3Z" fill="#023047"/>
<path d="M1513.89 864.48L1518.54 872.925L1523.2 864.48H1525.89L1519.72 875.016V881.3H1517.35V875.016L1511.18 864.48H1513.89Z" fill="#023047"/>
<path d="M1547.05 879.487V881.3H1538.1V879.487H1547.05ZM1538.57 864.48V881.3H1536.2V864.48H1538.57Z" fill="#023047"/>
<path d="M1553.19 864.48V881.3H1550.82V864.48H1553.19Z" fill="#023047"/>
<path d="M1560.76 864.48V881.3H1558.39V864.48H1560.76ZM1568.26 872.047V873.872H1560.24V872.047H1568.26ZM1569.48 864.48V866.306H1560.24V864.48H1569.48Z" fill="#023047"/>
<path d="M1580.04 864.48V881.3H1577.71V864.48H1580.04ZM1585.8 864.48V866.306H1571.97V864.48H1585.8Z" fill="#023047"/>
<path d="M1591.88 864.48V881.3H1589.5V864.48H1591.88Z" fill="#023047"/>
<path d="M1610.84 864.48V881.3H1608.45L1599.44 868.327V881.3H1597.07V864.48H1599.44L1608.49 877.488V864.48H1610.84Z" fill="#023047"/>
<path d="M1629.15 872.925V879.082C1628.93 879.39 1628.58 879.737 1628.09 880.122C1627.61 880.499 1626.94 880.831 1626.09 881.115C1625.25 881.393 1624.16 881.531 1622.82 881.531C1621.73 881.531 1620.73 881.354 1619.81 881C1618.9 880.638 1618.11 880.114 1617.44 879.429C1616.77 878.736 1616.26 877.896 1615.89 876.91C1615.53 875.917 1615.35 874.793 1615.35 873.537V872.232C1615.35 870.977 1615.5 869.856 1615.81 868.87C1616.13 867.884 1616.6 867.049 1617.22 866.363C1617.83 865.67 1618.58 865.147 1619.48 864.792C1620.37 864.43 1621.39 864.249 1622.55 864.249C1623.92 864.249 1625.06 864.473 1625.98 864.919C1626.91 865.358 1627.63 865.967 1628.14 866.745C1628.67 867.522 1629 868.408 1629.15 869.402H1626.78C1626.67 868.793 1626.46 868.239 1626.14 867.738C1625.83 867.237 1625.38 866.837 1624.8 866.537C1624.22 866.229 1623.47 866.075 1622.55 866.075C1621.72 866.075 1621.01 866.217 1620.4 866.502C1619.79 866.787 1619.29 867.195 1618.9 867.727C1618.51 868.258 1618.21 868.901 1618.01 869.656C1617.83 870.41 1617.73 871.261 1617.73 872.209V873.537C1617.73 874.508 1617.85 875.374 1618.09 876.136C1618.33 876.899 1618.68 877.55 1619.13 878.089C1619.58 878.62 1620.12 879.025 1620.74 879.302C1621.37 879.579 1622.07 879.718 1622.83 879.718C1623.68 879.718 1624.36 879.652 1624.89 879.521C1625.41 879.383 1625.82 879.221 1626.11 879.036C1626.41 878.844 1626.64 878.663 1626.79 878.493V874.727H1622.65V872.925H1629.15Z" fill="#023047"/>
<path d="M1654.87 872.359V873.422C1654.87 874.685 1654.7 875.817 1654.37 876.818C1654.03 877.819 1653.55 878.67 1652.92 879.371C1652.29 880.072 1651.53 880.607 1650.64 880.977C1649.77 881.347 1648.78 881.531 1647.69 881.531C1646.64 881.531 1645.66 881.347 1644.78 880.977C1643.9 880.607 1643.14 880.072 1642.49 879.371C1641.85 878.67 1641.36 877.819 1641.01 876.818C1640.65 875.817 1640.48 874.685 1640.48 873.422V872.359C1640.48 871.096 1640.65 869.968 1640.99 868.974C1641.35 867.973 1641.84 867.122 1642.48 866.421C1643.12 865.713 1643.88 865.174 1644.75 864.804C1645.64 864.434 1646.61 864.249 1647.67 864.249C1648.76 864.249 1649.74 864.434 1650.62 864.804C1651.5 865.174 1652.26 865.713 1652.89 866.421C1653.53 867.122 1654.02 867.973 1654.35 868.974C1654.7 869.968 1654.87 871.096 1654.87 872.359ZM1652.52 873.422V872.336C1652.52 871.335 1652.41 870.449 1652.19 869.679C1651.98 868.909 1651.66 868.262 1651.24 867.738C1650.83 867.214 1650.31 866.818 1649.71 866.548C1649.11 866.279 1648.43 866.144 1647.67 866.144C1646.93 866.144 1646.26 866.279 1645.66 866.548C1645.07 866.818 1644.57 867.214 1644.14 867.738C1643.72 868.262 1643.4 868.909 1643.17 869.679C1642.94 870.449 1642.82 871.335 1642.82 872.336V873.422C1642.82 874.431 1642.94 875.324 1643.17 876.102C1643.4 876.872 1643.73 877.523 1644.15 878.054C1644.59 878.578 1645.1 878.974 1645.69 879.244C1646.29 879.514 1646.95 879.648 1647.69 879.648C1648.46 879.648 1649.15 879.514 1649.74 879.244C1650.34 878.974 1650.85 878.578 1651.26 878.054C1651.67 877.523 1651.99 876.872 1652.2 876.102C1652.42 875.324 1652.52 874.431 1652.52 873.422Z" fill="#023047"/>
<path d="M1665.57 864.48V881.3H1663.24V864.48H1665.57ZM1671.33 864.48V866.306H1657.5V864.48H1671.33Z" fill="#023047"/>
<path d="M1686.55 871.712V873.526H1676.87V871.712H1686.55ZM1677.23 864.48V881.3H1674.86V864.48H1677.23ZM1688.62 864.48V881.3H1686.26V864.48H1688.62Z" fill="#023047"/>
<path d="M1705.08 879.487V881.3H1695.61V879.487H1705.08ZM1696.09 864.48V881.3H1693.71V864.48H1696.09ZM1703.83 871.712V873.526H1695.61V871.712H1703.83ZM1704.96 864.48V866.306H1695.61V864.48H1704.96Z" fill="#023047"/>
<path d="M1708.9 864.48H1714.83C1716.17 864.48 1717.31 864.673 1718.23 865.058C1719.17 865.443 1719.88 866.013 1720.36 866.768C1720.85 867.515 1721.1 868.435 1721.1 869.529C1721.1 870.299 1720.93 871.003 1720.59 871.643C1720.27 872.274 1719.79 872.813 1719.17 873.26C1718.55 873.699 1717.82 874.026 1716.96 874.242L1716.29 874.485H1710.72L1710.7 872.671H1714.9C1715.75 872.671 1716.46 872.532 1717.03 872.255C1717.59 871.97 1718.02 871.589 1718.31 871.111C1718.59 870.634 1718.74 870.106 1718.74 869.529C1718.74 868.882 1718.6 868.316 1718.33 867.83C1718.06 867.345 1717.64 866.972 1717.05 866.71C1716.48 866.44 1715.74 866.306 1714.83 866.306H1711.28V881.3H1708.9V864.48ZM1719.36 881.3L1715.01 873.676L1717.48 873.664L1721.9 881.162V881.3H1719.36Z" fill="#023047"/>
<path d="M1734.84 877.049C1734.84 876.656 1734.77 876.31 1734.64 876.009C1734.52 875.701 1734.3 875.424 1733.98 875.178C1733.66 874.931 1733.23 874.696 1732.67 874.473C1732.12 874.25 1731.43 874.022 1730.58 873.791C1729.7 873.545 1728.9 873.272 1728.19 872.971C1727.47 872.663 1726.86 872.313 1726.35 871.92C1725.85 871.527 1725.46 871.077 1725.19 870.568C1724.92 870.06 1724.78 869.479 1724.78 868.824C1724.78 868.169 1724.92 867.565 1725.21 867.01C1725.5 866.456 1725.91 865.974 1726.44 865.566C1726.98 865.15 1727.63 864.827 1728.37 864.596C1729.12 864.365 1729.95 864.249 1730.87 864.249C1732.21 864.249 1733.35 864.492 1734.28 864.977C1735.23 865.455 1735.94 866.082 1736.43 866.86C1736.93 867.63 1737.17 868.454 1737.17 869.332H1734.81C1734.81 868.701 1734.67 868.142 1734.38 867.657C1734.09 867.164 1733.66 866.779 1733.08 866.502C1732.5 866.217 1731.76 866.075 1730.87 866.075C1730.02 866.075 1729.33 866.194 1728.78 866.433C1728.23 866.671 1727.82 866.995 1727.55 867.403C1727.28 867.811 1727.15 868.277 1727.15 868.801C1727.15 869.155 1727.23 869.479 1727.39 869.771C1727.55 870.056 1727.8 870.322 1728.14 870.568C1728.48 870.815 1728.92 871.042 1729.44 871.25C1729.97 871.458 1730.61 871.658 1731.35 871.851C1732.36 872.12 1733.24 872.421 1733.98 872.752C1734.71 873.083 1735.32 873.456 1735.8 873.872C1736.28 874.28 1736.64 874.746 1736.86 875.27C1737.1 875.786 1737.22 876.371 1737.22 877.026C1737.22 877.711 1737.07 878.331 1736.78 878.886C1736.48 879.44 1736.06 879.914 1735.51 880.307C1734.96 880.7 1734.3 881.004 1733.53 881.219C1732.77 881.427 1731.92 881.531 1730.98 881.531C1730.15 881.531 1729.33 881.424 1728.53 881.208C1727.74 880.992 1727.01 880.669 1726.35 880.238C1725.71 879.806 1725.19 879.275 1724.79 878.643C1724.41 878.004 1724.22 877.265 1724.22 876.425H1726.58C1726.58 877.003 1726.69 877.5 1726.93 877.916C1727.17 878.324 1727.49 878.663 1727.9 878.932C1728.32 879.202 1728.79 879.402 1729.32 879.533C1729.85 879.656 1730.4 879.718 1730.98 879.718C1731.8 879.718 1732.51 879.61 1733.08 879.394C1733.65 879.179 1734.09 878.871 1734.38 878.47C1734.68 878.07 1734.84 877.596 1734.84 877.049Z" fill="#023047"/>
<path d="M1740.82 880.168C1740.82 879.806 1740.94 879.502 1741.18 879.256C1741.42 879.001 1741.77 878.874 1742.23 878.874C1742.69 878.874 1743.04 879.001 1743.28 879.256C1743.52 879.502 1743.65 879.806 1743.65 880.168C1743.65 880.522 1743.52 880.823 1743.28 881.069C1743.04 881.316 1742.69 881.439 1742.23 881.439C1741.77 881.439 1741.42 881.316 1741.18 881.069C1740.94 880.823 1740.82 880.522 1740.82 880.168Z" fill="#023047"/>
<path fill-rule="evenodd" clip-rule="evenodd" d="M1387.3 717.08V838.854H1433.85C1445.12 838.854 1456.23 836.437 1466.36 831.789L1474.03 828.266C1480.25 825.408 1485.5 820.966 1489.17 815.446L1492.51 810.424C1497.58 802.796 1500.81 794.213 1501.96 785.284L1502.62 780.12C1506.75 748.097 1481.51 719.352 1447.27 717.08H1387.3ZM1440.24 739.347H1416.91V816.586H1432.32C1437.72 816.586 1443.22 816.413 1448.26 814.464C1461.56 809.323 1470.81 797.282 1471.38 783.324L1471.7 775.531L1471.51 771.197C1470.77 754.825 1457.54 741.355 1440.24 739.347Z" fill="#023047"/>
<path fill-rule="evenodd" clip-rule="evenodd" d="M1275.86 838.506H1249.67C1248.26 838.506 1246.98 837.683 1246.4 836.401V836.401C1245.59 834.633 1245.53 832.613 1246.24 830.802L1289.61 719.595C1290.79 716.572 1292.69 713.882 1295.14 711.755L1295.76 711.22C1299.16 708.268 1303.52 706.643 1308.02 706.643V706.643C1312.13 706.643 1316.13 707.998 1319.4 710.498L1319.85 710.848C1322.8 713.103 1325.06 716.132 1326.38 719.598L1371.75 838.506H1342.5C1340.3 838.506 1338.36 837.066 1337.72 834.96L1330.65 811.716H1291.15C1286.7 811.716 1282.78 814.655 1281.54 818.929L1275.86 838.506ZM1295.07 788.553C1296.28 789.793 1297.94 790.492 1299.67 790.492H1323.62L1313.13 760.601C1312.74 759.479 1311.87 758.589 1310.76 758.171V758.171C1306.61 756.613 1301.99 758.703 1300.42 762.844L1293.63 780.75L1293.3 783.22C1293.04 785.175 1293.7 787.142 1295.07 788.553V788.553Z" fill="#023047"/>
<path d="M1377.83 881.205C1357.89 891.595 1335.3 896.652 1312.51 895.826C1289.73 894.999 1267.62 888.321 1248.59 876.517C1229.57 864.713 1214.34 848.234 1204.58 828.87C1194.82 809.506 1190.89 787.998 1193.22 766.683C1195.55 745.368 1204.05 725.06 1217.79 707.965C1231.54 690.871 1250.01 677.644 1271.2 669.722C1292.38 661.799 1315.47 659.483 1337.96 663.027C1360.44 666.57 1382.61 681.874 1399.88 695.857" stroke="#219EBC" stroke-width="4"/>
<ellipse cx="1403.21" cy="701.424" rx="11.4766" ry="10.7856" fill="#219EBC"/>
</g>
<defs>
<clipPath id="clip0_687_234">
<rect width="1512" height="1002.14" fill="white"/>
</clipPath>
</defs>
</svg>
