<svg width="710" height="500" viewBox="0 0 710 500" fill="none" xmlns="http://www.w3.org/2000/svg">
<g clip-path="url(#clip0_580_216)">
<path d="M710 0H-40V500H710V0Z" fill="white"/>
<path d="M496.78 499.41C496.94 470.32 520.66 446.87 549.75 447.03C578.84 447.19 602.29 470.91 602.13 500" stroke="#1D262D" stroke-width="2" stroke-miterlimit="10"/>
<path d="M588.67 499.92C588.79 478.26 571.33 460.61 549.68 460.49C528.02 460.37 510.37 477.83 510.25 499.48L588.67 499.92Z" fill="#219EBC"/>
<path d="M302.42 250L335 268.81L367.58 250V212.38L335 193.57L302.42 212.38V250Z" fill="#114A82"/>
<path d="M302.42 287.62L335 306.43L367.58 287.62V250L335 231.19L302.42 250V287.62Z" stroke="#1D262D" stroke-width="2" stroke-miterlimit="10"/>
<path d="M192.54 109L151.53 37.96H233.55L192.54 109Z" fill="#219EBC"/>
<path d="M-20 43L-6.17 59.34L7.66 43L21.49 59.34L35.32 43L49.16 59.34L63 43" stroke="#1D262D" stroke-width="4" stroke-miterlimit="10"/>
<path d="M-20 21L-6.17 37.34L7.66 21L21.49 37.34L35.32 21L49.16 37.34L63 21" stroke="#1D262D" stroke-width="4" stroke-miterlimit="10"/>
<path d="M418.5 177V164M425 170.5H412H425Z" stroke="#219EBC" stroke-miterlimit="10"/>
<path d="M418.5 145V132M425 138.5H412H425Z" stroke="#219EBC" stroke-miterlimit="10"/>
<path d="M418.5 114V101M425 107.5H412H425Z" stroke="#219EBC" stroke-miterlimit="10"/>
<path d="M418.5 177V164M425 170.5H412H425Z" stroke="#1D262D" stroke-width="2" stroke-miterlimit="10"/>
<path d="M418.5 145V132M425 138.5H412H425Z" stroke="#1D262D" stroke-width="2" stroke-miterlimit="10"/>
<path d="M418.5 114V101M425 107.5H412H425Z" stroke="#1D262D" stroke-width="2" stroke-miterlimit="10"/>
<path d="M448.5 177V164M455 170.5H442H455Z" stroke="#219EBC" stroke-miterlimit="10"/>
<path d="M448.5 145V132M455 138.5H442H455Z" stroke="#219EBC" stroke-miterlimit="10"/>
<path d="M448.5 114V101M455 107.5H442H455Z" stroke="#219EBC" stroke-miterlimit="10"/>
<path d="M448.5 177V164M455 170.5H442H455Z" stroke="#1D262D" stroke-width="2" stroke-miterlimit="10"/>
<path d="M448.5 145V132M455 138.5H442H455Z" stroke="#1D262D" stroke-width="2" stroke-miterlimit="10"/>
<path d="M448.5 114V101M455 107.5H442H455Z" stroke="#1D262D" stroke-width="2" stroke-miterlimit="10"/>
<path d="M478.5 145V132M485 138.5H472H485Z" stroke="#219EBC" stroke-miterlimit="10"/>
<path d="M478.5 114V101M485 107.5H472H485Z" stroke="#219EBC" stroke-miterlimit="10"/>
<path d="M478.5 145V132M485 138.5H472H485Z" stroke="#1D262D" stroke-width="2" stroke-miterlimit="10"/>
<path d="M478.5 114V101M485 107.5H472H485Z" stroke="#1D262D" stroke-width="2" stroke-miterlimit="10"/>
<path d="M508.5 145V132M515 138.5H502H515Z" stroke="#219EBC" stroke-miterlimit="10"/>
<path d="M508.5 114V101M515 107.5H502H515Z" stroke="#219EBC" stroke-miterlimit="10"/>
<path d="M508.5 145V132M515 138.5H502H515Z" stroke="#1D262D" stroke-width="2" stroke-miterlimit="10"/>
<path d="M508.5 114V101M515 107.5H502H515Z" stroke="#1D262D" stroke-width="2" stroke-miterlimit="10"/>
<path d="M538.5 145V132M545 138.5H532H545Z" stroke="#219EBC" stroke-miterlimit="10"/>
<path d="M538.5 114V101M545 107.5H532H545Z" stroke="#219EBC" stroke-miterlimit="10"/>
<path d="M538.5 145V132M545 138.5H532H545Z" stroke="#1D262D" stroke-width="2" stroke-miterlimit="10"/>
<path d="M538.5 114V101M545 107.5H532H545Z" stroke="#1D262D" stroke-width="2" stroke-miterlimit="10"/>
<path d="M36.76 448.76H-20V505.52H36.76V448.76Z" stroke="#1D262D" stroke-width="2" stroke-miterlimit="10"/>
<path d="M65.1399 420.38H8.37988V477.14H65.1399V420.38Z" fill="#114A82"/>
<path d="M235.77 420.06C233.55 420.06 231.74 418.26 231.74 416.03C231.74 413.8 233.54 412 235.77 412C237.99 412 239.8 413.8 239.8 416.03C239.8 418.26 238 420.06 235.77 420.06Z" fill="#114A82"/>
<path d="M235.77 441.66C233.55 441.66 231.74 439.86 231.74 437.63C231.74 435.41 233.54 433.6 235.77 433.6C237.99 433.6 239.8 435.4 239.8 437.63C239.8 439.85 238 441.66 235.77 441.66Z" fill="#114A82"/>
<path d="M235.77 463.26C233.55 463.26 231.74 461.46 231.74 459.23C231.74 457 233.54 455.2 235.77 455.2C237.99 455.2 239.8 457 239.8 459.23C239.8 461.46 238 463.26 235.77 463.26Z" fill="#114A82"/>
<path d="M235.77 484.85C233.55 484.85 231.74 483.05 231.74 480.82C231.74 478.59 233.54 476.79 235.77 476.79C237.99 476.79 239.8 478.59 239.8 480.82C239.8 483.05 238 484.85 235.77 484.85Z" fill="#1D262D"/>
<path d="M235.77 506.45C233.55 506.45 231.74 504.65 231.74 502.42C231.74 500.2 233.54 498.39 235.77 498.39C237.99 498.39 239.8 500.19 239.8 502.42C239.8 504.65 238 506.45 235.77 506.45Z" fill="#114A82"/>
<path d="M219.09 420.06C221.316 420.06 223.12 418.256 223.12 416.03C223.12 413.804 221.316 412 219.09 412C216.864 412 215.06 413.804 215.06 416.03C215.06 418.256 216.864 420.06 219.09 420.06Z" fill="#114A82"/>
<path d="M219.09 441.66C216.87 441.66 215.06 439.86 215.06 437.63C215.06 435.41 216.86 433.6 219.09 433.6C221.31 433.6 223.12 435.4 223.12 437.63C223.12 439.85 221.31 441.66 219.09 441.66Z" stroke="#114A82" stroke-miterlimit="10"/>
<path d="M219.09 463.26C221.316 463.26 223.12 461.456 223.12 459.23C223.12 457.004 221.316 455.2 219.09 455.2C216.864 455.2 215.06 457.004 215.06 459.23C215.06 461.456 216.864 463.26 219.09 463.26Z" fill="#114A82"/>
<path d="M219.09 484.86C221.316 484.86 223.12 483.056 223.12 480.83C223.12 478.604 221.316 476.8 219.09 476.8C216.864 476.8 215.06 478.604 215.06 480.83C215.06 483.056 216.864 484.86 219.09 484.86Z" fill="#114A82"/>
<path d="M219.09 506.45C216.87 506.45 215.06 504.65 215.06 502.42C215.06 500.2 216.86 498.39 219.09 498.39C221.31 498.39 223.12 500.19 223.12 502.42C223.12 504.65 221.31 506.45 219.09 506.45Z" fill="#114A82"/>
<path d="M202.4 420.06C204.626 420.06 206.43 418.256 206.43 416.03C206.43 413.804 204.626 412 202.4 412C200.174 412 198.37 413.804 198.37 416.03C198.37 418.256 200.174 420.06 202.4 420.06Z" fill="#114A82"/>
<path d="M202.4 441.66C200.18 441.66 198.37 439.86 198.37 437.63C198.37 435.41 200.17 433.6 202.4 433.6C204.63 433.6 206.43 435.4 206.43 437.63C206.43 439.85 204.63 441.66 202.4 441.66Z" fill="#114A82"/>
<path d="M202.4 463.26C204.626 463.26 206.43 461.456 206.43 459.23C206.43 457.004 204.626 455.2 202.4 455.2C200.174 455.2 198.37 457.004 198.37 459.23C198.37 461.456 200.174 463.26 202.4 463.26Z" fill="#114A82"/>
<path d="M202.4 484.86C204.626 484.86 206.43 483.056 206.43 480.83C206.43 478.604 204.626 476.8 202.4 476.8C200.174 476.8 198.37 478.604 198.37 480.83C198.37 483.056 200.174 484.86 202.4 484.86Z" fill="#114A82"/>
<path d="M202.4 506.45C200.18 506.45 198.37 504.65 198.37 502.42C198.37 500.2 200.17 498.39 202.4 498.39C204.63 498.39 206.43 500.19 206.43 502.42C206.43 504.65 204.63 506.45 202.4 506.45Z" fill="#1D262D"/>
<path d="M185.71 420.06C187.936 420.06 189.74 418.256 189.74 416.03C189.74 413.804 187.936 412 185.71 412C183.484 412 181.68 413.804 181.68 416.03C181.68 418.256 183.484 420.06 185.71 420.06Z" fill="#114A82"/>
<path d="M185.71 441.66C183.49 441.66 181.68 439.86 181.68 437.63C181.68 435.41 183.48 433.6 185.71 433.6C187.94 433.6 189.74 435.4 189.74 437.63C189.74 439.85 187.94 441.66 185.71 441.66Z" fill="#1D262D"/>
<path d="M185.71 463.26C187.936 463.26 189.74 461.456 189.74 459.23C189.74 457.004 187.936 455.2 185.71 455.2C183.484 455.2 181.68 457.004 181.68 459.23C181.68 461.456 183.484 463.26 185.71 463.26Z" fill="#114A82"/>
<path d="M185.71 484.86C187.936 484.86 189.74 483.056 189.74 480.83C189.74 478.604 187.936 476.8 185.71 476.8C183.484 476.8 181.68 478.604 181.68 480.83C181.68 483.056 183.484 484.86 185.71 484.86Z" stroke="#114A82" stroke-miterlimit="10"/>
<path d="M185.71 506.45C183.49 506.45 181.68 504.65 181.68 502.42C181.68 500.2 183.48 498.39 185.71 498.39C187.94 498.39 189.74 500.19 189.74 502.42C189.74 504.65 187.94 506.45 185.71 506.45Z" fill="#114A82"/>
<path d="M169.03 420.06C171.256 420.06 173.06 418.256 173.06 416.03C173.06 413.804 171.256 412 169.03 412C166.804 412 165 413.804 165 416.03C165 418.256 166.804 420.06 169.03 420.06Z" stroke="#114A82" stroke-miterlimit="10"/>
<path d="M169.03 441.66C166.81 441.66 165 439.86 165 437.63C165 435.41 166.8 433.6 169.03 433.6C171.25 433.6 173.06 435.4 173.06 437.63C173.06 439.85 171.25 441.66 169.03 441.66Z" fill="#114A82"/>
<path d="M169.03 463.26C171.256 463.26 173.06 461.456 173.06 459.23C173.06 457.004 171.256 455.2 169.03 455.2C166.804 455.2 165 457.004 165 459.23C165 461.456 166.804 463.26 169.03 463.26Z" fill="#114A82"/>
<path d="M169.03 484.86C171.256 484.86 173.06 483.056 173.06 480.83C173.06 478.604 171.256 476.8 169.03 476.8C166.804 476.8 165 478.604 165 480.83C165 483.056 166.804 484.86 169.03 484.86Z" fill="#114A82"/>
<path d="M169.03 506.45C166.81 506.45 165 504.65 165 502.42C165 500.2 166.8 498.39 169.03 498.39C171.25 498.39 173.06 500.19 173.06 502.42C173.06 504.65 171.25 506.45 169.03 506.45Z" fill="#114A82"/>
<path d="M513.93 172.06C516.156 172.06 517.96 170.256 517.96 168.03C517.96 165.804 516.156 164 513.93 164C511.705 164 509.9 165.804 509.9 168.03C509.9 170.256 511.705 172.06 513.93 172.06Z" fill="#114A82"/>
<path d="M539.55 168.03C539.55 170.25 537.75 172.06 535.52 172.06C533.3 172.06 531.49 170.26 531.49 168.03C531.49 165.81 533.29 164 535.52 164C537.75 164 539.55 165.8 539.55 168.03Z" fill="#114A82"/>
<path d="M513.93 188.74C516.156 188.74 517.96 186.936 517.96 184.71C517.96 182.484 516.156 180.68 513.93 180.68C511.705 180.68 509.9 182.484 509.9 184.71C509.9 186.936 511.705 188.74 513.93 188.74Z" fill="#114A82"/>
<path d="M539.55 184.71C539.55 186.93 537.75 188.74 535.52 188.74C533.3 188.74 531.49 186.94 531.49 184.71C531.49 182.48 533.29 180.68 535.52 180.68C537.75 180.69 539.55 182.49 539.55 184.71Z" stroke="#114A82" stroke-miterlimit="10"/>
<path d="M513.93 205.43C516.156 205.43 517.96 203.626 517.96 201.4C517.96 199.174 516.156 197.37 513.93 197.37C511.705 197.37 509.9 199.174 509.9 201.4C509.9 203.626 511.705 205.43 513.93 205.43Z" fill="#1D262D"/>
<path d="M539.55 201.4C539.55 203.62 537.75 205.43 535.52 205.43C533.3 205.43 531.49 203.63 531.49 201.4C531.49 199.17 533.29 197.37 535.52 197.37C537.75 197.37 539.55 199.18 539.55 201.4Z" stroke="#114A82" stroke-miterlimit="10"/>
<path d="M513.93 222.12C516.156 222.12 517.96 220.316 517.96 218.09C517.96 215.864 516.156 214.06 513.93 214.06C511.705 214.06 509.9 215.864 509.9 218.09C509.9 220.316 511.705 222.12 513.93 222.12Z" fill="#1D262D"/>
<path d="M539.55 218.09C539.55 220.31 537.75 222.12 535.52 222.12C533.3 222.12 531.49 220.32 531.49 218.09C531.49 215.87 533.29 214.06 535.52 214.06C537.75 214.06 539.55 215.86 539.55 218.09Z" stroke="#114A82" stroke-miterlimit="10"/>
<path d="M517.95 234.78C517.95 237 516.15 238.81 513.92 238.81C511.7 238.81 509.89 237.01 509.89 234.78C509.89 232.56 511.69 230.75 513.92 230.75C516.15 230.75 517.95 232.55 517.95 234.78Z" fill="#1D262D"/>
<path d="M539.55 234.78C539.55 237 537.75 238.81 535.52 238.81C533.3 238.81 531.49 237.01 531.49 234.78C531.49 232.56 533.29 230.75 535.52 230.75C537.75 230.75 539.55 232.55 539.55 234.78Z" stroke="#114A82" stroke-miterlimit="10"/>
<path d="M517.95 251.46C517.95 253.68 516.15 255.49 513.92 255.49C511.7 255.49 509.89 253.69 509.89 251.46C509.89 249.24 511.69 247.43 513.92 247.43C516.15 247.43 517.95 249.24 517.95 251.46Z" fill="#114A82"/>
<path d="M539.55 251.46C539.55 253.68 537.75 255.49 535.52 255.49C533.3 255.49 531.49 253.69 531.49 251.46C531.49 249.24 533.29 247.43 535.52 247.43C537.75 247.43 539.55 249.24 539.55 251.46Z" stroke="#114A82" stroke-miterlimit="10"/>
<path d="M517.95 268.15C517.95 270.37 516.15 272.18 513.92 272.18C511.7 272.18 509.89 270.38 509.89 268.15C509.89 265.93 511.69 264.12 513.92 264.12C516.15 264.12 517.95 265.92 517.95 268.15Z" fill="#114A82"/>
<path d="M539.55 268.15C539.55 270.37 537.75 272.18 535.52 272.18C533.3 272.18 531.49 270.38 531.49 268.15C531.49 265.93 533.29 264.12 535.52 264.12C537.75 264.12 539.55 265.92 539.55 268.15Z" fill="#114A82"/>
<path d="M324.12 322.73H318.79V344.56H324.12V322.73Z" fill="#1D262D"/>
<path d="M337.66 322.73H332.33V344.56H337.66V322.73Z" fill="#1D262D"/>
<path d="M351.2 322.73H345.87V344.56H351.2V322.73Z" fill="#1D262D"/>
<path d="M324.12 353.82H318.79V375.65H324.12V353.82Z" fill="#1D262D"/>
<path d="M337.66 353.82H332.33V375.65H337.66V353.82Z" fill="#1D262D"/>
<path d="M337.66 384.9H332.33V406.73H337.66V384.9Z" fill="#1D262D"/>
<path d="M351.2 384.9H345.87V406.73H351.2V384.9Z" fill="#1D262D"/>
<path d="M324.12 415.99H318.79V437.82H324.12V415.99Z" fill="#1D262D"/>
<path d="M351.2 415.99H345.87V437.82H351.2V415.99Z" fill="#1D262D"/>
<path d="M324.12 447.08H318.79V468.91H324.12V447.08Z" fill="#1D262D"/>
<path d="M337.66 447.08H332.33V468.91H337.66V447.08Z" fill="#1D262D"/>
<path d="M324.12 478.17H318.79V500H324.12V478.17Z" fill="#1D262D"/>
<path d="M337.66 478.17H332.33V500H337.66V478.17Z" fill="#1D262D"/>
<path d="M351.2 478.17H345.87V500H351.2V478.17Z" fill="#1D262D"/>
<path d="M345.878 177.271H351.208V155.441H345.878V177.271Z" fill="#1D262D"/>
<path d="M332.34 177.271H337.67V155.441H332.34V177.271Z" fill="#1D262D"/>
<path d="M318.802 177.271H324.132V155.441H318.802V177.271Z" fill="#1D262D"/>
<path d="M345.878 146.185H351.208V124.355H345.878V146.185Z" fill="#1D262D"/>
<path d="M332.34 146.185H337.67V124.355H332.34V146.185Z" fill="#1D262D"/>
<path d="M332.34 115.1H337.67V93.2696H332.34V115.1Z" fill="#1D262D"/>
<path d="M318.802 115.1H324.132V93.2696H318.802V115.1Z" fill="#1D262D"/>
<path d="M345.878 84.0039H351.208V62.1739H345.878V84.0039Z" fill="#1D262D"/>
<path d="M318.802 84.0039H324.132V62.1739H318.802V84.0039Z" fill="#1D262D"/>
<path d="M345.878 52.9185H351.208V31.0885H345.878V52.9185Z" fill="#1D262D"/>
<path d="M332.34 52.9185H337.67V31.0885H332.34V52.9185Z" fill="#1D262D"/>
<path d="M345.878 21.833H351.208V0.00300789H345.878V21.833Z" fill="#1D262D"/>
<path d="M332.34 21.833H337.67V0.00300789H332.34V21.833Z" fill="#1D262D"/>
<path d="M318.802 21.833H324.132V0.00300789H318.802V21.833Z" fill="#1D262D"/>
<path d="M709.67 290.34C658.49 290.34 617 248.85 617 197.67C617 146.49 658.49 105 709.67 105" fill="#114A82"/>
<path d="M606.35 197.67C606.35 140.61 652.61 94.3501 709.67 94.3501" stroke="#1D262D" stroke-miterlimit="10"/>
<path d="M709.67 300.99C652.61 300.99 606.35 254.73 606.35 197.67" stroke="#1D262D" stroke-width="4" stroke-miterlimit="10"/>
<path d="M606.35 197.67C606.35 140.61 652.61 94.3501 709.67 94.3501" stroke="#1D262D" stroke-miterlimit="10"/>
<path d="M709.67 300.99C652.61 300.99 606.35 254.73 606.35 197.67" stroke="#1D262D" stroke-width="4" stroke-miterlimit="10"/>
<path d="M596.81 197.67C596.81 135.34 647.34 84.8101 709.67 84.8101" stroke="#1D262D" stroke-miterlimit="10"/>
<path d="M709.67 310.53C647.34 310.53 596.81 260 596.81 197.67" stroke="#1D262D" stroke-width="4" stroke-miterlimit="10"/>
<path d="M596.81 197.67C596.81 135.34 647.34 84.8101 709.67 84.8101" stroke="#1D262D" stroke-miterlimit="10"/>
<path d="M709.67 310.53C647.34 310.53 596.81 260 596.81 197.67" stroke="#1D262D" stroke-width="4" stroke-miterlimit="10"/>
<path d="M587.31 197.67C587.31 130.09 642.09 75.3101 709.67 75.3101" stroke="#1D262D" stroke-miterlimit="10"/>
<path d="M709.67 320.03C642.09 320.03 587.31 265.25 587.31 197.67" stroke="#1D262D" stroke-width="4" stroke-miterlimit="10"/>
<path d="M577 197.67C577 124.4 636.4 65 709.67 65" stroke="#1D262D" stroke-miterlimit="10"/>
<path d="M709.67 330.34C636.4 330.34 577 270.94 577 197.67" stroke="#1D262D" stroke-width="4" stroke-miterlimit="10"/>
<path d="M701 9.87012H569.5V40.4601H701V9.87012Z" stroke="#1D262D" stroke-width="2" stroke-miterlimit="10"/>
<path d="M710 0H578.5V30.59H710V0Z" fill="#114A82"/>
<path d="M531.973 297.3L524.726 290.052L517.478 297.3L524.726 304.547L531.973 297.3Z" fill="#1D262D"/>
<path d="M531.971 322.388L524.724 315.141L517.476 322.388L524.724 329.636L531.971 322.388Z" fill="#219EBC"/>
<path d="M531.969 347.477L524.721 340.229L517.473 347.477L524.721 354.725L531.969 347.477Z" fill="#219EBC"/>
<path d="M531.974 372.559L524.727 365.312L517.479 372.559L524.727 379.807L531.974 372.559Z" fill="#1D262D"/>
<path d="M-8.03022 132.57C13.9398 137.56 30.3298 157.21 30.3298 180.68C30.3298 206.06 11.1698 226.96 -13.4702 229.71" stroke="#1D262D" stroke-width="3" stroke-miterlimit="10" stroke-linecap="round"/>
<path d="M-5.69983 118.06C23.2702 124.19 45.0002 149.9 45.0002 180.69C45.0002 213.78 19.8902 241.01 -12.3198 244.36" stroke="#1D262D" stroke-width="3" stroke-miterlimit="10" stroke-linecap="round"/>
<path d="M-9.98019 146.98C4.90981 150.96 15.8798 164.54 15.8798 180.69C15.8798 198.41 2.66981 213.05 -14.4502 215.28" stroke="#1D262D" stroke-width="3" stroke-miterlimit="10" stroke-linecap="round"/>
<path d="M-11.9899 161.41C-4.11994 164.28 1.50006 171.82 1.50006 180.69C1.50006 190.8 -5.81994 199.2 -15.4399 200.89" stroke="#1D262D" stroke-width="3" stroke-miterlimit="10" stroke-linecap="round"/>
<path d="M92 125.66H115.22V148.88L92 125.66Z" fill="#114A82"/>
<path d="M92 172.26H115.22V195.49L92 172.26Z" fill="#114A82"/>
<path d="M92 149.03H115.22V172.26L92 149.03Z" fill="#1D262D"/>
<path d="M168.41 208.7L219.85 157.25" stroke="#1D262D" stroke-width="2" stroke-miterlimit="10"/>
<path d="M181.12 208.7L232.57 157.25" stroke="#1D262D" stroke-width="2" stroke-miterlimit="10"/>
<path d="M193.84 208.7L245.28 157.25" stroke="#219EBC" stroke-width="2" stroke-miterlimit="10"/>
<path d="M206.55 208.7L258 157.25" stroke="#114A82" stroke-width="2" stroke-miterlimit="10"/>
<path d="M419.25 365.36V480.31" stroke="#219EBC" stroke-width="2" stroke-miterlimit="10"/>
<path d="M428.5 350.93V480.31" stroke="#114A82" stroke-width="2" stroke-miterlimit="10"/>
<path d="M437.75 336.51V480.31" stroke="#1D262D" stroke-width="2" stroke-miterlimit="10"/>
<path d="M447 322.09V480.31" stroke="#1D262D" stroke-width="2" stroke-miterlimit="10"/>
<path d="M661.94 460.47C661.94 463.49 659.49 465.94 656.47 465.94C653.45 465.94 651 463.49 651 460.47C651 457.45 653.45 455 656.47 455C659.49 455 661.94 457.45 661.94 460.47Z" fill="#1D262D"/>
<path d="M678.93 477.46C678.93 480.48 676.48 482.93 673.46 482.93C670.44 482.93 667.99 480.48 667.99 477.46C667.99 474.44 670.44 471.99 673.46 471.99C676.48 471.99 678.93 474.44 678.93 477.46Z" fill="#1D262D"/>
<path d="M695.92 494.45C695.92 497.47 693.471 499.92 690.451 499.92C687.431 499.92 684.98 497.47 684.98 494.45C684.98 491.43 687.431 488.98 690.451 488.98C693.481 488.98 695.92 491.43 695.92 494.45Z" fill="#219EBC"/>
<path d="M147.85 -5H94V31H147.85V-5Z" fill="#219EBC"/>
<path d="M485 0H412V12H485V0Z" fill="#219EBC"/>
<path d="M485 30H412V42H485V30Z" fill="#219EBC"/>
<path d="M633.11 53L611 75.12" stroke="#1D262D" stroke-width="2" stroke-miterlimit="10"/>
<path d="M633.11 75.12L611 53" stroke="#1D262D" stroke-width="2" stroke-miterlimit="10"/>
<path d="M437.53 269.47C448.28 269.47 457 260.75 457 250C457 239.25 448.28 230.53 437.53 230.53V269.47Z" fill="#219EBC"/>
<path d="M107.13 232H95V244.13H107.13V232Z" stroke="#219EBC" stroke-width="2" stroke-miterlimit="10"/>
<path d="M129.57 232H117.44V244.13H129.57V232Z" stroke="#219EBC" stroke-width="2" stroke-miterlimit="10"/>
<path d="M152 232H139.87V244.13H152V232Z" stroke="#219EBC" stroke-width="2" stroke-miterlimit="10"/>
<path d="M174.44 232H162.31V244.13H174.44V232Z" stroke="#219EBC" stroke-width="2" stroke-miterlimit="10"/>
<path d="M196.87 232H184.74V244.13H196.87V232Z" stroke="#219EBC" stroke-width="2" stroke-miterlimit="10"/>
<path d="M219.3 232H207.17V244.13H219.3V232Z" stroke="#219EBC" stroke-width="2" stroke-miterlimit="10"/>
<path d="M241.74 232H229.61V244.13H241.74V232Z" stroke="#219EBC" stroke-width="2" stroke-miterlimit="10"/>
<path d="M107.13 251.79H95V263.92H107.13V251.79Z" stroke="#219EBC" stroke-width="2" stroke-miterlimit="10"/>
<path d="M129.57 251.79H117.44V263.92H129.57V251.79Z" stroke="#219EBC" stroke-width="2" stroke-miterlimit="10"/>
<path d="M152 251.79H139.87V263.92H152V251.79Z" stroke="#219EBC" stroke-width="2" stroke-miterlimit="10"/>
<path d="M174.44 251.79H162.31V263.92H174.44V251.79Z" stroke="#219EBC" stroke-width="2" stroke-miterlimit="10"/>
<path d="M196.87 251.79H184.74V263.92H196.87V251.79Z" stroke="#219EBC" stroke-width="2" stroke-miterlimit="10"/>
<path d="M219.3 251.79H207.17V263.92H219.3V251.79Z" stroke="#219EBC" stroke-width="2" stroke-miterlimit="10"/>
<path d="M241.74 251.79H229.61V263.92H241.74V251.79Z" stroke="#219EBC" stroke-width="2" stroke-miterlimit="10"/>
<path d="M95 222H107.13" stroke="#219EBC" stroke-width="2" stroke-miterlimit="10" stroke-linecap="square"/>
<path d="M117.44 222H129.56" stroke="#219EBC" stroke-width="2" stroke-miterlimit="10" stroke-linecap="square"/>
<path d="M258.834 336.527V359.788H264.049V350.067H269.374C270.316 350.067 271.23 350.387 271.966 350.975V350.975C272.901 351.722 273.468 352.835 273.522 354.031L273.784 359.788H279V336.527H273.784V345.554H266.134C265.478 345.554 264.861 345.245 264.467 344.721V344.721C264.196 344.36 264.049 343.921 264.049 343.469V336.527H258.834Z" fill="#023047"/>
<path d="M-58.3724 376.173L-56.7043 370.317H-55.8962L-56.3637 372.594L-58.1589 378.709H-58.9612L-58.3724 376.173ZM-60.0983 370.317L-58.7707 376.058L-58.3724 378.709H-59.169L-61.2065 370.317H-60.0983ZM-53.7374 376.052L-52.4387 370.317H-51.3247L-53.3564 378.709H-54.153L-53.7374 376.052ZM-55.775 370.317L-54.153 376.173L-53.5642 378.709H-54.3666L-56.0982 372.594L-56.5715 370.317H-55.775Z" fill="#023047"/>
<path d="M-44.3364 377.804V378.709H-48.7868V377.804H-44.3364ZM-48.5616 370.317V378.709H-49.6757V370.317H-48.5616ZM-44.9252 373.925V374.83H-48.7868V373.925H-44.9252ZM-44.3942 370.317V371.228H-48.7868V370.317H-44.3942Z" fill="#023047"/>
<path d="M-39.1972 370.317H-36.415C-35.7839 370.317 -35.251 370.413 -34.8161 370.605C-34.3774 370.797 -34.0446 371.082 -33.8175 371.458C-33.5867 371.831 -33.4712 372.29 -33.4712 372.836C-33.4712 373.22 -33.5501 373.572 -33.7079 373.89C-33.8618 374.206 -34.085 374.475 -34.3774 374.697C-34.666 374.916 -35.0124 375.08 -35.4164 375.187L-35.7281 375.308H-38.3429L-38.3544 374.403H-36.3804C-35.9802 374.403 -35.6473 374.334 -35.3818 374.196C-35.1163 374.054 -34.9162 373.864 -34.7815 373.625C-34.6468 373.387 -34.5795 373.124 -34.5795 372.836C-34.5795 372.513 -34.643 372.23 -34.7699 371.988C-34.8969 371.746 -35.097 371.56 -35.3702 371.429C-35.6396 371.295 -35.9879 371.228 -36.415 371.228H-38.0831V378.709H-39.1972V370.317ZM-34.2851 378.709L-36.3284 374.905L-35.1682 374.899L-33.096 378.64V378.709H-34.2851Z" fill="#023047"/>
<path d="M-30.3042 370.317V378.709H-31.4182V370.317H-30.3042Z" fill="#023047"/>
<path d="M-23.3852 376.588C-23.3852 376.392 -23.416 376.219 -23.4776 376.069C-23.5353 375.915 -23.6392 375.777 -23.7893 375.654C-23.9355 375.531 -24.1394 375.414 -24.4011 375.303C-24.6589 375.191 -24.986 375.078 -25.3824 374.963C-25.798 374.84 -26.1732 374.703 -26.5079 374.553C-26.8427 374.4 -27.1294 374.225 -27.368 374.029C-27.6066 373.833 -27.7894 373.608 -27.9163 373.354C-28.0433 373.101 -28.1068 372.811 -28.1068 372.484C-28.1068 372.157 -28.0395 371.856 -27.9048 371.579C-27.7701 371.303 -27.5777 371.062 -27.3276 370.859C-27.0736 370.651 -26.7715 370.49 -26.4214 370.375C-26.0712 370.259 -25.6806 370.202 -25.2496 370.202C-24.6185 370.202 -24.0836 370.323 -23.645 370.565C-23.2024 370.803 -22.8657 371.116 -22.6348 371.504C-22.404 371.889 -22.2885 372.3 -22.2885 372.738H-23.3968C-23.3968 372.423 -23.4641 372.144 -23.5988 371.902C-23.7335 371.656 -23.9374 371.464 -24.2106 371.326C-24.4839 371.183 -24.8302 371.112 -25.2496 371.112C-25.646 371.112 -25.9731 371.172 -26.2309 371.291C-26.4887 371.41 -26.6811 371.572 -26.8081 371.775C-26.9312 371.979 -26.9928 372.211 -26.9928 372.473C-26.9928 372.649 -26.9562 372.811 -26.8831 372.957C-26.8062 373.099 -26.6888 373.231 -26.531 373.354C-26.3694 373.477 -26.1655 373.591 -25.9192 373.694C-25.6691 373.798 -25.3708 373.898 -25.0245 373.994C-24.5473 374.129 -24.1356 374.279 -23.7893 374.444C-23.4429 374.609 -23.1582 374.795 -22.935 375.003C-22.708 375.207 -22.5406 375.439 -22.4328 375.7C-22.3212 375.958 -22.2654 376.25 -22.2654 376.576C-22.2654 376.918 -22.3347 377.228 -22.4732 377.504C-22.6118 377.781 -22.8099 378.017 -23.0678 378.213C-23.3256 378.409 -23.6353 378.561 -23.9971 378.669C-24.3549 378.772 -24.7551 378.824 -25.1977 378.824C-25.5863 378.824 -25.9692 378.77 -26.3463 378.663C-26.7196 378.555 -27.0601 378.394 -27.368 378.179C-27.672 377.964 -27.9163 377.698 -28.1011 377.383C-28.2819 377.064 -28.3723 376.695 -28.3723 376.277H-27.2641C-27.2641 376.565 -27.2083 376.813 -27.0967 377.02C-26.9851 377.224 -26.8331 377.393 -26.6407 377.527C-26.4445 377.662 -26.2232 377.762 -25.9769 377.827C-25.7268 377.889 -25.467 377.919 -25.1977 377.919C-24.809 377.919 -24.48 377.866 -24.2106 377.758C-23.9413 377.65 -23.7373 377.497 -23.5988 377.297C-23.4564 377.097 -23.3852 376.861 -23.3852 376.588Z" fill="#023047"/>
<path d="M-15.0925 377.804V378.709H-19.5428V377.804H-15.0925ZM-19.3177 370.317V378.709H-20.4317V370.317H-19.3177ZM-15.6813 373.925V374.83H-19.5428V373.925H-15.6813ZM-15.1502 370.317V371.228H-19.5428V370.317H-15.1502Z" fill="#023047"/>
<path d="M-6.9575 374.784H-9.08742L-9.09896 373.89H-7.1653C-6.8459 373.89 -6.56692 373.837 -6.32834 373.729C-6.08975 373.621 -5.90505 373.468 -5.77421 373.268C-5.63953 373.064 -5.57219 372.822 -5.57219 372.542C-5.57219 372.234 -5.63183 371.985 -5.75112 371.792C-5.86657 371.596 -6.0455 371.454 -6.28793 371.366C-6.52651 371.274 -6.83051 371.228 -7.19993 371.228H-8.83921V378.709H-9.95324V370.317H-7.19993C-6.76894 370.317 -6.38413 370.361 -6.0455 370.45C-5.70687 370.534 -5.42019 370.669 -5.18545 370.853C-4.94687 371.034 -4.76601 371.264 -4.64287 371.545C-4.51973 371.825 -4.45816 372.161 -4.45816 372.553C-4.45816 372.899 -4.54667 373.212 -4.72368 373.493C-4.9007 373.769 -5.14697 373.996 -5.46252 374.173C-5.77421 374.35 -6.13978 374.463 -6.55922 374.513L-6.9575 374.784ZM-7.00945 378.709H-9.5261L-8.89694 377.804H-7.00945C-6.65542 377.804 -6.35527 377.743 -6.10899 377.62C-5.85887 377.497 -5.66839 377.324 -5.53755 377.101C-5.40672 376.874 -5.3413 376.607 -5.3413 376.3C-5.3413 375.988 -5.3971 375.719 -5.50869 375.493C-5.62029 375.266 -5.79538 375.091 -6.03396 374.968C-6.27254 374.845 -6.58039 374.784 -6.9575 374.784H-8.54483L-8.53329 373.89H-6.36297L-6.12631 374.213C-5.72226 374.248 -5.37978 374.363 -5.09887 374.559C-4.81796 374.751 -4.60439 374.997 -4.45816 375.297C-4.30809 375.597 -4.23305 375.927 -4.23305 376.288C-4.23305 376.811 -4.34849 377.253 -4.57938 377.614C-4.80642 377.971 -5.12773 378.244 -5.54333 378.432C-5.95892 378.617 -6.44763 378.709 -7.00945 378.709Z" fill="#023047"/>
<path d="M-2.11075 370.317L0.071113 374.53L2.25875 370.317H3.52285L0.625238 375.573V378.709H-0.488784V375.573L-3.38639 370.317H-2.11075Z" fill="#023047"/>
<path d="M13.4588 377.804V378.709H9.25665V377.804H13.4588ZM9.47599 370.317V378.709H8.36197V370.317H9.47599Z" fill="#023047"/>
<path d="M16.343 370.317V378.709H15.229V370.317H16.343Z" fill="#023047"/>
<path d="M19.8968 370.317V378.709H18.7827V370.317H19.8968ZM23.4178 374.092V375.003H19.6543V374.092H23.4178ZM23.9892 370.317V371.228H19.6543V370.317H23.9892Z" fill="#023047"/>
<path d="M28.9514 370.317V378.709H27.8547V370.317H28.9514ZM31.6528 370.317V371.228H25.1591V370.317H31.6528Z" fill="#023047"/>
<path d="M34.5081 370.317V378.709H33.3941V370.317H34.5081Z" fill="#023047"/>
<path d="M43.4127 370.317V378.709H42.2929L38.0619 372.236V378.709H36.9479V370.317H38.0619L42.3102 376.807V370.317H43.4127Z" fill="#023047"/>
<path d="M52.0113 374.53V377.602C51.9074 377.756 51.7419 377.929 51.5149 378.121C51.2879 378.309 50.9742 378.475 50.574 378.617C50.1777 378.755 49.6659 378.824 49.0387 378.824C48.5269 378.824 48.0555 378.736 47.6245 378.559C47.1973 378.378 46.826 378.117 46.5105 377.775C46.1988 377.429 45.9563 377.011 45.7832 376.519C45.6139 376.023 45.5292 375.462 45.5292 374.836V374.184C45.5292 373.558 45.6023 372.999 45.7485 372.507C45.8986 372.015 46.118 371.598 46.4066 371.256C46.6952 370.911 47.0492 370.649 47.4686 370.473C47.8881 370.292 48.3691 370.202 48.9117 370.202C49.5543 370.202 50.0911 370.313 50.5221 370.536C50.9569 370.755 51.2956 371.059 51.538 371.447C51.7843 371.835 51.942 372.277 52.0113 372.772H50.8973C50.8473 372.469 50.7472 372.192 50.5971 371.942C50.4509 371.693 50.2412 371.493 49.968 371.343C49.6948 371.189 49.3427 371.112 48.9117 371.112C48.523 371.112 48.1863 371.183 47.9015 371.326C47.6168 371.468 47.3821 371.671 47.1973 371.937C47.0126 372.202 46.8741 372.523 46.7818 372.899C46.6932 373.276 46.649 373.7 46.649 374.173V374.836C46.649 375.32 46.7048 375.752 46.8164 376.133C46.9318 376.513 47.0954 376.838 47.307 377.107C47.5187 377.372 47.7707 377.573 48.0632 377.712C48.3595 377.85 48.6866 377.919 49.0444 377.919C49.4408 377.919 49.7621 377.887 50.0084 377.821C50.2547 377.752 50.4471 377.671 50.5856 377.579C50.7241 377.483 50.8299 377.393 50.9031 377.308V375.429H48.9578V374.53H52.0113Z" fill="#023047"/>
<path d="M64.0887 374.248V374.778C64.0887 375.408 64.0098 375.973 63.852 376.473C63.6943 376.972 63.4672 377.397 63.1709 377.746C62.8746 378.096 62.5187 378.363 62.1031 378.548C61.6913 378.732 61.2296 378.824 60.7178 378.824C60.2214 378.824 59.7654 378.732 59.3498 378.548C58.938 378.363 58.5801 378.096 58.2761 377.746C57.976 377.397 57.7432 376.972 57.5777 376.473C57.4123 375.973 57.3295 375.408 57.3295 374.778V374.248C57.3295 373.618 57.4103 373.055 57.5719 372.559C57.7374 372.06 57.9702 371.635 58.2704 371.285C58.5705 370.932 58.9265 370.663 59.3382 370.478C59.7538 370.294 60.2098 370.202 60.7062 370.202C61.218 370.202 61.6798 370.294 62.0915 370.478C62.5071 370.663 62.8631 370.932 63.1594 371.285C63.4595 371.635 63.6885 372.06 63.8463 372.559C64.0079 373.055 64.0887 373.618 64.0887 374.248ZM62.9862 374.778V374.236C62.9862 373.737 62.9343 373.295 62.8304 372.911C62.7303 372.526 62.5822 372.204 62.3859 371.942C62.1897 371.681 61.9491 371.483 61.6644 371.349C61.3835 371.214 61.0641 371.147 60.7062 371.147C60.3599 371.147 60.0463 371.214 59.7654 371.349C59.4883 371.483 59.2497 371.681 59.0496 371.942C58.8534 372.204 58.7014 372.526 58.5936 372.911C58.4859 373.295 58.432 373.737 58.432 374.236V374.778C58.432 375.281 58.4859 375.727 58.5936 376.115C58.7014 376.5 58.8553 376.824 59.0554 377.089C59.2593 377.351 59.4998 377.549 59.7769 377.683C60.0578 377.817 60.3714 377.885 60.7178 377.885C61.0795 377.885 61.4008 377.817 61.6817 377.683C61.9626 377.549 62.1993 377.351 62.3917 377.089C62.5879 376.824 62.7361 376.5 62.8361 376.115C62.9362 375.727 62.9862 375.281 62.9862 374.778Z" fill="#023047"/>
<path d="M69.1144 370.317V378.709H68.0177V370.317H69.1144ZM71.8157 370.317V371.228H65.3221V370.317H71.8157Z" fill="#023047"/>
<path d="M78.9655 373.925V374.83H74.4171V373.925H78.9655ZM74.5903 370.317V378.709H73.4762V370.317H74.5903ZM79.9353 370.317V378.709H78.827V370.317H79.9353Z" fill="#023047"/>
<path d="M87.6681 377.804V378.709H83.2178V377.804H87.6681ZM83.4429 370.317V378.709H82.3288V370.317H83.4429ZM87.0793 373.925V374.83H83.2178V373.925H87.0793ZM87.6103 370.317V371.228H83.2178V370.317H87.6103Z" fill="#023047"/>
<path d="M89.4614 370.317H92.2435C92.8746 370.317 93.4076 370.413 93.8424 370.605C94.2811 370.797 94.6139 371.082 94.841 371.458C95.0719 371.831 95.1873 372.29 95.1873 372.836C95.1873 373.22 95.1084 373.572 94.9507 373.89C94.7967 374.206 94.5735 374.475 94.2811 374.697C93.9925 374.916 93.6462 375.08 93.2421 375.187L92.9304 375.308H90.3156L90.3041 374.403H92.2782C92.6784 374.403 93.0112 374.334 93.2767 374.196C93.5423 374.054 93.7424 373.864 93.877 373.625C94.0117 373.387 94.0791 373.124 94.0791 372.836C94.0791 372.513 94.0156 372.23 93.8886 371.988C93.7616 371.746 93.5615 371.56 93.2883 371.429C93.0189 371.295 92.6707 371.228 92.2435 371.228H90.5754V378.709H89.4614V370.317ZM94.3734 378.709L92.3301 374.905L93.4903 374.899L95.5625 378.64V378.709H94.3734Z" fill="#023047"/>
<path d="M101.639 376.588C101.639 376.392 101.608 376.219 101.546 376.069C101.489 375.915 101.385 375.777 101.235 375.654C101.088 375.531 100.884 375.414 100.623 375.303C100.365 375.191 100.038 375.078 99.6416 374.963C99.226 374.84 98.8508 374.703 98.516 374.553C98.1812 374.4 97.8945 374.225 97.6559 374.029C97.4174 373.833 97.2346 373.608 97.1076 373.354C96.9806 373.101 96.9171 372.811 96.9171 372.484C96.9171 372.157 96.9844 371.856 97.1191 371.579C97.2538 371.303 97.4462 371.062 97.6963 370.859C97.9503 370.651 98.2524 370.49 98.6026 370.375C98.9527 370.259 99.3433 370.202 99.7743 370.202C100.405 370.202 100.94 370.323 101.379 370.565C101.821 370.803 102.158 371.116 102.389 371.504C102.62 371.889 102.735 372.3 102.735 372.738H101.627C101.627 372.423 101.56 372.144 101.425 371.902C101.29 371.656 101.087 371.464 100.813 371.326C100.54 371.183 100.194 371.112 99.7743 371.112C99.378 371.112 99.0509 371.172 98.7931 371.291C98.5352 371.41 98.3428 371.572 98.2158 371.775C98.0927 371.979 98.0311 372.211 98.0311 372.473C98.0311 372.649 98.0677 372.811 98.1408 372.957C98.2178 373.099 98.3351 373.231 98.4929 373.354C98.6545 373.477 98.8585 373.591 99.1047 373.694C99.3549 373.798 99.6531 373.898 99.9994 373.994C100.477 374.129 100.888 374.279 101.235 374.444C101.581 374.609 101.866 374.795 102.089 375.003C102.316 375.207 102.483 375.439 102.591 375.7C102.703 375.958 102.759 376.25 102.759 376.576C102.759 376.918 102.689 377.228 102.551 377.504C102.412 377.781 102.214 378.017 101.956 378.213C101.698 378.409 101.389 378.561 101.027 378.669C100.669 378.772 100.269 378.824 99.8263 378.824C99.4376 378.824 99.0547 378.77 98.6776 378.663C98.3043 378.555 97.9638 378.394 97.6559 378.179C97.3519 377.964 97.1076 377.698 96.9229 377.383C96.742 377.064 96.6516 376.695 96.6516 376.277H97.7598C97.7598 376.565 97.8156 376.813 97.9272 377.02C98.0388 377.224 98.1908 377.393 98.3832 377.527C98.5795 377.662 98.8007 377.762 99.047 377.827C99.2971 377.889 99.5569 377.919 99.8263 377.919C100.215 377.919 100.544 377.866 100.813 377.758C101.083 377.65 101.287 377.497 101.425 377.297C101.568 377.097 101.639 376.861 101.639 376.588Z" fill="#023047"/>
<path d="M104.448 378.144C104.448 377.964 104.504 377.812 104.615 377.689C104.731 377.562 104.896 377.499 105.112 377.499C105.327 377.499 105.491 377.562 105.602 377.689C105.718 377.812 105.775 377.964 105.775 378.144C105.775 378.321 105.718 378.471 105.602 378.594C105.491 378.717 105.327 378.778 105.112 378.778C104.896 378.778 104.731 378.717 104.615 378.594C104.504 378.471 104.448 378.321 104.448 378.144Z" fill="#023047"/>
<path d="M198.337 336.527V340.693H204.943V359.788H210.506V340.693H217.112V336.527H198.337Z" fill="#023047"/>
<path d="M255.183 342.082V336.874L251.011 336.18H247.409C246.344 336.18 245.289 336.389 244.305 336.797V336.797C240.757 338.266 238.111 341.322 237.164 345.043L236.867 346.214C236.233 348.704 236.489 351.338 237.591 353.659V353.659C239.417 357.508 243.296 359.962 247.556 359.962H249.964C251.236 359.962 252.503 359.798 253.734 359.474L255.183 359.094V354.233L252.167 355.044C251.169 355.312 250.132 355.448 249.099 355.448V355.448C244.694 355.448 241.332 351.445 242.145 347.116V347.116V347.116C242.326 342.879 246.315 339.85 250.445 340.816L250.663 340.867L255.183 342.082Z" fill="#023047"/>
<path fill-rule="evenodd" clip-rule="evenodd" d="M48.832 296.601V357.531H62.5656V334.444H67.477C69.0563 334.444 70.5082 335.31 71.2578 336.7V336.7L83.9483 357.531H99.9419L92.119 345.033L86.128 336.309C84.5719 334.043 82.6176 332.078 80.36 330.51V330.51C80.0875 330.32 80.1031 329.912 80.3894 329.744L85.2391 326.9C88.7617 324.834 91.3505 321.488 92.4652 317.559V317.559C94.7938 309.353 90.2058 300.776 82.0869 298.158L81.917 298.103C80.611 297.682 79.2564 297.431 77.8863 297.355L64.3041 296.601H48.832ZM62.7395 323.681V306.843L71.4884 307.264C74.8402 307.425 77.6673 309.814 78.3854 313.092V313.092L78.4963 314.273C78.7542 317.021 77.6789 319.725 75.6051 321.544V321.544C74.0355 322.922 72.0186 323.681 69.9305 323.681H62.7395Z" fill="#023047"/>
<path fill-rule="evenodd" clip-rule="evenodd" d="M5.19727 297.469H39.6182V308.231H5.19727V297.469ZM5.19727 345.38H39.6182V356.142H5.19727V345.38ZM39.6182 321.424H5.19727V332.187H39.6182V321.424Z" fill="#219EBC"/>
<path fill-rule="evenodd" clip-rule="evenodd" d="M218.329 336.7H235.018V340.903H218.329V336.7ZM218.329 355.411H235.018V359.614H218.329V355.411ZM235.018 346.056H218.329V350.259H235.018V346.056Z" fill="#219EBC"/>
<path d="M160.961 326.806C160.961 343.008 147.885 356.142 131.755 356.142C115.625 356.142 102.549 343.008 102.549 326.806C102.549 310.603 115.625 297.469 131.755 297.469C147.885 297.469 160.961 310.603 160.961 326.806ZM112.637 326.806C112.637 337.411 121.197 346.009 131.755 346.009C142.313 346.009 150.873 337.411 150.873 326.806C150.873 316.2 142.313 307.602 131.755 307.602C121.197 307.602 112.637 316.2 112.637 326.806Z" fill="#219EBC"/>
<path d="M232.739 333.963C234.212 328.119 233.846 321.963 231.692 316.334C229.538 310.705 225.7 305.874 220.699 302.5C215.699 299.125 209.78 297.37 203.745 297.473C197.711 297.576 191.855 299.532 186.973 303.076C182.092 306.619 178.421 311.578 176.461 317.277C174.501 322.977 174.346 329.141 176.018 334.932C177.689 340.722 181.106 345.858 185.804 349.641C190.502 353.424 197.531 355.737 203.552 356.142V346.074C199.618 345.81 195.266 344.199 192.196 341.727C189.127 339.255 186.894 335.899 185.802 332.115C184.709 328.332 184.81 324.304 186.091 320.58C187.372 316.855 189.77 313.615 192.96 311.3C196.15 308.985 199.976 307.706 203.919 307.639C207.862 307.572 211.73 308.719 214.998 310.924C218.265 313.129 220.773 316.285 222.18 319.963C223.588 323.642 223.463 330.144 222.501 333.963L232.739 333.963Z" fill="#219EBC"/>
<path d="M654.628 437.173L656.296 431.317H657.104L656.637 433.594L654.842 439.709H654.039L654.628 437.173ZM652.902 431.317L654.23 437.058L654.628 439.709H653.832L651.794 431.317H652.902ZM659.263 437.052L660.562 431.317H661.676L659.644 439.709H658.847L659.263 437.052ZM657.226 431.317L658.847 437.173L659.436 439.709H658.634L656.902 433.594L656.429 431.317H657.226Z" fill="#023047"/>
<path d="M668.664 438.804V439.709H664.214V438.804H668.664ZM664.439 431.317V439.709H663.325V431.317H664.439ZM668.075 434.925V435.83H664.214V434.925H668.075ZM668.606 431.317V432.228H664.214V431.317H668.606Z" fill="#023047"/>
<path d="M673.803 431.317H676.585C677.217 431.317 677.75 431.413 678.184 431.605C678.623 431.797 678.956 432.082 679.183 432.458C679.414 432.831 679.529 433.29 679.529 433.836C679.529 434.22 679.45 434.572 679.293 434.89C679.139 435.206 678.916 435.475 678.623 435.697C678.334 435.916 677.988 436.08 677.584 436.187L677.272 436.308H674.658L674.646 435.403H676.62C677.02 435.403 677.353 435.334 677.619 435.196C677.884 435.054 678.084 434.864 678.219 434.625C678.354 434.387 678.421 434.124 678.421 433.836C678.421 433.513 678.358 433.23 678.231 432.988C678.104 432.746 677.903 432.56 677.63 432.429C677.361 432.295 677.013 432.228 676.585 432.228H674.917V439.709H673.803V431.317ZM678.715 439.709L676.672 435.905L677.832 435.899L679.904 439.64V439.709H678.715Z" fill="#023047"/>
<path d="M682.696 431.317V439.709H681.582V431.317H682.696Z" fill="#023047"/>
<path d="M689.615 437.588C689.615 437.392 689.584 437.219 689.523 437.069C689.465 436.915 689.361 436.777 689.211 436.654C689.065 436.531 688.861 436.414 688.599 436.303C688.342 436.191 688.014 436.078 687.618 435.963C687.203 435.84 686.827 435.703 686.493 435.553C686.158 435.4 685.871 435.225 685.632 435.029C685.394 434.833 685.211 434.608 685.084 434.354C684.957 434.101 684.894 433.811 684.894 433.484C684.894 433.157 684.961 432.856 685.096 432.579C685.23 432.303 685.423 432.062 685.673 431.859C685.927 431.651 686.229 431.49 686.579 431.375C686.929 431.259 687.32 431.202 687.751 431.202C688.382 431.202 688.917 431.323 689.356 431.565C689.798 431.803 690.135 432.116 690.366 432.504C690.597 432.889 690.712 433.3 690.712 433.738H689.604C689.604 433.423 689.536 433.144 689.402 432.902C689.267 432.656 689.063 432.464 688.79 432.326C688.517 432.183 688.17 432.112 687.751 432.112C687.355 432.112 687.027 432.172 686.77 432.291C686.512 432.41 686.319 432.572 686.192 432.775C686.069 432.979 686.008 433.211 686.008 433.473C686.008 433.649 686.044 433.811 686.117 433.957C686.194 434.099 686.312 434.231 686.469 434.354C686.631 434.477 686.835 434.591 687.081 434.694C687.331 434.798 687.63 434.898 687.976 434.994C688.453 435.129 688.865 435.279 689.211 435.444C689.558 435.609 689.842 435.795 690.065 436.003C690.293 436.207 690.46 436.439 690.568 436.7C690.679 436.958 690.735 437.25 690.735 437.576C690.735 437.918 690.666 438.228 690.527 438.504C690.389 438.781 690.191 439.017 689.933 439.213C689.675 439.409 689.365 439.561 689.003 439.669C688.646 439.772 688.245 439.824 687.803 439.824C687.414 439.824 687.031 439.77 686.654 439.663C686.281 439.555 685.94 439.394 685.632 439.179C685.328 438.964 685.084 438.698 684.899 438.383C684.719 438.064 684.628 437.695 684.628 437.277H685.736C685.736 437.565 685.792 437.813 685.904 438.02C686.015 438.224 686.167 438.393 686.36 438.527C686.556 438.662 686.777 438.762 687.024 438.827C687.274 438.889 687.533 438.919 687.803 438.919C688.191 438.919 688.52 438.866 688.79 438.758C689.059 438.65 689.263 438.497 689.402 438.297C689.544 438.097 689.615 437.861 689.615 437.588Z" fill="#023047"/>
<path d="M697.908 438.804V439.709H693.458V438.804H697.908ZM693.683 431.317V439.709H692.569V431.317H693.683ZM697.319 434.925V435.83H693.458V434.925H697.319ZM697.85 431.317V432.228H693.458V431.317H697.85Z" fill="#023047"/>
<path d="M706.043 435.784H703.913L703.902 434.89H705.835C706.155 434.89 706.434 434.837 706.672 434.729C706.911 434.621 707.095 434.468 707.226 434.268C707.361 434.064 707.428 433.822 707.428 433.542C707.428 433.234 707.369 432.985 707.249 432.792C707.134 432.596 706.955 432.454 706.713 432.366C706.474 432.274 706.17 432.228 705.801 432.228H704.161V439.709H703.047V431.317H705.801C706.232 431.317 706.616 431.361 706.955 431.45C707.294 431.534 707.58 431.669 707.815 431.853C708.054 432.034 708.234 432.264 708.358 432.545C708.481 432.825 708.542 433.161 708.542 433.553C708.542 433.899 708.454 434.212 708.277 434.493C708.1 434.769 707.854 434.996 707.538 435.173C707.226 435.35 706.861 435.463 706.441 435.513L706.043 435.784ZM705.991 439.709H703.474L704.104 438.804H705.991C706.345 438.804 706.645 438.743 706.891 438.62C707.142 438.497 707.332 438.324 707.463 438.101C707.594 437.874 707.659 437.607 707.659 437.3C707.659 436.988 707.603 436.719 707.492 436.493C707.38 436.266 707.205 436.091 706.967 435.968C706.728 435.845 706.42 435.784 706.043 435.784H704.456L704.467 434.89H706.638L706.874 435.213C707.278 435.248 707.621 435.363 707.902 435.559C708.183 435.751 708.396 435.997 708.542 436.297C708.692 436.597 708.767 436.927 708.767 437.288C708.767 437.811 708.652 438.253 708.421 438.614C708.194 438.971 707.873 439.244 707.457 439.432C707.042 439.617 706.553 439.709 705.991 439.709Z" fill="#023047"/>
<path d="M710.89 431.317L713.072 435.53L715.259 431.317H716.523L713.626 436.573V439.709H712.512V436.573L709.614 431.317H710.89Z" fill="#023047"/>
<path d="M726.459 438.804V439.709H722.257V438.804H726.459ZM722.476 431.317V439.709H721.362V431.317H722.476Z" fill="#023047"/>
<path d="M729.343 431.317V439.709H728.229V431.317H729.343Z" fill="#023047"/>
<path d="M732.897 431.317V439.709H731.783V431.317H732.897ZM736.418 435.092V436.003H732.655V435.092H736.418ZM736.99 431.317V432.228H732.655V431.317H736.99Z" fill="#023047"/>
<path d="M741.952 431.317V439.709H740.855V431.317H741.952ZM744.653 431.317V432.228H738.16V431.317H744.653Z" fill="#023047"/>
<path d="M747.509 431.317V439.709H746.395V431.317H747.509Z" fill="#023047"/>
<path d="M756.413 431.317V439.709H755.293L751.062 433.236V439.709H749.948V431.317H751.062L755.311 437.807V431.317H756.413Z" fill="#023047"/>
<path d="M765.012 435.53V438.602C764.908 438.756 764.742 438.929 764.515 439.121C764.288 439.309 763.975 439.475 763.575 439.617C763.178 439.755 762.666 439.824 762.039 439.824C761.527 439.824 761.056 439.736 760.625 439.559C760.198 439.378 759.826 439.117 759.511 438.775C759.199 438.429 758.957 438.011 758.784 437.519C758.614 437.023 758.53 436.462 758.53 435.836V435.184C758.53 434.558 758.603 433.999 758.749 433.507C758.899 433.015 759.118 432.598 759.407 432.256C759.696 431.911 760.05 431.649 760.469 431.473C760.889 431.292 761.37 431.202 761.912 431.202C762.555 431.202 763.092 431.313 763.523 431.536C763.957 431.755 764.296 432.059 764.538 432.447C764.785 432.835 764.943 433.277 765.012 433.772H763.898C763.848 433.469 763.748 433.192 763.598 432.942C763.451 432.693 763.242 432.493 762.968 432.343C762.695 432.189 762.343 432.112 761.912 432.112C761.524 432.112 761.187 432.183 760.902 432.326C760.617 432.468 760.383 432.671 760.198 432.937C760.013 433.202 759.875 433.523 759.782 433.899C759.694 434.276 759.649 434.7 759.649 435.173V435.836C759.649 436.32 759.705 436.752 759.817 437.133C759.932 437.513 760.096 437.838 760.308 438.107C760.519 438.372 760.771 438.573 761.064 438.712C761.36 438.85 761.687 438.919 762.045 438.919C762.441 438.919 762.763 438.887 763.009 438.821C763.255 438.752 763.448 438.671 763.586 438.579C763.725 438.483 763.83 438.393 763.904 438.308V436.429H761.958V435.53H765.012Z" fill="#023047"/>
<path d="M777.089 435.248V435.778C777.089 436.408 777.01 436.973 776.853 437.473C776.695 437.972 776.468 438.397 776.171 438.746C775.875 439.096 775.519 439.363 775.104 439.548C774.692 439.732 774.23 439.824 773.718 439.824C773.222 439.824 772.766 439.732 772.35 439.548C771.939 439.363 771.581 439.096 771.277 438.746C770.976 438.397 770.744 437.972 770.578 437.473C770.413 436.973 770.33 436.408 770.33 435.778V435.248C770.33 434.618 770.411 434.055 770.572 433.559C770.738 433.06 770.971 432.635 771.271 432.285C771.571 431.932 771.927 431.663 772.339 431.478C772.754 431.294 773.21 431.202 773.707 431.202C774.218 431.202 774.68 431.294 775.092 431.478C775.508 431.663 775.864 431.932 776.16 432.285C776.46 432.635 776.689 433.06 776.847 433.559C777.008 434.055 777.089 434.618 777.089 435.248ZM775.987 435.778V435.236C775.987 434.737 775.935 434.295 775.831 433.911C775.731 433.526 775.583 433.204 775.386 432.942C775.19 432.681 774.95 432.483 774.665 432.349C774.384 432.214 774.065 432.147 773.707 432.147C773.36 432.147 773.047 432.214 772.766 432.349C772.489 432.483 772.25 432.681 772.05 432.942C771.854 433.204 771.702 433.526 771.594 433.911C771.486 434.295 771.432 434.737 771.432 435.236V435.778C771.432 436.281 771.486 436.727 771.594 437.115C771.702 437.5 771.856 437.824 772.056 438.089C772.26 438.351 772.5 438.549 772.777 438.683C773.058 438.817 773.372 438.885 773.718 438.885C774.08 438.885 774.401 438.817 774.682 438.683C774.963 438.549 775.2 438.351 775.392 438.089C775.588 437.824 775.737 437.5 775.837 437.115C775.937 436.727 775.987 436.281 775.987 435.778Z" fill="#023047"/>
<path d="M782.115 431.317V439.709H781.018V431.317H782.115ZM784.816 431.317V432.228H778.323V431.317H784.816Z" fill="#023047"/>
<path d="M791.966 434.925V435.83H787.418V434.925H791.966ZM787.591 431.317V439.709H786.477V431.317H787.591ZM792.936 431.317V439.709H791.827V431.317H792.936Z" fill="#023047"/>
<path d="M800.669 438.804V439.709H796.218V438.804H800.669ZM796.443 431.317V439.709H795.329V431.317H796.443ZM800.08 434.925V435.83H796.218V434.925H800.08ZM800.611 431.317V432.228H796.218V431.317H800.611Z" fill="#023047"/>
<path d="M802.462 431.317H805.244C805.875 431.317 806.408 431.413 806.843 431.605C807.282 431.797 807.614 432.082 807.841 432.458C808.072 432.831 808.188 433.29 808.188 433.836C808.188 434.22 808.109 434.572 807.951 434.89C807.797 435.206 807.574 435.475 807.282 435.697C806.993 435.916 806.647 436.08 806.243 436.187L805.931 436.308H803.316L803.305 435.403H805.279C805.679 435.403 806.012 435.334 806.277 435.196C806.543 435.054 806.743 434.864 806.878 434.625C807.012 434.387 807.08 434.124 807.08 433.836C807.08 433.513 807.016 433.23 806.889 432.988C806.762 432.746 806.562 432.56 806.289 432.429C806.019 432.295 805.671 432.228 805.244 432.228H803.576V439.709H802.462V431.317ZM807.374 439.709L805.331 435.905L806.491 435.899L808.563 439.64V439.709H807.374Z" fill="#023047"/>
<path d="M814.639 437.588C814.639 437.392 814.608 437.219 814.547 437.069C814.489 436.915 814.385 436.777 814.235 436.654C814.089 436.531 813.885 436.414 813.623 436.303C813.365 436.191 813.038 436.078 812.642 435.963C812.226 435.84 811.851 435.703 811.516 435.553C811.182 435.4 810.895 435.225 810.656 435.029C810.418 434.833 810.235 434.608 810.108 434.354C809.981 434.101 809.918 433.811 809.918 433.484C809.918 433.157 809.985 432.856 810.12 432.579C810.254 432.303 810.447 432.062 810.697 431.859C810.951 431.651 811.253 431.49 811.603 431.375C811.953 431.259 812.344 431.202 812.775 431.202C813.406 431.202 813.941 431.323 814.379 431.565C814.822 431.803 815.159 432.116 815.39 432.504C815.62 432.889 815.736 433.3 815.736 433.738H814.628C814.628 433.423 814.56 433.144 814.426 432.902C814.291 432.656 814.087 432.464 813.814 432.326C813.541 432.183 813.194 432.112 812.775 432.112C812.378 432.112 812.051 432.172 811.794 432.291C811.536 432.41 811.343 432.572 811.216 432.775C811.093 432.979 811.032 433.211 811.032 433.473C811.032 433.649 811.068 433.811 811.141 433.957C811.218 434.099 811.336 434.231 811.493 434.354C811.655 434.477 811.859 434.591 812.105 434.694C812.355 434.798 812.654 434.898 813 434.994C813.477 435.129 813.889 435.279 814.235 435.444C814.581 435.609 814.866 435.795 815.089 436.003C815.316 436.207 815.484 436.439 815.592 436.7C815.703 436.958 815.759 437.25 815.759 437.576C815.759 437.918 815.69 438.228 815.551 438.504C815.413 438.781 815.214 439.017 814.957 439.213C814.699 439.409 814.389 439.561 814.027 439.669C813.669 439.772 813.269 439.824 812.827 439.824C812.438 439.824 812.055 439.77 811.678 439.663C811.305 439.555 810.964 439.394 810.656 439.179C810.352 438.964 810.108 438.698 809.923 438.383C809.743 438.064 809.652 437.695 809.652 437.277H810.76C810.76 437.565 810.816 437.813 810.928 438.02C811.039 438.224 811.191 438.393 811.384 438.527C811.58 438.662 811.801 438.762 812.048 438.827C812.298 438.889 812.557 438.919 812.827 438.919C813.215 438.919 813.544 438.866 813.814 438.758C814.083 438.65 814.287 438.497 814.426 438.297C814.568 438.097 814.639 437.861 814.639 437.588Z" fill="#023047"/>
<path d="M817.448 439.144C817.448 438.964 817.504 438.812 817.616 438.689C817.731 438.562 817.897 438.499 818.112 438.499C818.328 438.499 818.491 438.562 818.603 438.689C818.718 438.812 818.776 438.964 818.776 439.144C818.776 439.321 818.718 439.471 818.603 439.594C818.491 439.717 818.328 439.778 818.112 439.778C817.897 439.778 817.731 439.717 817.616 439.594C817.504 439.471 817.448 439.321 817.448 439.144Z" fill="#023047"/>
<path fill-rule="evenodd" clip-rule="evenodd" d="M651.441 357.774V418.531H673.302C678.592 418.531 683.813 417.326 688.566 415.006L692.169 413.249C695.091 411.823 697.555 409.607 699.278 406.852L700.847 404.347C703.229 400.541 704.744 396.259 705.284 391.803L705.596 389.227C707.533 373.25 695.681 358.908 679.604 357.774H651.441ZM676.301 368.884H665.349V407.421H667.773C673.511 407.421 679.68 407.495 684.201 403.961C688.162 400.864 690.724 396.122 690.928 390.826L691.078 386.938L690.985 384.775C690.637 376.606 684.427 369.886 676.301 368.884Z" fill="#023047"/>
<path fill-rule="evenodd" clip-rule="evenodd" d="M599.115 418.358H586.927C586.2 418.358 585.543 417.925 585.256 417.257V417.257C584.89 416.403 584.864 415.442 585.184 414.57L605.606 358.939C606.138 357.489 607.008 356.187 608.144 355.141L608.527 354.788C610.076 353.36 612.106 352.567 614.212 352.567V352.567C616.141 352.567 618.011 353.231 619.507 354.449L619.826 354.708C621.175 355.806 622.199 357.251 622.786 358.887L644.14 418.358H632.438C630.206 418.358 628.245 416.879 627.631 414.733L624.843 404.991H610.4C605.892 404.991 601.941 408.008 600.754 412.356L599.115 418.358ZM608.092 393.388C608.686 394.034 609.523 394.402 610.401 394.402H621.54L616.594 379.42C616.423 378.904 616.033 378.489 615.529 378.287V378.287C613.59 377.513 611.396 378.504 610.695 380.47L607.459 389.542L607.291 390.88C607.177 391.793 607.47 392.71 608.092 393.388V393.388Z" fill="#023047"/>
<path d="M646.995 439.661C637.631 444.846 627.024 447.369 616.326 446.956C605.627 446.544 595.246 443.212 586.311 437.323C577.376 431.433 570.227 423.211 565.643 413.55C561.058 403.889 559.213 393.158 560.307 382.523C561.401 371.888 565.392 361.756 571.848 353.227C578.303 344.698 586.976 338.099 596.924 334.146C606.871 330.193 617.714 329.038 628.273 330.805C638.832 332.573 649.24 340.209 657.352 347.185" stroke="#219EBC" stroke-width="4"/>
<ellipse cx="658.917" cy="349.963" rx="5.38913" ry="5.3813" fill="#219EBC"/>
</g>
<defs>
<clipPath id="clip0_580_216">
<rect width="710" height="500" fill="white"/>
</clipPath>
</defs>
</svg>
