<svg width="786" height="558" viewBox="0 0 786 558" fill="none" xmlns="http://www.w3.org/2000/svg">
<g clip-path="url(#clip0_580_1153)">
<rect width="785.47" height="557.74" fill="white"/>
<path d="M95.3995 509.15C100.99 509.15 105.53 504.62 105.53 499.02C105.53 493.43 101 488.89 95.3995 488.89C89.8095 488.89 85.2695 493.42 85.2695 499.02C85.2695 504.62 89.7995 509.15 95.3995 509.15ZM95.3995 494.27C98.0295 494.27 100.16 496.4 100.16 499.03C100.16 501.66 98.0295 503.79 95.3995 503.79C92.7695 503.79 90.6395 501.66 90.6395 499.03C90.6395 496.4 92.7695 494.27 95.3995 494.27Z" fill="#114A82"/>
<path d="M129.239 509.15C134.829 509.15 139.369 504.62 139.369 499.02C139.369 493.43 134.839 488.89 129.239 488.89C123.649 488.89 119.109 493.42 119.109 499.02C119.109 504.62 123.649 509.15 129.239 509.15ZM129.239 494.27C131.869 494.27 133.999 496.4 133.999 499.03C133.999 501.66 131.869 503.79 129.239 503.79C126.609 503.79 124.479 501.66 124.479 499.03C124.489 496.4 126.609 494.27 129.239 494.27Z" fill="#FFC200"/>
<path d="M467.457 58.1105C472.543 55.9885 474.947 50.1445 472.825 45.0577C470.703 39.9708 464.859 37.5674 459.772 39.6894C454.685 41.8115 452.282 47.6554 454.404 52.7423C456.526 57.8291 462.37 60.2326 467.457 58.1105Z" fill="#219EBC"/>
<path d="M572.42 31.9199C563.05 31.9199 555.45 39.5199 555.45 48.8899C555.45 58.2599 563.05 65.8599 572.42 65.8599C581.79 65.8599 589.39 58.2599 589.39 48.8899C589.39 39.5199 581.79 31.9199 572.42 31.9199ZM572.42 56.9899C567.95 56.9899 564.33 53.3699 564.33 48.8999C564.33 44.4299 567.95 40.8099 572.42 40.8099C576.89 40.8099 580.51 44.4299 580.51 48.8999C580.51 53.3699 576.89 56.9899 572.42 56.9899Z" fill="#219EBC"/>
<path d="M611.48 39.04C606.04 39.04 601.63 43.45 601.63 48.89C601.63 54.33 606.04 58.74 611.48 58.74C616.92 58.74 621.33 54.33 621.33 48.89C621.33 43.45 616.92 39.04 611.48 39.04ZM611.48 51.55C610.01 51.55 608.82 50.36 608.82 48.89C608.82 47.42 610.01 46.23 611.48 46.23C612.95 46.23 614.14 47.42 614.14 48.89C614.14 50.36 612.95 51.55 611.48 51.55Z" fill="#114A82"/>
<path d="M534.71 40.1602C529.88 40.1602 525.97 44.0702 525.97 48.9002C525.97 53.7302 529.88 57.6402 534.71 57.6402C539.54 57.6402 543.45 53.7302 543.45 48.9002C543.45 44.0702 539.54 40.1602 534.71 40.1602ZM534.71 53.0602C532.41 53.0602 530.54 51.1902 530.54 48.8902C530.54 46.5902 532.41 44.7202 534.71 44.7202C537.01 44.7202 538.88 46.5902 538.88 48.8902C538.88 51.1902 537.01 53.0602 534.71 53.0602Z" fill="#FFC200"/>
<path d="M692.609 371.89L699.45 378.72L701.46 376.71L692.609 367.86L683.77 376.71L685.78 378.72L692.609 371.89Z" fill="#219EBC"/>
<path d="M692.609 383.82L699.45 390.65L701.46 388.64L692.609 379.79L683.77 388.64L685.78 390.65L692.609 383.82Z" fill="#219EBC"/>
<path d="M692.609 395.89L699.45 402.73L701.46 400.71L692.609 391.87L683.77 400.71L685.78 402.73L692.609 395.89Z" fill="#219EBC"/>
<path d="M692.609 347.89L699.45 354.72L701.46 352.71L692.609 343.86L683.77 352.71L685.78 354.72L692.609 347.89Z" fill="#219EBC"/>
<path d="M692.609 359.82L699.45 366.65L701.46 364.64L692.609 355.79L683.77 364.64L685.78 366.65L692.609 359.82Z" fill="#219EBC"/>
<path d="M43.3202 313.52C50.9583 313.52 57.1502 307.328 57.1502 299.69C57.1502 292.052 50.9583 285.86 43.3202 285.86C35.6821 285.86 29.4902 292.052 29.4902 299.69C29.4902 307.328 35.6821 313.52 43.3202 313.52Z" fill="#FFC200"/>
<path d="M110.211 299.66L117.041 292.82L115.031 290.81L106.181 299.66L115.031 308.51L117.041 306.49L110.211 299.66Z" fill="#219EBC"/>
<path d="M122.14 299.66L128.97 292.82L126.96 290.81L118.11 299.66L126.96 308.51L128.97 306.49L122.14 299.66Z" fill="#219EBC"/>
<path d="M134.21 299.66L141.05 292.82L139.03 290.81L130.19 299.66L139.03 308.51L141.05 306.49L134.21 299.66Z" fill="#219EBC"/>
<path d="M86.2107 299.66L93.0407 292.82L91.0307 290.81L82.1807 299.66L91.0307 308.51L93.0407 306.49L86.2107 299.66Z" fill="#219EBC"/>
<path d="M98.1404 299.66L104.97 292.82L102.96 290.81L94.1104 299.66L102.96 308.51L104.97 306.49L98.1404 299.66Z" fill="#219EBC"/>
<path d="M281.22 90.21L264.78 106.57L248.33 90.21L231.89 106.57L215.45 90.21L200.95 104.64L186.44 90.21L170 106.57L153.55 90.21L137.11 106.57L120.67 90.21L104.35 106.45L106.17 108.27L120.67 93.84L137.11 110.2L153.55 93.84L170 110.2L186.44 93.84L200.95 108.28L215.45 93.84L231.89 110.2L248.33 93.84L264.78 110.2L281.22 93.84L295.73 108.27L297.54 106.45L281.22 90.21Z" fill="#0B315E"/>
<path d="M281.219 60.96L264.779 77.32L248.329 60.96L231.889 77.32L215.449 60.96L202.409 73.94L202.399 77.58L215.449 64.59L231.889 80.95L248.329 64.59L264.779 80.95L281.219 64.59L295.729 79.02L297.539 77.19L281.219 60.96Z" fill="#219EBC"/>
<path d="M617.06 486.42L600.62 502.78L584.17 486.42L567.73 502.78L551.29 486.42L534.83 502.81L536.72 504.55L551.29 490.04L567.73 506.4L584.17 490.04L600.62 506.4L617.06 490.04L631.57 504.47L633.38 502.65L617.06 486.42Z" fill="#219EBC"/>
<path d="M664.281 429.79C663.091 429.79 662.131 428.82 662.131 427.64C662.131 426.45 663.101 425.49 664.281 425.49C665.461 425.49 666.431 426.46 666.431 427.64C666.431 428.83 665.471 429.79 664.281 429.79Z" fill="#0B315E"/>
<path d="M664.281 448.26C663.091 448.26 662.131 447.29 662.131 446.11C662.131 444.92 663.101 443.96 664.281 443.96C665.461 443.96 666.431 444.93 666.431 446.11C666.431 447.29 665.471 448.26 664.281 448.26Z" fill="#0B315E"/>
<path d="M684.531 448.26C683.341 448.26 682.381 447.29 682.381 446.11C682.381 444.92 683.351 443.96 684.531 443.96C685.721 443.96 686.681 444.93 686.681 446.11C686.691 447.29 685.721 448.26 684.531 448.26Z" fill="#0B315E"/>
<path d="M664.281 466.73C663.091 466.73 662.131 465.76 662.131 464.58C662.131 463.39 663.101 462.43 664.281 462.43C665.461 462.43 666.431 463.4 666.431 464.58C666.431 465.76 665.471 466.73 664.281 466.73Z" fill="#0B315E"/>
<path d="M684.531 466.73C683.341 466.73 682.381 465.76 682.381 464.58C682.381 463.39 683.351 462.43 684.531 462.43C685.721 462.43 686.681 463.4 686.681 464.58C686.691 465.76 685.721 466.73 684.531 466.73Z" fill="#0B315E"/>
<path d="M704.781 466.73C703.591 466.73 702.631 465.76 702.631 464.58C702.631 463.39 703.601 462.43 704.781 462.43C705.971 462.43 706.931 463.4 706.931 464.58C706.941 465.76 705.971 466.73 704.781 466.73Z" fill="#0B315E"/>
<path d="M664.281 485.19C663.091 485.19 662.131 484.22 662.131 483.04C662.131 481.85 663.101 480.89 664.281 480.89C665.461 480.89 666.431 481.86 666.431 483.04C666.431 484.23 665.471 485.19 664.281 485.19Z" fill="#0B315E"/>
<path d="M684.531 485.19C683.341 485.19 682.381 484.22 682.381 483.04C682.381 481.85 683.351 480.89 684.531 480.89C685.721 480.89 686.681 481.86 686.681 483.04C686.691 484.23 685.721 485.19 684.531 485.19Z" fill="#0B315E"/>
<path d="M664.281 503.66C665.468 503.66 666.431 502.697 666.431 501.51C666.431 500.322 665.468 499.36 664.281 499.36C663.093 499.36 662.131 500.322 662.131 501.51C662.131 502.697 663.093 503.66 664.281 503.66Z" fill="#0B315E"/>
<path d="M15.3099 327.53C14.2499 327.53 13.3799 326.67 13.3799 325.6C13.3799 324.54 14.2399 323.67 15.3099 323.67C16.3799 323.67 17.2399 324.53 17.2399 325.6C17.2399 326.67 16.3799 327.53 15.3099 327.53Z" fill="#0B315E"/>
<path d="M33.4495 327.53C32.3895 327.53 31.5195 326.67 31.5195 325.6C31.5195 324.54 32.3795 323.67 33.4495 323.67C34.5195 323.67 35.3795 324.53 35.3795 325.6C35.3795 326.67 34.5095 327.53 33.4495 327.53Z" fill="#0B315E"/>
<path d="M51.5794 327.53C50.5194 327.53 49.6494 326.67 49.6494 325.6C49.6494 324.54 50.5094 323.67 51.5794 323.67C52.6394 323.67 53.5094 324.53 53.5094 325.6C53.5094 326.67 52.6494 327.53 51.5794 327.53Z" fill="#0B315E"/>
<path d="M69.72 327.53C68.66 327.53 67.79 326.67 67.79 325.6C67.79 324.54 68.65 323.67 69.72 323.67C70.78 323.67 71.65 324.53 71.65 325.6C71.65 326.67 70.78 327.53 69.72 327.53Z" fill="#0B315E"/>
<path d="M87.8597 327.53C86.7997 327.53 85.9297 326.67 85.9297 325.6C85.9297 324.54 86.7897 323.67 87.8597 323.67C88.9197 323.67 89.7897 324.53 89.7897 325.6C89.7797 326.67 88.9197 327.53 87.8597 327.53Z" fill="#0B315E"/>
<path d="M105.99 327.53C104.93 327.53 104.06 326.67 104.06 325.6C104.06 324.54 104.92 323.67 105.99 323.67C107.05 323.67 107.92 324.53 107.92 325.6C107.92 326.67 107.05 327.53 105.99 327.53Z" fill="#0B315E"/>
<path d="M124.13 327.53C123.07 327.53 122.2 326.67 122.2 325.6C122.2 324.54 123.06 323.67 124.13 323.67C125.19 323.67 126.06 324.53 126.06 325.6C126.05 326.67 125.19 327.53 124.13 327.53Z" fill="#0B315E"/>
<path d="M142.26 327.53C141.2 327.53 140.33 326.67 140.33 325.6C140.33 324.54 141.19 323.67 142.26 323.67C143.32 323.67 144.19 324.53 144.19 325.6C144.19 326.67 143.33 327.53 142.26 327.53Z" fill="#0B315E"/>
<path d="M379.56 505.48C378.5 505.48 377.63 504.62 377.63 503.55C377.63 502.49 378.49 501.62 379.56 501.62C380.62 501.62 381.49 502.48 381.49 503.55C381.49 504.62 380.63 505.48 379.56 505.48Z" fill="#0B315E"/>
<path d="M343.18 505.48C342.12 505.48 341.25 504.62 341.25 503.55C341.25 502.49 342.11 501.62 343.18 501.62C344.25 501.62 345.11 502.48 345.11 503.55C345.11 504.62 344.24 505.48 343.18 505.48Z" fill="#0B315E"/>
<path d="M397.7 505.48C396.64 505.48 395.77 504.62 395.77 503.55C395.77 502.49 396.63 501.62 397.7 501.62C398.76 501.62 399.63 502.48 399.63 503.55C399.63 504.62 398.76 505.48 397.7 505.48Z" fill="#0B315E"/>
<path d="M415.84 505.48C414.78 505.48 413.91 504.62 413.91 503.55C413.91 502.49 414.77 501.62 415.84 501.62C416.9 501.62 417.77 502.48 417.77 503.55C417.76 504.62 416.9 505.48 415.84 505.48Z" fill="#0B315E"/>
<path d="M433.97 505.48C432.91 505.48 432.04 504.62 432.04 503.55C432.04 502.49 432.9 501.62 433.97 501.62C435.03 501.62 435.9 502.48 435.9 503.55C435.9 504.62 435.03 505.48 433.97 505.48Z" fill="#0B315E"/>
<path d="M488.38 505.48C487.32 505.48 486.45 504.62 486.45 503.55C486.45 502.49 487.31 501.62 488.38 501.62C489.44 501.62 490.31 502.48 490.31 503.55C490.31 504.62 489.44 505.48 488.38 505.48Z" fill="#0B315E"/>
<path d="M625.241 105.2C624.181 105.2 623.311 104.34 623.311 103.27C623.311 102.21 624.171 101.34 625.241 101.34C626.311 101.34 627.171 102.2 627.171 103.27C627.171 104.33 626.301 105.2 625.241 105.2Z" fill="#0B315E"/>
<path d="M643.38 105.2C642.32 105.2 641.45 104.34 641.45 103.27C641.45 102.21 642.31 101.34 643.38 101.34C644.44 101.34 645.31 102.2 645.31 103.27C645.3 104.33 644.44 105.2 643.38 105.2Z" fill="#0B315E"/>
<path d="M661.51 105.2C660.45 105.2 659.58 104.34 659.58 103.27C659.58 102.21 660.44 101.34 661.51 101.34C662.57 101.34 663.44 102.2 663.44 103.27C663.44 104.33 662.58 105.2 661.51 105.2Z" fill="#0B315E"/>
<path d="M679.651 105.2C678.591 105.2 677.721 104.34 677.721 103.27C677.721 102.21 678.581 101.34 679.651 101.34C680.711 101.34 681.581 102.2 681.581 103.27C681.581 104.33 680.711 105.2 679.651 105.2Z" fill="#0B315E"/>
<path d="M697.781 105.2C696.721 105.2 695.851 104.34 695.851 103.27C695.851 102.21 696.711 101.34 697.781 101.34C698.841 101.34 699.711 102.2 699.711 103.27C699.711 104.33 698.851 105.2 697.781 105.2Z" fill="#0B315E"/>
<path d="M715.92 105.2C714.86 105.2 713.99 104.34 713.99 103.27C713.99 102.21 714.85 101.34 715.92 101.34C716.99 101.34 717.85 102.2 717.85 103.27C717.85 104.33 716.98 105.2 715.92 105.2Z" fill="#0B315E"/>
<path d="M625.241 121.74C624.181 121.74 623.311 120.88 623.311 119.81C623.311 118.75 624.171 117.88 625.241 117.88C626.311 117.88 627.171 118.74 627.171 119.81C627.171 120.87 626.301 121.74 625.241 121.74Z" fill="#0B315E"/>
<path d="M643.38 121.74C642.32 121.74 641.45 120.88 641.45 119.81C641.45 118.75 642.31 117.88 643.38 117.88C644.44 117.88 645.31 118.74 645.31 119.81C645.3 120.87 644.44 121.74 643.38 121.74Z" fill="#0B315E"/>
<path d="M661.51 121.74C660.45 121.74 659.58 120.88 659.58 119.81C659.58 118.75 660.44 117.88 661.51 117.88C662.57 117.88 663.44 118.74 663.44 119.81C663.44 120.87 662.58 121.74 661.51 121.74Z" fill="#0B315E"/>
<path d="M679.651 121.74C678.591 121.74 677.721 120.88 677.721 119.81C677.721 118.75 678.581 117.88 679.651 117.88C680.711 117.88 681.581 118.74 681.581 119.81C681.581 120.87 680.711 121.74 679.651 121.74Z" fill="#0B315E"/>
<path d="M697.781 121.74C696.721 121.74 695.851 120.88 695.851 119.81C695.851 118.75 696.711 117.88 697.781 117.88C698.841 117.88 699.711 118.74 699.711 119.81C699.711 120.87 698.851 121.74 697.781 121.74Z" fill="#0B315E"/>
<path d="M715.92 121.74C714.86 121.74 713.99 120.88 713.99 119.81C713.99 118.75 714.85 117.88 715.92 117.88C716.99 117.88 717.85 118.74 717.85 119.81C717.85 120.87 716.98 121.74 715.92 121.74Z" fill="#0B315E"/>
<path d="M625.241 138.27C624.181 138.27 623.311 137.41 623.311 136.34C623.311 135.28 624.171 134.41 625.241 134.41C626.311 134.41 627.171 135.27 627.171 136.34C627.171 137.41 626.301 138.27 625.241 138.27Z" fill="#0B315E"/>
<path d="M643.38 138.27C642.32 138.27 641.45 137.41 641.45 136.34C641.45 135.28 642.31 134.41 643.38 134.41C644.44 134.41 645.31 135.27 645.31 136.34C645.3 137.41 644.44 138.27 643.38 138.27Z" fill="#0B315E"/>
<path d="M661.51 138.27C660.45 138.27 659.58 137.41 659.58 136.34C659.58 135.28 660.44 134.41 661.51 134.41C662.57 134.41 663.44 135.27 663.44 136.34C663.44 137.41 662.58 138.27 661.51 138.27Z" fill="#0B315E"/>
<path d="M679.651 138.27C678.591 138.27 677.721 137.41 677.721 136.34C677.721 135.28 678.581 134.41 679.651 134.41C680.711 134.41 681.581 135.27 681.581 136.34C681.581 137.41 680.711 138.27 679.651 138.27Z" fill="#0B315E"/>
<path d="M697.781 138.27C696.721 138.27 695.851 137.41 695.851 136.34C695.851 135.28 696.711 134.41 697.781 134.41C698.841 134.41 699.711 135.27 699.711 136.34C699.711 137.41 698.851 138.27 697.781 138.27Z" fill="#0B315E"/>
<path d="M715.92 138.27C714.86 138.27 713.99 137.41 713.99 136.34C713.99 135.28 714.85 134.41 715.92 134.41C716.99 134.41 717.85 135.27 717.85 136.34C717.85 137.41 716.98 138.27 715.92 138.27Z" fill="#0B315E"/>
<path d="M625.241 154.81C624.181 154.81 623.311 153.95 623.311 152.88C623.311 151.82 624.171 150.95 625.241 150.95C626.311 150.95 627.171 151.81 627.171 152.88C627.171 153.94 626.301 154.81 625.241 154.81Z" fill="#0B315E"/>
<path d="M643.38 154.81C642.32 154.81 641.45 153.95 641.45 152.88C641.45 151.82 642.31 150.95 643.38 150.95C644.44 150.95 645.31 151.81 645.31 152.88C645.3 153.94 644.44 154.81 643.38 154.81Z" fill="#0B315E"/>
<path d="M661.51 154.81C660.45 154.81 659.58 153.95 659.58 152.88C659.58 151.82 660.44 150.95 661.51 150.95C662.57 150.95 663.44 151.81 663.44 152.88C663.44 153.94 662.58 154.81 661.51 154.81Z" fill="#0B315E"/>
<path d="M679.651 154.81C678.591 154.81 677.721 153.95 677.721 152.88C677.721 151.82 678.581 150.95 679.651 150.95C680.711 150.95 681.581 151.81 681.581 152.88C681.581 153.94 680.711 154.81 679.651 154.81Z" fill="#0B315E"/>
<path d="M697.781 154.81C696.721 154.81 695.851 153.95 695.851 152.88C695.851 151.82 696.711 150.95 697.781 150.95C698.841 150.95 699.711 151.81 699.711 152.88C699.711 153.94 698.851 154.81 697.781 154.81Z" fill="#0B315E"/>
<path d="M715.92 154.81C714.86 154.81 713.99 153.95 713.99 152.88C713.99 151.82 714.85 150.95 715.92 150.95C716.99 150.95 717.85 151.81 717.85 152.88C717.85 153.94 716.98 154.81 715.92 154.81Z" fill="#0B315E"/>
<path d="M625.241 171.35C624.181 171.35 623.311 170.49 623.311 169.42C623.311 168.36 624.171 167.49 625.241 167.49C626.311 167.49 627.171 168.35 627.171 169.42C627.171 170.48 626.301 171.35 625.241 171.35Z" fill="#0B315E"/>
<path d="M643.38 171.35C642.32 171.35 641.45 170.49 641.45 169.42C641.45 168.36 642.31 167.49 643.38 167.49C644.44 167.49 645.31 168.35 645.31 169.42C645.3 170.48 644.44 171.35 643.38 171.35Z" fill="#0B315E"/>
<path d="M661.51 171.35C660.45 171.35 659.58 170.49 659.58 169.42C659.58 168.36 660.44 167.49 661.51 167.49C662.57 167.49 663.44 168.35 663.44 169.42C663.44 170.48 662.58 171.35 661.51 171.35Z" fill="#0B315E"/>
<path d="M679.651 171.35C678.591 171.35 677.721 170.49 677.721 169.42C677.721 168.36 678.581 167.49 679.651 167.49C680.711 167.49 681.581 168.35 681.581 169.42C681.581 170.48 680.711 171.35 679.651 171.35Z" fill="#0B315E"/>
<path d="M697.781 171.35C696.721 171.35 695.851 170.49 695.851 169.42C695.851 168.36 696.711 167.49 697.781 167.49C698.841 167.49 699.711 168.35 699.711 169.42C699.711 170.48 698.851 171.35 697.781 171.35Z" fill="#0B315E"/>
<path d="M715.92 171.35C714.86 171.35 713.99 170.49 713.99 169.42C713.99 168.36 714.85 167.49 715.92 167.49C716.99 167.49 717.85 168.35 717.85 169.42C717.85 170.48 716.98 171.35 715.92 171.35Z" fill="#0B315E"/>
<path d="M625.241 187.88C624.181 187.88 623.311 187.02 623.311 185.95C623.311 184.89 624.171 184.02 625.241 184.02C626.311 184.02 627.171 184.88 627.171 185.95C627.171 187.02 626.301 187.88 625.241 187.88Z" fill="#0B315E"/>
<path d="M643.38 187.88C642.32 187.88 641.45 187.02 641.45 185.95C641.45 184.89 642.31 184.02 643.38 184.02C644.44 184.02 645.31 184.88 645.31 185.95C645.3 187.02 644.44 187.88 643.38 187.88Z" fill="#0B315E"/>
<path d="M661.51 187.88C660.45 187.88 659.58 187.02 659.58 185.95C659.58 184.89 660.44 184.02 661.51 184.02C662.57 184.02 663.44 184.88 663.44 185.95C663.44 187.02 662.58 187.88 661.51 187.88Z" fill="#0B315E"/>
<path d="M679.651 187.88C678.591 187.88 677.721 187.02 677.721 185.95C677.721 184.89 678.581 184.02 679.651 184.02C680.711 184.02 681.581 184.88 681.581 185.95C681.581 187.02 680.711 187.88 679.651 187.88Z" fill="#0B315E"/>
<path d="M697.781 187.88C696.721 187.88 695.851 187.02 695.851 185.95C695.851 184.89 696.711 184.02 697.781 184.02C698.841 184.02 699.711 184.88 699.711 185.95C699.711 187.02 698.851 187.88 697.781 187.88Z" fill="#0B315E"/>
<path d="M715.92 187.88C714.86 187.88 713.99 187.02 713.99 185.95C713.99 184.89 714.85 184.02 715.92 184.02C716.99 184.02 717.85 184.88 717.85 185.95C717.85 187.02 716.98 187.88 715.92 187.88Z" fill="#0B315E"/>
<path d="M701.63 200.85L616.58 115.8H701.63V200.85Z" fill="#219EBC"/>
<path d="M58.8704 51.8101C57.7504 51.8101 56.9404 52.6201 56.9404 53.7301C56.9404 54.8501 57.7504 55.6601 58.8604 55.6601C59.9804 55.6601 60.7804 54.8501 60.7904 53.7401C60.7904 52.6201 59.9904 51.8101 58.8704 51.8101Z" fill="#0B315E"/>
<path d="M78.1308 51.8099C77.0108 51.7899 76.1708 52.5799 76.1508 53.6899C76.1308 54.8099 76.9308 55.6499 78.0308 55.6699C79.1508 55.6899 79.9808 54.8999 80.0008 53.7899C80.0308 52.6599 79.2408 51.8299 78.1308 51.8099Z" fill="#0B315E"/>
<path d="M97.3202 51.8097C96.2002 51.7997 95.3802 52.6097 95.3702 53.7197C95.3602 54.8397 96.1702 55.6597 97.2802 55.6697C98.4002 55.6797 99.2102 54.8797 99.2202 53.7597C99.2302 52.6297 98.4402 51.8197 97.3202 51.8097Z" fill="#0B315E"/>
<path d="M10.8107 65.2797C11.9307 65.2797 12.7407 64.4797 12.7407 63.3597C12.7407 62.2397 11.9407 61.4297 10.8207 61.4297C9.70072 61.4297 8.89072 62.2397 8.89072 63.3497C8.88072 64.4597 9.70072 65.2697 10.8107 65.2797Z" fill="#0B315E"/>
<path d="M30.0007 65.28C31.1207 65.29 31.9407 64.5 31.9607 63.38C31.9707 62.25 31.1807 61.43 30.0707 61.42C28.9507 61.41 28.1207 62.2 28.1107 63.31C28.0907 64.43 28.9007 65.26 30.0007 65.28Z" fill="#0B315E"/>
<path d="M49.2304 61.42C48.1204 61.43 47.3104 62.25 47.3204 63.37C47.3304 64.48 48.1604 65.29 49.2704 65.28C50.3904 65.27 51.1804 64.45 51.1704 63.33C51.1704 62.21 50.3504 61.41 49.2304 61.42Z" fill="#0B315E"/>
<path d="M68.5499 61.4198C67.4299 61.3898 66.5799 62.1698 66.5399 63.2698C66.5099 64.3898 67.2899 65.2398 68.3899 65.2798C69.5099 65.3098 70.3599 64.5298 70.3899 63.4298C70.4299 62.2898 69.6599 61.4498 68.5499 61.4198Z" fill="#0B315E"/>
<path d="M87.7306 61.42C86.6106 61.41 85.7806 62.21 85.7706 63.31C85.7606 64.43 86.5606 65.26 87.6706 65.27C88.7906 65.28 89.6106 64.48 89.6206 63.37C89.6306 62.25 88.8406 61.43 87.7306 61.42Z" fill="#0B315E"/>
<path d="M20.4302 74.8898C21.5502 74.8798 22.3502 74.0698 22.3402 72.9498C22.3402 71.8298 21.5302 71.0298 20.4102 71.0298C19.2902 71.0298 18.4902 71.8498 18.4902 72.9698C18.5002 74.0798 19.3202 74.8898 20.4302 74.8898Z" fill="#0B315E"/>
<path d="M37.7201 72.8201C37.6601 73.9501 38.4201 74.8201 39.5101 74.8901C40.6301 74.9501 41.5101 74.1901 41.5701 73.1001C41.6301 71.9701 40.8801 71.1001 39.7901 71.0401C38.6501 70.9701 37.7801 71.7301 37.7201 72.8201Z" fill="#0B315E"/>
<path d="M58.9403 71.0297C57.8203 70.9997 56.9703 71.7697 56.9403 72.8797C56.9103 73.9997 57.6903 74.8497 58.7903 74.8897C59.9103 74.9197 60.7603 74.1397 60.7903 73.0397C60.8203 71.8997 60.0503 71.0597 58.9403 71.0297Z" fill="#0B315E"/>
<path d="M78.0505 71.0299C76.9405 71.0399 76.1405 71.8699 76.1605 72.9899C76.1705 74.0999 77.0005 74.8999 78.1205 74.8899C79.2305 74.8699 80.0205 74.0499 80.0105 72.9299C79.9905 71.8099 79.1705 71.0199 78.0505 71.0299Z" fill="#0B315E"/>
<path d="M30.0303 84.4999C31.1503 84.4999 31.9504 83.6999 31.9604 82.5799C31.9604 81.4599 31.1604 80.6499 30.0404 80.6499C28.9204 80.6499 28.1104 81.4599 28.1104 82.5699C28.1104 83.6799 28.9203 84.4999 30.0303 84.4999Z" fill="#0B315E"/>
<path d="M49.2107 80.64C48.1007 80.66 47.3007 81.49 47.3207 82.61C47.3407 83.72 48.1707 84.52 49.2907 84.5C50.4007 84.48 51.1907 83.66 51.1707 82.53C51.1607 81.41 50.3407 80.62 49.2107 80.64Z" fill="#0B315E"/>
<path d="M68.5099 80.6397C67.3899 80.6297 66.5599 81.4297 66.5499 82.5297C66.5399 83.6497 67.3399 84.4797 68.4499 84.4897C69.5699 84.4997 70.3899 83.7097 70.3999 82.5897C70.4099 81.4697 69.6199 80.6497 68.5099 80.6397Z" fill="#0B315E"/>
<path d="M39.5702 94.1101C40.6902 94.1401 41.5402 93.3601 41.5702 92.2601C41.6002 91.1301 40.8302 90.2901 39.7302 90.2601C38.6102 90.2301 37.7602 91.0101 37.7202 92.1101C37.6802 93.2201 38.4702 94.0701 39.5702 94.1101Z" fill="#0B315E"/>
<path d="M58.9101 90.2499C57.7901 90.2299 56.9501 91.0199 56.9301 92.1299C56.9101 93.2499 57.7101 94.0899 58.8101 94.1099C59.9301 94.1299 60.7601 93.3399 60.7801 92.2299C60.8101 91.0999 60.0201 90.2699 58.9101 90.2499Z" fill="#0B315E"/>
<path d="M49.2204 99.8597C48.1104 99.8797 47.3104 100.7 47.3304 101.82C47.3504 102.93 48.1804 103.73 49.2904 103.71C50.4004 103.69 51.1904 102.87 51.1804 101.75C51.1604 100.64 50.3404 99.8397 49.2204 99.8597Z" fill="#0B315E"/>
<path d="M30.0404 26.84C31.1604 26.84 31.9604 26.03 31.9604 24.9C31.9604 23.78 31.1504 22.98 30.0304 22.98C28.9104 22.98 28.1004 23.8 28.1104 24.91C28.1104 26.03 28.9304 26.84 30.0404 26.84Z" fill="#0B315E"/>
<path d="M51.1705 25.0399C51.2305 23.9099 50.4805 23.0399 49.3905 22.9799C48.2605 22.9199 47.3905 23.6799 47.3305 24.7699C47.2705 25.8899 48.0305 26.7699 49.1205 26.8299C50.2405 26.8999 51.1205 26.1299 51.1705 25.0399Z" fill="#0B315E"/>
<path d="M68.5099 22.9801C67.3899 22.9701 66.5599 23.7701 66.5499 24.8701C66.5399 25.9901 67.3399 26.8201 68.4499 26.8301C69.5699 26.8401 70.3899 26.0501 70.3999 24.9301C70.4099 23.8101 69.6199 23.0001 68.5099 22.9801Z" fill="#0B315E"/>
<path d="M20.4604 36.45C21.5704 36.43 22.3604 35.61 22.3504 34.49C22.3404 33.38 21.5204 32.58 20.3904 32.6C19.2804 32.62 18.4804 33.44 18.5004 34.56C18.5104 35.66 19.3404 36.46 20.4604 36.45Z" fill="#0B315E"/>
<path d="M39.6808 32.5899C38.5608 32.5799 37.7408 33.3699 37.7208 34.4799C37.7108 35.5999 38.5008 36.4299 39.6108 36.4399C40.7308 36.4499 41.5508 35.6599 41.5708 34.5399C41.5808 33.4299 40.7908 32.6099 39.6808 32.5899Z" fill="#0B315E"/>
<path d="M58.8805 32.5899C57.7605 32.5799 56.9405 33.3799 56.9405 34.4999C56.9305 35.6199 57.7405 36.4399 58.8505 36.4499C59.9705 36.4599 60.7805 35.6499 60.7905 34.5399C60.7905 33.4099 60.0005 32.5999 58.8805 32.5899Z" fill="#0B315E"/>
<path d="M78.0802 32.5898C76.9602 32.5898 76.1602 33.3998 76.1602 34.5198C76.1602 35.6398 76.9801 36.4498 78.0901 36.4398C79.2101 36.4398 80.0102 35.6298 80.0102 34.4998C80.0002 33.3898 79.2002 32.5898 78.0802 32.5898Z" fill="#0B315E"/>
<path d="M10.7899 46.0598C11.9099 46.0698 12.7199 45.2698 12.7299 44.1498C12.7399 43.0298 11.9399 42.2098 10.8299 42.1998C9.70989 42.1898 8.88988 42.9998 8.87988 44.1098C8.87988 45.2198 9.68988 46.0498 10.7899 46.0598Z" fill="#0B315E"/>
<path d="M30.0106 46.0598C31.1306 46.0698 31.9406 45.2698 31.9506 44.1498C31.9606 43.0298 31.1606 42.2098 30.0506 42.1998C28.9306 42.1898 28.1106 42.9998 28.1006 44.1098C28.1006 45.2198 28.9106 46.0498 30.0106 46.0598Z" fill="#0B315E"/>
<path d="M49.3302 42.2001C48.2102 42.1701 47.3602 42.9501 47.3202 44.0501C47.2902 45.1701 48.0702 46.0201 49.1702 46.0601C50.2902 46.1001 51.1402 45.3101 51.1702 44.2101C51.2102 43.0701 50.4402 42.2401 49.3302 42.2001Z" fill="#0B315E"/>
<path d="M68.4808 42.1997C67.3608 42.1997 66.5508 43.0097 66.5508 44.1197C66.5508 45.2397 67.3608 46.0497 68.4708 46.0597C69.5908 46.0597 70.4008 45.2597 70.4008 44.1397C70.4008 43.0097 69.6008 42.1997 68.4808 42.1997Z" fill="#0B315E"/>
<path d="M87.7108 42.1998C86.5908 42.1898 85.7708 42.9998 85.7608 44.1098C85.7508 45.2298 86.5608 46.0498 87.6708 46.0598C88.7908 46.0698 89.6008 45.2598 89.6108 44.1498C89.6208 43.0198 88.8308 42.2098 87.7108 42.1998Z" fill="#0B315E"/>
<path d="M1.19036 55.6699C2.31036 55.6799 3.12036 54.8699 3.13036 53.7599C3.14036 52.6399 2.34036 51.8199 1.23036 51.8199C0.110364 51.8099 -0.709635 52.6199 -0.719635 53.7299C-0.729635 54.8299 0.0803648 55.6599 1.19036 55.6699Z" fill="#0B315E"/>
<path d="M20.3505 55.6699C21.4705 55.7099 22.3205 54.9199 22.3505 53.8199C22.3805 52.6899 21.6105 51.8499 20.5105 51.8099C19.3905 51.7799 18.5405 52.5599 18.5005 53.6599C18.4605 54.7799 19.2505 55.6299 20.3505 55.6699Z" fill="#0B315E"/>
<path d="M39.6701 51.8097C38.5501 51.7997 37.7201 52.5997 37.7101 53.7097C37.7001 54.8297 38.5001 55.6597 39.6101 55.6697C40.7301 55.6797 41.5501 54.8797 41.5601 53.7697C41.5801 52.6397 40.7901 51.8197 39.6701 51.8097Z" fill="#0B315E"/>
<path d="M145.67 400.9V351.93H96.7002V400.9V449.87H145.67H194.64V400.9H145.67Z" fill="#219EBC"/>
<path d="M175.63 470.88H75.6904V370.94H126.66V419.91H175.63V470.88ZM77.6904 468.88H173.63V421.91H124.66V372.94H77.6904V468.88Z" fill="#0B315E"/>
<path d="M155.92 352.46H152.94V394.96H155.92V352.46Z" fill="#FFC200"/>
<path d="M163.51 352.45H160.53V394.95H163.51V352.45Z" fill="#FFC200"/>
<path d="M171.09 352.46H168.11V394.96H171.09V352.46Z" fill="#FFC200"/>
<path d="M178.67 352.46H175.69V394.96H178.67V352.46Z" fill="#FFC200"/>
<path d="M186.251 352.45H183.271V394.95H186.251V352.45Z" fill="#FFC200"/>
<path d="M193.741 352.46H190.851V394.96H193.741V352.46Z" fill="#FFC200"/>
<path d="M75.1404 187.9H-21.8496V262.45H75.1404C85.4104 262.43 94.7004 258.27 101.44 251.53C108.19 244.79 112.36 235.47 112.36 225.18C112.36 204.61 95.7004 187.93 75.1404 187.9Z" fill="#219EBC"/>
<path d="M112.36 225.18C112.36 235.47 108.19 244.79 101.44 251.53C94.7001 258.27 85.4101 262.43 75.1401 262.45H75.0801C54.5201 262.42 37.8701 245.74 37.8701 225.18C37.8701 204.61 54.5201 187.93 75.0801 187.9H75.1401C95.7001 187.93 112.36 204.61 112.36 225.18Z" fill="#219EBC"/>
<path d="M75.1401 263.45C54.0101 263.42 36.8701 246.25 36.8701 225.18C36.8701 204.1 54.0101 186.93 75.0801 186.9C96.2201 186.93 113.36 204.1 113.36 225.18C113.36 235.41 109.38 245.02 102.15 252.24C94.9401 259.45 85.3501 263.43 75.1401 263.45ZM75.1401 188.9C55.1201 188.93 38.8701 205.2 38.8701 225.18C38.8701 245.15 55.1101 261.42 75.0801 261.45C84.8101 261.43 93.9001 257.66 100.73 250.82C107.58 243.98 111.36 234.87 111.36 225.18C111.36 205.21 95.1101 188.93 75.1401 188.9Z" fill="#0B315E"/>
<path d="M25.4304 353.33H-21.8496V363.3H25.4304V353.33Z" fill="#FFC200"/>
<path d="M25.4304 375H-21.8496V384.97H25.4304V375Z" fill="#219EBC"/>
<path d="M3.49039 395.38H-21.8496V405.35H3.49039V395.38Z" fill="#0B315E"/>
<path d="M576.471 141.68H573.091V158.71H576.471V141.68Z" fill="#0B315E"/>
<path d="M595.041 141.68H591.661V158.71H595.041V141.68Z" fill="#0B315E"/>
<path d="M-3.32617 142.63V146.01H13.7038V142.63H-3.32617Z" fill="#0B315E"/>
<path d="M-3.33398 124.058V127.438H13.696V124.058H-3.33398Z" fill="#FFC200"/>
<path d="M-3.33301 105.477V108.857H13.697V105.477H-3.33301Z" fill="#219EBC"/>
<path d="M489.851 80.8501C454.911 80.8501 426.591 109.17 426.591 144.11C426.591 179.05 454.911 207.37 489.851 207.37C524.791 207.37 553.111 179.05 553.111 144.11C553.111 109.17 524.791 80.8501 489.851 80.8501ZM489.851 182.53C468.631 182.53 451.431 165.33 451.431 144.11C451.431 122.89 468.631 105.69 489.851 105.69C511.071 105.69 528.271 122.89 528.271 144.11C528.271 165.33 511.071 182.53 489.851 182.53Z" fill="#FFC200"/>
<path d="M510.331 480.84C468.691 480.84 429.541 464.62 400.091 435.18L401.501 433.77C461.511 493.78 559.141 493.78 619.151 433.77C648.221 404.7 664.231 366.05 664.231 324.95C664.231 283.85 648.221 245.19 619.151 216.13L620.561 214.72C650.011 244.17 666.221 283.32 666.221 324.96C666.221 366.6 650.001 405.75 620.561 435.2C591.121 464.63 551.971 480.84 510.331 480.84Z" fill="#0B315E"/>
<path d="M510.331 470.05C473.151 470.05 435.981 455.9 407.681 427.6L409.091 426.19C464.911 482.01 555.741 482.01 611.571 426.19C667.391 370.37 667.391 279.53 611.571 223.71L612.981 222.3C669.581 278.9 669.581 371 612.981 427.61C584.681 455.9 547.501 470.05 510.331 470.05Z" fill="#0B315E"/>
<path d="M510.331 459.39C474.421 459.39 440.661 445.4 415.261 420.01L416.671 418.6C441.691 443.62 474.951 457.39 510.321 457.39C545.701 457.39 578.961 443.61 603.971 418.6C628.991 393.58 642.761 360.32 642.761 324.95C642.761 289.57 628.981 256.31 603.971 231.3L605.381 229.89C630.771 255.28 644.761 289.05 644.761 324.96C644.761 360.87 630.771 394.63 605.381 420.03C580.001 445.4 546.241 459.39 510.331 459.39Z" fill="#0B315E"/>
<path d="M510.331 448.6C478.651 448.6 446.971 436.54 422.851 412.42L424.261 411.01C471.721 458.47 548.941 458.47 596.401 411.01C643.861 363.55 643.861 286.33 596.401 238.87L597.811 237.46C646.051 285.7 646.051 364.19 597.811 412.42C573.691 436.54 542.011 448.6 510.331 448.6Z" fill="#0B315E"/>
<path d="M510.331 437.88C481.401 437.88 452.461 426.87 430.431 404.84L431.841 403.43C475.121 446.71 545.531 446.71 588.801 403.43C632.081 360.15 632.081 289.74 588.801 246.47L590.211 245.06C634.261 289.11 634.261 360.8 590.211 404.85C568.201 426.87 539.261 437.88 510.331 437.88Z" fill="#0B315E"/>
<path d="M510.331 427.16C484.141 427.16 457.951 417.19 438.021 397.26L439.431 395.85C478.521 434.94 542.13 434.94 581.22 395.85C600.16 376.91 610.591 351.73 610.591 324.95C610.591 298.17 600.16 272.99 581.22 254.05L582.631 252.64C601.951 271.95 612.581 297.64 612.581 324.95C612.581 352.26 601.941 377.95 582.631 397.26C562.701 417.19 536.521 427.16 510.331 427.16Z" fill="#0B315E"/>
<path d="M510.331 416.44C486.891 416.44 463.451 407.52 445.601 389.67L447.011 388.26C481.921 423.17 538.721 423.17 573.631 388.26C608.541 353.35 608.541 296.55 573.631 261.64L575.041 260.23C610.731 295.92 610.731 353.99 575.041 389.68C557.211 407.51 533.771 416.44 510.331 416.44Z" fill="#0B315E"/>
<path d="M572.531 207.55L566.761 213.31V207.55H572.531Z" fill="#0B315E"/>
<path d="M583.211 207.55L566.761 224V218.24L577.451 207.55H583.211Z" fill="#0B315E"/>
<path d="M615.191 207.55L566.761 255.97V250.3L609.511 207.55H615.191Z" fill="#0B315E"/>
<path d="M604.591 207.55L566.761 245.37V239.61L598.831 207.55H604.591Z" fill="#0B315E"/>
<path d="M593.901 207.55L566.761 234.69V228.92L588.141 207.55H593.901Z" fill="#0B315E"/>
<path d="M398.941 495.45C509.425 495.45 598.991 405.885 598.991 295.4C598.991 184.916 509.425 95.3501 398.941 95.3501C288.456 95.3501 198.891 184.916 198.891 295.4C198.891 405.885 288.456 495.45 398.941 495.45Z" fill="url(#paint0_radial_580_1153)"/>
<path d="M353.151 465.78C461.172 465.78 548.741 378.211 548.741 270.19C548.741 162.169 461.172 74.6001 353.151 74.6001C245.129 74.6001 157.561 162.169 157.561 270.19C157.561 378.211 245.129 465.78 353.151 465.78Z" fill="#F9F5EF"/>
<path d="M356.051 120.51C357.431 120.51 358.551 119.391 358.551 118.01C358.551 116.63 357.431 115.51 356.051 115.51C354.67 115.51 353.551 116.63 353.551 118.01C353.551 119.391 354.67 120.51 356.051 120.51Z" fill="#114A82"/>
<path d="M382.181 122.68C380.831 122.68 379.741 121.59 379.741 120.24C379.741 118.89 380.831 117.8 382.181 117.8C383.531 117.8 384.621 118.89 384.621 120.24C384.621 121.59 383.531 122.68 382.181 122.68Z" fill="#114A82"/>
<path d="M407.541 129.32C408.856 129.32 409.921 128.255 409.921 126.94C409.921 125.626 408.856 124.56 407.541 124.56C406.227 124.56 405.161 125.626 405.161 126.94C405.161 128.255 406.227 129.32 407.541 129.32Z" fill="#114A82"/>
<path d="M431.351 140.24C430.071 140.24 429.031 139.2 429.031 137.92C429.031 136.64 430.071 135.6 431.351 135.6C432.631 135.6 433.671 136.64 433.671 137.92C433.681 139.2 432.641 140.24 431.351 140.24Z" fill="#114A82"/>
<path d="M452.931 155.08C451.681 155.08 450.671 154.07 450.671 152.82C450.671 151.57 451.681 150.56 452.931 150.56C454.181 150.56 455.191 151.57 455.191 152.82C455.191 154.07 454.181 155.08 452.931 155.08Z" fill="#114A82"/>
<path d="M471.641 173.4C472.861 173.4 473.851 172.411 473.851 171.19C473.851 169.97 472.861 168.98 471.641 168.98C470.42 168.98 469.431 169.97 469.431 171.19C469.431 172.411 470.42 173.4 471.641 173.4Z" fill="#114A82"/>
<path d="M486.931 194.64C485.741 194.64 484.781 193.68 484.781 192.49C484.781 191.3 485.741 190.34 486.931 190.34C488.121 190.34 489.081 191.3 489.081 192.49C489.081 193.68 488.121 194.64 486.931 194.64Z" fill="#114A82"/>
<path d="M500.419 216.466C500.603 215.327 499.829 214.254 498.689 214.07C497.55 213.886 496.477 214.661 496.293 215.8C496.109 216.94 496.884 218.013 498.023 218.197C499.163 218.381 500.236 217.606 500.419 216.466Z" fill="#114A82"/>
<path d="M505.501 243.36C504.381 243.36 503.471 242.45 503.471 241.33C503.471 240.21 504.381 239.3 505.501 239.3C506.621 239.3 507.531 240.21 507.531 241.33C507.531 242.45 506.621 243.36 505.501 243.36Z" fill="#114A82"/>
<path d="M508.211 269.38C507.121 269.38 506.241 268.5 506.241 267.41C506.241 266.32 507.121 265.44 508.211 265.44C509.301 265.44 510.181 266.32 510.181 267.41C510.181 268.5 509.301 269.38 508.211 269.38Z" fill="#114A82"/>
<path d="M506.451 295.49C505.391 295.49 504.541 294.63 504.541 293.58C504.541 292.52 505.401 291.67 506.451 291.67C507.511 291.67 508.361 292.53 508.361 293.58C508.361 294.63 507.501 295.49 506.451 295.49Z" fill="#114A82"/>
<path d="M500.221 320.9C499.201 320.9 498.371 320.07 498.371 319.05C498.371 318.03 499.201 317.2 500.221 317.2C501.241 317.2 502.071 318.03 502.071 319.05C502.071 320.07 501.241 320.9 500.221 320.9Z" fill="#114A82"/>
<path d="M489.681 344.86C488.691 344.86 487.891 344.06 487.891 343.07C487.891 342.08 488.691 341.28 489.681 341.28C490.671 341.28 491.471 342.08 491.471 343.07C491.471 344.05 490.671 344.86 489.681 344.86Z" fill="#114A82"/>
<path d="M475.171 366.64C474.211 366.64 473.441 365.86 473.441 364.91C473.441 363.95 474.221 363.18 475.171 363.18C476.131 363.18 476.901 363.96 476.901 364.91C476.901 365.86 476.131 366.64 475.171 366.64Z" fill="#114A82"/>
<path d="M457.141 385.62C456.211 385.62 455.461 384.87 455.461 383.94C455.461 383.01 456.211 382.26 457.141 382.26C458.071 382.26 458.821 383.01 458.821 383.94C458.811 384.87 458.061 385.62 457.141 385.62Z" fill="#114A82"/>
<path d="M436.121 401.24C435.231 401.24 434.501 400.52 434.501 399.62C434.501 398.72 435.221 398 436.121 398C437.021 398 437.741 398.72 437.741 399.62C437.741 400.52 437.011 401.24 436.121 401.24Z" fill="#114A82"/>
<path d="M412.721 413.02C411.861 413.02 411.161 412.32 411.161 411.46C411.161 410.6 411.861 409.9 412.721 409.9C413.581 409.9 414.281 410.6 414.281 411.46C414.281 412.32 413.581 413.02 412.721 413.02Z" fill="#114A82"/>
<path d="M387.631 420.58C386.801 420.58 386.131 419.91 386.131 419.08C386.131 418.25 386.801 417.58 387.631 417.58C388.461 417.58 389.131 418.25 389.131 419.08C389.131 419.91 388.461 420.58 387.631 420.58Z" fill="#114A82"/>
<path d="M361.601 423.71C360.801 423.71 360.161 423.07 360.161 422.27C360.161 421.47 360.801 420.83 361.601 420.83C362.401 420.83 363.041 421.47 363.041 422.27C363.041 423.07 362.401 423.71 361.601 423.71Z" fill="#114A82"/>
<path d="M335.411 422.36C334.651 422.36 334.031 421.74 334.031 420.98C334.031 420.22 334.651 419.6 335.411 419.6C336.171 419.6 336.791 420.22 336.791 420.98C336.791 421.74 336.171 422.36 335.411 422.36Z" fill="#114A82"/>
<path d="M309.831 416.54C309.101 416.54 308.511 415.95 308.511 415.22C308.511 414.49 309.101 413.9 309.831 413.9C310.561 413.9 311.151 414.49 311.151 415.22C311.151 415.95 310.561 416.54 309.831 416.54Z" fill="#114A82"/>
<path d="M285.621 406.38C284.921 406.38 284.361 405.81 284.361 405.12C284.361 404.42 284.931 403.86 285.621 403.86C286.321 403.86 286.881 404.43 286.881 405.12C286.891 405.82 286.321 406.38 285.621 406.38Z" fill="#114A82"/>
<path d="M263.521 392.21C262.851 392.21 262.321 391.67 262.321 391.01C262.321 390.35 262.861 389.81 263.521 389.81C264.181 389.81 264.721 390.35 264.721 391.01C264.721 391.67 264.191 392.21 263.521 392.21Z" fill="#114A82"/>
<path d="M244.151 374.47C244.786 374.47 245.301 373.956 245.301 373.32C245.301 372.685 244.786 372.17 244.151 372.17C243.516 372.17 243.001 372.685 243.001 373.32C243.001 373.956 243.516 374.47 244.151 374.47Z" fill="#114A82"/>
<path d="M356.051 132.22C357.431 132.22 358.551 131.101 358.551 129.72C358.551 128.34 357.431 127.22 356.051 127.22C354.67 127.22 353.551 128.34 353.551 129.72C353.551 131.101 354.67 132.22 356.051 132.22Z" fill="#114A82"/>
<path d="M381.871 134.5C380.541 134.5 379.461 133.42 379.461 132.09C379.461 130.76 380.541 129.68 381.871 129.68C383.201 129.68 384.281 130.76 384.281 132.09C384.281 133.42 383.201 134.5 381.871 134.5Z" fill="#114A82"/>
<path d="M406.811 141.48C408.087 141.48 409.121 140.446 409.121 139.17C409.121 137.895 408.087 136.86 406.811 136.86C405.535 136.86 404.501 137.895 404.501 139.17C404.501 140.446 405.535 141.48 406.811 141.48Z" fill="#114A82"/>
<path d="M430.011 152.96C428.791 152.96 427.791 151.97 427.791 150.74C427.791 149.52 428.781 148.52 430.011 148.52C431.231 148.52 432.231 149.51 432.231 150.74C432.221 151.97 431.231 152.96 430.011 152.96Z" fill="#114A82"/>
<path d="M450.681 168.5C449.511 168.5 448.561 167.55 448.561 166.38C448.561 165.21 449.511 164.26 450.681 164.26C451.851 164.26 452.801 165.21 452.801 166.38C452.801 167.55 451.861 168.5 450.681 168.5Z" fill="#114A82"/>
<path d="M468.151 187.56C467.031 187.56 466.121 186.65 466.121 185.53C466.121 184.41 467.031 183.5 468.151 183.5C469.271 183.5 470.181 184.41 470.181 185.53C470.181 186.65 469.271 187.56 468.151 187.56Z" fill="#114A82"/>
<path d="M481.821 209.5C480.751 209.5 479.891 208.63 479.891 207.57C479.891 206.5 480.761 205.64 481.821 205.64C482.881 205.64 483.751 206.51 483.751 207.57C483.751 208.63 482.891 209.5 481.821 209.5Z" fill="#114A82"/>
<path d="M491.191 233.57C492.207 233.57 493.031 232.746 493.031 231.73C493.031 230.714 492.207 229.89 491.191 229.89C490.174 229.89 489.351 230.714 489.351 231.73C489.351 232.746 490.174 233.57 491.191 233.57Z" fill="#114A82"/>
<path d="M495.93 258.97C494.97 258.97 494.19 258.19 494.19 257.23C494.19 256.27 494.97 255.49 495.93 255.49C496.89 255.49 497.67 256.27 497.67 257.23C497.67 258.19 496.89 258.97 495.93 258.97Z" fill="#114A82"/>
<path d="M495.931 284.8C495.021 284.8 494.281 284.06 494.281 283.15C494.281 282.24 495.021 281.5 495.931 281.5C496.841 281.5 497.581 282.24 497.581 283.15C497.581 284.06 496.841 284.8 495.931 284.8Z" fill="#114A82"/>
<path d="M491.191 310.19C490.331 310.19 489.641 309.49 489.641 308.64C489.641 307.78 490.341 307.09 491.191 307.09C492.051 307.09 492.741 307.79 492.741 308.64C492.741 309.49 492.051 310.19 491.191 310.19Z" fill="#114A82"/>
<path d="M481.82 334.27C481.01 334.27 480.36 333.62 480.36 332.81C480.36 332 481.01 331.35 481.82 331.35C482.63 331.35 483.28 332 483.28 332.81C483.28 333.61 482.63 334.27 481.82 334.27Z" fill="#114A82"/>
<path d="M468.161 356.2C467.411 356.2 466.801 355.59 466.801 354.84C466.801 354.09 467.411 353.48 468.161 353.48C468.911 353.48 469.521 354.09 469.521 354.84C469.521 355.59 468.911 356.2 468.161 356.2Z" fill="#114A82"/>
<path d="M450.691 375.26C449.991 375.26 449.421 374.69 449.421 373.99C449.421 373.29 449.991 372.72 450.691 372.72C451.391 372.72 451.961 373.29 451.961 373.99C451.951 374.69 451.391 375.26 450.691 375.26Z" fill="#114A82"/>
<path d="M430.011 390.8C429.361 390.8 428.841 390.27 428.841 389.63C428.841 388.99 429.371 388.46 430.011 388.46C430.661 388.46 431.181 388.99 431.181 389.63C431.181 390.27 430.661 390.8 430.011 390.8Z" fill="#114A82"/>
<path d="M406.81 402.28C406.21 402.28 405.73 401.8 405.73 401.2C405.73 400.6 406.21 400.12 406.81 400.12C407.41 400.12 407.89 400.6 407.89 401.2C407.89 401.8 407.41 402.28 406.81 402.28Z" fill="#114A82"/>
<path d="M381.871 409.27C382.418 409.27 382.861 408.827 382.861 408.28C382.861 407.733 382.418 407.29 381.871 407.29C381.324 407.29 380.881 407.733 380.881 408.28C380.881 408.827 381.324 409.27 381.871 409.27Z" fill="#114A82"/>
<path d="M356.051 411.54C356.543 411.54 356.941 411.142 356.941 410.65C356.941 410.159 356.543 409.76 356.051 409.76C355.56 409.76 355.161 410.159 355.161 410.65C355.161 411.142 355.56 411.54 356.051 411.54Z" fill="#114A82"/>
<path d="M356.051 145.72C357.431 145.72 358.551 144.601 358.551 143.22C358.551 141.84 357.431 140.72 356.051 140.72C354.67 140.72 353.551 141.84 353.551 143.22C353.551 144.601 354.67 145.72 356.051 145.72Z" fill="#114A82"/>
<path d="M380.831 147.91C379.571 147.91 378.561 146.89 378.561 145.64C378.561 144.38 379.581 143.37 380.831 143.37C382.081 143.37 383.101 144.39 383.101 145.64C383.111 146.89 382.091 147.91 380.831 147.91Z" fill="#114A82"/>
<path d="M404.66 154.9C403.53 154.9 402.61 153.98 402.61 152.85C402.61 151.72 403.53 150.8 404.66 150.8C405.79 150.8 406.71 151.72 406.71 152.85C406.71 153.98 405.79 154.9 404.66 154.9Z" fill="#114A82"/>
<path d="M426.601 166.42C427.606 166.42 428.421 165.605 428.421 164.6C428.421 163.595 427.606 162.78 426.601 162.78C425.596 162.78 424.781 163.595 424.781 164.6C424.781 165.605 425.596 166.42 426.601 166.42Z" fill="#114A82"/>
<path d="M445.841 182C444.961 182 444.241 181.28 444.241 180.4C444.241 179.52 444.961 178.8 445.841 178.8C446.721 178.8 447.441 179.52 447.441 180.4C447.441 181.28 446.721 182 445.841 182Z" fill="#114A82"/>
<path d="M461.641 201.01C460.881 201.01 460.271 200.4 460.271 199.64C460.271 198.88 460.881 198.27 461.641 198.27C462.401 198.27 463.011 198.88 463.011 199.64C463.011 200.4 462.401 201.01 461.641 201.01Z" fill="#114A82"/>
<path d="M473.391 222.73C472.761 222.73 472.241 222.22 472.241 221.58C472.241 220.95 472.751 220.43 473.391 220.43C474.021 220.43 474.541 220.94 474.541 221.58C474.541 222.22 474.021 222.73 473.391 222.73Z" fill="#114A82"/>
<path d="M480.61 246.33C480.1 246.33 479.69 245.92 479.69 245.41C479.69 244.9 480.1 244.49 480.61 244.49C481.12 244.49 481.53 244.9 481.53 245.41C481.53 245.92 481.12 246.33 480.61 246.33Z" fill="#114A82"/>
<path d="M483.031 270.88C483.412 270.88 483.721 270.571 483.721 270.19C483.721 269.809 483.412 269.5 483.031 269.5C482.65 269.5 482.341 269.809 482.341 270.19C482.341 270.571 482.65 270.88 483.031 270.88Z" fill="#114A82"/>
<path d="M241.92 331.36C184.84 331.36 138.4 284.92 138.4 227.83C138.4 170.74 184.84 124.31 241.92 124.31C299 124.31 345.45 170.75 345.45 227.83C345.45 284.91 299.01 331.36 241.92 331.36ZM241.92 126.31C185.94 126.31 140.4 171.85 140.4 227.83C140.4 283.81 185.94 329.36 241.92 329.36C297.9 329.36 343.45 283.82 343.45 227.83C343.45 171.85 297.9 126.31 241.92 126.31Z" fill="#0B315E"/>
<path d="M241.92 314.43C194.17 314.43 155.33 275.58 155.33 227.84C155.33 180.09 194.18 141.25 241.92 141.25C289.67 141.25 328.51 180.1 328.51 227.84C328.52 275.58 289.67 314.43 241.92 314.43ZM241.92 148.09C197.95 148.09 162.18 183.86 162.18 227.83C162.18 271.8 197.95 307.57 241.92 307.57C285.89 307.57 321.66 271.8 321.66 227.83C321.66 183.86 285.89 148.09 241.92 148.09Z" fill="#219EBC"/>
<path d="M241.921 297.49C203.511 297.49 172.261 266.24 172.261 227.83C172.261 189.42 203.511 158.17 241.921 158.17C280.331 158.17 311.581 189.42 311.581 227.83C311.581 266.24 280.331 297.49 241.921 297.49ZM241.921 160.17C204.611 160.17 174.261 190.52 174.261 227.83C174.261 265.14 204.611 295.49 241.921 295.49C279.231 295.49 309.581 265.14 309.581 227.83C309.581 190.52 279.231 160.17 241.921 160.17Z" fill="#0B315E"/>
<path d="M241.92 280.56C212.85 280.56 189.19 256.91 189.19 227.83C189.19 198.75 212.84 175.1 241.92 175.1C271 175.1 294.65 198.75 294.65 227.83C294.65 256.91 271 280.56 241.92 280.56ZM241.92 177.11C213.95 177.11 191.19 199.87 191.19 227.84C191.19 255.81 213.95 278.57 241.92 278.57C269.89 278.57 292.65 255.81 292.65 227.84C292.65 199.87 269.9 177.11 241.92 177.11Z" fill="#0B315E"/>
<path d="M241.921 263.63C222.181 263.63 206.131 247.57 206.131 227.83C206.131 208.09 222.191 192.04 241.921 192.04C261.661 192.04 277.721 208.1 277.721 227.83C277.721 247.57 261.661 263.63 241.921 263.63ZM241.921 194.04C223.291 194.04 208.131 209.2 208.131 227.83C208.131 246.46 223.291 261.63 241.921 261.63C260.551 261.63 275.721 246.47 275.721 227.83C275.721 209.19 260.561 194.04 241.921 194.04Z" fill="#0B315E"/>
<path d="M241.921 246.7C231.521 246.7 223.061 238.24 223.061 227.84C223.061 217.44 231.521 208.98 241.921 208.98C252.321 208.98 260.781 217.44 260.781 227.84C260.791 238.23 252.321 246.7 241.921 246.7ZM241.921 210.97C232.621 210.97 225.061 218.53 225.061 227.83C225.061 237.13 232.621 244.69 241.921 244.69C251.221 244.69 258.781 237.13 258.781 227.83C258.791 218.54 251.221 210.97 241.921 210.97Z" fill="#0B315E"/>
<path d="M381.02 420.76C451.353 420.76 508.37 363.744 508.37 293.41C508.37 223.077 451.353 166.06 381.02 166.06C310.686 166.06 253.67 223.077 253.67 293.41C253.67 363.744 310.686 420.76 381.02 420.76Z" fill="url(#paint1_radial_580_1153)"/>
<path d="M353.15 389.19C418.872 389.19 472.15 335.912 472.15 270.19C472.15 204.468 418.872 151.19 353.15 151.19C287.429 151.19 234.15 204.468 234.15 270.19C234.15 335.912 287.429 389.19 353.15 389.19Z" fill="#0B315E"/>
<path d="M339.44 326.84L346.43 319.85L344.37 317.79L335.33 326.84L344.37 335.89L346.43 333.83L339.44 326.84Z" fill="white"/>
<path d="M351.641 326.84L358.631 319.85L356.571 317.79L347.521 326.84L356.571 335.89L358.631 333.83L351.641 326.84Z" fill="white"/>
<path d="M363.99 326.84L370.98 319.85L368.92 317.79L359.87 326.84L368.92 335.89L370.98 333.83L363.99 326.84Z" fill="white"/>
<path d="M366.86 225.05L359.87 232.04L361.93 234.09L370.98 225.05L361.93 216L359.87 218.06L366.86 225.05Z" fill="white"/>
<path d="M354.66 225.05L347.67 232.04L349.73 234.09L358.78 225.05L349.73 216L347.67 218.06L354.66 225.05Z" fill="white"/>
<path d="M342.32 225.05L335.33 232.04L337.38 234.09L346.43 225.05L337.38 216L335.33 218.06L342.32 225.05Z" fill="white"/>
<path d="M549.822 366.609C573.585 342.845 573.585 304.318 549.822 280.554C526.059 256.791 487.531 256.791 463.768 280.555C440.005 304.318 440.005 342.845 463.768 366.609C487.531 390.372 526.059 390.372 549.822 366.609Z" fill="#219EBC"/>
<path d="M516.091 345.695C528.295 340.553 534.019 326.49 528.877 314.286C523.734 302.082 509.672 296.358 497.468 301.5C485.264 306.643 479.539 320.705 484.682 332.909C489.824 345.113 503.886 350.838 516.091 345.695Z" fill="#0B315E"/>
<path d="M684.63 259.74L700.38 243.99C697.58 245.59 694.99 247.5 692.64 249.67L690.31 252C688.14 254.34 686.23 256.94 684.63 259.74Z" fill="#219EBC"/>
<path d="M679.93 272.26L712.9 239.29C711.99 239.47 711.09 239.69 710.2 239.93L680.57 269.56C680.32 270.45 680.11 271.35 679.93 272.26Z" fill="#219EBC"/>
<path d="M679.09 280.64C679.09 280.73 679.09 280.82 679.09 280.91L721.54 238.46C721.45 238.46 721.36 238.46 721.27 238.46C720.66 238.46 720.05 238.48 719.44 238.5L679.13 278.81C679.11 279.42 679.09 280.02 679.09 280.64Z" fill="#219EBC"/>
<path d="M679.75 288.07L728.719 239.1C728.129 239 727.53 238.9 726.94 238.82L679.479 286.28C679.549 286.89 679.64 287.48 679.75 288.07Z" fill="#219EBC"/>
<path d="M681.349 294.29L734.929 240.71C734.409 240.53 733.889 240.37 733.369 240.21L680.859 292.72C681.009 293.25 681.169 293.77 681.349 294.29Z" fill="#219EBC"/>
<path d="M683.68 299.78L740.43 243.03C739.97 242.8 739.51 242.57 739.04 242.36L683 298.39C683.22 298.86 683.44 299.32 683.68 299.78Z" fill="#219EBC"/>
<path d="M686.6 304.67L745.31 245.96C744.9 245.68 744.49 245.4 744.08 245.13L685.78 303.43C686.05 303.85 686.32 304.26 686.6 304.67Z" fill="#219EBC"/>
<path d="M690.07 309.02L749.66 249.43C749.3 249.1 748.93 248.78 748.56 248.47L689.1 307.93C689.42 308.3 689.74 308.66 690.07 309.02Z" fill="#219EBC"/>
<path d="M694.05 312.86L753.5 253.41C753.19 253.04 752.87 252.67 752.54 252.31L692.95 311.9C693.31 312.23 693.68 312.55 694.05 312.86Z" fill="#219EBC"/>
<path d="M698.55 316.18L756.83 257.9C756.56 257.48 756.29 257.07 756 256.67L697.31 315.36C697.72 315.64 698.13 315.92 698.55 316.18Z" fill="#219EBC"/>
<path d="M703.6 318.95L759.59 262.96C759.37 262.49 759.15 262.03 758.92 261.57L702.21 318.28C702.67 318.51 703.13 318.73 703.6 318.95Z" fill="#219EBC"/>
<path d="M709.28 321.09L761.74 268.64C761.58 268.11 761.42 267.59 761.25 267.08L707.72 320.61C708.23 320.77 708.75 320.93 709.28 321.09Z" fill="#219EBC"/>
<path d="M715.719 322.46L763.099 275.08C763.019 274.48 762.929 273.89 762.829 273.29L713.939 322.18C714.529 322.29 715.119 322.38 715.719 322.46Z" fill="#219EBC"/>
<path d="M721.28 322.83C721.93 322.83 722.58 322.81 723.22 322.78L763.42 282.58C763.45 281.94 763.47 281.29 763.47 280.64C763.47 280.59 763.47 280.53 763.47 280.48L721.13 322.82C721.17 322.82 721.23 322.83 721.28 322.83Z" fill="#219EBC"/>
<path d="M732.51 321.31L761.95 291.87C762.2 290.98 762.42 290.07 762.6 289.16L729.79 321.97C730.71 321.78 731.62 321.56 732.51 321.31Z" fill="#219EBC"/>
<path d="M757.779 301.8L742.439 317.14C748.789 313.45 754.089 308.15 757.779 301.8Z" fill="#219EBC"/>
<path d="M204.141 491.42L220.701 474.86C217.761 476.54 215.031 478.55 212.561 480.83L210.111 483.28C207.831 485.76 205.821 488.48 204.141 491.42Z" fill="#0B315E"/>
<path d="M199.2 504.58L233.86 469.92C232.9 470.11 231.96 470.34 231.02 470.59L199.87 501.74C199.61 502.68 199.39 503.63 199.2 504.58Z" fill="#0B315E"/>
<path d="M198.32 513.39C198.32 513.48 198.32 513.58 198.32 513.67L242.94 469.05C242.85 469.05 242.75 469.05 242.66 469.05C242.02 469.05 241.37 469.07 240.74 469.09L198.36 511.47C198.34 512.11 198.32 512.75 198.32 513.39Z" fill="#0B315E"/>
<path d="M199.011 521.21L250.481 469.74C249.861 469.63 249.231 469.53 248.611 469.45L198.721 519.34C198.801 519.96 198.901 520.59 199.011 521.21Z" fill="#0B315E"/>
<path d="M200.69 527.74L257.01 471.42C256.47 471.23 255.92 471.06 255.37 470.9L200.17 526.1C200.33 526.65 200.51 527.2 200.69 527.74Z" fill="#0B315E"/>
<path d="M203.141 533.51L262.791 473.86C262.311 473.61 261.821 473.38 261.331 473.15L202.431 532.05C202.661 532.55 202.891 533.03 203.141 533.51Z" fill="#0B315E"/>
<path d="M206.221 538.65L267.931 476.94C267.501 476.64 267.071 476.35 266.631 476.07L205.351 537.35C205.631 537.8 205.921 538.23 206.221 538.65Z" fill="#0B315E"/>
<path d="M209.861 543.23L272.501 480.59C272.121 480.25 271.741 479.91 271.351 479.58L208.851 542.08C209.181 542.47 209.511 542.85 209.861 543.23Z" fill="#0B315E"/>
<path d="M214.04 547.26L276.53 484.77C276.2 484.38 275.86 483.99 275.52 483.61L212.88 546.25C213.27 546.6 213.65 546.93 214.04 547.26Z" fill="#0B315E"/>
<path d="M218.771 550.76L280.031 489.5C279.751 489.06 279.461 488.63 279.161 488.2L217.471 549.89C217.901 550.18 218.331 550.47 218.771 550.76Z" fill="#0B315E"/>
<path d="M224.08 553.66L282.93 494.81C282.7 494.32 282.47 493.83 282.22 493.35L222.61 552.96C223.1 553.2 223.59 553.44 224.08 553.66Z" fill="#0B315E"/>
<path d="M230.05 555.91L285.19 500.77C285.03 500.22 284.85 499.67 284.67 499.13L228.41 555.39C228.94 555.58 229.49 555.75 230.05 555.91Z" fill="#0B315E"/>
<path d="M236.82 557.35L286.62 507.55C286.54 506.92 286.44 506.29 286.33 505.67L234.94 557.06C235.57 557.18 236.19 557.27 236.82 557.35Z" fill="#0B315E"/>
<path d="M242.66 557.74C243.35 557.74 244.03 557.72 244.7 557.69L286.95 515.44C286.98 514.76 287 514.08 287 513.4C287 513.34 287 513.29 287 513.23L242.49 557.74C242.55 557.74 242.61 557.74 242.66 557.74Z" fill="#0B315E"/>
<path d="M254.47 556.15L285.42 525.2C285.68 524.26 285.91 523.31 286.11 522.35L251.62 556.84C252.58 556.64 253.53 556.4 254.47 556.15Z" fill="#0B315E"/>
<path d="M281.03 535.64L264.9 551.77C271.58 547.88 277.15 542.31 281.03 535.64Z" fill="#0B315E"/>
<path d="M329.171 30.1699L345.731 13.6099C342.791 15.2899 340.061 17.2999 337.591 19.5799L335.141 22.0299C332.861 24.4999 330.851 27.2299 329.171 30.1699Z" fill="#0B315E"/>
<path d="M324.23 43.3299L358.89 8.66992C357.93 8.85992 356.99 9.08992 356.05 9.33992L324.9 40.4899C324.65 41.4299 324.42 42.3699 324.23 43.3299Z" fill="#0B315E"/>
<path d="M323.351 52.1398C323.351 52.2298 323.351 52.3298 323.351 52.4198L367.981 7.7998C367.891 7.7998 367.791 7.7998 367.701 7.7998C367.051 7.7998 366.411 7.8198 365.781 7.8398L323.401 50.2198C323.371 50.8598 323.351 51.4998 323.351 52.1398Z" fill="#0B315E"/>
<path d="M324.041 59.9597L375.511 8.48971C374.891 8.37971 374.261 8.27971 373.641 8.19971L323.751 58.0897C323.831 58.7097 323.931 59.3397 324.041 59.9597Z" fill="#0B315E"/>
<path d="M325.72 66.4899L382.04 10.1699C381.5 9.9799 380.95 9.8099 380.4 9.6499L325.2 64.8499C325.37 65.3999 325.54 65.9499 325.72 66.4899Z" fill="#0B315E"/>
<path d="M328.171 72.2599L387.821 12.6099C387.341 12.3699 386.851 12.1299 386.361 11.8999L327.461 70.7999C327.691 71.2899 327.921 71.7799 328.171 72.2599Z" fill="#0B315E"/>
<path d="M331.251 77.3998L392.961 15.6898C392.531 15.3898 392.101 15.0998 391.661 14.8198L330.381 76.0998C330.661 76.5398 330.951 76.9698 331.251 77.3998Z" fill="#0B315E"/>
<path d="M334.891 81.9796L397.531 19.3396C397.151 18.9996 396.771 18.6596 396.381 18.3296L333.881 80.8296C334.211 81.2096 334.551 81.5996 334.891 81.9796Z" fill="#0B315E"/>
<path d="M339.081 86.0099L401.571 23.5199C401.241 23.1299 400.901 22.7399 400.561 22.3599L337.921 84.9999C338.301 85.3399 338.681 85.6799 339.081 86.0099Z" fill="#0B315E"/>
<path d="M343.801 89.4999L405.061 28.2399C404.781 27.7999 404.491 27.3699 404.191 26.9399L342.501 88.6399C342.931 88.9299 343.361 89.2199 343.801 89.4999Z" fill="#0B315E"/>
<path d="M349.111 92.4096L407.961 33.5596C407.731 33.0696 407.501 32.5796 407.251 32.0996L347.641 91.7096C348.131 91.9496 348.621 92.1796 349.111 92.4096Z" fill="#0B315E"/>
<path d="M355.08 94.6599L410.22 39.5199C410.06 38.9699 409.88 38.4199 409.7 37.8799L353.44 94.1399C353.98 94.3299 354.53 94.4999 355.08 94.6599Z" fill="#0B315E"/>
<path d="M361.86 96.0999L411.66 46.2999C411.58 45.6699 411.48 45.0399 411.37 44.4199L359.98 95.8099C360.6 95.9199 361.23 96.0199 361.86 96.0999Z" fill="#0B315E"/>
<path d="M367.7 96.49C368.39 96.49 369.07 96.47 369.74 96.44L411.99 54.19C412.02 53.51 412.04 52.83 412.04 52.15C412.04 52.09 412.04 52.04 412.04 51.98L367.53 96.49C367.58 96.48 367.64 96.49 367.7 96.49Z" fill="#0B315E"/>
<path d="M379.5 94.8898L410.45 63.9398C410.71 62.9998 410.94 62.0498 411.14 61.0898L376.65 95.5798C377.61 95.3798 378.56 95.1498 379.5 94.8898Z" fill="#0B315E"/>
<path d="M406.061 74.3799L389.931 90.5099C396.611 86.6299 402.181 81.0599 406.061 74.3799Z" fill="#0B315E"/>
<path d="M226.16 0V38.93H265.09V0H226.16ZM259.67 33.51H231.58V5.42H259.67V33.51Z" fill="#219EBC"/>
<path d="M125.69 42.02L125.67 61.16L142.25 51.6L125.69 42.02Z" fill="#FFC200"/>
<path d="M148.66 31.3799L148.63 71.8199L183.67 51.6299L148.66 31.3799ZM154.13 40.8799L172.7 51.6199L154.12 62.3299L154.13 40.8799Z" fill="#0B315E"/>
<path d="M223.79 447.56L270.83 447.6L247.34 406.85L223.79 447.56ZM234.84 441.19L247.33 419.6L259.79 441.21L234.84 441.19Z" fill="#0B315E"/>
<path d="M312.58 478.05C312.58 455.64 330.74 437.48 353.15 437.48C375.56 437.48 393.72 455.64 393.72 478.05H312.58Z" fill="#FFC200"/>
<path d="M118.12 166.79H31.4805L74.8005 123.47L118.12 166.79Z" fill="#FFC200"/>
<path d="M63.38 520.19C63.38 473.04 25.16 434.81 -22 434.81V468.33C6.64 468.33 29.86 491.55 29.86 520.19H63.38Z" fill="#219EBC"/>
<path d="M728.15 20.1899H674.34V74.0799H728.15V20.1899Z" fill="#219EBC"/>
<path d="M712.83 35.5298H689.66V58.7298H712.83V35.5298Z" fill="#114A82"/>
</g>
<defs>
<radialGradient id="paint0_radial_580_1153" cx="0" cy="0" r="1" gradientUnits="userSpaceOnUse" gradientTransform="translate(398.94 295.404) scale(200.05 200.05)">
<stop/>
<stop offset="1" stop-color="white"/>
</radialGradient>
<radialGradient id="paint1_radial_580_1153" cx="0" cy="0" r="1" gradientUnits="userSpaceOnUse" gradientTransform="translate(381.022 293.413) scale(127.353 127.353)">
<stop/>
<stop offset="1" stop-color="white"/>
</radialGradient>
<clipPath id="clip0_580_1153">
<rect width="785.47" height="557.74" fill="white"/>
</clipPath>
</defs>
</svg>
