<svg width="750" height="497" viewBox="0 0 750 497" fill="none" xmlns="http://www.w3.org/2000/svg">
<g clip-path="url(#clip0_580_1488)">
<path d="M750.33 -2.72021H0.330078V497.28H750.33V-2.72021Z" fill="url(#paint0_linear_580_1488)"/>
<g opacity="0.5">
<path opacity="0.5" d="M29.02 20.6198C29.02 21.5998 28.22 22.3998 27.24 22.3998C26.26 22.3998 25.46 21.5998 25.46 20.6198C25.46 19.6398 26.26 18.8398 27.24 18.8398C28.22 18.8398 29.02 19.6398 29.02 20.6198Z" fill="white"/>
<path opacity="0.5" d="M42.5495 22.3998C43.5326 22.3998 44.3295 21.6029 44.3295 20.6198C44.3295 19.6368 43.5326 18.8398 42.5495 18.8398C41.5665 18.8398 40.7695 19.6368 40.7695 20.6198C40.7695 21.6029 41.5665 22.3998 42.5495 22.3998Z" fill="white"/>
<path opacity="0.5" d="M57.8503 22.3998C58.8334 22.3998 59.6303 21.6029 59.6303 20.6198C59.6303 19.6368 58.8334 18.8398 57.8503 18.8398C56.8672 18.8398 56.0703 19.6368 56.0703 20.6198C56.0703 21.6029 56.8672 22.3998 57.8503 22.3998Z" fill="white"/>
<path opacity="0.5" d="M74.9399 20.6198C74.9399 21.5998 74.1399 22.3998 73.1599 22.3998C72.1799 22.3998 71.3799 21.5998 71.3799 20.6198C71.3799 19.6398 72.1799 18.8398 73.1599 18.8398C74.1399 18.8398 74.9399 19.6398 74.9399 20.6198Z" fill="white"/>
<path opacity="0.5" d="M88.4597 22.3998C89.4428 22.3998 90.2397 21.6029 90.2397 20.6198C90.2397 19.6368 89.4428 18.8398 88.4597 18.8398C87.4766 18.8398 86.6797 19.6368 86.6797 20.6198C86.6797 21.6029 87.4766 22.3998 88.4597 22.3998Z" fill="white"/>
<path opacity="0.5" d="M103.77 22.3998C104.753 22.3998 105.55 21.6029 105.55 20.6198C105.55 19.6368 104.753 18.8398 103.77 18.8398C102.787 18.8398 101.99 19.6368 101.99 20.6198C101.99 21.6029 102.787 22.3998 103.77 22.3998Z" fill="white"/>
<path opacity="0.5" d="M119.07 22.3998C120.053 22.3998 120.85 21.6029 120.85 20.6198C120.85 19.6368 120.053 18.8398 119.07 18.8398C118.087 18.8398 117.29 19.6368 117.29 20.6198C117.29 21.6029 118.087 22.3998 119.07 22.3998Z" fill="white"/>
<path opacity="0.5" d="M134.38 22.3998C135.363 22.3998 136.16 21.6029 136.16 20.6198C136.16 19.6368 135.363 18.8398 134.38 18.8398C133.397 18.8398 132.6 19.6368 132.6 20.6198C132.6 21.6029 133.397 22.3998 134.38 22.3998Z" fill="white"/>
<path opacity="0.5" d="M29.02 35.9196C29.02 36.8996 28.22 37.6996 27.24 37.6996C26.26 37.6996 25.46 36.8996 25.46 35.9196C25.46 34.9396 26.26 34.1396 27.24 34.1396C28.22 34.1496 29.02 34.9396 29.02 35.9196Z" fill="white"/>
<path opacity="0.5" d="M42.5495 37.6996C43.5326 37.6996 44.3295 36.9027 44.3295 35.9196C44.3295 34.9366 43.5326 34.1396 42.5495 34.1396C41.5665 34.1396 40.7695 34.9366 40.7695 35.9196C40.7695 36.9027 41.5665 37.6996 42.5495 37.6996Z" fill="white"/>
<path opacity="0.5" d="M57.8503 37.6996C58.8334 37.6996 59.6303 36.9027 59.6303 35.9196C59.6303 34.9366 58.8334 34.1396 57.8503 34.1396C56.8672 34.1396 56.0703 34.9366 56.0703 35.9196C56.0703 36.9027 56.8672 37.6996 57.8503 37.6996Z" fill="white"/>
<path opacity="0.5" d="M74.9399 35.9196C74.9399 36.8996 74.1399 37.6996 73.1599 37.6996C72.1799 37.6996 71.3799 36.8996 71.3799 35.9196C71.3799 34.9396 72.1799 34.1396 73.1599 34.1396C74.1399 34.1496 74.9399 34.9396 74.9399 35.9196Z" fill="white"/>
<path opacity="0.5" d="M88.4597 37.6996C89.4428 37.6996 90.2397 36.9027 90.2397 35.9196C90.2397 34.9366 89.4428 34.1396 88.4597 34.1396C87.4766 34.1396 86.6797 34.9366 86.6797 35.9196C86.6797 36.9027 87.4766 37.6996 88.4597 37.6996Z" fill="white"/>
<path opacity="0.5" d="M103.77 37.6996C104.753 37.6996 105.55 36.9027 105.55 35.9196C105.55 34.9366 104.753 34.1396 103.77 34.1396C102.787 34.1396 101.99 34.9366 101.99 35.9196C101.99 36.9027 102.787 37.6996 103.77 37.6996Z" fill="white"/>
<path opacity="0.5" d="M119.07 37.6996C120.053 37.6996 120.85 36.9027 120.85 35.9196C120.85 34.9366 120.053 34.1396 119.07 34.1396C118.087 34.1396 117.29 34.9366 117.29 35.9196C117.29 36.9027 118.087 37.6996 119.07 37.6996Z" fill="white"/>
<path opacity="0.5" d="M134.38 37.6996C135.363 37.6996 136.16 36.9027 136.16 35.9196C136.16 34.9366 135.363 34.1396 134.38 34.1396C133.397 34.1396 132.6 34.9366 132.6 35.9196C132.6 36.9027 133.397 37.6996 134.38 37.6996Z" fill="white"/>
<path opacity="0.5" d="M29.02 51.2297C29.02 52.2097 28.22 53.0097 27.24 53.0097C26.26 53.0097 25.46 52.2097 25.46 51.2297C25.46 50.2497 26.26 49.4497 27.24 49.4497C28.22 49.4497 29.02 50.2497 29.02 51.2297Z" fill="white"/>
<path opacity="0.5" d="M42.5495 53.0097C43.5326 53.0097 44.3295 52.2128 44.3295 51.2297C44.3295 50.2466 43.5326 49.4497 42.5495 49.4497C41.5665 49.4497 40.7695 50.2466 40.7695 51.2297C40.7695 52.2128 41.5665 53.0097 42.5495 53.0097Z" fill="white"/>
<path opacity="0.5" d="M57.8503 53.0097C58.8334 53.0097 59.6303 52.2128 59.6303 51.2297C59.6303 50.2466 58.8334 49.4497 57.8503 49.4497C56.8672 49.4497 56.0703 50.2466 56.0703 51.2297C56.0703 52.2128 56.8672 53.0097 57.8503 53.0097Z" fill="white"/>
<path opacity="0.5" d="M74.9399 51.2297C74.9399 52.2097 74.1399 53.0097 73.1599 53.0097C72.1799 53.0097 71.3799 52.2097 71.3799 51.2297C71.3799 50.2497 72.1799 49.4497 73.1599 49.4497C74.1399 49.4497 74.9399 50.2497 74.9399 51.2297Z" fill="white"/>
<path opacity="0.5" d="M88.4597 53.0097C89.4428 53.0097 90.2397 52.2128 90.2397 51.2297C90.2397 50.2466 89.4428 49.4497 88.4597 49.4497C87.4766 49.4497 86.6797 50.2466 86.6797 51.2297C86.6797 52.2128 87.4766 53.0097 88.4597 53.0097Z" fill="white"/>
<path opacity="0.5" d="M103.77 53.0097C104.753 53.0097 105.55 52.2128 105.55 51.2297C105.55 50.2466 104.753 49.4497 103.77 49.4497C102.787 49.4497 101.99 50.2466 101.99 51.2297C101.99 52.2128 102.787 53.0097 103.77 53.0097Z" fill="white"/>
<path opacity="0.5" d="M119.07 53.0097C120.053 53.0097 120.85 52.2128 120.85 51.2297C120.85 50.2466 120.053 49.4497 119.07 49.4497C118.087 49.4497 117.29 50.2466 117.29 51.2297C117.29 52.2128 118.087 53.0097 119.07 53.0097Z" fill="white"/>
<path opacity="0.5" d="M134.38 53.0097C135.363 53.0097 136.16 52.2128 136.16 51.2297C136.16 50.2466 135.363 49.4497 134.38 49.4497C133.397 49.4497 132.6 50.2466 132.6 51.2297C132.6 52.2128 133.397 53.0097 134.38 53.0097Z" fill="white"/>
<path opacity="0.5" d="M29.02 66.53C29.02 67.51 28.22 68.31 27.24 68.31C26.26 68.31 25.46 67.51 25.46 66.53C25.46 65.55 26.26 64.75 27.24 64.75C28.22 64.76 29.02 65.55 29.02 66.53Z" fill="white"/>
<path opacity="0.5" d="M42.5495 68.31C43.5326 68.31 44.3295 67.5131 44.3295 66.53C44.3295 65.5469 43.5326 64.75 42.5495 64.75C41.5665 64.75 40.7695 65.5469 40.7695 66.53C40.7695 67.5131 41.5665 68.31 42.5495 68.31Z" fill="white"/>
<path opacity="0.5" d="M57.8503 68.31C58.8334 68.31 59.6303 67.5131 59.6303 66.53C59.6303 65.5469 58.8334 64.75 57.8503 64.75C56.8672 64.75 56.0703 65.5469 56.0703 66.53C56.0703 67.5131 56.8672 68.31 57.8503 68.31Z" fill="white"/>
<path opacity="0.5" d="M74.9399 66.53C74.9399 67.51 74.1399 68.31 73.1599 68.31C72.1799 68.31 71.3799 67.51 71.3799 66.53C71.3799 65.55 72.1799 64.75 73.1599 64.75C74.1399 64.76 74.9399 65.55 74.9399 66.53Z" fill="white"/>
<path opacity="0.5" d="M88.4597 68.31C89.4428 68.31 90.2397 67.5131 90.2397 66.53C90.2397 65.5469 89.4428 64.75 88.4597 64.75C87.4766 64.75 86.6797 65.5469 86.6797 66.53C86.6797 67.5131 87.4766 68.31 88.4597 68.31Z" fill="white"/>
<path opacity="0.5" d="M103.77 68.31C104.753 68.31 105.55 67.5131 105.55 66.53C105.55 65.5469 104.753 64.75 103.77 64.75C102.787 64.75 101.99 65.5469 101.99 66.53C101.99 67.5131 102.787 68.31 103.77 68.31Z" fill="white"/>
<path opacity="0.5" d="M119.07 68.31C120.053 68.31 120.85 67.5131 120.85 66.53C120.85 65.5469 120.053 64.75 119.07 64.75C118.087 64.75 117.29 65.5469 117.29 66.53C117.29 67.5131 118.087 68.31 119.07 68.31Z" fill="white"/>
<path opacity="0.5" d="M134.38 68.31C135.363 68.31 136.16 67.5131 136.16 66.53C136.16 65.5469 135.363 64.75 134.38 64.75C133.397 64.75 132.6 65.5469 132.6 66.53C132.6 67.5131 133.397 68.31 134.38 68.31Z" fill="white"/>
<path opacity="0.5" d="M29.02 81.8401C29.02 82.8201 28.22 83.6201 27.24 83.6201C26.26 83.6201 25.46 82.8201 25.46 81.8401C25.46 80.8601 26.26 80.0601 27.24 80.0601C28.22 80.0601 29.02 80.8601 29.02 81.8401Z" fill="white"/>
<path opacity="0.5" d="M42.5495 83.6201C43.5326 83.6201 44.3295 82.8231 44.3295 81.8401C44.3295 80.857 43.5326 80.0601 42.5495 80.0601C41.5665 80.0601 40.7695 80.857 40.7695 81.8401C40.7695 82.8231 41.5665 83.6201 42.5495 83.6201Z" fill="white"/>
<path opacity="0.5" d="M57.8503 83.6201C58.8334 83.6201 59.6303 82.8231 59.6303 81.8401C59.6303 80.857 58.8334 80.0601 57.8503 80.0601C56.8672 80.0601 56.0703 80.857 56.0703 81.8401C56.0703 82.8231 56.8672 83.6201 57.8503 83.6201Z" fill="white"/>
<path opacity="0.5" d="M74.9399 81.8401C74.9399 82.8201 74.1399 83.6201 73.1599 83.6201C72.1799 83.6201 71.3799 82.8201 71.3799 81.8401C71.3799 80.8601 72.1799 80.0601 73.1599 80.0601C74.1399 80.0601 74.9399 80.8601 74.9399 81.8401Z" fill="white"/>
<path opacity="0.5" d="M88.4597 83.6201C89.4428 83.6201 90.2397 82.8231 90.2397 81.8401C90.2397 80.857 89.4428 80.0601 88.4597 80.0601C87.4766 80.0601 86.6797 80.857 86.6797 81.8401C86.6797 82.8231 87.4766 83.6201 88.4597 83.6201Z" fill="white"/>
<path opacity="0.5" d="M103.77 83.6201C104.753 83.6201 105.55 82.8231 105.55 81.8401C105.55 80.857 104.753 80.0601 103.77 80.0601C102.787 80.0601 101.99 80.857 101.99 81.8401C101.99 82.8231 102.787 83.6201 103.77 83.6201Z" fill="white"/>
<path opacity="0.5" d="M119.07 83.6201C120.053 83.6201 120.85 82.8231 120.85 81.8401C120.85 80.857 120.053 80.0601 119.07 80.0601C118.087 80.0601 117.29 80.857 117.29 81.8401C117.29 82.8231 118.087 83.6201 119.07 83.6201Z" fill="white"/>
<path opacity="0.5" d="M134.38 83.6201C135.363 83.6201 136.16 82.8231 136.16 81.8401C136.16 80.857 135.363 80.0601 134.38 80.0601C133.397 80.0601 132.6 80.857 132.6 81.8401C132.6 82.8231 133.397 83.6201 134.38 83.6201Z" fill="white"/>
<path opacity="0.5" d="M29.02 97.1496C29.02 98.1296 28.22 98.9296 27.24 98.9296C26.26 98.9296 25.46 98.1296 25.46 97.1496C25.46 96.1696 26.26 95.3696 27.24 95.3696C28.22 95.3696 29.02 96.1596 29.02 97.1496Z" fill="white"/>
<path opacity="0.5" d="M42.5495 98.9296C43.5326 98.9296 44.3295 98.1327 44.3295 97.1496C44.3295 96.1666 43.5326 95.3696 42.5495 95.3696C41.5665 95.3696 40.7695 96.1666 40.7695 97.1496C40.7695 98.1327 41.5665 98.9296 42.5495 98.9296Z" fill="white"/>
<path opacity="0.5" d="M57.8503 98.9296C58.8334 98.9296 59.6303 98.1327 59.6303 97.1496C59.6303 96.1666 58.8334 95.3696 57.8503 95.3696C56.8672 95.3696 56.0703 96.1666 56.0703 97.1496C56.0703 98.1327 56.8672 98.9296 57.8503 98.9296Z" fill="white"/>
<path opacity="0.5" d="M74.9399 97.1496C74.9399 98.1296 74.1399 98.9296 73.1599 98.9296C72.1799 98.9296 71.3799 98.1296 71.3799 97.1496C71.3799 96.1696 72.1799 95.3696 73.1599 95.3696C74.1399 95.3696 74.9399 96.1596 74.9399 97.1496Z" fill="white"/>
<path opacity="0.5" d="M88.4597 98.9296C89.4428 98.9296 90.2397 98.1327 90.2397 97.1496C90.2397 96.1666 89.4428 95.3696 88.4597 95.3696C87.4766 95.3696 86.6797 96.1666 86.6797 97.1496C86.6797 98.1327 87.4766 98.9296 88.4597 98.9296Z" fill="white"/>
<path opacity="0.5" d="M103.77 98.9296C104.753 98.9296 105.55 98.1327 105.55 97.1496C105.55 96.1666 104.753 95.3696 103.77 95.3696C102.787 95.3696 101.99 96.1666 101.99 97.1496C101.99 98.1327 102.787 98.9296 103.77 98.9296Z" fill="white"/>
<path opacity="0.5" d="M119.07 98.9296C120.053 98.9296 120.85 98.1327 120.85 97.1496C120.85 96.1666 120.053 95.3696 119.07 95.3696C118.087 95.3696 117.29 96.1666 117.29 97.1496C117.29 98.1327 118.087 98.9296 119.07 98.9296Z" fill="white"/>
<path opacity="0.5" d="M134.38 98.9296C135.363 98.9296 136.16 98.1327 136.16 97.1496C136.16 96.1666 135.363 95.3696 134.38 95.3696C133.397 95.3696 132.6 96.1666 132.6 97.1496C132.6 98.1327 133.397 98.9296 134.38 98.9296Z" fill="white"/>
</g>
<g opacity="0.5">
<path opacity="0.5" d="M636.91 288.48C637.893 288.48 638.69 287.683 638.69 286.7C638.69 285.717 637.893 284.92 636.91 284.92C635.927 284.92 635.13 285.717 635.13 286.7C635.13 287.683 635.927 288.48 636.91 288.48Z" fill="white"/>
<path opacity="0.5" d="M636.91 303.79C637.893 303.79 638.69 302.993 638.69 302.01C638.69 301.027 637.893 300.23 636.91 300.23C635.927 300.23 635.13 301.027 635.13 302.01C635.13 302.993 635.927 303.79 636.91 303.79Z" fill="white"/>
<path opacity="0.5" d="M636.91 319.09C637.893 319.09 638.69 318.293 638.69 317.31C638.69 316.327 637.893 315.53 636.91 315.53C635.927 315.53 635.13 316.327 635.13 317.31C635.13 318.293 635.927 319.09 636.91 319.09Z" fill="white"/>
<path opacity="0.5" d="M636.91 334.4C637.893 334.4 638.69 333.603 638.69 332.62C638.69 331.637 637.893 330.84 636.91 330.84C635.927 330.84 635.13 331.637 635.13 332.62C635.13 333.603 635.927 334.4 636.91 334.4Z" fill="white"/>
<path opacity="0.5" d="M636.91 349.7C637.893 349.7 638.69 348.903 638.69 347.92C638.69 346.937 637.893 346.14 636.91 346.14C635.927 346.14 635.13 346.937 635.13 347.92C635.13 348.903 635.927 349.7 636.91 349.7Z" fill="white"/>
<path opacity="0.5" d="M636.91 365.01C637.893 365.01 638.69 364.213 638.69 363.23C638.69 362.247 637.893 361.45 636.91 361.45C635.927 361.45 635.13 362.247 635.13 363.23C635.13 364.213 635.927 365.01 636.91 365.01Z" fill="white"/>
<path opacity="0.5" d="M636.91 380.31C637.893 380.31 638.69 379.513 638.69 378.53C638.69 377.547 637.893 376.75 636.91 376.75C635.927 376.75 635.13 377.547 635.13 378.53C635.13 379.513 635.927 380.31 636.91 380.31Z" fill="white"/>
<path opacity="0.5" d="M636.91 395.61C635.93 395.61 635.13 394.81 635.13 393.83C635.13 392.85 635.93 392.05 636.91 392.05C637.89 392.05 638.69 392.85 638.69 393.83C638.69 394.82 637.89 395.61 636.91 395.61Z" fill="white"/>
<path opacity="0.5" d="M621.61 288.48C620.63 288.48 619.83 287.68 619.83 286.7C619.83 285.72 620.63 284.92 621.61 284.92C622.59 284.92 623.39 285.72 623.39 286.7C623.38 287.68 622.59 288.48 621.61 288.48Z" fill="white"/>
<path opacity="0.5" d="M621.61 303.78C620.63 303.78 619.83 302.98 619.83 302C619.83 301.02 620.63 300.22 621.61 300.22C622.59 300.22 623.39 301.02 623.39 302C623.38 302.99 622.59 303.78 621.61 303.78Z" fill="white"/>
<path opacity="0.5" d="M621.61 319.09C620.63 319.09 619.83 318.29 619.83 317.31C619.83 316.33 620.63 315.53 621.61 315.53C622.59 315.53 623.39 316.33 623.39 317.31C623.38 318.29 622.59 319.09 621.61 319.09Z" fill="white"/>
<path opacity="0.5" d="M621.61 334.39C620.63 334.39 619.83 333.59 619.83 332.61C619.83 331.63 620.63 330.83 621.61 330.83C622.59 330.83 623.39 331.63 623.39 332.61C623.38 333.6 622.59 334.39 621.61 334.39Z" fill="white"/>
<path opacity="0.5" d="M621.61 349.7C620.63 349.7 619.83 348.9 619.83 347.92C619.83 346.94 620.63 346.14 621.61 346.14C622.59 346.14 623.39 346.94 623.39 347.92C623.38 348.9 622.59 349.7 621.61 349.7Z" fill="white"/>
<path opacity="0.5" d="M621.61 365C620.63 365 619.83 364.2 619.83 363.22C619.83 362.24 620.63 361.44 621.61 361.44C622.59 361.44 623.39 362.24 623.39 363.22C623.39 364.2 622.59 365 621.61 365Z" fill="white"/>
<path opacity="0.5" d="M621.61 380.31C620.63 380.31 619.83 379.51 619.83 378.53C619.83 377.55 620.63 376.75 621.61 376.75C622.59 376.75 623.39 377.55 623.39 378.53C623.39 379.51 622.59 380.31 621.61 380.31Z" fill="white"/>
<path opacity="0.5" d="M621.61 395.61C620.63 395.61 619.83 394.81 619.83 393.83C619.83 392.85 620.63 392.05 621.61 392.05C622.59 392.05 623.39 392.85 623.39 393.83C623.38 394.82 622.59 395.61 621.61 395.61Z" fill="white"/>
<path opacity="0.5" d="M606.299 288.48C607.283 288.48 608.08 287.683 608.08 286.7C608.08 285.717 607.283 284.92 606.299 284.92C605.316 284.92 604.52 285.717 604.52 286.7C604.52 287.683 605.316 288.48 606.299 288.48Z" fill="white"/>
<path opacity="0.5" d="M606.299 303.79C607.283 303.79 608.08 302.993 608.08 302.01C608.08 301.027 607.283 300.23 606.299 300.23C605.316 300.23 604.52 301.027 604.52 302.01C604.52 302.993 605.316 303.79 606.299 303.79Z" fill="white"/>
<path opacity="0.5" d="M606.299 319.09C607.283 319.09 608.08 318.293 608.08 317.31C608.08 316.327 607.283 315.53 606.299 315.53C605.316 315.53 604.52 316.327 604.52 317.31C604.52 318.293 605.316 319.09 606.299 319.09Z" fill="white"/>
<path opacity="0.5" d="M606.299 334.4C607.283 334.4 608.08 333.603 608.08 332.62C608.08 331.637 607.283 330.84 606.299 330.84C605.316 330.84 604.52 331.637 604.52 332.62C604.52 333.603 605.316 334.4 606.299 334.4Z" fill="white"/>
<path opacity="0.5" d="M606.299 349.7C607.283 349.7 608.08 348.903 608.08 347.92C608.08 346.937 607.283 346.14 606.299 346.14C605.316 346.14 604.52 346.937 604.52 347.92C604.52 348.903 605.316 349.7 606.299 349.7Z" fill="white"/>
<path opacity="0.5" d="M606.299 365.01C607.283 365.01 608.08 364.213 608.08 363.23C608.08 362.247 607.283 361.45 606.299 361.45C605.316 361.45 604.52 362.247 604.52 363.23C604.52 364.213 605.316 365.01 606.299 365.01Z" fill="white"/>
<path opacity="0.5" d="M606.299 380.31C607.283 380.31 608.08 379.513 608.08 378.53C608.08 377.547 607.283 376.75 606.299 376.75C605.316 376.75 604.52 377.547 604.52 378.53C604.52 379.513 605.316 380.31 606.299 380.31Z" fill="white"/>
<path opacity="0.5" d="M606.299 395.61C605.319 395.61 604.52 394.81 604.52 393.83C604.52 392.85 605.319 392.05 606.299 392.05C607.279 392.05 608.08 392.85 608.08 393.83C608.08 394.82 607.279 395.61 606.299 395.61Z" fill="white"/>
<path opacity="0.5" d="M590.99 288.48C591.973 288.48 592.77 287.683 592.77 286.7C592.77 285.717 591.973 284.92 590.99 284.92C590.007 284.92 589.21 285.717 589.21 286.7C589.21 287.683 590.007 288.48 590.99 288.48Z" fill="white"/>
<path opacity="0.5" d="M590.99 303.79C591.973 303.79 592.77 302.993 592.77 302.01C592.77 301.027 591.973 300.23 590.99 300.23C590.007 300.23 589.21 301.027 589.21 302.01C589.21 302.993 590.007 303.79 590.99 303.79Z" fill="white"/>
<path opacity="0.5" d="M590.99 319.09C591.973 319.09 592.77 318.293 592.77 317.31C592.77 316.327 591.973 315.53 590.99 315.53C590.007 315.53 589.21 316.327 589.21 317.31C589.21 318.293 590.007 319.09 590.99 319.09Z" fill="white"/>
<path opacity="0.5" d="M590.99 334.4C591.973 334.4 592.77 333.603 592.77 332.62C592.77 331.637 591.973 330.84 590.99 330.84C590.007 330.84 589.21 331.637 589.21 332.62C589.21 333.603 590.007 334.4 590.99 334.4Z" fill="white"/>
<path opacity="0.5" d="M590.99 349.7C591.973 349.7 592.77 348.903 592.77 347.92C592.77 346.937 591.973 346.14 590.99 346.14C590.007 346.14 589.21 346.937 589.21 347.92C589.21 348.903 590.007 349.7 590.99 349.7Z" fill="white"/>
<path opacity="0.5" d="M590.99 365.01C591.973 365.01 592.77 364.213 592.77 363.23C592.77 362.247 591.973 361.45 590.99 361.45C590.007 361.45 589.21 362.247 589.21 363.23C589.21 364.213 590.007 365.01 590.99 365.01Z" fill="white"/>
<path opacity="0.5" d="M590.99 380.31C591.973 380.31 592.77 379.513 592.77 378.53C592.77 377.547 591.973 376.75 590.99 376.75C590.007 376.75 589.21 377.547 589.21 378.53C589.21 379.513 590.007 380.31 590.99 380.31Z" fill="white"/>
<path opacity="0.5" d="M590.99 395.61C590.01 395.61 589.21 394.81 589.21 393.83C589.21 392.85 590.01 392.05 590.99 392.05C591.97 392.05 592.77 392.85 592.77 393.83C592.77 394.82 591.98 395.61 590.99 395.61Z" fill="white"/>
<path opacity="0.5" d="M575.689 288.48C576.672 288.48 577.469 287.683 577.469 286.7C577.469 285.717 576.672 284.92 575.689 284.92C574.706 284.92 573.909 285.717 573.909 286.7C573.909 287.683 574.706 288.48 575.689 288.48Z" fill="white"/>
<path opacity="0.5" d="M575.689 303.79C576.672 303.79 577.469 302.993 577.469 302.01C577.469 301.027 576.672 300.23 575.689 300.23C574.706 300.23 573.909 301.027 573.909 302.01C573.909 302.993 574.706 303.79 575.689 303.79Z" fill="white"/>
<path opacity="0.5" d="M575.689 319.09C576.672 319.09 577.469 318.293 577.469 317.31C577.469 316.327 576.672 315.53 575.689 315.53C574.706 315.53 573.909 316.327 573.909 317.31C573.909 318.293 574.706 319.09 575.689 319.09Z" fill="white"/>
<path opacity="0.5" d="M575.689 334.4C576.672 334.4 577.469 333.603 577.469 332.62C577.469 331.637 576.672 330.84 575.689 330.84C574.706 330.84 573.909 331.637 573.909 332.62C573.909 333.603 574.706 334.4 575.689 334.4Z" fill="white"/>
<path opacity="0.5" d="M575.689 349.7C576.672 349.7 577.469 348.903 577.469 347.92C577.469 346.937 576.672 346.14 575.689 346.14C574.706 346.14 573.909 346.937 573.909 347.92C573.909 348.903 574.706 349.7 575.689 349.7Z" fill="white"/>
<path opacity="0.5" d="M575.689 365.01C576.672 365.01 577.469 364.213 577.469 363.23C577.469 362.247 576.672 361.45 575.689 361.45C574.706 361.45 573.909 362.247 573.909 363.23C573.909 364.213 574.706 365.01 575.689 365.01Z" fill="white"/>
<path opacity="0.5" d="M575.689 380.31C576.672 380.31 577.469 379.513 577.469 378.53C577.469 377.547 576.672 376.75 575.689 376.75C574.706 376.75 573.909 377.547 573.909 378.53C573.909 379.513 574.706 380.31 575.689 380.31Z" fill="white"/>
<path opacity="0.5" d="M575.689 395.61C574.709 395.61 573.909 394.81 573.909 393.83C573.909 392.85 574.709 392.05 575.689 392.05C576.669 392.05 577.469 392.85 577.469 393.83C577.469 394.82 576.669 395.61 575.689 395.61Z" fill="white"/>
<path opacity="0.5" d="M560.38 288.48C561.363 288.48 562.16 287.683 562.16 286.7C562.16 285.717 561.363 284.92 560.38 284.92C559.397 284.92 558.6 285.717 558.6 286.7C558.6 287.683 559.397 288.48 560.38 288.48Z" fill="white"/>
<path opacity="0.5" d="M560.38 303.79C561.363 303.79 562.16 302.993 562.16 302.01C562.16 301.027 561.363 300.23 560.38 300.23C559.397 300.23 558.6 301.027 558.6 302.01C558.6 302.993 559.397 303.79 560.38 303.79Z" fill="white"/>
<path opacity="0.5" d="M560.38 319.09C561.363 319.09 562.16 318.293 562.16 317.31C562.16 316.327 561.363 315.53 560.38 315.53C559.397 315.53 558.6 316.327 558.6 317.31C558.6 318.293 559.397 319.09 560.38 319.09Z" fill="white"/>
<path opacity="0.5" d="M560.38 334.4C561.363 334.4 562.16 333.603 562.16 332.62C562.16 331.637 561.363 330.84 560.38 330.84C559.397 330.84 558.6 331.637 558.6 332.62C558.6 333.603 559.397 334.4 560.38 334.4Z" fill="white"/>
<path opacity="0.5" d="M560.38 349.7C561.363 349.7 562.16 348.903 562.16 347.92C562.16 346.937 561.363 346.14 560.38 346.14C559.397 346.14 558.6 346.937 558.6 347.92C558.6 348.903 559.397 349.7 560.38 349.7Z" fill="white"/>
<path opacity="0.5" d="M560.38 365.01C561.363 365.01 562.16 364.213 562.16 363.23C562.16 362.247 561.363 361.45 560.38 361.45C559.397 361.45 558.6 362.247 558.6 363.23C558.6 364.213 559.397 365.01 560.38 365.01Z" fill="white"/>
<path opacity="0.5" d="M560.38 380.31C561.363 380.31 562.16 379.513 562.16 378.53C562.16 377.547 561.363 376.75 560.38 376.75C559.397 376.75 558.6 377.547 558.6 378.53C558.6 379.513 559.397 380.31 560.38 380.31Z" fill="white"/>
<path opacity="0.5" d="M560.38 395.61C559.4 395.61 558.6 394.81 558.6 393.83C558.6 392.85 559.4 392.05 560.38 392.05C561.36 392.05 562.16 392.85 562.16 393.83C562.16 394.82 561.36 395.61 560.38 395.61Z" fill="white"/>
</g>
<g opacity="0.5">
<path opacity="0.5" d="M441.52 57.5398C441.52 58.5198 440.72 59.3198 439.74 59.3198C438.76 59.3198 437.96 58.5198 437.96 57.5398C437.96 56.5598 438.76 55.7598 439.74 55.7598C440.72 55.7598 441.52 56.5598 441.52 57.5398Z" fill="white"/>
<path opacity="0.5" d="M456.83 57.5398C456.83 58.5198 456.029 59.3198 455.049 59.3198C454.069 59.3198 453.27 58.5198 453.27 57.5398C453.27 56.5598 454.069 55.7598 455.049 55.7598C456.029 55.7698 456.83 56.5598 456.83 57.5398Z" fill="white"/>
<path opacity="0.5" d="M472.13 57.5398C472.13 58.5198 471.33 59.3198 470.35 59.3198C469.37 59.3198 468.57 58.5198 468.57 57.5398C468.57 56.5598 469.37 55.7598 470.35 55.7598C471.33 55.7598 472.13 56.5598 472.13 57.5398Z" fill="white"/>
<path opacity="0.5" d="M441.52 72.8498C441.52 73.8298 440.72 74.6298 439.74 74.6298C438.76 74.6298 437.96 73.8298 437.96 72.8498C437.96 71.8698 438.76 71.0698 439.74 71.0698C440.72 71.0698 441.52 71.8698 441.52 72.8498Z" fill="white"/>
<path opacity="0.5" d="M456.83 72.8498C456.83 73.8298 456.029 74.6298 455.049 74.6298C454.069 74.6298 453.27 73.8298 453.27 72.8498C453.27 71.8698 454.069 71.0698 455.049 71.0698C456.029 71.0698 456.83 71.8698 456.83 72.8498Z" fill="white"/>
<path opacity="0.5" d="M472.13 72.8498C472.13 73.8298 471.33 74.6298 470.35 74.6298C469.37 74.6298 468.57 73.8298 468.57 72.8498C468.57 71.8698 469.37 71.0698 470.35 71.0698C471.33 71.0698 472.13 71.8698 472.13 72.8498Z" fill="white"/>
<path opacity="0.5" d="M441.52 88.1496C441.52 89.1296 440.72 89.9296 439.74 89.9296C438.76 89.9296 437.96 89.1296 437.96 88.1496C437.96 87.1696 438.76 86.3696 439.74 86.3696C440.72 86.3696 441.52 87.1696 441.52 88.1496Z" fill="white"/>
<path opacity="0.5" d="M456.83 88.1496C456.83 89.1296 456.029 89.9296 455.049 89.9296C454.069 89.9296 453.27 89.1296 453.27 88.1496C453.27 87.1696 454.069 86.3696 455.049 86.3696C456.029 86.3796 456.83 87.1696 456.83 88.1496Z" fill="white"/>
<path opacity="0.5" d="M472.13 88.1496C472.13 89.1296 471.33 89.9296 470.35 89.9296C469.37 89.9296 468.57 89.1296 468.57 88.1496C468.57 87.1696 469.37 86.3696 470.35 86.3696C471.33 86.3696 472.13 87.1696 472.13 88.1496Z" fill="white"/>
</g>
<g opacity="0.5">
<path opacity="0.5" d="M298.62 193.53C298.62 194.51 297.82 195.31 296.84 195.31C295.86 195.31 295.06 194.51 295.06 193.53C295.06 192.55 295.86 191.75 296.84 191.75C297.83 191.75 298.62 192.54 298.62 193.53Z" fill="white"/>
<path opacity="0.5" d="M312.149 195.31C313.132 195.31 313.929 194.513 313.929 193.53C313.929 192.547 313.132 191.75 312.149 191.75C311.166 191.75 310.369 192.547 310.369 193.53C310.369 194.513 311.166 195.31 312.149 195.31Z" fill="white"/>
<path opacity="0.5" d="M327.45 195.31C328.433 195.31 329.23 194.513 329.23 193.53C329.23 192.547 328.433 191.75 327.45 191.75C326.467 191.75 325.67 192.547 325.67 193.53C325.67 194.513 326.467 195.31 327.45 195.31Z" fill="white"/>
<path opacity="0.5" d="M298.62 208.83C298.62 209.81 297.82 210.61 296.84 210.61C295.86 210.61 295.06 209.81 295.06 208.83C295.06 207.85 295.86 207.05 296.84 207.05C297.83 207.05 298.62 207.85 298.62 208.83Z" fill="white"/>
<path opacity="0.5" d="M312.149 210.61C313.132 210.61 313.929 209.813 313.929 208.83C313.929 207.847 313.132 207.05 312.149 207.05C311.166 207.05 310.369 207.847 310.369 208.83C310.369 209.813 311.166 210.61 312.149 210.61Z" fill="white"/>
<path opacity="0.5" d="M327.45 210.61C328.433 210.61 329.23 209.813 329.23 208.83C329.23 207.847 328.433 207.05 327.45 207.05C326.467 207.05 325.67 207.847 325.67 208.83C325.67 209.813 326.467 210.61 327.45 210.61Z" fill="white"/>
<path opacity="0.5" d="M298.62 224.14C298.62 225.12 297.82 225.92 296.84 225.92C295.86 225.92 295.06 225.12 295.06 224.14C295.06 223.16 295.86 222.36 296.84 222.36C297.83 222.36 298.62 223.16 298.62 224.14Z" fill="white"/>
<path opacity="0.5" d="M313.929 224.14C313.929 225.12 313.129 225.92 312.149 225.92C311.169 225.92 310.369 225.12 310.369 224.14C310.369 223.16 311.169 222.36 312.149 222.36C313.129 222.36 313.929 223.16 313.929 224.14Z" fill="white"/>
<path opacity="0.5" d="M329.23 224.14C329.23 225.12 328.43 225.92 327.45 225.92C326.47 225.92 325.67 225.12 325.67 224.14C325.67 223.16 326.47 222.36 327.45 222.36C328.44 222.36 329.23 223.16 329.23 224.14Z" fill="white"/>
</g>
<g opacity="0.5">
<path opacity="0.5" d="M585.121 -1.43994L520.641 63.0401" stroke="white" stroke-width="2.1221" stroke-miterlimit="10"/>
<path opacity="0.5" d="M580.93 -5.62988L516.45 58.8501" stroke="white" stroke-width="2.1221" stroke-miterlimit="10"/>
<path opacity="0.5" d="M576.741 -9.81982L512.261 54.6602" stroke="white" stroke-width="2.1221" stroke-miterlimit="10"/>
<path opacity="0.5" d="M572.55 -14.0098L508.07 50.4702" stroke="white" stroke-width="2.1221" stroke-miterlimit="10"/>
<path opacity="0.5" d="M568.361 -18.2002L503.881 46.2798" stroke="white" stroke-width="2.1221" stroke-miterlimit="10"/>
<path opacity="0.5" d="M564.17 -22.3901L499.69 42.0899" stroke="white" stroke-width="2.1221" stroke-miterlimit="10"/>
<path opacity="0.5" d="M559.981 -26.5801L495.501 37.8999" stroke="white" stroke-width="2.1221" stroke-miterlimit="10"/>
<path opacity="0.5" d="M555.791 -30.77L491.311 33.71" stroke="white" stroke-width="2.1221" stroke-miterlimit="10"/>
<path opacity="0.5" d="M551.601 -34.96L487.121 29.52" stroke="white" stroke-width="2.1221" stroke-miterlimit="10"/>
<path opacity="0.5" d="M547.411 -39.1499L482.931 25.3301" stroke="white" stroke-width="2.1221" stroke-miterlimit="10"/>
<path opacity="0.5" d="M543.22 -43.3398L478.74 21.1402" stroke="white" stroke-width="2.1221" stroke-miterlimit="10"/>
<path opacity="0.5" d="M539.031 -47.52L474.561 16.95" stroke="white" stroke-width="2.1221" stroke-miterlimit="10"/>
<path opacity="0.5" d="M534.851 -51.71L470.371 12.77" stroke="white" stroke-width="2.1221" stroke-miterlimit="10"/>
<path opacity="0.5" d="M530.661 -55.8999L466.181 8.5801" stroke="white" stroke-width="2.1221" stroke-miterlimit="10"/>
<path opacity="0.5" d="M526.47 -60.0898L461.99 4.39015" stroke="white" stroke-width="2.1221" stroke-miterlimit="10"/>
<path opacity="0.5" d="M522.281 -64.2798L457.801 0.200211" stroke="white" stroke-width="2.1221" stroke-miterlimit="10"/>
</g>
<g opacity="0.5">
<path opacity="0.5" d="M433.511 495.39L369.031 559.87" stroke="white" stroke-width="2.1221" stroke-miterlimit="10"/>
<path opacity="0.5" d="M429.321 491.2L364.841 555.68" stroke="white" stroke-width="2.1221" stroke-miterlimit="10"/>
<path opacity="0.5" d="M425.13 487.01L360.65 551.49" stroke="white" stroke-width="2.1221" stroke-miterlimit="10"/>
<path opacity="0.5" d="M420.941 482.82L356.461 547.3" stroke="white" stroke-width="2.1221" stroke-miterlimit="10"/>
<path opacity="0.5" d="M416.75 478.63L352.271 543.11" stroke="white" stroke-width="2.1221" stroke-miterlimit="10"/>
<path opacity="0.5" d="M412.561 474.44L348.081 538.92" stroke="white" stroke-width="2.1221" stroke-miterlimit="10"/>
<path opacity="0.5" d="M408.371 470.25L343.891 534.73" stroke="white" stroke-width="2.1221" stroke-miterlimit="10"/>
<path opacity="0.5" d="M404.181 466.06L339.701 530.54" stroke="white" stroke-width="2.1221" stroke-miterlimit="10"/>
<path opacity="0.5" d="M399.991 461.87L335.511 526.35" stroke="white" stroke-width="2.1221" stroke-miterlimit="10"/>
<path opacity="0.5" d="M395.801 457.68L331.321 522.16" stroke="white" stroke-width="2.1221" stroke-miterlimit="10"/>
<path opacity="0.5" d="M391.611 453.49L327.131 517.97" stroke="white" stroke-width="2.1221" stroke-miterlimit="10"/>
<path opacity="0.5" d="M387.421 449.3L322.951 513.78" stroke="white" stroke-width="2.1221" stroke-miterlimit="10"/>
<path opacity="0.5" d="M383.241 445.12L318.761 509.59" stroke="white" stroke-width="2.1221" stroke-miterlimit="10"/>
<path opacity="0.5" d="M379.051 440.93L314.571 505.4" stroke="white" stroke-width="2.1221" stroke-miterlimit="10"/>
<path opacity="0.5" d="M374.861 436.74L310.381 501.22" stroke="white" stroke-width="2.1221" stroke-miterlimit="10"/>
</g>
<g opacity="0.8">
<path opacity="0.8" d="M392.972 78.8847C448.019 23.837 448.019 -65.4131 392.972 -120.461C337.924 -175.509 248.674 -175.509 193.626 -120.461C138.578 -65.4131 138.578 23.837 193.626 78.8847C248.674 133.933 337.924 133.933 392.972 78.8847Z" stroke="black" stroke-width="0.5" stroke-miterlimit="10"/>
<path opacity="0.8" d="M387.951 73.8643C440.226 21.5893 440.226 -63.1654 387.951 -115.44C335.676 -167.716 250.922 -167.716 198.647 -115.44C146.371 -63.1654 146.371 21.5892 198.647 73.8643C250.922 126.139 335.676 126.139 387.951 73.8643Z" stroke="black" stroke-width="0.6562" stroke-miterlimit="10"/>
<path opacity="0.8" d="M293.3 105.96C363.302 105.96 420.05 49.2121 420.05 -20.79C420.05 -90.7921 363.302 -147.54 293.3 -147.54C223.298 -147.54 166.55 -90.7921 166.55 -20.79C166.55 49.2121 223.298 105.96 293.3 105.96Z" stroke="black" stroke-width="0.8125" stroke-miterlimit="10"/>
<path opacity="0.8" d="M293.3 98.86C359.381 98.86 412.95 45.2909 412.95 -20.7899C412.95 -86.8708 359.381 -140.44 293.3 -140.44C227.22 -140.44 173.65 -86.8708 173.65 -20.7899C173.65 45.2909 227.22 98.86 293.3 98.86Z" stroke="black" stroke-width="0.9688" stroke-miterlimit="10"/>
<path opacity="0.8" d="M372.883 58.796C416.836 14.8429 416.836 -56.4191 372.883 -100.372C328.93 -144.325 257.668 -144.325 213.715 -100.372C169.762 -56.4191 169.762 14.8429 213.715 58.796C257.668 102.749 328.93 102.749 372.883 58.796Z" stroke="black" stroke-width="1.125" stroke-miterlimit="10"/>
<path opacity="0.8" d="M367.863 53.7756C409.043 12.5952 409.043 -54.1714 367.863 -95.3518C326.683 -136.532 259.916 -136.532 218.736 -95.3518C177.555 -54.1714 177.555 12.5952 218.736 53.7756C259.916 94.956 326.683 94.956 367.863 53.7756Z" stroke="black" stroke-width="1.2812" stroke-miterlimit="10"/>
<path opacity="0.8" d="M362.842 48.7552C401.249 10.3475 401.249 -51.9237 362.842 -90.3314C324.434 -128.739 262.163 -128.739 223.755 -90.3314C185.347 -51.9237 185.348 10.3475 223.755 48.7552C262.163 87.1629 324.434 87.1629 362.842 48.7552Z" stroke="black" stroke-width="1.4375" stroke-miterlimit="10"/>
<path opacity="0.8" d="M357.822 43.7348C393.457 8.09979 393.457 -49.676 357.822 -85.311C322.187 -120.946 264.411 -120.946 228.776 -85.311C193.141 -49.676 193.141 8.09979 228.776 43.7348C264.411 79.3698 322.187 79.3698 357.822 43.7348Z" stroke="black" stroke-width="1.5938" stroke-miterlimit="10"/>
<path opacity="0.8" d="M376.392 -7.36376C383.795 -53.2436 352.604 -96.4383 306.724 -103.842C260.844 -111.245 217.649 -80.0538 210.246 -34.174C202.842 11.7059 234.034 54.9006 279.914 62.304C325.794 69.7075 368.988 38.5161 376.392 -7.36376Z" stroke="black" stroke-width="1.75" stroke-miterlimit="10"/>
<path opacity="0.8" d="M293.3 56.2597C335.854 56.2597 370.35 21.7632 370.35 -20.7903C370.35 -63.3439 335.854 -97.8403 293.3 -97.8403C250.746 -97.8403 216.25 -63.3439 216.25 -20.7903C216.25 21.7632 250.746 56.2597 293.3 56.2597Z" stroke="black" stroke-width="1.9062" stroke-miterlimit="10"/>
<path opacity="0.8" d="M342.76 28.6736C370.077 1.35666 370.077 -42.9328 342.76 -70.2497C315.443 -97.5666 271.154 -97.5666 243.837 -70.2497C216.52 -42.9328 216.52 1.35665 243.837 28.6736C271.154 55.9905 315.443 55.9905 342.76 28.6736Z" stroke="black" stroke-width="2.0625" stroke-miterlimit="10"/>
<path opacity="0.8" d="M337.733 23.6461C362.273 -0.894231 362.273 -40.682 337.733 -65.2223C313.193 -89.7626 273.405 -89.7626 248.865 -65.2222C224.325 -40.6819 224.325 -0.894231 248.865 23.6461C273.405 48.1864 313.193 48.1864 337.733 23.6461Z" stroke="black" stroke-width="2.2188" stroke-miterlimit="10"/>
<path opacity="0.8" d="M332.713 18.6257C354.481 -3.14194 354.481 -38.4342 332.713 -60.2018C310.945 -81.9694 275.653 -81.9694 253.885 -60.2018C232.118 -38.4342 232.118 -3.14194 253.885 18.6257C275.653 40.3933 310.945 40.3933 332.713 18.6257Z" stroke="black" stroke-width="2.375" stroke-miterlimit="10"/>
<path opacity="0.8" d="M327.692 13.6053C346.687 -5.38965 346.687 -36.1865 327.692 -55.1814C308.697 -74.1763 277.9 -74.1763 258.905 -55.1814C239.91 -36.1865 239.91 -5.38966 258.905 13.6053C277.9 32.6002 308.697 32.6002 327.692 13.6053Z" stroke="black" stroke-width="2.5312" stroke-miterlimit="10"/>
<path opacity="0.8" d="M334.54 -15.9265C337.229 -38.7101 320.939 -59.3596 298.155 -62.0484C275.372 -64.7372 254.722 -48.4471 252.034 -25.6635C249.345 -2.8799 265.635 17.7695 288.418 20.4583C311.202 23.1471 331.851 6.85708 334.54 -15.9265Z" stroke="black" stroke-width="2.6875" stroke-miterlimit="10"/>
<path opacity="0.8" d="M293.3 13.65C312.321 13.65 327.74 -1.76928 327.74 -20.79C327.74 -39.8107 312.321 -55.23 293.3 -55.23C274.28 -55.23 258.86 -39.8107 258.86 -20.79C258.86 -1.76928 274.28 13.65 293.3 13.65Z" stroke="black" stroke-width="2.8438" stroke-miterlimit="10"/>
<path opacity="0.8" d="M320.574 -18.5921C321.773 -33.6432 310.544 -46.8165 295.493 -48.0154C280.441 -49.2143 267.268 -37.9848 266.069 -22.9337C264.87 -7.88251 276.1 5.29075 291.151 6.48964C306.202 7.68854 319.375 -3.54092 320.574 -18.5921Z" stroke="black" stroke-width="3" stroke-miterlimit="10"/>
</g>
<g opacity="0.79">
<path opacity="0.79" d="M515.162 298.757C551.18 262.739 551.18 204.343 515.162 168.325C479.144 132.307 420.748 132.307 384.731 168.325C348.713 204.343 348.713 262.739 384.73 298.757C420.748 334.775 479.144 334.775 515.162 298.757Z" stroke="black" stroke-width="0.5" stroke-miterlimit="10"/>
<path opacity="0.79" d="M510.566 294.161C544.045 260.681 544.045 206.401 510.566 172.921C477.087 139.442 422.806 139.442 389.327 172.921C355.847 206.401 355.847 260.681 389.327 294.161C422.806 327.64 477.087 327.64 510.566 294.161Z" stroke="black" stroke-width="0.7273" stroke-miterlimit="10"/>
<path opacity="0.79" d="M449.951 312.77C493.708 312.77 529.181 277.297 529.181 233.54C529.181 189.782 493.708 154.31 449.951 154.31C406.193 154.31 370.721 189.782 370.721 233.54C370.721 277.297 406.193 312.77 449.951 312.77Z" stroke="black" stroke-width="0.9545" stroke-miterlimit="10"/>
<path opacity="0.79" d="M449.95 306.28C490.123 306.28 522.69 273.713 522.69 233.54C522.69 193.367 490.123 160.8 449.95 160.8C409.777 160.8 377.21 193.367 377.21 233.54C377.21 273.713 409.777 306.28 449.95 306.28Z" stroke="black" stroke-width="1.1818" stroke-miterlimit="10"/>
<path opacity="0.79" d="M449.95 299.78C486.533 299.78 516.19 270.123 516.19 233.54C516.19 196.956 486.533 167.3 449.95 167.3C413.367 167.3 383.71 196.956 383.71 233.54C383.71 270.123 413.367 299.78 449.95 299.78Z" stroke="black" stroke-width="1.4091" stroke-miterlimit="10"/>
<path opacity="0.79" d="M449.95 293.28C482.943 293.28 509.69 266.533 509.69 233.54C509.69 200.546 482.943 173.8 449.95 173.8C416.956 173.8 390.21 200.546 390.21 233.54C390.21 266.533 416.956 293.28 449.95 293.28Z" stroke="black" stroke-width="1.6364" stroke-miterlimit="10"/>
<path opacity="0.79" d="M449.95 286.78C479.354 286.78 503.19 262.943 503.19 233.54C503.19 204.136 479.354 180.3 449.95 180.3C420.546 180.3 396.71 204.136 396.71 233.54C396.71 262.943 420.546 286.78 449.95 286.78Z" stroke="black" stroke-width="1.8636" stroke-miterlimit="10"/>
<path opacity="0.79" d="M449.95 280.28C475.764 280.28 496.69 259.354 496.69 233.54C496.69 207.726 475.764 186.8 449.95 186.8C424.136 186.8 403.21 207.726 403.21 233.54C403.21 259.354 424.136 280.28 449.95 280.28Z" stroke="black" stroke-width="2.0909" stroke-miterlimit="10"/>
<path opacity="0.79" d="M449.95 273.78C472.174 273.78 490.19 255.764 490.19 233.54C490.19 211.316 472.174 193.3 449.95 193.3C427.726 193.3 409.71 211.316 409.71 233.54C409.71 255.764 427.726 273.78 449.95 273.78Z" stroke="black" stroke-width="2.3182" stroke-miterlimit="10"/>
<path opacity="0.79" d="M449.95 267.28C468.584 267.28 483.69 252.174 483.69 233.54C483.69 214.906 468.584 199.8 449.95 199.8C431.316 199.8 416.21 214.906 416.21 233.54C416.21 252.174 431.316 267.28 449.95 267.28Z" stroke="black" stroke-width="2.5454" stroke-miterlimit="10"/>
<path opacity="0.79" d="M449.95 260.78C464.994 260.78 477.19 248.584 477.19 233.54C477.19 218.496 464.994 206.3 449.95 206.3C434.906 206.3 422.71 218.496 422.71 233.54C422.71 248.584 434.906 260.78 449.95 260.78Z" stroke="black" stroke-width="2.7727" stroke-miterlimit="10"/>
<path opacity="0.79" d="M449.95 254.28C461.404 254.28 470.69 244.994 470.69 233.54C470.69 222.085 461.404 212.8 449.95 212.8C438.496 212.8 429.21 222.085 429.21 233.54C429.21 244.994 438.496 254.28 449.95 254.28Z" stroke="black" stroke-width="3" stroke-miterlimit="10"/>
</g>
<g opacity="0.89">
<g opacity="0.89">
<path opacity="0.89" d="M180.791 273.61C225.47 273.61 261.691 237.39 261.691 192.71C261.691 148.03 225.47 111.81 180.791 111.81C136.111 111.81 99.8906 148.03 99.8906 192.71C99.8906 237.39 136.111 273.61 180.791 273.61Z" stroke="#2F2E41" stroke-width="0.8127" stroke-linecap="round" stroke-linejoin="round"/>
</g>
<g opacity="0.89">
<path opacity="0.89" d="M180.791 267.71C222.212 267.71 255.791 234.131 255.791 192.71C255.791 151.289 222.212 117.71 180.791 117.71C139.37 117.71 105.791 151.289 105.791 192.71C105.791 234.131 139.37 267.71 180.791 267.71Z" stroke="#2F2E41" stroke-width="0.9493" stroke-linecap="round" stroke-linejoin="round"/>
</g>
<g opacity="0.89">
<path opacity="0.89" d="M180.79 261.81C218.953 261.81 249.89 230.873 249.89 192.71C249.89 154.547 218.953 123.61 180.79 123.61C142.628 123.61 111.69 154.547 111.69 192.71C111.69 230.873 142.628 261.81 180.79 261.81Z" stroke="#2F2E41" stroke-width="1.0859" stroke-linecap="round" stroke-linejoin="round"/>
</g>
<g opacity="0.89">
<path opacity="0.89" d="M180.791 255.91C215.695 255.91 243.991 227.615 243.991 192.71C243.991 157.806 215.695 129.51 180.791 129.51C145.886 129.51 117.591 157.806 117.591 192.71C117.591 227.615 145.886 255.91 180.791 255.91Z" stroke="#2F2E41" stroke-width="1.2225" stroke-linecap="round" stroke-linejoin="round"/>
</g>
<g opacity="0.89">
<path opacity="0.89" d="M180.79 250.01C212.436 250.01 238.09 224.356 238.09 192.71C238.09 161.064 212.436 135.41 180.79 135.41C149.144 135.41 123.49 161.064 123.49 192.71C123.49 224.356 149.144 250.01 180.79 250.01Z" stroke="#2F2E41" stroke-width="1.3591" stroke-linecap="round" stroke-linejoin="round"/>
</g>
<g opacity="0.89">
<path opacity="0.89" d="M180.791 244.11C209.178 244.11 232.191 221.097 232.191 192.71C232.191 164.323 209.178 141.31 180.791 141.31C152.403 141.31 129.391 164.323 129.391 192.71C129.391 221.097 152.403 244.11 180.791 244.11Z" stroke="#2F2E41" stroke-width="1.4956" stroke-linecap="round" stroke-linejoin="round"/>
</g>
<g opacity="0.89">
<path opacity="0.89" d="M180.791 238.21C205.92 238.21 226.291 217.839 226.291 192.71C226.291 167.581 205.92 147.21 180.791 147.21C155.662 147.21 135.291 167.581 135.291 192.71C135.291 217.839 155.662 238.21 180.791 238.21Z" stroke="#2F2E41" stroke-width="1.6322" stroke-linecap="round" stroke-linejoin="round"/>
</g>
<g opacity="0.89">
<path opacity="0.89" d="M180.79 232.31C202.661 232.31 220.39 214.58 220.39 192.71C220.39 170.839 202.661 153.11 180.79 153.11C158.92 153.11 141.19 170.839 141.19 192.71C141.19 214.58 158.92 232.31 180.79 232.31Z" stroke="#2F2E41" stroke-width="1.7688" stroke-linecap="round" stroke-linejoin="round"/>
</g>
<g opacity="0.89">
<path opacity="0.89" d="M180.791 226.42C199.409 226.42 214.501 211.328 214.501 192.71C214.501 174.092 199.409 159 180.791 159C162.174 159 147.081 174.092 147.081 192.71C147.081 211.328 162.174 226.42 180.791 226.42Z" stroke="#2F2E41" stroke-width="1.9054" stroke-linecap="round" stroke-linejoin="round"/>
</g>
<g opacity="0.89">
<path opacity="0.89" d="M180.79 220.52C196.15 220.52 208.6 208.069 208.6 192.71C208.6 177.351 196.15 164.9 180.79 164.9C165.431 164.9 152.98 177.351 152.98 192.71C152.98 208.069 165.431 220.52 180.79 220.52Z" stroke="#2F2E41" stroke-width="2.042" stroke-linecap="round" stroke-linejoin="round"/>
</g>
<g opacity="0.89">
<path opacity="0.89" d="M180.791 214.62C192.891 214.62 202.701 204.81 202.701 192.71C202.701 180.609 192.891 170.8 180.791 170.8C168.69 170.8 158.881 180.609 158.881 192.71C158.881 204.81 168.69 214.62 180.791 214.62Z" stroke="#2F2E41" stroke-width="2.1786" stroke-linecap="round" stroke-linejoin="round"/>
</g>
<g opacity="0.89">
<path opacity="0.89" d="M180.79 208.72C189.632 208.72 196.8 201.552 196.8 192.71C196.8 183.868 189.632 176.7 180.79 176.7C171.948 176.7 164.78 183.868 164.78 192.71C164.78 201.552 171.948 208.72 180.79 208.72Z" stroke="#2F2E41" stroke-width="2.3152" stroke-linecap="round" stroke-linejoin="round"/>
</g>
</g>
<g opacity="0.81">
<g opacity="0.81">
<path opacity="0.81" d="M856.325 104.569C914.868 46.0258 914.868 -48.891 856.325 -107.434C797.782 -165.977 702.866 -165.977 644.323 -107.434C585.78 -48.8911 585.78 46.0258 644.323 104.569C702.866 163.112 797.782 163.112 856.325 104.569Z" stroke="white" stroke-width="1.0531" stroke-linecap="round" stroke-linejoin="round"/>
</g>
<g opacity="0.81">
<path opacity="0.81" d="M750.33 142.74C829.959 142.74 894.51 78.1883 894.51 -1.44012C894.51 -81.0685 829.959 -145.62 750.33 -145.62C670.702 -145.62 606.15 -81.0685 606.15 -1.44012C606.15 78.1883 670.702 142.74 750.33 142.74Z" stroke="white" stroke-width="1.1458" stroke-linecap="round" stroke-linejoin="round"/>
</g>
<g opacity="0.81">
<path opacity="0.81" d="M848.229 96.4719C902.3 42.4005 902.3 -45.2667 848.229 -99.3382C794.157 -153.41 706.49 -153.41 652.419 -99.3382C598.347 -45.2667 598.347 42.4005 652.419 96.472C706.49 150.543 794.157 150.543 848.229 96.4719Z" stroke="white" stroke-width="1.2385" stroke-linecap="round" stroke-linejoin="round"/>
</g>
<g opacity="0.81">
<path opacity="0.81" d="M750.33 131.29C823.634 131.29 883.06 71.8648 883.06 -1.43993C883.06 -74.7447 823.634 -134.17 750.33 -134.17C677.025 -134.17 617.6 -74.7447 617.6 -1.43993C617.6 71.8648 677.025 131.29 750.33 131.29Z" stroke="white" stroke-width="1.3312" stroke-linecap="round" stroke-linejoin="round"/>
</g>
<g opacity="0.81">
<path opacity="0.81" d="M750.33 125.57C820.476 125.57 877.34 68.7055 877.34 -1.4402C877.34 -71.5859 820.476 -128.45 750.33 -128.45C680.185 -128.45 623.32 -71.5859 623.32 -1.4402C623.32 68.7055 680.185 125.57 750.33 125.57Z" stroke="white" stroke-width="1.4239" stroke-linecap="round" stroke-linejoin="round"/>
</g>
<g opacity="0.81">
<path opacity="0.81" d="M750.33 119.84C817.311 119.84 871.61 65.5409 871.61 -1.44022C871.61 -68.4213 817.311 -122.72 750.33 -122.72C683.349 -122.72 629.05 -68.4213 629.05 -1.44022C629.05 65.5409 683.349 119.84 750.33 119.84Z" stroke="white" stroke-width="1.5166" stroke-linecap="round" stroke-linejoin="round"/>
</g>
<g opacity="0.81">
<path opacity="0.81" d="M750.33 114.11C814.147 114.11 865.88 62.3763 865.88 -1.44023C865.88 -65.2567 814.147 -116.99 750.33 -116.99C686.514 -116.99 634.78 -65.2567 634.78 -1.44023C634.78 62.3763 686.514 114.11 750.33 114.11Z" stroke="white" stroke-width="1.6093" stroke-linecap="round" stroke-linejoin="round"/>
</g>
<g opacity="0.81">
<path opacity="0.81" d="M750.33 108.39C810.987 108.39 860.16 59.2174 860.16 -1.44002C860.16 -62.0975 810.987 -111.27 750.33 -111.27C689.673 -111.27 640.5 -62.0975 640.5 -1.44002C640.5 59.2174 689.673 108.39 750.33 108.39Z" stroke="white" stroke-width="1.702" stroke-linecap="round" stroke-linejoin="round"/>
</g>
<g opacity="0.81">
<path opacity="0.81" d="M750.33 102.66C807.822 102.66 854.43 56.0528 854.43 -1.44004C854.43 -58.9329 807.822 -105.54 750.33 -105.54C692.837 -105.54 646.229 -58.9329 646.229 -1.44004C646.229 56.0528 692.837 102.66 750.33 102.66Z" stroke="white" stroke-width="1.7948" stroke-linecap="round" stroke-linejoin="round"/>
</g>
<g opacity="0.81">
<path opacity="0.81" d="M750.33 96.9397C804.664 96.9397 848.71 52.8935 848.71 -1.44032C848.71 -55.7741 804.664 -99.8203 750.33 -99.8203C695.996 -99.8203 651.95 -55.7741 651.95 -1.44032C651.95 52.8935 695.996 96.9397 750.33 96.9397Z" stroke="white" stroke-width="1.8875" stroke-linecap="round" stroke-linejoin="round"/>
</g>
<g opacity="0.81">
<path opacity="0.81" d="M750.33 91.2102C801.499 91.2102 842.98 49.7293 842.98 -1.43985C842.98 -52.609 801.499 -94.0898 750.33 -94.0898C699.161 -94.0898 657.68 -52.609 657.68 -1.43985C657.68 49.7293 699.161 91.2102 750.33 91.2102Z" stroke="white" stroke-width="1.9802" stroke-linecap="round" stroke-linejoin="round"/>
</g>
<g opacity="0.81">
<path opacity="0.81" d="M750.33 85.4801C798.335 85.4801 837.25 46.5647 837.25 -1.43987C837.25 -49.4445 798.335 -88.3599 750.33 -88.3599C702.326 -88.3599 663.41 -49.4445 663.41 -1.43987C663.41 46.5647 702.326 85.4801 750.33 85.4801Z" stroke="white" stroke-width="2.0729" stroke-linecap="round" stroke-linejoin="round"/>
</g>
<g opacity="0.81">
<path opacity="0.81" d="M753.247 79.761C798.066 78.1645 833.104 40.5376 831.508 -4.28104C829.911 -49.0997 792.284 -84.1381 747.466 -82.5416C702.647 -80.9451 667.609 -43.3182 669.205 1.5004C670.802 46.319 708.429 81.3575 753.247 79.761Z" stroke="white" stroke-width="2.1656" stroke-linecap="round" stroke-linejoin="round"/>
</g>
<g opacity="0.81">
<path opacity="0.81" d="M750.329 74.0298C792.01 74.0298 825.799 40.2408 825.799 -1.44016C825.799 -43.1211 792.01 -76.9102 750.329 -76.9102C708.648 -76.9102 674.859 -43.1211 674.859 -1.44016C674.859 40.2408 708.648 74.0298 750.329 74.0298Z" stroke="white" stroke-width="2.2583" stroke-linecap="round" stroke-linejoin="round"/>
</g>
<g opacity="0.81">
<path opacity="0.81" d="M752.839 68.3185C791.338 66.9471 821.436 34.626 820.064 -3.87279C818.693 -42.3715 786.372 -72.4692 747.873 -71.0978C709.374 -69.7265 679.277 -37.4053 680.648 1.09341C682.02 39.5922 714.341 69.6898 752.839 68.3185Z" stroke="white" stroke-width="2.351" stroke-linecap="round" stroke-linejoin="round"/>
</g>
<g opacity="0.81">
<path opacity="0.81" d="M750.33 62.58C785.687 62.58 814.35 33.9173 814.35 -1.43996C814.35 -36.7972 785.687 -65.46 750.33 -65.46C714.972 -65.46 686.31 -36.7972 686.31 -1.43996C686.31 33.9173 714.972 62.58 750.33 62.58Z" stroke="white" stroke-width="2.4437" stroke-linecap="round" stroke-linejoin="round"/>
</g>
<g opacity="0.81">
<path opacity="0.81" d="M752.432 56.8651C784.605 55.7191 809.758 28.7083 808.612 -3.46504C807.466 -35.6384 780.455 -60.791 748.281 -59.6449C716.108 -58.4989 690.955 -31.4882 692.101 0.685204C693.248 32.8586 720.258 58.0112 752.432 56.8651Z" stroke="white" stroke-width="2.5364" stroke-linecap="round" stroke-linejoin="round"/>
</g>
<g opacity="0.81">
<path opacity="0.81" d="M750.33 51.1298C779.363 51.1298 802.9 27.5934 802.9 -1.44025C802.9 -30.4739 779.363 -54.0103 750.33 -54.0103C721.296 -54.0103 697.76 -30.4739 697.76 -1.44025C697.76 27.5934 721.296 51.1298 750.33 51.1298Z" stroke="white" stroke-width="2.6292" stroke-linecap="round" stroke-linejoin="round"/>
</g>
<g opacity="0.81">
<path opacity="0.81" d="M752.024 45.4221C777.877 44.5012 798.089 22.7962 797.168 -3.05729C796.247 -28.9108 774.542 -49.1226 748.689 -48.2017C722.835 -47.2807 702.624 -25.5758 703.544 0.277714C704.465 26.1312 726.17 46.343 752.024 45.4221Z" stroke="white" stroke-width="2.7219" stroke-linecap="round" stroke-linejoin="round"/>
</g>
<g opacity="0.81">
<path opacity="0.81" d="M750.33 39.6799C773.04 39.6799 791.45 21.2699 791.45 -1.44006C791.45 -24.15 773.04 -42.5601 750.33 -42.5601C727.62 -42.5601 709.21 -24.15 709.21 -1.44006C709.21 21.2699 727.62 39.6799 750.33 39.6799Z" stroke="white" stroke-width="2.8146" stroke-linecap="round" stroke-linejoin="round"/>
</g>
<g opacity="0.81">
<path opacity="0.81" d="M751.616 33.9786C771.15 33.2828 786.421 16.8836 785.725 -2.65002C785.029 -22.1837 768.63 -37.4547 749.096 -36.7589C729.563 -36.0631 714.292 -19.6639 714.987 -0.130257C715.683 19.4034 732.082 34.6744 751.616 33.9786Z" stroke="white" stroke-width="2.9073" stroke-linecap="round" stroke-linejoin="round"/>
</g>
<g opacity="0.81">
<path opacity="0.81" d="M750.33 28.2199C766.711 28.2199 779.99 14.9407 779.99 -1.44009C779.99 -17.8209 766.711 -31.1001 750.33 -31.1001C733.949 -31.1001 720.67 -17.8209 720.67 -1.44009C720.67 14.9407 733.949 28.2199 750.33 28.2199Z" stroke="white" stroke-width="3" stroke-linecap="round" stroke-linejoin="round"/>
</g>
</g>
<g opacity="0.77">
<g opacity="0.77">
<path opacity="0.77" d="M274.141 242.77L134.641 382.27" stroke="black" stroke-width="2" stroke-miterlimit="10"/>
<path opacity="0.77" d="M282.16 242.77L142.66 382.27" stroke="black" stroke-width="2" stroke-miterlimit="10"/>
<path opacity="0.77" d="M290.171 242.77L150.671 382.27" stroke="black" stroke-width="2" stroke-miterlimit="10"/>
<path opacity="0.77" d="M298.19 242.77L158.69 382.27" stroke="black" stroke-width="2" stroke-miterlimit="10"/>
<path opacity="0.77" d="M306.211 242.77L166.711 382.27" stroke="black" stroke-width="2" stroke-miterlimit="10"/>
<path opacity="0.77" d="M314.23 242.77L174.73 382.27" stroke="black" stroke-width="2" stroke-miterlimit="10"/>
<path opacity="0.77" d="M322.24 242.77L182.74 382.27" stroke="black" stroke-width="2" stroke-miterlimit="10"/>
<path opacity="0.77" d="M330.261 242.77L190.761 382.27" stroke="black" stroke-width="2" stroke-miterlimit="10"/>
<path opacity="0.77" d="M338.28 242.77L198.78 382.27" stroke="black" stroke-width="2" stroke-miterlimit="10"/>
<path opacity="0.77" d="M346.301 242.77L206.801 382.27" stroke="black" stroke-width="2" stroke-miterlimit="10"/>
<path opacity="0.77" d="M354.311 242.77L214.811 382.27" stroke="black" stroke-width="2" stroke-miterlimit="10"/>
<path opacity="0.77" d="M362.331 242.77L222.831 382.27" stroke="black" stroke-width="2" stroke-miterlimit="10"/>
<path opacity="0.77" d="M370.351 242.77L230.851 382.27" stroke="black" stroke-width="2" stroke-miterlimit="10"/>
<path opacity="0.77" d="M378.36 242.77L238.86 382.27" stroke="black" stroke-width="2" stroke-miterlimit="10"/>
<path opacity="0.77" d="M386.381 242.77L246.881 382.27" stroke="black" stroke-width="2" stroke-miterlimit="10"/>
<path opacity="0.77" d="M394.4 242.77L254.9 382.27" stroke="black" stroke-width="2" stroke-miterlimit="10"/>
<path opacity="0.77" d="M402.421 242.77L262.921 382.27" stroke="black" stroke-width="2" stroke-miterlimit="10"/>
<path opacity="0.77" d="M410.431 242.77L270.931 382.27" stroke="black" stroke-width="2" stroke-miterlimit="10"/>
<path opacity="0.77" d="M418.45 242.77L278.95 382.27" stroke="black" stroke-width="2" stroke-miterlimit="10"/>
<path opacity="0.77" d="M426.471 242.77L286.971 382.27" stroke="black" stroke-width="2" stroke-miterlimit="10"/>
<path opacity="0.77" d="M434.48 242.77L294.98 382.27" stroke="black" stroke-width="2" stroke-miterlimit="10"/>
<path opacity="0.77" d="M442.501 242.77L303.001 382.27" stroke="black" stroke-width="2" stroke-miterlimit="10"/>
<path opacity="0.77" d="M450.521 242.77L311.021 382.27" stroke="black" stroke-width="2" stroke-miterlimit="10"/>
<path opacity="0.77" d="M458.541 242.77L319.041 382.27" stroke="black" stroke-width="2" stroke-miterlimit="10"/>
<path opacity="0.77" d="M466.551 242.77L327.051 382.27" stroke="black" stroke-width="2" stroke-miterlimit="10"/>
<path opacity="0.77" d="M474.57 242.77L335.07 382.27" stroke="black" stroke-width="2" stroke-miterlimit="10"/>
<path opacity="0.77" d="M482.591 242.77L343.091 382.27" stroke="black" stroke-width="2" stroke-miterlimit="10"/>
<path opacity="0.77" d="M490.61 242.77L351.11 382.27" stroke="black" stroke-width="2" stroke-miterlimit="10"/>
<path opacity="0.77" d="M498.621 242.77L359.121 382.27" stroke="black" stroke-width="2" stroke-miterlimit="10"/>
<path opacity="0.77" d="M506.641 242.77L367.141 382.27" stroke="black" stroke-width="2" stroke-miterlimit="10"/>
</g>
</g>
<g opacity="0.81">
<g opacity="0.81">
<path opacity="0.81" d="M659.08 340.3L328.01 671.37" stroke="white" stroke-width="2" stroke-miterlimit="10"/>
<path opacity="0.81" d="M667 340.3L335.93 671.37" stroke="white" stroke-width="2" stroke-miterlimit="10"/>
<path opacity="0.81" d="M674.93 340.3L343.85 671.37" stroke="white" stroke-width="2" stroke-miterlimit="10"/>
<path opacity="0.81" d="M682.849 340.3L351.779 671.37" stroke="white" stroke-width="2" stroke-miterlimit="10"/>
<path opacity="0.81" d="M690.77 340.3L359.7 671.37" stroke="white" stroke-width="2" stroke-miterlimit="10"/>
<path opacity="0.81" d="M698.7 340.3L367.62 671.37" stroke="white" stroke-width="2" stroke-miterlimit="10"/>
<path opacity="0.81" d="M706.62 340.3L375.55 671.37" stroke="white" stroke-width="2" stroke-miterlimit="10"/>
<path opacity="0.81" d="M714.54 340.3L383.47 671.37" stroke="white" stroke-width="2" stroke-miterlimit="10"/>
<path opacity="0.81" d="M722.469 340.3L391.399 671.37" stroke="white" stroke-width="2" stroke-miterlimit="10"/>
<path opacity="0.81" d="M730.389 340.3L399.319 671.37" stroke="white" stroke-width="2" stroke-miterlimit="10"/>
<path opacity="0.81" d="M738.32 340.3L407.24 671.37" stroke="white" stroke-width="2" stroke-miterlimit="10"/>
<path opacity="0.81" d="M746.24 340.3L415.17 671.37" stroke="white" stroke-width="2" stroke-miterlimit="10"/>
<path opacity="0.81" d="M754.16 340.3L423.09 671.37" stroke="white" stroke-width="2" stroke-miterlimit="10"/>
<path opacity="0.81" d="M762.09 340.3L431.01 671.37" stroke="white" stroke-width="2" stroke-miterlimit="10"/>
<path opacity="0.81" d="M770.009 340.3L438.939 671.37" stroke="white" stroke-width="2" stroke-miterlimit="10"/>
<path opacity="0.81" d="M777.929 340.3L446.859 671.37" stroke="white" stroke-width="2" stroke-miterlimit="10"/>
<path opacity="0.81" d="M785.859 340.3L454.779 671.37" stroke="white" stroke-width="2" stroke-miterlimit="10"/>
<path opacity="0.81" d="M793.78 340.3L462.71 671.37" stroke="white" stroke-width="2" stroke-miterlimit="10"/>
<path opacity="0.81" d="M801.7 340.3L470.63 671.37" stroke="white" stroke-width="2" stroke-miterlimit="10"/>
<path opacity="0.81" d="M809.63 340.3L478.56 671.37" stroke="white" stroke-width="2" stroke-miterlimit="10"/>
<path opacity="0.81" d="M817.55 340.3L486.479 671.37" stroke="white" stroke-width="2" stroke-miterlimit="10"/>
<path opacity="0.81" d="M825.479 340.3L494.399 671.37" stroke="white" stroke-width="2" stroke-miterlimit="10"/>
<path opacity="0.81" d="M833.4 340.3L502.33 671.37" stroke="white" stroke-width="2" stroke-miterlimit="10"/>
<path opacity="0.81" d="M841.32 340.3L510.25 671.37" stroke="white" stroke-width="2" stroke-miterlimit="10"/>
<path opacity="0.81" d="M849.25 340.3L518.17 671.37" stroke="white" stroke-width="2" stroke-miterlimit="10"/>
<path opacity="0.81" d="M857.17 340.3L526.1 671.37" stroke="white" stroke-width="2" stroke-miterlimit="10"/>
<path opacity="0.81" d="M865.089 340.3L534.02 671.37" stroke="white" stroke-width="2" stroke-miterlimit="10"/>
<path opacity="0.81" d="M873.019 340.3L541.939 671.37" stroke="white" stroke-width="2" stroke-miterlimit="10"/>
<path opacity="0.81" d="M880.94 340.3L549.87 671.37" stroke="white" stroke-width="2" stroke-miterlimit="10"/>
<path opacity="0.81" d="M888.86 340.3L557.79 671.37" stroke="white" stroke-width="2" stroke-miterlimit="10"/>
<path opacity="0.81" d="M896.79 340.3L565.72 671.37" stroke="white" stroke-width="2" stroke-miterlimit="10"/>
<path opacity="0.81" d="M904.71 340.3L573.64 671.37" stroke="white" stroke-width="2" stroke-miterlimit="10"/>
<path opacity="0.81" d="M912.64 340.3L581.56 671.37" stroke="white" stroke-width="2" stroke-miterlimit="10"/>
<path opacity="0.81" d="M920.56 340.3L589.49 671.37" stroke="white" stroke-width="2" stroke-miterlimit="10"/>
<path opacity="0.81" d="M928.48 340.3L597.41 671.37" stroke="white" stroke-width="2" stroke-miterlimit="10"/>
<path opacity="0.81" d="M936.41 340.3L605.33 671.37" stroke="white" stroke-width="2" stroke-miterlimit="10"/>
<path opacity="0.81" d="M944.33 340.3L613.26 671.37" stroke="white" stroke-width="2" stroke-miterlimit="10"/>
<path opacity="0.81" d="M952.25 340.3L621.18 671.37" stroke="white" stroke-width="2" stroke-miterlimit="10"/>
<path opacity="0.81" d="M960.18 340.3L629.1 671.37" stroke="white" stroke-width="2" stroke-miterlimit="10"/>
<path opacity="0.81" d="M968.099 340.3L637.029 671.37" stroke="white" stroke-width="2" stroke-miterlimit="10"/>
<path opacity="0.81" d="M976.02 340.3L644.95 671.37" stroke="white" stroke-width="2" stroke-miterlimit="10"/>
<path opacity="0.81" d="M983.95 340.3L652.88 671.37" stroke="white" stroke-width="2" stroke-miterlimit="10"/>
<path opacity="0.81" d="M991.87 340.3L660.8 671.37" stroke="white" stroke-width="2" stroke-miterlimit="10"/>
<path opacity="0.81" d="M999.8 340.3L668.72 671.37" stroke="white" stroke-width="2" stroke-miterlimit="10"/>
<path opacity="0.81" d="M1007.72 340.3L676.649 671.37" stroke="white" stroke-width="2" stroke-miterlimit="10"/>
</g>
</g>
<g opacity="0.72">
<path opacity="0.5" d="M-15.6723 168.793L-172.648 325.77L-15.6722 482.746L141.304 325.77L-15.6723 168.793Z" stroke="white" stroke-width="50" stroke-miterlimit="10"/>
<path opacity="0.5" d="M750.322 11.8202L593.346 168.796L750.322 325.773L907.298 168.796L750.322 11.8202Z" stroke="white" stroke-width="50" stroke-miterlimit="10"/>
<path opacity="0.5" d="M375.322 384.615L218.346 541.591L375.322 698.568L532.298 541.591L375.322 384.615Z" stroke="white" stroke-width="30" stroke-miterlimit="10"/>
</g>
<path opacity="0.5" d="M80.0302 340.11C94.9402 355.02 94.9402 379.2 80.0302 394.12L-86.1298 560.28C-101.04 575.19 -125.22 575.19 -140.14 560.28C-155.05 545.37 -155.05 521.19 -140.14 506.27L26.0202 340.11C40.9402 325.2 65.1202 325.2 80.0302 340.11Z" fill="url(#paint1_linear_580_1488)"/>
<path opacity="0.5" d="M254.25 324.909C270.46 341.119 270.46 367.389 254.25 383.599L82.9598 554.879C66.7498 571.089 40.4798 571.089 24.2698 554.879C8.0598 538.669 8.0598 512.399 24.2698 496.189L195.55 324.909C211.76 308.699 238.04 308.699 254.25 324.909Z" fill="url(#paint2_linear_580_1488)"/>
<path opacity="0.5" d="M248.02 437.67C255.74 445.39 255.74 457.9 248.02 465.61L170.38 543.25C162.66 550.97 150.15 550.97 142.44 543.25C134.72 535.53 134.72 523.02 142.44 515.31L220.08 437.67C227.8 429.96 240.31 429.96 248.02 437.67Z" fill="url(#paint3_linear_580_1488)"/>
<path opacity="0.5" d="M184.37 396.12C194.69 406.45 194.69 423.19 184.37 433.51L30.0802 587.8C19.7502 598.13 3.01019 598.13 -7.3098 587.8C-17.6298 577.47 -17.6298 560.73 -7.3098 550.41L146.98 396.12C157.3 385.79 174.04 385.79 184.37 396.12Z" fill="url(#paint4_linear_580_1488)"/>
<path opacity="0.5" d="M584.34 230.77C568.13 214.56 568.13 188.29 584.34 172.08L755.62 0.799589C771.83 -15.4104 798.1 -15.4104 814.31 0.799589C830.52 17.0096 830.52 43.2796 814.31 59.4896L643.03 230.77C626.82 246.97 600.55 246.97 584.34 230.77Z" fill="url(#paint5_linear_580_1488)"/>
<path opacity="0.5" d="M581.17 88.3197C573.45 80.5997 573.45 68.0897 581.17 60.3797L658.81 -17.2603C666.53 -24.9803 679.04 -24.9803 686.75 -17.2603C694.47 -9.54029 694.47 2.9697 686.75 10.6797L609.11 88.3197C601.4 96.0297 588.89 96.0297 581.17 88.3197Z" fill="url(#paint6_linear_580_1488)"/>
<path opacity="0.5" d="M707.58 231.619C699.86 223.899 699.86 211.389 707.58 203.679L785.22 126.04C792.94 118.32 805.45 118.32 813.16 126.04C820.88 133.76 820.88 146.27 813.16 153.98L735.52 231.619C727.8 239.339 715.29 239.339 707.58 231.619Z" fill="url(#paint7_linear_580_1488)"/>
<g opacity="0.49">
<path opacity="0.49" d="M165.141 87.9598C167.394 87.9598 169.221 86.1331 169.221 83.8798C169.221 81.6265 167.394 79.7998 165.141 79.7998C162.887 79.7998 161.061 81.6265 161.061 83.8798C161.061 86.1331 162.887 87.9598 165.141 87.9598Z" stroke="white" stroke-width="2" stroke-miterlimit="10" stroke-linecap="round" stroke-linejoin="round"/>
<path opacity="0.49" d="M444.28 360.92C444.28 363.17 442.45 365 440.2 365C437.95 365 436.12 363.17 436.12 360.92C436.12 358.67 437.95 356.84 440.2 356.84C442.45 356.84 444.28 358.67 444.28 360.92Z" stroke="white" stroke-width="2" stroke-miterlimit="10" stroke-linecap="round" stroke-linejoin="round"/>
<path opacity="0.49" d="M316.7 159.35C316.7 161.6 314.87 163.43 312.62 163.43C310.37 163.43 308.54 161.6 308.54 159.35C308.54 157.1 310.37 155.27 312.62 155.27C314.88 155.27 316.7 157.09 316.7 159.35Z" stroke="white" stroke-width="2" stroke-miterlimit="10" stroke-linecap="round" stroke-linejoin="round"/>
<path opacity="0.49" d="M29.9403 292.28C29.9403 294.53 28.1103 296.36 25.8603 296.36C23.6103 296.36 21.7803 294.53 21.7803 292.28C21.7803 290.03 23.6103 288.2 25.8603 288.2C28.1203 288.2 29.9403 290.03 29.9403 292.28Z" stroke="white" stroke-width="2" stroke-miterlimit="10" stroke-linecap="round" stroke-linejoin="round"/>
<path opacity="0.49" d="M71.2401 172.72C71.2401 174.97 69.4101 176.8 67.1601 176.8C64.9101 176.8 63.0801 174.97 63.0801 172.72C63.0801 170.47 64.9101 168.64 67.1601 168.64C69.4101 168.64 71.2401 170.47 71.2401 172.72Z" stroke="white" stroke-width="2" stroke-miterlimit="10" stroke-linecap="round" stroke-linejoin="round"/>
<g opacity="0.49">
<path opacity="0.49" d="M392.859 118.83V125.97" stroke="white" stroke-width="2" stroke-miterlimit="10" stroke-linecap="round" stroke-linejoin="round"/>
<path opacity="0.49" d="M396.43 122.399H389.3" stroke="white" stroke-width="2" stroke-miterlimit="10" stroke-linecap="round" stroke-linejoin="round"/>
</g>
<g opacity="0.49">
<path opacity="0.49" d="M692.899 357.36V364.49" stroke="white" stroke-width="2" stroke-miterlimit="10" stroke-linecap="round" stroke-linejoin="round"/>
<path opacity="0.49" d="M696.47 360.92H689.34" stroke="white" stroke-width="2" stroke-miterlimit="10" stroke-linecap="round" stroke-linejoin="round"/>
</g>
<g opacity="0.49">
<path opacity="0.49" d="M189.609 292.76V299.89" stroke="white" stroke-width="2" stroke-miterlimit="10" stroke-linecap="round" stroke-linejoin="round"/>
<path opacity="0.49" d="M193.18 296.32H186.05" stroke="white" stroke-width="2" stroke-miterlimit="10" stroke-linecap="round" stroke-linejoin="round"/>
</g>
<g opacity="0.49">
<g opacity="0.49">
<path opacity="0.49" d="M554.251 442.64V449.77" stroke="white" stroke-width="2" stroke-miterlimit="10" stroke-linecap="round" stroke-linejoin="round"/>
<path opacity="0.49" d="M557.811 446.2H550.681" stroke="white" stroke-width="2" stroke-miterlimit="10" stroke-linecap="round" stroke-linejoin="round"/>
</g>
<g opacity="0.49">
<path opacity="0.49" d="M532.69 442.64V449.77" stroke="white" stroke-width="2" stroke-miterlimit="10" stroke-linecap="round" stroke-linejoin="round"/>
<path opacity="0.49" d="M536.25 446.2H529.12" stroke="white" stroke-width="2" stroke-miterlimit="10" stroke-linecap="round" stroke-linejoin="round"/>
</g>
<g opacity="0.49">
<path opacity="0.49" d="M511.131 442.64V449.77" stroke="white" stroke-width="2" stroke-miterlimit="10" stroke-linecap="round" stroke-linejoin="round"/>
<path opacity="0.49" d="M514.691 446.2H507.561" stroke="white" stroke-width="2" stroke-miterlimit="10" stroke-linecap="round" stroke-linejoin="round"/>
</g>
</g>
<g opacity="0.49">
<g opacity="0.49">
<path opacity="0.49" d="M71.2412 123.64V130.77" stroke="white" stroke-width="2" stroke-miterlimit="10" stroke-linecap="round" stroke-linejoin="round"/>
<path opacity="0.49" d="M74.8009 127.209H67.6709" stroke="white" stroke-width="2" stroke-miterlimit="10" stroke-linecap="round" stroke-linejoin="round"/>
</g>
<g opacity="0.49">
<path opacity="0.49" d="M49.6807 123.64V130.77" stroke="white" stroke-width="2" stroke-miterlimit="10" stroke-linecap="round" stroke-linejoin="round"/>
<path opacity="0.49" d="M53.2504 127.209H46.1104" stroke="white" stroke-width="2" stroke-miterlimit="10" stroke-linecap="round" stroke-linejoin="round"/>
</g>
<g opacity="0.49">
<path opacity="0.49" d="M28.1201 123.64V130.77" stroke="white" stroke-width="2" stroke-miterlimit="10" stroke-linecap="round" stroke-linejoin="round"/>
<path opacity="0.49" d="M31.6906 127.209H24.5605" stroke="white" stroke-width="2" stroke-miterlimit="10" stroke-linecap="round" stroke-linejoin="round"/>
</g>
</g>
<path opacity="0.49" d="M274.401 272.14L279.951 262.53H268.851L274.401 272.14Z" stroke="white" stroke-width="2" stroke-miterlimit="10" stroke-linecap="round" stroke-linejoin="round"/>
<path opacity="0.49" d="M539.82 125.97L534.271 135.58H545.37L539.82 125.97Z" stroke="white" stroke-width="2" stroke-miterlimit="10" stroke-linecap="round" stroke-linejoin="round"/>
<path opacity="0.49" d="M265.78 417.73C268.2 415.31 272.44 419.55 274.86 417.13C277.28 414.71 273.04 410.47 275.46 408.05C277.88 405.63 282.12 409.87 284.54 407.45C286.96 405.03 282.72 400.79 285.13 398.37C287.55 395.95 291.79 400.19 294.21 397.77C296.63 395.35 292.39 391.11 294.81 388.68C297.23 386.26 301.47 390.5 303.9 388.08" stroke="white" stroke-width="2" stroke-miterlimit="10" stroke-linecap="round" stroke-linejoin="round"/>
<path opacity="0.49" d="M476.57 397.96C478.99 395.54 483.23 399.78 485.65 397.36C488.07 394.94 483.83 390.7 486.25 388.28C488.67 385.86 492.91 390.1 495.33 387.68C497.75 385.26 493.51 381.02 495.92 378.6C498.34 376.18 502.58 380.42 505 378C507.42 375.58 503.18 371.34 505.6 368.91C508.02 366.49 512.26 370.73 514.69 368.31" stroke="white" stroke-width="2" stroke-miterlimit="10" stroke-linecap="round" stroke-linejoin="round"/>
<path opacity="0.49" d="M488.5 123.46C490.92 121.04 495.16 125.28 497.58 122.86C500 120.44 495.76 116.2 498.18 113.78C500.6 111.36 504.84 115.6 507.26 113.18C509.68 110.76 505.44 106.52 507.85 104.1C510.27 101.68 514.51 105.92 516.93 103.5C519.35 101.08 515.11 96.84 517.53 94.41C519.95 91.99 524.19 96.23 526.62 93.81" stroke="white" stroke-width="2" stroke-miterlimit="10" stroke-linecap="round" stroke-linejoin="round"/>
</g>
</g>
<defs>
<linearGradient id="paint0_linear_580_1488" x1="65.5982" y1="-62.4557" x2="654.468" y2="526.414" gradientUnits="userSpaceOnUse">
<stop stop-color="#B81F80"/>
<stop offset="0.5154" stop-color="#DF4981"/>
<stop offset="1" stop-color="#3F5EFB"/>
</linearGradient>
<linearGradient id="paint1_linear_580_1488" x1="80.0353" y1="340.113" x2="-140.134" y2="560.282" gradientUnits="userSpaceOnUse">
<stop stop-color="#219EBC"/>
<stop offset="1" stop-opacity="0"/>
</linearGradient>
<linearGradient id="paint2_linear_580_1488" x1="254.245" y1="324.907" x2="24.2734" y2="554.878" gradientUnits="userSpaceOnUse">
<stop stop-color="#219EBC"/>
<stop offset="1" stop-opacity="0"/>
</linearGradient>
<linearGradient id="paint3_linear_580_1488" x1="248.024" y1="437.672" x2="142.438" y2="543.258" gradientUnits="userSpaceOnUse">
<stop stop-color="white"/>
<stop offset="1" stop-opacity="0"/>
</linearGradient>
<linearGradient id="paint4_linear_580_1488" x1="197.092" y1="383.397" x2="110.872" y2="469.618" gradientUnits="userSpaceOnUse">
<stop stop-color="white"/>
<stop offset="1" stop-opacity="0"/>
</linearGradient>
<linearGradient id="paint5_linear_580_1488" x1="584.339" y1="230.765" x2="814.311" y2="0.793231" gradientUnits="userSpaceOnUse">
<stop stop-color="white"/>
<stop offset="1" stop-opacity="0"/>
</linearGradient>
<linearGradient id="paint6_linear_580_1488" x1="581.17" y1="88.3149" x2="686.756" y2="-17.2711" gradientUnits="userSpaceOnUse">
<stop stop-color="#0B315E"/>
<stop offset="1" stop-opacity="0"/>
</linearGradient>
<linearGradient id="paint7_linear_580_1488" x1="707.575" y1="231.618" x2="813.161" y2="126.032" gradientUnits="userSpaceOnUse">
<stop stop-color="white"/>
<stop offset="1" stop-opacity="0"/>
</linearGradient>
<clipPath id="clip0_580_1488">
<rect width="750" height="497" fill="white"/>
</clipPath>
</defs>
</svg>
