<svg width="435" height="333" viewBox="0 0 435 333" fill="none" xmlns="http://www.w3.org/2000/svg">
<path d="M342.974 276.819L274.649 228.493C297.693 206.045 318.652 174.082 338.695 137.942L407.02 186.268C379.718 217.274 356.591 247.704 342.974 276.819Z" fill="#219EBC"/>
<path d="M342.993 225.368C354.13 225.368 363.159 216.339 363.159 205.202C363.159 194.065 354.13 185.036 342.993 185.036C331.856 185.036 322.827 194.065 322.827 205.202C322.827 216.339 331.856 225.368 342.993 225.368Z" fill="white"/>
<path d="M295.763 198.388C295.385 190.256 297.591 182.213 302.063 175.412C302.166 175.254 302.21 175.066 302.189 174.879C302.169 174.693 302.084 174.519 301.95 174.388L302.697 173.177L295.957 169.017L295.22 170.21L295.127 170.153C295.036 170.097 294.935 170.059 294.83 170.043C294.724 170.026 294.616 170.03 294.513 170.054C294.409 170.079 294.311 170.124 294.224 170.187C294.138 170.249 294.065 170.328 294.009 170.419C293.998 170.436 293.989 170.453 293.979 170.47C290.24 177.92 283.978 183.8 276.307 187.064C275.862 187.255 275.491 187.586 275.249 188.006L261.914 211.259C261.617 211.778 261.533 212.392 261.679 212.972C261.824 213.552 262.188 214.053 262.694 214.371L277.94 223.782C278.457 224.096 279.076 224.195 279.665 224.059C280.255 223.922 280.767 223.561 281.094 223.053L295.042 201.093C295.552 200.286 295.803 199.342 295.763 198.388Z" fill="#219EBC"/>
<path d="M250.722 160.961H236.683C236.189 160.961 235.716 161.158 235.366 161.507C235.017 161.856 234.821 162.329 234.821 162.823V168.985C234.821 169.479 235.017 169.952 235.366 170.301C235.716 170.65 236.189 170.846 236.683 170.846H239.009V180.08H248.395V170.846H250.722C251.216 170.846 251.689 170.65 252.038 170.301C252.387 169.952 252.583 169.479 252.583 168.985V162.823C252.583 162.329 252.387 161.856 252.038 161.507C251.689 161.158 251.216 160.961 250.722 160.961Z" fill="#E6E6E6"/>
<path d="M264.784 217.359C256.186 204.777 251.79 189.797 252.227 174.565C252.235 174.214 252.121 173.87 251.904 173.593C251.687 173.316 251.382 173.123 251.039 173.046V170.383H236.211V173.009H236.007C235.807 173.009 235.609 173.049 235.425 173.126C235.24 173.202 235.073 173.315 234.932 173.456C234.791 173.597 234.679 173.765 234.603 173.95C234.526 174.135 234.487 174.333 234.488 174.532C234.488 174.569 234.489 174.606 234.492 174.643C235.66 190.926 231.715 205.529 222.658 218.451C222.137 219.193 221.871 220.085 221.9 220.992L223.521 271.143C223.56 272.262 224.029 273.322 224.831 274.103C225.633 274.883 226.706 275.324 227.825 275.333H261.362C262.494 275.324 263.578 274.873 264.383 274.077C265.187 273.28 265.649 272.201 265.669 271.069L266.294 222.376C266.313 220.589 265.786 218.839 264.784 217.359Z" fill="#219EBC"/>
<path opacity="0.2" d="M247.795 162.969C247.795 164.035 247.372 165.056 246.619 165.809C245.866 166.562 244.844 166.985 243.779 166.985C242.714 166.985 241.693 166.562 240.94 165.809C240.187 165.056 239.764 164.035 239.764 162.969" fill="black"/>
<path d="M259.475 234.017H230.283C229.851 234.017 229.424 234.11 229.031 234.291C228.639 234.471 228.29 234.735 228.009 235.063C227.727 235.391 227.52 235.776 227.401 236.191C227.283 236.607 227.255 237.043 227.321 237.47L231.732 266.143H257.062L262.42 237.566C262.502 237.134 262.486 236.688 262.376 236.262C262.265 235.836 262.062 235.439 261.781 235.1C261.5 234.761 261.147 234.489 260.749 234.301C260.35 234.114 259.915 234.017 259.475 234.017Z" fill="white"/>
<path d="M210.666 276.74H126.978C132.829 245.106 131.483 206.908 126.978 165.828H210.666C206.281 206.908 204.97 245.106 210.666 276.74Z" fill="#219EBC"/>
<path d="M169.326 238.425C180.463 238.425 189.492 229.396 189.492 218.259C189.492 207.122 180.463 198.093 169.326 198.093C158.189 198.093 149.16 207.122 149.16 218.259C149.16 229.396 158.189 238.425 169.326 238.425Z" fill="white"/>
<path d="M383.87 284.065H117.998L61.6974 17.9137H13.6484V5.97168H71.3774L127.678 272.122H383.87V284.065Z" fill="#0B315E"/>
<path d="M156.961 332.688C171.094 332.688 182.552 321.23 182.552 307.096C182.552 292.963 171.094 281.505 156.961 281.505C142.827 281.505 131.369 292.963 131.369 307.096C131.369 321.23 142.827 332.688 156.961 332.688Z" fill="#0B315E"/>
<path d="M348.043 332.688C362.177 332.688 373.634 321.23 373.634 307.096C373.634 292.963 362.177 281.505 348.043 281.505C333.909 281.505 322.452 292.963 322.452 307.096C322.452 321.23 333.909 332.688 348.043 332.688Z" fill="#0B315E"/>
<path d="M379.023 278.44H120.345L74.7036 52.8887H421.855C423.626 52.8889 425.377 53.2727 426.986 54.0139C428.594 54.7551 430.024 55.836 431.175 57.1822C432.327 58.5284 433.173 60.108 433.655 61.8124C434.138 63.5168 434.246 65.3055 433.971 67.0555L391.138 268.081C390.696 270.973 389.229 273.61 387.006 275.512C384.782 277.413 381.949 278.453 379.023 278.44ZM123.154 275.028H379.023C381.135 275.037 383.179 274.287 384.784 272.914C386.389 271.542 387.447 269.638 387.765 267.551L430.599 66.5258C430.797 65.2627 430.72 63.9716 430.372 62.7413C430.024 61.5111 429.413 60.3709 428.582 59.3992C427.751 58.4275 426.72 57.6473 425.558 57.1124C424.397 56.5776 423.134 56.3007 421.855 56.3008H78.8455L123.154 275.028Z" fill="#0B315E"/>
<path d="M170.633 277.719L140.743 54.8727L144.109 54.3167L173.999 277.163L170.633 277.719Z" fill="#0B315E"/>
<path d="M336.831 276.008L333.462 275.462L362.479 54.3218L365.848 54.8678L336.831 276.008Z" fill="#0B315E"/>
<path d="M257.647 54.595H254.234V277.441H257.647V54.595Z" fill="#0B315E"/>
<path d="M92.1333 114.308L92.125 117.72L422.42 118.52L422.428 115.108L92.1333 114.308Z" fill="#0B315E"/>
<path d="M399.12 219.714L108.949 221.698L108.972 225.11L399.143 223.126L399.12 219.714Z" fill="#0B315E"/>
<path d="M18.767 20.4731C29.1318 20.4731 37.534 15.89 37.534 10.2365C37.534 4.58305 29.1318 0 18.767 0C8.4023 0 0 4.58305 0 10.2365C0 15.89 8.4023 20.4731 18.767 20.4731Z" fill="#0B315E"/>
</svg>
