<svg width="710" height="454" viewBox="0 0 710 454" fill="none" xmlns="http://www.w3.org/2000/svg">
<g clip-path="url(#clip0_727_294)">
<path d="M706.375 34H15.6255C14.924 33.9916 14.2564 33.8299 13.7656 33.5495C13.2748 33.2691 13 32.8924 13 32.5C13 32.1076 13.2748 31.7309 13.7656 31.4505C14.2564 31.1701 14.924 31.0084 15.6255 31H706.375C707.076 31.0084 707.744 31.1701 708.234 31.4505C708.725 31.7309 709 32.1076 709 32.5C709 32.8924 708.725 33.2691 708.234 33.5495C707.744 33.8299 707.076 33.9916 706.375 34Z" fill="#CACACA"/>
<path d="M23.5875 21.6469C29.4348 21.6469 34.175 16.8011 34.175 10.8235C34.175 4.84582 29.4348 0 23.5875 0C17.7402 0 13 4.84582 13 10.8235C13 16.8011 17.7402 21.6469 23.5875 21.6469Z" fill="#3F3D56"/>
<path d="M60.1627 21.6469C66.01 21.6469 70.7502 16.8011 70.7502 10.8235C70.7502 4.84582 66.01 0 60.1627 0C54.3154 0 49.5752 4.84582 49.5752 10.8235C49.5752 16.8011 54.3154 21.6469 60.1627 21.6469Z" fill="#3F3D56"/>
<path d="M96.7379 21.6469C102.585 21.6469 107.325 16.8011 107.325 10.8235C107.325 4.84582 102.585 0 96.7379 0C90.8906 0 86.1504 4.84582 86.1504 10.8235C86.1504 16.8011 90.8906 21.6469 96.7379 21.6469Z" fill="#3F3D56"/>
<path d="M698.909 8H672.928C672.414 8.01025 671.923 8.22203 671.562 8.58984C671.202 8.95765 671 9.45218 671 9.96724C671 10.4823 671.202 10.9768 671.562 11.3446C671.923 11.7124 672.414 11.9242 672.928 11.9345H698.909C699.424 11.9242 699.915 11.7124 700.275 11.3446C700.636 10.9768 700.838 10.4823 700.838 9.96724C700.838 9.45218 700.636 8.95765 700.275 8.58984C699.915 8.22203 699.424 8.01025 698.909 8Z" fill="#3F3D56"/>
<path d="M698.909 15.3845H672.928C672.414 15.3948 671.923 15.6066 671.562 15.9744C671.202 16.3422 671 16.8367 671 17.3518C671 17.8668 671.202 18.3613 671.562 18.7292C671.923 19.097 672.414 19.3087 672.928 19.319H698.909C699.424 19.3087 699.915 19.097 700.275 18.7292C700.636 18.3613 700.838 17.8668 700.838 17.3518C700.838 16.8367 700.636 16.3422 700.275 15.9744C699.915 15.6066 699.424 15.3948 698.909 15.3845Z" fill="#3F3D56"/>
<path d="M698.909 22.759H672.928C672.414 22.7693 671.923 22.9811 671.562 23.3489C671.202 23.7167 671 24.2112 671 24.7263C671 25.2413 671.202 25.7358 671.562 26.1037C671.923 26.4715 672.414 26.6832 672.928 26.6935H698.909C699.424 26.6832 699.915 26.4715 700.275 26.1037C700.636 25.7358 700.838 25.2413 700.838 24.7263C700.838 24.2112 700.636 23.7167 700.275 23.3489C699.915 22.9811 699.424 22.7693 698.909 22.759Z" fill="#3F3D56"/>
<path d="M178.834 362.186L179.471 132.266C179.489 127.612 181.352 123.156 184.652 119.874C187.952 116.593 192.418 114.754 197.072 114.762L370.713 115.243C375.366 115.262 379.823 117.125 383.104 120.425C386.386 123.724 388.224 128.191 388.217 132.844L387.579 362.765C387.561 367.418 385.698 371.875 382.398 375.156C379.098 378.437 374.632 380.276 369.978 380.268L196.337 379.787C191.684 379.769 187.227 377.906 183.946 374.606C180.664 371.306 178.826 366.84 178.834 362.186Z" fill="#E6E6E6"/>
<path d="M192.346 292.777L192.756 144.964C192.773 140.605 194.518 136.432 197.608 133.359C200.698 130.285 204.881 128.564 209.24 128.571L358.469 128.985C362.828 129.001 367.001 130.746 370.075 133.837C373.148 136.927 374.87 141.11 374.863 145.469L374.296 350.066C374.279 354.425 372.533 358.598 369.443 361.671C366.352 364.745 362.169 366.466 357.811 366.459L265.366 366.203C245.953 366.127 227.363 358.354 213.673 344.589C199.984 330.824 192.314 312.19 192.346 292.777Z" fill="white"/>
<path d="M341.706 243.96H225.345C223.493 243.96 221.717 243.224 220.408 241.915C219.099 240.606 218.363 238.83 218.363 236.978C218.363 235.127 219.099 233.351 220.408 232.041C221.717 230.732 223.493 229.997 225.345 229.997H341.706C343.557 229.997 345.333 230.732 346.643 232.041C347.952 233.351 348.687 235.127 348.687 236.978C348.687 238.83 347.952 240.606 346.643 241.915C345.333 243.224 343.557 243.96 341.706 243.96Z" fill="#219EBC"/>
<path d="M250.944 205.672H225.345C223.493 205.672 221.717 204.936 220.408 203.627C219.099 202.318 218.363 200.542 218.363 198.69C218.363 196.839 219.099 195.063 220.408 193.754C221.717 192.444 223.493 191.709 225.345 191.709H250.944C252.796 191.709 254.572 192.444 255.881 193.754C257.19 195.063 257.926 196.839 257.926 198.69C257.926 200.542 257.19 202.318 255.881 203.627C254.572 204.936 252.796 205.672 250.944 205.672Z" fill="#219EBC"/>
<path d="M341.706 305.346H225.345C223.493 305.346 221.717 304.611 220.408 303.302C219.099 301.992 218.363 300.216 218.363 298.365C218.363 296.513 219.099 294.737 220.408 293.428C221.717 292.119 223.493 291.383 225.345 291.383H341.706C343.557 291.383 345.333 292.119 346.643 293.428C347.952 294.737 348.687 296.513 348.687 298.365C348.687 300.216 347.952 301.992 346.643 303.302C345.333 304.611 343.557 305.346 341.706 305.346Z" fill="#219EBC"/>
<path d="M341.706 274.653H225.345C223.493 274.653 221.717 273.918 220.408 272.608C219.099 271.299 218.363 269.523 218.363 267.672C218.363 265.82 219.099 264.044 220.408 262.735C221.717 261.426 223.493 260.69 225.345 260.69H341.706C343.557 260.69 345.333 261.426 346.643 262.735C347.952 264.044 348.687 265.82 348.687 267.672C348.687 269.523 347.952 271.299 346.643 272.608C345.333 273.918 343.557 274.653 341.706 274.653Z" fill="#219EBC"/>
<path d="M27.78 453.762C43.1225 453.762 55.56 441.324 55.56 425.982C55.56 410.639 43.1225 398.202 27.78 398.202C12.4375 398.202 0 410.639 0 425.982C0 441.324 12.4375 453.762 27.78 453.762Z" fill="#219EBC"/>
<path d="M23.9901 440.44C23.5104 440.44 23.0372 440.328 22.6082 440.114C22.1791 439.899 21.806 439.588 21.5182 439.204L13.9394 429.098C13.6954 428.774 13.5178 428.404 13.4167 428.011C13.3155 427.618 13.2929 427.208 13.3502 426.806C13.4074 426.404 13.5433 426.017 13.7501 425.668C13.9569 425.318 14.2306 425.013 14.5554 424.77C14.8803 424.526 15.25 424.349 15.6435 424.248C16.0369 424.147 16.4463 424.125 16.8483 424.183C17.2502 424.241 17.6369 424.377 17.9861 424.584C18.3354 424.791 18.6404 425.065 18.8836 425.39L23.8419 432.001L36.5767 412.899C37.0317 412.218 37.7385 411.745 38.5417 411.585C39.345 411.425 40.179 411.59 40.8605 412.044C41.5421 412.499 42.0153 413.205 42.1763 414.008C42.3373 414.811 42.1729 415.646 41.7191 416.327L26.5615 439.064C26.2873 439.475 25.9185 439.815 25.486 440.054C25.0536 440.293 24.5701 440.425 24.076 440.439C24.0474 440.44 24.0187 440.44 23.9901 440.44Z" fill="white"/>
<path d="M28.0278 365.11H26.0278V371.11H28.0278V365.11Z" fill="#0B315E"/>
<path d="M28.0278 353.654H26.0278V342.198H28.0278V353.654ZM28.0278 330.741H26.0278V319.285H28.0278V330.741ZM28.0278 307.829H26.0278V296.372H28.0278V307.829ZM28.0278 284.916H26.0278V273.46H28.0278V284.916ZM28.0278 262.003H26.0278V250.547H28.0278V262.003Z" fill="#0B315E"/>
<path d="M28.0278 239.091H26.0278V232.091H33.0278V234.091H28.0278V239.091Z" fill="#0B315E"/>
<path d="M127.43 234.091H115.63V232.091H127.43V234.091ZM103.83 234.091H92.0293V232.091H103.83V234.091ZM80.229 234.091H68.4287V232.091H80.229V234.091ZM56.6284 234.091H44.8281V232.091H56.6284V234.091Z" fill="#0B315E"/>
<path d="M145.231 232.091H139.231V234.091H145.231V232.091Z" fill="#0B315E"/>
<path d="M671.34 304.762H669.34V310.762H671.34V304.762Z" fill="#0B315E"/>
<path d="M671.34 291.628H669.34V278.494H671.34V291.628ZM671.34 265.359H669.34V252.226H671.34V265.359Z" fill="#0B315E"/>
<path d="M671.34 239.091H669.34V234.091H664.34V232.091H671.34V239.091Z" fill="#0B315E"/>
<path d="M651.908 234.091H639.477V232.091H651.908V234.091ZM627.045 234.091H614.613V232.091H627.045V234.091ZM602.181 234.091H589.75V232.091H602.181V234.091ZM577.318 234.091H564.886V232.091H577.318V234.091ZM552.455 234.091H540.022V232.091H552.455L552.455 234.091ZM527.591 234.091H515.159V232.091H527.591V234.091ZM502.728 234.091H490.296V232.091H502.728V234.091ZM477.864 234.091H465.432V232.091H477.864V234.091ZM453.001 234.091H440.569V232.091H453.001V234.091Z" fill="#0B315E"/>
<path d="M428.137 232.091H422.137V234.091H428.137V232.091Z" fill="#0B315E"/>
<path d="M670.969 383.762C686.311 383.762 698.748 371.324 698.748 355.982C698.748 340.639 686.311 328.202 670.969 328.202C655.626 328.202 643.188 340.639 643.188 355.982C643.188 371.324 655.626 383.762 670.969 383.762Z" fill="#219EBC"/>
<path d="M676.433 355.982L681.898 350.517C682.621 349.792 683.026 348.809 683.024 347.786C683.023 346.763 682.616 345.781 681.893 345.058C681.169 344.334 680.188 343.927 679.164 343.926C678.141 343.925 677.159 344.33 676.433 345.052L670.968 350.517L665.503 345.052C664.778 344.33 663.796 343.925 662.773 343.926C661.749 343.927 660.768 344.334 660.044 345.058C659.321 345.781 658.914 346.763 658.912 347.786C658.911 348.809 659.316 349.792 660.038 350.517L665.503 355.982L660.038 361.447C659.678 361.805 659.391 362.231 659.195 362.701C659 363.17 658.898 363.673 658.897 364.182C658.897 364.691 658.996 365.194 659.19 365.664C659.385 366.134 659.67 366.561 660.029 366.921C660.389 367.281 660.816 367.566 661.286 367.76C661.756 367.954 662.26 368.054 662.768 368.053C663.277 368.052 663.78 367.951 664.25 367.755C664.719 367.559 665.145 367.273 665.503 366.912L670.968 361.447L676.433 366.912C676.792 367.273 677.218 367.559 677.687 367.755C678.157 367.951 678.66 368.052 679.169 368.053C679.677 368.054 680.181 367.954 680.651 367.76C681.121 367.566 681.548 367.281 681.908 366.921C682.267 366.561 682.552 366.134 682.746 365.664C682.941 365.194 683.04 364.691 683.039 364.182C683.039 363.673 682.937 363.17 682.742 362.701C682.546 362.231 682.259 361.805 681.898 361.447L676.433 355.982Z" fill="white"/>
</g>
<defs>
<clipPath id="clip0_727_294">
<rect width="709.233" height="453.762" fill="white"/>
</clipPath>
</defs>
</svg>
