<svg width="1512" height="1003" viewBox="0 0 1512 1003" fill="none" xmlns="http://www.w3.org/2000/svg">
<g clip-path="url(#clip0_641_234)">
<path d="M1512.67 -5.48462H0.665039V1002.7H1512.67V-5.48462Z" fill="url(#paint0_linear_641_234)"/>
<g opacity="0.5">
<path opacity="0.5" d="M58.5041 41.5777C58.5041 43.5537 56.8913 45.1668 54.9156 45.1668C52.9399 45.1668 51.3271 43.5537 51.3271 41.5777C51.3271 39.6016 52.9399 37.9885 54.9156 37.9885C56.8913 37.9885 58.5041 39.6016 58.5041 41.5777Z" fill="#023047"/>
<path opacity="0.5" d="M85.7806 45.1668C87.7625 45.1668 89.3691 43.5599 89.3691 41.5777C89.3691 39.5954 87.7625 37.9885 85.7806 37.9885C83.7988 37.9885 82.1921 39.5954 82.1921 41.5777C82.1921 43.5599 83.7988 45.1668 85.7806 45.1668Z" fill="#023047"/>
<path opacity="0.5" d="M116.625 45.1668C118.607 45.1668 120.214 43.5599 120.214 41.5777C120.214 39.5954 118.607 37.9885 116.625 37.9885C114.643 37.9885 113.037 39.5954 113.037 41.5777C113.037 43.5599 114.643 45.1668 116.625 45.1668Z" fill="#023047"/>
<path opacity="0.5" d="M151.079 41.5777C151.079 43.5537 149.466 45.1668 147.49 45.1668C145.515 45.1668 143.902 43.5537 143.902 41.5777C143.902 39.6016 145.515 37.9885 147.49 37.9885C149.466 37.9885 151.079 39.6016 151.079 41.5777Z" fill="#023047"/>
<path opacity="0.5" d="M178.335 45.1668C180.317 45.1668 181.924 43.5599 181.924 41.5777C181.924 39.5954 180.317 37.9885 178.335 37.9885C176.353 37.9885 174.747 39.5954 174.747 41.5777C174.747 43.5599 176.353 45.1668 178.335 45.1668Z" fill="#023047"/>
<path opacity="0.5" d="M209.2 45.1668C211.182 45.1668 212.789 43.5599 212.789 41.5777C212.789 39.5954 211.182 37.9885 209.2 37.9885C207.218 37.9885 205.612 39.5954 205.612 41.5777C205.612 43.5599 207.218 45.1668 209.2 45.1668Z" fill="#023047"/>
<path opacity="0.5" d="M240.045 45.1668C242.027 45.1668 243.633 43.5599 243.633 41.5777C243.633 39.5954 242.027 37.9885 240.045 37.9885C238.063 37.9885 236.457 39.5954 236.457 41.5777C236.457 43.5599 238.063 45.1668 240.045 45.1668Z" fill="#023047"/>
<path opacity="0.5" d="M270.91 45.1668C272.892 45.1668 274.498 43.5599 274.498 41.5777C274.498 39.5954 272.892 37.9885 270.91 37.9885C268.928 37.9885 267.321 39.5954 267.321 41.5777C267.321 43.5599 268.928 45.1668 270.91 45.1668Z" fill="#023047"/>
<path opacity="0.5" d="M58.5041 72.4283C58.5041 74.4043 56.8913 76.0174 54.9156 76.0174C52.9399 76.0174 51.3271 74.4043 51.3271 72.4283C51.3271 70.4522 52.9399 68.8391 54.9156 68.8391C56.8913 68.8593 58.5041 70.4522 58.5041 72.4283Z" fill="#023047"/>
<path opacity="0.5" d="M85.7806 76.0174C87.7625 76.0174 89.3691 74.4105 89.3691 72.4283C89.3691 70.446 87.7625 68.8391 85.7806 68.8391C83.7988 68.8391 82.1921 70.446 82.1921 72.4283C82.1921 74.4105 83.7988 76.0174 85.7806 76.0174Z" fill="#023047"/>
<path opacity="0.5" d="M116.625 76.0174C118.607 76.0174 120.214 74.4105 120.214 72.4283C120.214 70.446 118.607 68.8391 116.625 68.8391C114.643 68.8391 113.037 70.446 113.037 72.4283C113.037 74.4105 114.643 76.0174 116.625 76.0174Z" fill="#023047"/>
<path opacity="0.5" d="M151.079 72.4283C151.079 74.4043 149.466 76.0174 147.49 76.0174C145.515 76.0174 143.902 74.4043 143.902 72.4283C143.902 70.4522 145.515 68.8391 147.49 68.8391C149.466 68.8593 151.079 70.4522 151.079 72.4283Z" fill="#023047"/>
<path opacity="0.5" d="M178.335 76.0174C180.317 76.0174 181.924 74.4105 181.924 72.4283C181.924 70.446 180.317 68.8391 178.335 68.8391C176.353 68.8391 174.747 70.446 174.747 72.4283C174.747 74.4105 176.353 76.0174 178.335 76.0174Z" fill="#023047"/>
<path opacity="0.5" d="M209.2 76.0174C211.182 76.0174 212.789 74.4105 212.789 72.4283C212.789 70.446 211.182 68.8391 209.2 68.8391C207.218 68.8391 205.612 70.446 205.612 72.4283C205.612 74.4105 207.218 76.0174 209.2 76.0174Z" fill="#023047"/>
<path opacity="0.5" d="M240.045 76.0174C242.027 76.0174 243.633 74.4105 243.633 72.4283C243.633 70.446 242.027 68.8391 240.045 68.8391C238.063 68.8391 236.457 70.446 236.457 72.4283C236.457 74.4105 238.063 76.0174 240.045 76.0174Z" fill="#023047"/>
<path opacity="0.5" d="M270.91 76.0174C272.892 76.0174 274.498 74.4105 274.498 72.4283C274.498 70.446 272.892 68.8391 270.91 68.8391C268.928 68.8391 267.321 70.446 267.321 72.4283C267.321 74.4105 268.928 76.0174 270.91 76.0174Z" fill="#023047"/>
<path opacity="0.5" d="M58.5041 103.299C58.5041 105.275 56.8913 106.888 54.9156 106.888C52.9399 106.888 51.3271 105.275 51.3271 103.299C51.3271 101.323 52.9399 99.71 54.9156 99.71C56.8913 99.71 58.5041 101.323 58.5041 103.299Z" fill="#023047"/>
<path opacity="0.5" d="M85.7806 106.888C87.7625 106.888 89.3691 105.281 89.3691 103.299C89.3691 101.317 87.7625 99.71 85.7806 99.71C83.7988 99.71 82.1921 101.317 82.1921 103.299C82.1921 105.281 83.7988 106.888 85.7806 106.888Z" fill="#023047"/>
<path opacity="0.5" d="M116.625 106.888C118.607 106.888 120.214 105.281 120.214 103.299C120.214 101.317 118.607 99.71 116.625 99.71C114.643 99.71 113.037 101.317 113.037 103.299C113.037 105.281 114.643 106.888 116.625 106.888Z" fill="#023047"/>
<path opacity="0.5" d="M151.079 103.299C151.079 105.275 149.466 106.888 147.49 106.888C145.515 106.888 143.902 105.275 143.902 103.299C143.902 101.323 145.515 99.71 147.49 99.71C149.466 99.71 151.079 101.323 151.079 103.299Z" fill="#023047"/>
<path opacity="0.5" d="M178.335 106.888C180.317 106.888 181.924 105.281 181.924 103.299C181.924 101.317 180.317 99.71 178.335 99.71C176.353 99.71 174.747 101.317 174.747 103.299C174.747 105.281 176.353 106.888 178.335 106.888Z" fill="#023047"/>
<path opacity="0.5" d="M209.2 106.888C211.182 106.888 212.789 105.281 212.789 103.299C212.789 101.317 211.182 99.71 209.2 99.71C207.218 99.71 205.612 101.317 205.612 103.299C205.612 105.281 207.218 106.888 209.2 106.888Z" fill="#023047"/>
<path opacity="0.5" d="M240.045 106.888C242.027 106.888 243.633 105.281 243.633 103.299C243.633 101.317 242.027 99.71 240.045 99.71C238.063 99.71 236.457 101.317 236.457 103.299C236.457 105.281 238.063 106.888 240.045 106.888Z" fill="#023047"/>
<path opacity="0.5" d="M270.91 106.888C272.892 106.888 274.498 105.281 274.498 103.299C274.498 101.317 272.892 99.71 270.91 99.71C268.928 99.71 267.321 101.317 267.321 103.299C267.321 105.281 268.928 106.888 270.91 106.888Z" fill="#023047"/>
<path opacity="0.5" d="M58.5041 134.15C58.5041 136.126 56.8913 137.739 54.9156 137.739C52.9399 137.739 51.3271 136.126 51.3271 134.15C51.3271 132.174 52.9399 130.561 54.9156 130.561C56.8913 130.581 58.5041 132.174 58.5041 134.15Z" fill="#023047"/>
<path opacity="0.5" d="M85.7806 137.739C87.7625 137.739 89.3691 136.132 89.3691 134.15C89.3691 132.167 87.7625 130.561 85.7806 130.561C83.7988 130.561 82.1921 132.167 82.1921 134.15C82.1921 136.132 83.7988 137.739 85.7806 137.739Z" fill="#023047"/>
<path opacity="0.5" d="M116.625 137.739C118.607 137.739 120.214 136.132 120.214 134.15C120.214 132.167 118.607 130.561 116.625 130.561C114.643 130.561 113.037 132.167 113.037 134.15C113.037 136.132 114.643 137.739 116.625 137.739Z" fill="#023047"/>
<path opacity="0.5" d="M151.079 134.15C151.079 136.126 149.466 137.739 147.49 137.739C145.515 137.739 143.902 136.126 143.902 134.15C143.902 132.174 145.515 130.561 147.49 130.561C149.466 130.581 151.079 132.174 151.079 134.15Z" fill="#023047"/>
<path opacity="0.5" d="M178.335 137.739C180.317 137.739 181.924 136.132 181.924 134.15C181.924 132.167 180.317 130.561 178.335 130.561C176.353 130.561 174.747 132.167 174.747 134.15C174.747 136.132 176.353 137.739 178.335 137.739Z" fill="#023047"/>
<path opacity="0.5" d="M209.2 137.739C211.182 137.739 212.789 136.132 212.789 134.15C212.789 132.167 211.182 130.561 209.2 130.561C207.218 130.561 205.612 132.167 205.612 134.15C205.612 136.132 207.218 137.739 209.2 137.739Z" fill="#023047"/>
<path opacity="0.5" d="M240.045 137.739C242.027 137.739 243.633 136.132 243.633 134.15C243.633 132.167 242.027 130.561 240.045 130.561C238.063 130.561 236.457 132.167 236.457 134.15C236.457 136.132 238.063 137.739 240.045 137.739Z" fill="#023047"/>
<path opacity="0.5" d="M270.91 137.739C272.892 137.739 274.498 136.132 274.498 134.15C274.498 132.167 272.892 130.561 270.91 130.561C268.928 130.561 267.321 132.167 267.321 134.15C267.321 136.132 268.928 137.739 270.91 137.739Z" fill="#023047"/>
<path opacity="0.5" d="M58.5041 165.02C58.5041 166.996 56.8913 168.609 54.9156 168.609C52.9399 168.609 51.3271 166.996 51.3271 165.02C51.3271 163.044 52.9399 161.431 54.9156 161.431C56.8913 161.431 58.5041 163.044 58.5041 165.02Z" fill="#023047"/>
<path opacity="0.5" d="M85.7806 168.609C87.7625 168.609 89.3691 167.003 89.3691 165.02C89.3691 163.038 87.7625 161.431 85.7806 161.431C83.7988 161.431 82.1921 163.038 82.1921 165.02C82.1921 167.003 83.7988 168.609 85.7806 168.609Z" fill="#023047"/>
<path opacity="0.5" d="M116.625 168.609C118.607 168.609 120.214 167.003 120.214 165.02C120.214 163.038 118.607 161.431 116.625 161.431C114.643 161.431 113.037 163.038 113.037 165.02C113.037 167.003 114.643 168.609 116.625 168.609Z" fill="#023047"/>
<path opacity="0.5" d="M151.079 165.02C151.079 166.996 149.466 168.609 147.49 168.609C145.515 168.609 143.902 166.996 143.902 165.02C143.902 163.044 145.515 161.431 147.49 161.431C149.466 161.431 151.079 163.044 151.079 165.02Z" fill="#023047"/>
<path opacity="0.5" d="M178.335 168.609C180.317 168.609 181.924 167.003 181.924 165.02C181.924 163.038 180.317 161.431 178.335 161.431C176.353 161.431 174.747 163.038 174.747 165.02C174.747 167.003 176.353 168.609 178.335 168.609Z" fill="#023047"/>
<path opacity="0.5" d="M209.2 168.609C211.182 168.609 212.789 167.003 212.789 165.02C212.789 163.038 211.182 161.431 209.2 161.431C207.218 161.431 205.612 163.038 205.612 165.02C205.612 167.003 207.218 168.609 209.2 168.609Z" fill="#023047"/>
<path opacity="0.5" d="M240.045 168.609C242.027 168.609 243.633 167.003 243.633 165.02C243.633 163.038 242.027 161.431 240.045 161.431C238.063 161.431 236.457 163.038 236.457 165.02C236.457 167.003 238.063 168.609 240.045 168.609Z" fill="#023047"/>
<path opacity="0.5" d="M270.91 168.609C272.892 168.609 274.498 167.003 274.498 165.02C274.498 163.038 272.892 161.431 270.91 161.431C268.928 161.431 267.321 163.038 267.321 165.02C267.321 167.003 268.928 168.609 270.91 168.609Z" fill="#023047"/>
<path opacity="0.5" d="M58.5041 195.891C58.5041 197.867 56.8913 199.48 54.9156 199.48C52.9399 199.48 51.3271 197.867 51.3271 195.891C51.3271 193.915 52.9399 192.302 54.9156 192.302C56.8913 192.302 58.5041 193.895 58.5041 195.891Z" fill="#023047"/>
<path opacity="0.5" d="M85.7806 199.48C87.7625 199.48 89.3691 197.873 89.3691 195.891C89.3691 193.909 87.7625 192.302 85.7806 192.302C83.7988 192.302 82.1921 193.909 82.1921 195.891C82.1921 197.873 83.7988 199.48 85.7806 199.48Z" fill="#023047"/>
<path opacity="0.5" d="M116.625 199.48C118.607 199.48 120.214 197.873 120.214 195.891C120.214 193.909 118.607 192.302 116.625 192.302C114.643 192.302 113.037 193.909 113.037 195.891C113.037 197.873 114.643 199.48 116.625 199.48Z" fill="#023047"/>
<path opacity="0.5" d="M151.079 195.891C151.079 197.867 149.466 199.48 147.49 199.48C145.515 199.48 143.902 197.867 143.902 195.891C143.902 193.915 145.515 192.302 147.49 192.302C149.466 192.302 151.079 193.895 151.079 195.891Z" fill="#023047"/>
<path opacity="0.5" d="M178.335 199.48C180.317 199.48 181.924 197.873 181.924 195.891C181.924 193.909 180.317 192.302 178.335 192.302C176.353 192.302 174.747 193.909 174.747 195.891C174.747 197.873 176.353 199.48 178.335 199.48Z" fill="#023047"/>
<path opacity="0.5" d="M209.2 199.48C211.182 199.48 212.789 197.873 212.789 195.891C212.789 193.909 211.182 192.302 209.2 192.302C207.218 192.302 205.612 193.909 205.612 195.891C205.612 197.873 207.218 199.48 209.2 199.48Z" fill="#023047"/>
<path opacity="0.5" d="M240.045 199.48C242.027 199.48 243.633 197.873 243.633 195.891C243.633 193.909 242.027 192.302 240.045 192.302C238.063 192.302 236.457 193.909 236.457 195.891C236.457 197.873 238.063 199.48 240.045 199.48Z" fill="#023047"/>
<path opacity="0.5" d="M270.91 199.48C272.892 199.48 274.498 197.873 274.498 195.891C274.498 193.909 272.892 192.302 270.91 192.302C268.928 192.302 267.321 193.909 267.321 195.891C267.321 197.873 268.928 199.48 270.91 199.48Z" fill="#023047"/>
</g>
<g opacity="0.5">
<path opacity="0.5" d="M1284.01 581.685C1285.99 581.685 1287.6 580.078 1287.6 578.095C1287.6 576.113 1285.99 574.506 1284.01 574.506C1282.03 574.506 1280.42 576.113 1280.42 578.095C1280.42 580.078 1282.03 581.685 1284.01 581.685Z" fill="white"/>
<path opacity="0.5" d="M1284.01 612.555C1285.99 612.555 1287.6 610.949 1287.6 608.966C1287.6 606.984 1285.99 605.377 1284.01 605.377C1282.03 605.377 1280.42 606.984 1280.42 608.966C1280.42 610.949 1282.03 612.555 1284.01 612.555Z" fill="white"/>
<path opacity="0.5" d="M1284.01 643.406C1285.99 643.406 1287.6 641.799 1287.6 639.817C1287.6 637.834 1285.99 636.228 1284.01 636.228C1282.03 636.228 1280.42 637.834 1280.42 639.817C1280.42 641.799 1282.03 643.406 1284.01 643.406Z" fill="white"/>
<path opacity="0.5" d="M1284.01 674.277C1285.99 674.277 1287.6 672.67 1287.6 670.688C1287.6 668.705 1285.99 667.098 1284.01 667.098C1282.03 667.098 1280.42 668.705 1280.42 670.688C1280.42 672.67 1282.03 674.277 1284.01 674.277Z" fill="white"/>
<path opacity="0.5" d="M1284.01 705.127C1285.99 705.127 1287.6 703.52 1287.6 701.538C1287.6 699.556 1285.99 697.949 1284.01 697.949C1282.03 697.949 1280.42 699.556 1280.42 701.538C1280.42 703.52 1282.03 705.127 1284.01 705.127Z" fill="white"/>
<path opacity="0.5" d="M1284.01 735.998C1285.99 735.998 1287.6 734.391 1287.6 732.409C1287.6 730.427 1285.99 728.82 1284.01 728.82C1282.03 728.82 1280.42 730.427 1280.42 732.409C1280.42 734.391 1282.03 735.998 1284.01 735.998Z" fill="white"/>
<path opacity="0.5" d="M1284.01 766.849C1285.99 766.849 1287.6 765.242 1287.6 763.259C1287.6 761.277 1285.99 759.67 1284.01 759.67C1282.03 759.67 1280.42 761.277 1280.42 763.259C1280.42 765.242 1282.03 766.849 1284.01 766.849Z" fill="white"/>
<path opacity="0.5" d="M1284.01 797.699C1282.03 797.699 1280.42 796.086 1280.42 794.11C1280.42 792.134 1282.03 790.521 1284.01 790.521C1285.99 790.521 1287.6 792.134 1287.6 794.11C1287.6 796.106 1285.99 797.699 1284.01 797.699Z" fill="white"/>
<path opacity="0.5" d="M1253.17 581.685C1251.19 581.685 1249.58 580.072 1249.58 578.095C1249.58 576.119 1251.19 574.506 1253.17 574.506C1255.14 574.506 1256.75 576.119 1256.75 578.095C1256.73 580.072 1255.14 581.685 1253.17 581.685Z" fill="white"/>
<path opacity="0.5" d="M1253.17 612.535C1251.19 612.535 1249.58 610.922 1249.58 608.946C1249.58 606.97 1251.19 605.357 1253.17 605.357C1255.14 605.357 1256.75 606.97 1256.75 608.946C1256.73 610.942 1255.14 612.535 1253.17 612.535Z" fill="white"/>
<path opacity="0.5" d="M1253.17 643.406C1251.19 643.406 1249.58 641.793 1249.58 639.817C1249.58 637.841 1251.19 636.228 1253.17 636.228C1255.14 636.228 1256.75 637.841 1256.75 639.817C1256.73 641.793 1255.14 643.406 1253.17 643.406Z" fill="white"/>
<path opacity="0.5" d="M1253.17 674.256C1251.19 674.256 1249.58 672.643 1249.58 670.667C1249.58 668.691 1251.19 667.078 1253.17 667.078C1255.14 667.078 1256.75 668.691 1256.75 670.667C1256.73 672.663 1255.14 674.256 1253.17 674.256Z" fill="white"/>
<path opacity="0.5" d="M1253.17 705.127C1251.19 705.127 1249.58 703.514 1249.58 701.538C1249.58 699.562 1251.19 697.949 1253.17 697.949C1255.14 697.949 1256.75 699.562 1256.75 701.538C1256.73 703.514 1255.14 705.127 1253.17 705.127Z" fill="white"/>
<path opacity="0.5" d="M1253.17 735.978C1251.19 735.978 1249.58 734.365 1249.58 732.389C1249.58 730.413 1251.19 728.8 1253.17 728.8C1255.14 728.8 1256.75 730.413 1256.75 732.389C1256.75 734.365 1255.14 735.978 1253.17 735.978Z" fill="white"/>
<path opacity="0.5" d="M1253.17 766.849C1251.19 766.849 1249.58 765.236 1249.58 763.259C1249.58 761.283 1251.19 759.67 1253.17 759.67C1255.14 759.67 1256.75 761.283 1256.75 763.259C1256.75 765.236 1255.14 766.849 1253.17 766.849Z" fill="white"/>
<path opacity="0.5" d="M1253.17 797.699C1251.19 797.699 1249.58 796.086 1249.58 794.11C1249.58 792.134 1251.19 790.521 1253.17 790.521C1255.14 790.521 1256.75 792.134 1256.75 794.11C1256.73 796.106 1255.14 797.699 1253.17 797.699Z" fill="white"/>
<path opacity="0.5" d="M1222.3 581.685C1224.28 581.685 1225.89 580.078 1225.89 578.095C1225.89 576.113 1224.28 574.506 1222.3 574.506C1220.32 574.506 1218.71 576.113 1218.71 578.095C1218.71 580.078 1220.32 581.685 1222.3 581.685Z" fill="white"/>
<path opacity="0.5" d="M1222.3 612.555C1224.28 612.555 1225.89 610.949 1225.89 608.966C1225.89 606.984 1224.28 605.377 1222.3 605.377C1220.32 605.377 1218.71 606.984 1218.71 608.966C1218.71 610.949 1220.32 612.555 1222.3 612.555Z" fill="white"/>
<path opacity="0.5" d="M1222.3 643.406C1224.28 643.406 1225.89 641.799 1225.89 639.817C1225.89 637.834 1224.28 636.228 1222.3 636.228C1220.32 636.228 1218.71 637.834 1218.71 639.817C1218.71 641.799 1220.32 643.406 1222.3 643.406Z" fill="white"/>
<path opacity="0.5" d="M1222.3 674.277C1224.28 674.277 1225.89 672.67 1225.89 670.688C1225.89 668.705 1224.28 667.098 1222.3 667.098C1220.32 667.098 1218.71 668.705 1218.71 670.688C1218.71 672.67 1220.32 674.277 1222.3 674.277Z" fill="white"/>
<path opacity="0.5" d="M1222.3 705.127C1224.28 705.127 1225.89 703.52 1225.89 701.538C1225.89 699.556 1224.28 697.949 1222.3 697.949C1220.32 697.949 1218.71 699.556 1218.71 701.538C1218.71 703.52 1220.32 705.127 1222.3 705.127Z" fill="white"/>
<path opacity="0.5" d="M1222.3 735.998C1224.28 735.998 1225.89 734.391 1225.89 732.409C1225.89 730.427 1224.28 728.82 1222.3 728.82C1220.32 728.82 1218.71 730.427 1218.71 732.409C1218.71 734.391 1220.32 735.998 1222.3 735.998Z" fill="white"/>
<path opacity="0.5" d="M1222.3 766.849C1224.28 766.849 1225.89 765.242 1225.89 763.259C1225.89 761.277 1224.28 759.67 1222.3 759.67C1220.32 759.67 1218.71 761.277 1218.71 763.259C1218.71 765.242 1220.32 766.849 1222.3 766.849Z" fill="white"/>
<path opacity="0.5" d="M1222.3 797.699C1220.32 797.699 1218.71 796.086 1218.71 794.11C1218.71 792.134 1220.32 790.521 1222.3 790.521C1224.28 790.521 1225.89 792.134 1225.89 794.11C1225.89 796.106 1224.28 797.699 1222.3 797.699Z" fill="white"/>
<path opacity="0.5" d="M1191.44 581.685C1193.42 581.685 1195.02 580.078 1195.02 578.095C1195.02 576.113 1193.42 574.506 1191.44 574.506C1189.45 574.506 1187.85 576.113 1187.85 578.095C1187.85 580.078 1189.45 581.685 1191.44 581.685Z" fill="white"/>
<path opacity="0.5" d="M1191.44 612.555C1193.42 612.555 1195.02 610.949 1195.02 608.966C1195.02 606.984 1193.42 605.377 1191.44 605.377C1189.45 605.377 1187.85 606.984 1187.85 608.966C1187.85 610.949 1189.45 612.555 1191.44 612.555Z" fill="white"/>
<path opacity="0.5" d="M1191.44 643.406C1193.42 643.406 1195.02 641.799 1195.02 639.817C1195.02 637.834 1193.42 636.228 1191.44 636.228C1189.45 636.228 1187.85 637.834 1187.85 639.817C1187.85 641.799 1189.45 643.406 1191.44 643.406Z" fill="white"/>
<path opacity="0.5" d="M1191.44 674.277C1193.42 674.277 1195.02 672.67 1195.02 670.688C1195.02 668.705 1193.42 667.098 1191.44 667.098C1189.45 667.098 1187.85 668.705 1187.85 670.688C1187.85 672.67 1189.45 674.277 1191.44 674.277Z" fill="white"/>
<path opacity="0.5" d="M1191.44 705.127C1193.42 705.127 1195.02 703.52 1195.02 701.538C1195.02 699.556 1193.42 697.949 1191.44 697.949C1189.45 697.949 1187.85 699.556 1187.85 701.538C1187.85 703.52 1189.45 705.127 1191.44 705.127Z" fill="white"/>
<path opacity="0.5" d="M1191.44 735.998C1193.42 735.998 1195.02 734.391 1195.02 732.409C1195.02 730.427 1193.42 728.82 1191.44 728.82C1189.45 728.82 1187.85 730.427 1187.85 732.409C1187.85 734.391 1189.45 735.998 1191.44 735.998Z" fill="white"/>
<path opacity="0.5" d="M1191.44 766.849C1193.42 766.849 1195.02 765.242 1195.02 763.259C1195.02 761.277 1193.42 759.67 1191.44 759.67C1189.45 759.67 1187.85 761.277 1187.85 763.259C1187.85 765.242 1189.45 766.849 1191.44 766.849Z" fill="white"/>
<path opacity="0.5" d="M1191.44 797.699C1189.46 797.699 1187.85 796.086 1187.85 794.11C1187.85 792.134 1189.46 790.521 1191.44 790.521C1193.41 790.521 1195.02 792.134 1195.02 794.11C1195.02 796.106 1193.43 797.699 1191.44 797.699Z" fill="white"/>
<path opacity="0.5" d="M1160.59 581.685C1162.57 581.685 1164.18 580.078 1164.18 578.095C1164.18 576.113 1162.57 574.506 1160.59 574.506C1158.61 574.506 1157 576.113 1157 578.095C1157 580.078 1158.61 581.685 1160.59 581.685Z" fill="white"/>
<path opacity="0.5" d="M1160.59 612.555C1162.57 612.555 1164.18 610.949 1164.18 608.966C1164.18 606.984 1162.57 605.377 1160.59 605.377C1158.61 605.377 1157 606.984 1157 608.966C1157 610.949 1158.61 612.555 1160.59 612.555Z" fill="white"/>
<path opacity="0.5" d="M1160.59 643.406C1162.57 643.406 1164.18 641.799 1164.18 639.817C1164.18 637.834 1162.57 636.228 1160.59 636.228C1158.61 636.228 1157 637.834 1157 639.817C1157 641.799 1158.61 643.406 1160.59 643.406Z" fill="white"/>
<path opacity="0.5" d="M1160.59 674.277C1162.57 674.277 1164.18 672.67 1164.18 670.688C1164.18 668.705 1162.57 667.098 1160.59 667.098C1158.61 667.098 1157 668.705 1157 670.688C1157 672.67 1158.61 674.277 1160.59 674.277Z" fill="white"/>
<path opacity="0.5" d="M1160.59 705.127C1162.57 705.127 1164.18 703.52 1164.18 701.538C1164.18 699.556 1162.57 697.949 1160.59 697.949C1158.61 697.949 1157 699.556 1157 701.538C1157 703.52 1158.61 705.127 1160.59 705.127Z" fill="white"/>
<path opacity="0.5" d="M1160.59 735.998C1162.57 735.998 1164.18 734.391 1164.18 732.409C1164.18 730.427 1162.57 728.82 1160.59 728.82C1158.61 728.82 1157 730.427 1157 732.409C1157 734.391 1158.61 735.998 1160.59 735.998Z" fill="white"/>
<path opacity="0.5" d="M1160.59 766.849C1162.57 766.849 1164.18 765.242 1164.18 763.259C1164.18 761.277 1162.57 759.67 1160.59 759.67C1158.61 759.67 1157 761.277 1157 763.259C1157 765.242 1158.61 766.849 1160.59 766.849Z" fill="white"/>
<path opacity="0.5" d="M1160.59 797.699C1158.62 797.699 1157 796.086 1157 794.11C1157 792.134 1158.62 790.521 1160.59 790.521C1162.57 790.521 1164.18 792.134 1164.18 794.11C1164.18 796.106 1162.57 797.699 1160.59 797.699Z" fill="white"/>
<path opacity="0.5" d="M1129.73 581.685C1131.71 581.685 1133.31 580.078 1133.31 578.095C1133.31 576.113 1131.71 574.506 1129.73 574.506C1127.74 574.506 1126.14 576.113 1126.14 578.095C1126.14 580.078 1127.74 581.685 1129.73 581.685Z" fill="white"/>
<path opacity="0.5" d="M1129.73 612.555C1131.71 612.555 1133.31 610.949 1133.31 608.966C1133.31 606.984 1131.71 605.377 1129.73 605.377C1127.74 605.377 1126.14 606.984 1126.14 608.966C1126.14 610.949 1127.74 612.555 1129.73 612.555Z" fill="white"/>
<path opacity="0.5" d="M1129.73 643.406C1131.71 643.406 1133.31 641.799 1133.31 639.817C1133.31 637.834 1131.71 636.228 1129.73 636.228C1127.74 636.228 1126.14 637.834 1126.14 639.817C1126.14 641.799 1127.74 643.406 1129.73 643.406Z" fill="white"/>
<path opacity="0.5" d="M1129.73 674.277C1131.71 674.277 1133.31 672.67 1133.31 670.688C1133.31 668.705 1131.71 667.098 1129.73 667.098C1127.74 667.098 1126.14 668.705 1126.14 670.688C1126.14 672.67 1127.74 674.277 1129.73 674.277Z" fill="white"/>
<path opacity="0.5" d="M1129.73 705.127C1131.71 705.127 1133.31 703.52 1133.31 701.538C1133.31 699.556 1131.71 697.949 1129.73 697.949C1127.74 697.949 1126.14 699.556 1126.14 701.538C1126.14 703.52 1127.74 705.127 1129.73 705.127Z" fill="white"/>
<path opacity="0.5" d="M1129.73 735.998C1131.71 735.998 1133.31 734.391 1133.31 732.409C1133.31 730.427 1131.71 728.82 1129.73 728.82C1127.74 728.82 1126.14 730.427 1126.14 732.409C1126.14 734.391 1127.74 735.998 1129.73 735.998Z" fill="white"/>
<path opacity="0.5" d="M1129.73 766.849C1131.71 766.849 1133.31 765.242 1133.31 763.259C1133.31 761.277 1131.71 759.67 1129.73 759.67C1127.74 759.67 1126.14 761.277 1126.14 763.259C1126.14 765.242 1127.74 766.849 1129.73 766.849Z" fill="white"/>
<path opacity="0.5" d="M1129.73 797.699C1127.75 797.699 1126.14 796.086 1126.14 794.11C1126.14 792.134 1127.75 790.521 1129.73 790.521C1131.7 790.521 1133.31 792.134 1133.31 794.11C1133.31 796.106 1131.7 797.699 1129.73 797.699Z" fill="white"/>
</g>
<g opacity="0.5">
<path opacity="0.5" d="M890.104 116.022C890.104 117.998 888.491 119.611 886.516 119.611C884.54 119.611 882.927 117.998 882.927 116.022C882.927 114.046 884.54 112.433 886.516 112.433C888.491 112.433 890.104 114.046 890.104 116.022Z" fill="white"/>
<path opacity="0.5" d="M920.969 116.022C920.969 117.998 919.356 119.611 917.381 119.611C915.405 119.611 913.792 117.998 913.792 116.022C913.792 114.046 915.405 112.433 917.381 112.433C919.356 112.453 920.969 114.046 920.969 116.022Z" fill="white"/>
<path opacity="0.5" d="M951.814 116.022C951.814 117.998 950.201 119.611 948.225 119.611C946.25 119.611 944.637 117.998 944.637 116.022C944.637 114.046 946.25 112.433 948.225 112.433C950.201 112.433 951.814 114.046 951.814 116.022Z" fill="white"/>
<path opacity="0.5" d="M890.104 146.893C890.104 148.869 888.491 150.482 886.516 150.482C884.54 150.482 882.927 148.869 882.927 146.893C882.927 144.917 884.54 143.304 886.516 143.304C888.491 143.304 890.104 144.917 890.104 146.893Z" fill="white"/>
<path opacity="0.5" d="M920.969 146.893C920.969 148.869 919.356 150.482 917.381 150.482C915.405 150.482 913.792 148.869 913.792 146.893C913.792 144.917 915.405 143.304 917.381 143.304C919.356 143.304 920.969 144.917 920.969 146.893Z" fill="white"/>
<path opacity="0.5" d="M951.814 146.893C951.814 148.869 950.201 150.482 948.225 150.482C946.25 150.482 944.637 148.869 944.637 146.893C944.637 144.917 946.25 143.304 948.225 143.304C950.201 143.304 951.814 144.917 951.814 146.893Z" fill="white"/>
<path opacity="0.5" d="M890.104 177.743C890.104 179.719 888.491 181.333 886.516 181.333C884.54 181.333 882.927 179.719 882.927 177.743C882.927 175.767 884.54 174.154 886.516 174.154C888.491 174.154 890.104 175.767 890.104 177.743Z" fill="white"/>
<path opacity="0.5" d="M920.969 177.743C920.969 179.719 919.356 181.333 917.381 181.333C915.405 181.333 913.792 179.719 913.792 177.743C913.792 175.767 915.405 174.154 917.381 174.154C919.356 174.174 920.969 175.767 920.969 177.743Z" fill="white"/>
<path opacity="0.5" d="M951.814 177.743C951.814 179.719 950.201 181.333 948.225 181.333C946.25 181.333 944.637 179.719 944.637 177.743C944.637 175.767 946.25 174.154 948.225 174.154C950.201 174.154 951.814 175.767 951.814 177.743Z" fill="white"/>
</g>
<g opacity="0.5">
<path opacity="0.5" d="M602.018 390.23C602.018 392.206 600.405 393.819 598.429 393.819C596.454 393.819 594.841 392.206 594.841 390.23C594.841 388.253 596.454 386.64 598.429 386.64C600.425 386.64 602.018 388.233 602.018 390.23Z" fill="white"/>
<path opacity="0.5" d="M629.294 393.819C631.276 393.819 632.883 392.212 632.883 390.23C632.883 388.247 631.276 386.64 629.294 386.64C627.312 386.64 625.706 388.247 625.706 390.23C625.706 392.212 627.312 393.819 629.294 393.819Z" fill="white"/>
<path opacity="0.5" d="M660.139 393.819C662.121 393.819 663.727 392.212 663.727 390.23C663.727 388.247 662.121 386.64 660.139 386.64C658.157 386.64 656.551 388.247 656.551 390.23C656.551 392.212 658.157 393.819 660.139 393.819Z" fill="white"/>
<path opacity="0.5" d="M602.018 421.08C602.018 423.056 600.405 424.669 598.429 424.669C596.454 424.669 594.841 423.056 594.841 421.08C594.841 419.104 596.454 417.491 598.429 417.491C600.425 417.491 602.018 419.104 602.018 421.08Z" fill="white"/>
<path opacity="0.5" d="M629.294 424.669C631.276 424.669 632.883 423.062 632.883 421.08C632.883 419.098 631.276 417.491 629.294 417.491C627.312 417.491 625.706 419.098 625.706 421.08C625.706 423.062 627.312 424.669 629.294 424.669Z" fill="white"/>
<path opacity="0.5" d="M660.139 424.669C662.121 424.669 663.727 423.062 663.727 421.08C663.727 419.098 662.121 417.491 660.139 417.491C658.157 417.491 656.551 419.098 656.551 421.08C656.551 423.062 658.157 424.669 660.139 424.669Z" fill="white"/>
<path opacity="0.5" d="M602.018 451.951C602.018 453.927 600.405 455.54 598.429 455.54C596.454 455.54 594.841 453.927 594.841 451.951C594.841 449.975 596.454 448.362 598.429 448.362C600.425 448.362 602.018 449.975 602.018 451.951Z" fill="white"/>
<path opacity="0.5" d="M632.883 451.951C632.883 453.927 631.27 455.54 629.294 455.54C627.319 455.54 625.706 453.927 625.706 451.951C625.706 449.975 627.319 448.362 629.294 448.362C631.27 448.362 632.883 449.975 632.883 451.951Z" fill="white"/>
<path opacity="0.5" d="M663.727 451.951C663.727 453.927 662.115 455.54 660.139 455.54C658.163 455.54 656.551 453.927 656.551 451.951C656.551 449.975 658.163 448.362 660.139 448.362C662.135 448.362 663.727 449.975 663.727 451.951Z" fill="white"/>
</g>
<g opacity="0.5">
<path opacity="0.5" d="M1179.6 -2.90381L1049.61 127.112" stroke="white" stroke-width="2.1221" stroke-miterlimit="10"/>
<path opacity="0.5" d="M1171.15 -11.3523L1041.16 118.664" stroke="white" stroke-width="2.1221" stroke-miterlimit="10"/>
<path opacity="0.5" d="M1162.71 -19.801L1032.72 110.215" stroke="white" stroke-width="2.1221" stroke-miterlimit="10"/>
<path opacity="0.5" d="M1154.26 -28.2495L1024.27 101.766" stroke="white" stroke-width="2.1221" stroke-miterlimit="10"/>
<path opacity="0.5" d="M1145.81 -36.6982L1015.82 93.3178" stroke="white" stroke-width="2.1221" stroke-miterlimit="10"/>
<path opacity="0.5" d="M1137.37 -45.1467L1007.38 84.8693" stroke="white" stroke-width="2.1221" stroke-miterlimit="10"/>
<path opacity="0.5" d="M1128.92 -53.5955L998.928 76.4205" stroke="white" stroke-width="2.1221" stroke-miterlimit="10"/>
<path opacity="0.5" d="M1120.47 -62.0439L990.481 67.9721" stroke="white" stroke-width="2.1221" stroke-miterlimit="10"/>
<path opacity="0.5" d="M1112.03 -70.4927L982.034 59.5233" stroke="white" stroke-width="2.1221" stroke-miterlimit="10"/>
<path opacity="0.5" d="M1103.58 -78.9414L973.587 51.0746" stroke="white" stroke-width="2.1221" stroke-miterlimit="10"/>
<path opacity="0.5" d="M1095.13 -87.3899L965.14 42.6261" stroke="white" stroke-width="2.1221" stroke-miterlimit="10"/>
<path opacity="0.5" d="M1086.68 -95.8184L956.713 34.1775" stroke="white" stroke-width="2.1221" stroke-miterlimit="10"/>
<path opacity="0.5" d="M1078.26 -104.267L948.266 25.7489" stroke="white" stroke-width="2.1221" stroke-miterlimit="10"/>
<path opacity="0.5" d="M1069.81 -112.716L939.819 17.3004" stroke="white" stroke-width="2.1221" stroke-miterlimit="10"/>
<path opacity="0.5" d="M1061.36 -121.164L931.372 8.85169" stroke="white" stroke-width="2.1221" stroke-miterlimit="10"/>
<path opacity="0.5" d="M1052.92 -129.613L922.925 0.403201" stroke="white" stroke-width="2.1221" stroke-miterlimit="10"/>
</g>
<g opacity="0.5">
<path opacity="0.5" d="M873.956 998.893L743.965 1128.91" stroke="white" stroke-width="2.1221" stroke-miterlimit="10"/>
<path opacity="0.5" d="M865.509 990.444L735.518 1120.46" stroke="white" stroke-width="2.1221" stroke-miterlimit="10"/>
<path opacity="0.5" d="M857.062 981.996L727.07 1112.01" stroke="white" stroke-width="2.1221" stroke-miterlimit="10"/>
<path opacity="0.5" d="M848.615 973.547L718.623 1103.56" stroke="white" stroke-width="2.1221" stroke-miterlimit="10"/>
<path opacity="0.5" d="M840.168 965.099L710.176 1095.11" stroke="white" stroke-width="2.1221" stroke-miterlimit="10"/>
<path opacity="0.5" d="M831.721 956.65L701.729 1086.67" stroke="white" stroke-width="2.1221" stroke-miterlimit="10"/>
<path opacity="0.5" d="M823.274 948.201L693.282 1078.22" stroke="white" stroke-width="2.1221" stroke-miterlimit="10"/>
<path opacity="0.5" d="M814.827 939.753L684.835 1069.77" stroke="white" stroke-width="2.1221" stroke-miterlimit="10"/>
<path opacity="0.5" d="M806.38 931.304L676.388 1061.32" stroke="white" stroke-width="2.1221" stroke-miterlimit="10"/>
<path opacity="0.5" d="M797.933 922.855L667.941 1052.87" stroke="white" stroke-width="2.1221" stroke-miterlimit="10"/>
<path opacity="0.5" d="M789.486 914.407L659.494 1044.42" stroke="white" stroke-width="2.1221" stroke-miterlimit="10"/>
<path opacity="0.5" d="M781.039 905.958L651.067 1035.97" stroke="white" stroke-width="2.1221" stroke-miterlimit="10"/>
<path opacity="0.5" d="M772.612 897.53L642.62 1027.53" stroke="white" stroke-width="2.1221" stroke-miterlimit="10"/>
<path opacity="0.5" d="M764.165 889.081L634.173 1019.08" stroke="white" stroke-width="2.1221" stroke-miterlimit="10"/>
<path opacity="0.5" d="M755.718 880.632L625.726 1010.65" stroke="white" stroke-width="2.1221" stroke-miterlimit="10"/>
</g>
<g opacity="0.8">
<path opacity="0.8" d="M797.821 122.934C908.797 11.937 908.797 -168.025 797.821 -279.022C686.845 -390.019 506.917 -390.019 395.94 -279.022C284.964 -168.025 284.964 11.937 395.94 122.934C506.917 233.931 686.845 233.931 797.821 122.934Z" stroke="black" stroke-width="0.5" stroke-miterlimit="10"/>
<path opacity="0.8" d="M787.7 112.811C893.086 7.40479 893.086 -163.493 787.7 -268.899C682.313 -374.305 511.448 -374.305 406.061 -268.899C300.675 -163.493 300.675 7.40473 406.061 112.811C511.448 218.217 682.313 218.217 787.7 112.811Z" stroke="black" stroke-width="0.6562" stroke-miterlimit="10"/>
<path opacity="0.8" d="M596.883 177.528C738.008 177.528 852.411 63.1027 852.411 -78.048C852.411 -219.199 738.008 -333.624 596.883 -333.624C455.759 -333.624 341.355 -219.199 341.355 -78.048C341.355 63.1027 455.759 177.528 596.883 177.528Z" stroke="black" stroke-width="0.8125" stroke-miterlimit="10"/>
<path opacity="0.8" d="M596.884 163.212C730.103 163.212 838.098 55.1962 838.098 -78.0478C838.098 -211.292 730.103 -319.307 596.884 -319.307C463.665 -319.307 355.669 -211.292 355.669 -78.0478C355.669 55.1962 463.665 163.212 596.884 163.212Z" stroke="black" stroke-width="0.9688" stroke-miterlimit="10"/>
<path opacity="0.8" d="M757.322 82.4276C845.932 -6.19837 845.932 -149.889 757.322 -238.515C668.713 -327.141 525.049 -327.142 436.439 -238.516C347.83 -149.889 347.83 -6.19837 436.439 82.4276C525.049 171.054 668.713 171.054 757.322 82.4276Z" stroke="black" stroke-width="1.125" stroke-miterlimit="10"/>
<path opacity="0.8" d="M747.201 72.3046C830.221 -10.7306 830.221 -145.357 747.201 -228.392C664.182 -311.428 529.58 -311.428 446.56 -228.392C363.541 -145.357 363.541 -10.7306 446.56 72.3046C529.58 155.34 664.182 155.34 747.201 72.3046Z" stroke="black" stroke-width="1.2812" stroke-miterlimit="10"/>
<path opacity="0.8" d="M737.08 62.1816C814.51 -15.2628 814.51 -140.825 737.08 -218.269C659.65 -295.714 534.112 -295.714 456.682 -218.269C379.252 -140.825 379.252 -15.2628 456.682 62.1816C534.112 139.626 659.65 139.626 737.08 62.1816Z" stroke="black" stroke-width="1.4375" stroke-miterlimit="10"/>
<path opacity="0.8" d="M726.959 52.0585C798.799 -19.7951 798.799 -136.293 726.959 -208.146C655.119 -280 538.643 -280 466.803 -208.146C394.963 -136.293 394.963 -19.7951 466.803 52.0585C538.643 123.912 655.119 123.912 726.959 52.0585Z" stroke="black" stroke-width="1.5938" stroke-miterlimit="10"/>
<path opacity="0.8" d="M764.396 -50.9751C779.321 -143.486 716.439 -230.583 623.945 -245.511C531.452 -260.439 444.371 -197.546 429.446 -105.035C414.52 -12.5234 477.402 74.5733 569.896 89.5014C662.39 104.43 749.47 41.536 764.396 -50.9751Z" stroke="black" stroke-width="1.75" stroke-miterlimit="10"/>
<path opacity="0.8" d="M596.884 77.3138C682.671 77.3138 752.216 7.75595 752.216 -78.048C752.216 -163.852 682.671 -233.41 596.884 -233.41C511.096 -233.41 441.551 -163.852 441.551 -78.048C441.551 7.75595 511.096 77.3138 596.884 77.3138Z" stroke="black" stroke-width="1.9062" stroke-miterlimit="10"/>
<path opacity="0.8" d="M696.595 21.6894C751.666 -33.3918 751.666 -122.696 696.595 -177.777C641.525 -232.858 552.237 -232.858 497.166 -177.777C442.095 -122.696 442.095 -33.3918 497.166 21.6894C552.237 76.7706 641.525 76.7706 696.595 21.6894Z" stroke="black" stroke-width="2.0625" stroke-miterlimit="10"/>
<path opacity="0.8" d="M686.46 11.5521C735.933 -37.9304 735.933 -118.157 686.46 -167.64C636.987 -217.123 556.775 -217.123 507.301 -167.64C457.828 -118.157 457.828 -37.9304 507.301 11.5521C556.775 61.0346 636.987 61.0346 686.46 11.5521Z" stroke="black" stroke-width="2.2188" stroke-miterlimit="10"/>
<path opacity="0.8" d="M676.339 1.42906C720.222 -42.4627 720.222 -113.625 676.339 -157.517C632.455 -201.409 561.306 -201.409 517.423 -157.517C473.539 -113.625 473.539 -42.4627 517.423 1.42906C561.306 45.3208 632.455 45.3208 676.339 1.42906Z" stroke="black" stroke-width="2.375" stroke-miterlimit="10"/>
<path opacity="0.8" d="M666.218 -8.69394C704.511 -46.9949 704.512 -109.093 666.218 -147.394C627.924 -185.695 565.837 -185.695 527.544 -147.394C489.25 -109.093 489.25 -46.9949 527.544 -8.69397C565.838 29.607 627.924 29.607 666.218 -8.69394Z" stroke="black" stroke-width="2.5312" stroke-miterlimit="10"/>
<path opacity="0.8" d="M680.024 -68.2413C685.445 -114.182 652.604 -155.819 606.672 -161.24C560.74 -166.662 519.111 -133.815 513.69 -87.8747C508.27 -41.9344 541.111 -0.29729 587.042 5.12433C632.974 10.5459 674.603 -22.3009 680.024 -68.2413Z" stroke="black" stroke-width="2.6875" stroke-miterlimit="10"/>
</g>
<g opacity="0.79">
<path opacity="0.79" d="M231.425 570.499C304.037 497.874 304.037 380.125 231.425 307.5C158.814 234.875 41.0869 234.874 -31.5248 307.5C-104.137 380.125 -104.137 497.874 -31.5249 570.499C41.0869 643.125 158.814 643.124 231.425 570.499Z" stroke="black" stroke-width="0.5" stroke-miterlimit="10"/>
<path opacity="0.79" d="M222.159 561.232C289.654 493.725 289.654 384.274 222.159 316.767C154.665 249.26 45.2352 249.26 -22.2592 316.767C-89.7535 384.274 -89.7535 493.725 -22.2592 561.232C45.2351 628.739 154.665 628.739 222.159 561.232Z" stroke="black" stroke-width="0.7273" stroke-miterlimit="10"/>
<path opacity="0.79" d="M99.9582 598.754C188.173 598.754 259.686 527.229 259.686 438.997C259.686 350.765 188.173 279.239 99.9582 279.239C11.7431 279.239 -59.7695 350.765 -59.7695 438.997C-59.7695 527.229 11.7431 598.754 99.9582 598.754Z" stroke="black" stroke-width="0.9545" stroke-miterlimit="10"/>
<path opacity="0.79" d="M99.9583 585.668C180.947 585.668 246.602 520.001 246.602 438.997C246.602 357.992 180.947 292.325 99.9583 292.325C18.9691 292.325 -46.6855 357.992 -46.6855 438.997C-46.6855 520.001 18.9691 585.668 99.9583 585.668Z" stroke="black" stroke-width="1.1818" stroke-miterlimit="10"/>
<path opacity="0.79" d="M99.9583 572.562C173.71 572.562 233.498 512.763 233.498 438.997C233.498 365.231 173.71 305.432 99.9583 305.432C26.2063 305.432 -33.5815 365.231 -33.5815 438.997C-33.5815 512.763 26.2063 572.562 99.9583 572.562Z" stroke="black" stroke-width="1.4091" stroke-miterlimit="10"/>
<path opacity="0.79" d="M99.9583 559.455C166.473 559.455 220.394 505.524 220.394 438.997C220.394 372.47 166.473 318.539 99.9583 318.539C33.4434 318.539 -20.4775 372.47 -20.4775 438.997C-20.4775 505.524 33.4434 559.455 99.9583 559.455Z" stroke="black" stroke-width="1.6364" stroke-miterlimit="10"/>
<path opacity="0.79" d="M99.9583 546.349C159.236 546.349 207.29 498.286 207.29 438.997C207.29 379.708 159.236 331.645 99.9583 331.645C40.6805 331.645 -7.37354 379.708 -7.37354 438.997C-7.37354 498.286 40.6805 546.349 99.9583 546.349Z" stroke="black" stroke-width="1.8636" stroke-miterlimit="10"/>
<path opacity="0.79" d="M99.9583 533.242C151.999 533.242 194.186 491.047 194.186 438.997C194.186 386.947 151.999 344.751 99.9583 344.751C47.9177 344.751 5.73047 386.947 5.73047 438.997C5.73047 491.047 47.9177 533.242 99.9583 533.242Z" stroke="black" stroke-width="2.0909" stroke-miterlimit="10"/>
<path opacity="0.79" d="M99.9583 520.136C144.762 520.136 181.082 483.809 181.082 438.997C181.082 394.185 144.762 357.858 99.9583 357.858C55.1548 357.858 18.8345 394.185 18.8345 438.997C18.8345 483.809 55.1548 520.136 99.9583 520.136Z" stroke="black" stroke-width="2.3182" stroke-miterlimit="10"/>
<path opacity="0.79" d="M99.9583 507.03C137.525 507.03 167.978 476.57 167.978 438.997C167.978 401.424 137.525 370.964 99.9583 370.964C62.392 370.964 31.9385 401.424 31.9385 438.997C31.9385 476.57 62.392 507.03 99.9583 507.03Z" stroke="black" stroke-width="2.5454" stroke-miterlimit="10"/>
<path opacity="0.79" d="M99.958 493.923C130.287 493.923 154.874 469.332 154.874 438.997C154.874 408.662 130.287 384.071 99.958 384.071C69.6289 384.071 45.0422 408.662 45.0422 438.997C45.0422 469.332 69.6289 493.923 99.958 493.923Z" stroke="black" stroke-width="2.7727" stroke-miterlimit="10"/>
<path opacity="0.79" d="M99.9583 480.817C123.05 480.817 141.77 462.093 141.77 438.997C141.77 415.901 123.05 397.177 99.9583 397.177C76.8663 397.177 58.1465 415.901 58.1465 438.997C58.1465 462.093 76.8663 480.817 99.9583 480.817Z" stroke="black" stroke-width="3" stroke-miterlimit="10"/>
</g>
<g opacity="0.89">
<g opacity="0.89">
<path opacity="0.89" d="M382.094 875.25C472.169 875.25 545.189 802.216 545.189 712.125C545.189 622.034 472.169 549 382.094 549C292.02 549 219 622.034 219 712.125C219 802.216 292.02 875.25 382.094 875.25Z" stroke="#2F2E41" stroke-width="0.8127" stroke-linecap="round" stroke-linejoin="round"/>
</g>
<g opacity="0.89">
<path opacity="0.89" d="M382.094 863.353C465.6 863.353 533.294 795.646 533.294 712.125C533.294 628.604 465.6 560.897 382.094 560.897C298.589 560.897 230.894 628.604 230.894 712.125C230.894 795.646 298.589 863.353 382.094 863.353Z" stroke="#2F2E41" stroke-width="0.9493" stroke-linecap="round" stroke-linejoin="round"/>
</g>
<g opacity="0.89">
<path opacity="0.89" d="M382.094 851.457C459.031 851.457 521.4 789.076 521.4 712.125C521.4 635.174 459.031 572.793 382.094 572.793C305.158 572.793 242.789 635.174 242.789 712.125C242.789 789.076 305.158 851.457 382.094 851.457Z" stroke="#2F2E41" stroke-width="1.0859" stroke-linecap="round" stroke-linejoin="round"/>
</g>
<g opacity="0.89">
<path opacity="0.89" d="M382.094 839.56C452.462 839.56 509.505 782.505 509.505 712.125C509.505 641.745 452.462 584.69 382.094 584.69C311.727 584.69 254.683 641.745 254.683 712.125C254.683 782.505 311.727 839.56 382.094 839.56Z" stroke="#2F2E41" stroke-width="1.2225" stroke-linecap="round" stroke-linejoin="round"/>
</g>
<g opacity="0.89">
<path opacity="0.89" d="M382.094 827.663C445.893 827.663 497.611 775.935 497.611 712.125C497.611 648.315 445.893 596.586 382.094 596.586C318.296 596.586 266.578 648.315 266.578 712.125C266.578 775.935 318.296 827.663 382.094 827.663Z" stroke="#2F2E41" stroke-width="1.3591" stroke-linecap="round" stroke-linejoin="round"/>
</g>
<g opacity="0.89">
<path opacity="0.89" d="M382.094 815.767C439.323 815.767 485.717 769.365 485.717 712.125C485.717 654.885 439.323 608.483 382.094 608.483C324.865 608.483 278.472 654.885 278.472 712.125C278.472 769.365 324.865 815.767 382.094 815.767Z" stroke="#2F2E41" stroke-width="1.4956" stroke-linecap="round" stroke-linejoin="round"/>
</g>
<g opacity="0.89">
<path opacity="0.89" d="M382.094 803.87C432.754 803.87 473.822 762.794 473.822 712.125C473.822 661.455 432.754 620.38 382.094 620.38C331.434 620.38 290.366 661.455 290.366 712.125C290.366 762.794 331.434 803.87 382.094 803.87Z" stroke="#2F2E41" stroke-width="1.6322" stroke-linecap="round" stroke-linejoin="round"/>
</g>
<g opacity="0.89">
<path opacity="0.89" d="M382.094 791.973C426.185 791.973 461.928 756.224 461.928 712.125C461.928 668.026 426.185 632.276 382.094 632.276C338.003 632.276 302.261 668.026 302.261 712.125C302.261 756.224 338.003 791.973 382.094 791.973Z" stroke="#2F2E41" stroke-width="1.7688" stroke-linecap="round" stroke-linejoin="round"/>
</g>
<g opacity="0.89">
<path opacity="0.89" d="M382.094 780.097C419.627 780.097 450.054 749.665 450.054 712.125C450.054 674.585 419.627 644.153 382.094 644.153C344.561 644.153 314.135 674.585 314.135 712.125C314.135 749.665 344.561 780.097 382.094 780.097Z" stroke="#2F2E41" stroke-width="1.9054" stroke-linecap="round" stroke-linejoin="round"/>
</g>
<g opacity="0.89">
<path opacity="0.89" d="M382.094 768.2C413.058 768.2 438.159 743.095 438.159 712.125C438.159 681.155 413.058 656.05 382.094 656.05C351.131 656.05 326.03 681.155 326.03 712.125C326.03 743.095 351.131 768.2 382.094 768.2Z" stroke="#2F2E41" stroke-width="2.042" stroke-linecap="round" stroke-linejoin="round"/>
</g>
<g opacity="0.89">
<path opacity="0.89" d="M382.094 756.304C406.489 756.304 426.265 736.524 426.265 712.125C426.265 687.726 406.489 667.946 382.094 667.946C357.7 667.946 337.924 687.726 337.924 712.125C337.924 736.524 357.7 756.304 382.094 756.304Z" stroke="#2F2E41" stroke-width="2.1786" stroke-linecap="round" stroke-linejoin="round"/>
</g>
<g opacity="0.89">
<path opacity="0.89" d="M382.094 744.407C399.92 744.407 414.37 729.954 414.37 712.125C414.37 694.296 399.92 679.843 382.094 679.843C364.269 679.843 349.818 694.296 349.818 712.125C349.818 729.954 364.269 744.407 382.094 744.407Z" stroke="#2F2E41" stroke-width="2.3152" stroke-linecap="round" stroke-linejoin="round"/>
</g>
</g>
<g opacity="0.81">
<g opacity="0.81">
<path opacity="0.81" d="M1726.35 210.85C1844.37 92.8052 1844.37 -98.583 1726.35 -216.628C1608.33 -334.672 1416.98 -334.672 1298.95 -216.628C1180.93 -98.5831 1180.93 92.8052 1298.95 210.85C1416.98 328.894 1608.33 328.894 1726.35 210.85Z" stroke="white" stroke-width="1.0531" stroke-linecap="round" stroke-linejoin="round"/>
</g>
<g opacity="0.81">
<path opacity="0.81" d="M1512.67 287.818C1673.2 287.818 1803.33 157.657 1803.33 -2.90372C1803.33 -163.465 1673.2 -293.625 1512.67 -293.625C1352.13 -293.625 1222 -163.465 1222 -2.90372C1222 157.657 1352.13 287.818 1512.67 287.818Z" stroke="white" stroke-width="1.1458" stroke-linecap="round" stroke-linejoin="round"/>
</g>
<g opacity="0.81">
<path opacity="0.81" d="M1710.03 194.525C1819.04 85.4961 1819.04 -91.2741 1710.03 -200.303C1601.02 -309.331 1424.28 -309.331 1315.28 -200.302C1206.27 -91.274 1206.27 85.4961 1315.28 194.525C1424.28 303.553 1601.02 303.553 1710.03 194.525Z" stroke="white" stroke-width="1.2385" stroke-linecap="round" stroke-linejoin="round"/>
</g>
<g opacity="0.81">
<path opacity="0.81" d="M1512.67 264.73C1660.45 264.73 1780.25 144.906 1780.25 -2.90359C1780.25 -150.714 1660.45 -270.537 1512.67 -270.537C1364.88 -270.537 1245.08 -150.714 1245.08 -2.90359C1245.08 144.906 1364.88 264.73 1512.67 264.73Z" stroke="white" stroke-width="1.3312" stroke-linecap="round" stroke-linejoin="round"/>
</g>
<g opacity="0.81">
<path opacity="0.81" d="M1512.67 253.197C1654.08 253.197 1768.72 138.537 1768.72 -2.90356C1768.72 -144.344 1654.08 -259.004 1512.67 -259.004C1371.25 -259.004 1256.61 -144.344 1256.61 -2.90356C1256.61 138.537 1371.25 253.197 1512.67 253.197Z" stroke="white" stroke-width="1.4239" stroke-linecap="round" stroke-linejoin="round"/>
</g>
<g opacity="0.81">
<path opacity="0.81" d="M1512.67 241.642C1647.7 241.642 1757.17 132.155 1757.17 -2.90373C1757.17 -137.963 1647.7 -247.45 1512.67 -247.45C1377.63 -247.45 1268.16 -137.963 1268.16 -2.90373C1268.16 132.155 1377.63 241.642 1512.67 241.642Z" stroke="white" stroke-width="1.5166" stroke-linecap="round" stroke-linejoin="round"/>
</g>
<g opacity="0.81">
<path opacity="0.81" d="M1512.67 230.089C1641.32 230.089 1745.61 125.775 1745.61 -2.90361C1745.61 -131.582 1641.32 -235.896 1512.67 -235.896C1384.01 -235.896 1279.72 -131.582 1279.72 -2.90361C1279.72 125.775 1384.01 230.089 1512.67 230.089Z" stroke="white" stroke-width="1.6093" stroke-linecap="round" stroke-linejoin="round"/>
</g>
<g opacity="0.81">
<path opacity="0.81" d="M1512.67 218.555C1634.95 218.555 1734.08 119.405 1734.08 -2.90359C1734.08 -125.212 1634.95 -224.362 1512.67 -224.362C1390.38 -224.362 1291.25 -125.212 1291.25 -2.90359C1291.25 119.405 1390.38 218.555 1512.67 218.555Z" stroke="white" stroke-width="1.702" stroke-linecap="round" stroke-linejoin="round"/>
</g>
<g opacity="0.81">
<path opacity="0.81" d="M1512.67 207.001C1628.57 207.001 1722.53 113.024 1722.53 -2.90349C1722.53 -118.831 1628.57 -212.808 1512.67 -212.808C1396.76 -212.808 1302.8 -118.831 1302.8 -2.90349C1302.8 113.024 1396.76 207.001 1512.67 207.001Z" stroke="white" stroke-width="1.7948" stroke-linecap="round" stroke-linejoin="round"/>
</g>
<g opacity="0.81">
<path opacity="0.81" d="M1512.67 195.468C1622.2 195.468 1711 106.654 1711 -2.9037C1711 -112.461 1622.2 -201.275 1512.67 -201.275C1403.13 -201.275 1314.33 -112.461 1314.33 -2.9037C1314.33 106.654 1403.13 195.468 1512.67 195.468Z" stroke="white" stroke-width="1.8875" stroke-linecap="round" stroke-linejoin="round"/>
</g>
<g opacity="0.81">
<path opacity="0.81" d="M1512.67 183.914C1615.82 183.914 1699.45 100.273 1699.45 -2.90359C1699.45 -106.08 1615.82 -189.721 1512.67 -189.721C1409.51 -189.721 1325.88 -106.08 1325.88 -2.90359C1325.88 100.273 1409.51 183.914 1512.67 183.914Z" stroke="white" stroke-width="1.9802" stroke-linecap="round" stroke-linejoin="round"/>
</g>
<g opacity="0.81">
<path opacity="0.81" d="M1512.67 172.36C1609.44 172.36 1687.9 93.8919 1687.9 -2.90347C1687.9 -99.6988 1609.44 -178.167 1512.67 -178.167C1415.89 -178.167 1337.43 -99.6988 1337.43 -2.90347C1337.43 93.8919 1415.89 172.36 1512.67 172.36Z" stroke="white" stroke-width="2.0729" stroke-linecap="round" stroke-linejoin="round"/>
</g>
<g opacity="0.81">
<path opacity="0.81" d="M1518.55 160.829C1608.9 157.61 1679.54 81.7398 1676.32 -8.63145C1673.1 -99.0027 1597.25 -169.653 1506.89 -166.434C1416.54 -163.215 1345.9 -87.3451 1349.12 3.02612C1352.34 93.3973 1428.19 164.048 1518.55 160.829Z" stroke="white" stroke-width="2.1656" stroke-linecap="round" stroke-linejoin="round"/>
</g>
<g opacity="0.81">
<path opacity="0.81" d="M1512.67 149.272C1596.69 149.272 1664.81 81.1409 1664.81 -2.90359C1664.81 -86.9481 1596.69 -155.08 1512.67 -155.08C1428.64 -155.08 1360.52 -86.9481 1360.52 -2.90359C1360.52 81.1409 1428.64 149.272 1512.67 149.272Z" stroke="white" stroke-width="2.2583" stroke-linecap="round" stroke-linejoin="round"/>
</g>
<g opacity="0.81">
<path opacity="0.81" d="M1517.72 137.755C1595.34 134.99 1656.02 69.8184 1653.25 -7.80956C1650.49 -85.4376 1585.33 -146.126 1507.71 -143.361C1430.1 -140.595 1369.42 -75.4238 1372.19 2.20416C1374.95 79.8322 1440.11 140.52 1517.72 137.755Z" stroke="white" stroke-width="2.351" stroke-linecap="round" stroke-linejoin="round"/>
</g>
<g opacity="0.81">
<path opacity="0.81" d="M1512.67 126.185C1583.95 126.185 1641.73 68.3901 1641.73 -2.90347C1641.73 -74.1971 1583.95 -131.992 1512.67 -131.992C1441.38 -131.992 1383.6 -74.1971 1383.6 -2.90347C1383.6 68.3901 1441.38 126.185 1512.67 126.185Z" stroke="white" stroke-width="2.4437" stroke-linecap="round" stroke-linejoin="round"/>
</g>
<g opacity="0.81">
<path opacity="0.81" d="M1516.9 114.661C1581.76 112.351 1632.47 57.8868 1630.16 -6.98688C1627.85 -71.8605 1573.4 -122.578 1508.54 -120.267C1443.67 -117.956 1392.97 -63.492 1395.28 1.38159C1397.59 66.2552 1452.04 116.972 1516.9 114.661Z" stroke="white" stroke-width="2.5364" stroke-linecap="round" stroke-linejoin="round"/>
</g>
<g opacity="0.81">
<path opacity="0.81" d="M1512.67 103.097C1571.2 103.097 1618.65 55.6391 1618.65 -2.90359C1618.65 -61.4463 1571.2 -108.905 1512.67 -108.905C1454.13 -108.905 1406.68 -61.4463 1406.68 -2.90359C1406.68 55.6391 1454.13 103.097 1512.67 103.097Z" stroke="white" stroke-width="2.6292" stroke-linecap="round" stroke-linejoin="round"/>
</g>
<g opacity="0.81">
<path opacity="0.81" d="M1516.08 91.588C1568.2 89.731 1608.95 45.9656 1607.09 -6.16476C1605.24 -58.2952 1561.48 -99.0498 1509.36 -97.1929C1457.24 -95.3359 1416.49 -51.5705 1418.35 0.559872C1420.2 52.6903 1463.96 93.4449 1516.08 91.588Z" stroke="white" stroke-width="2.7219" stroke-linecap="round" stroke-linejoin="round"/>
</g>
<g opacity="0.81">
<path opacity="0.81" d="M1512.67 80.0099C1558.45 80.0099 1595.56 42.8884 1595.56 -2.90347C1595.56 -48.6953 1558.45 -85.8169 1512.67 -85.8169C1466.88 -85.8169 1429.77 -48.6953 1429.77 -2.90347C1429.77 42.8884 1466.88 80.0099 1512.67 80.0099Z" stroke="white" stroke-width="2.8146" stroke-linecap="round" stroke-linejoin="round"/>
</g>
<g opacity="0.81">
<path opacity="0.81" d="M1515.26 68.5143C1554.64 67.1113 1585.42 34.0443 1584.02 -5.34288C1582.62 -44.7301 1549.56 -75.5223 1510.18 -74.1193C1470.8 -72.7162 1440.01 -39.6492 1441.42 -0.262081C1442.82 39.1251 1475.88 69.9173 1515.26 68.5143Z" stroke="white" stroke-width="2.9073" stroke-linecap="round" stroke-linejoin="round"/>
</g>
<g opacity="0.81">
<path opacity="0.81" d="M1512.67 56.9021C1545.69 56.9021 1572.46 30.1261 1572.46 -2.90371C1572.46 -35.9335 1545.69 -62.7095 1512.67 -62.7095C1479.64 -62.7095 1452.87 -35.9335 1452.87 -2.90371C1452.87 30.1261 1479.64 56.9021 1512.67 56.9021Z" stroke="white" stroke-width="3" stroke-linecap="round" stroke-linejoin="round"/>
</g>
</g>
<g opacity="0.77">
<g opacity="0.77">
<path opacity="0.77" d="M614.232 740L333 1021.28" stroke="black" stroke-width="2" stroke-miterlimit="10"/>
<path opacity="0.77" d="M630.464 740L349.232 1021.28" stroke="black" stroke-width="2" stroke-miterlimit="10"/>
<path opacity="0.77" d="M646.696 740L365.464 1021.28" stroke="black" stroke-width="2" stroke-miterlimit="10"/>
<path opacity="0.77" d="M662.928 740L381.696 1021.28" stroke="black" stroke-width="2" stroke-miterlimit="10"/>
<path opacity="0.77" d="M679.16 740L397.928 1021.28" stroke="black" stroke-width="2" stroke-miterlimit="10"/>
<path opacity="0.77" d="M695.392 740L414.16 1021.28" stroke="black" stroke-width="2" stroke-miterlimit="10"/>
<path opacity="0.77" d="M711.624 740L430.392 1021.28" stroke="black" stroke-width="2" stroke-miterlimit="10"/>
<path opacity="0.77" d="M727.856 740L446.624 1021.28" stroke="black" stroke-width="2" stroke-miterlimit="10"/>
<path opacity="0.77" d="M744.088 740L462.855 1021.28" stroke="black" stroke-width="2" stroke-miterlimit="10"/>
<path opacity="0.77" d="M760.319 740L479.087 1021.28" stroke="black" stroke-width="2" stroke-miterlimit="10"/>
<path opacity="0.77" d="M776.551 740L495.319 1021.28" stroke="black" stroke-width="2" stroke-miterlimit="10"/>
<path opacity="0.77" d="M792.783 740L511.551 1021.28" stroke="black" stroke-width="2" stroke-miterlimit="10"/>
<path opacity="0.77" d="M809.015 740L527.783 1021.28" stroke="black" stroke-width="2" stroke-miterlimit="10"/>
<path opacity="0.77" d="M825.247 740L544.015 1021.28" stroke="black" stroke-width="2" stroke-miterlimit="10"/>
<path opacity="0.77" d="M841.479 740L560.247 1021.28" stroke="black" stroke-width="2" stroke-miterlimit="10"/>
<path opacity="0.77" d="M857.711 740L576.479 1021.28" stroke="black" stroke-width="2" stroke-miterlimit="10"/>
<path opacity="0.77" d="M873.943 740L592.711 1021.28" stroke="black" stroke-width="2" stroke-miterlimit="10"/>
<path opacity="0.77" d="M890.175 740L608.943 1021.28" stroke="black" stroke-width="2" stroke-miterlimit="10"/>
<path opacity="0.77" d="M906.407 740L625.175 1021.28" stroke="black" stroke-width="2" stroke-miterlimit="10"/>
<path opacity="0.77" d="M922.639 740L641.407 1021.28" stroke="black" stroke-width="2" stroke-miterlimit="10"/>
<path opacity="0.77" d="M938.871 740L657.639 1021.28" stroke="black" stroke-width="2" stroke-miterlimit="10"/>
<path opacity="0.77" d="M955.103 740L673.871 1021.28" stroke="black" stroke-width="2" stroke-miterlimit="10"/>
<path opacity="0.77" d="M971.335 740L690.103 1021.28" stroke="black" stroke-width="2" stroke-miterlimit="10"/>
<path opacity="0.77" d="M987.566 740L706.334 1021.28" stroke="black" stroke-width="2" stroke-miterlimit="10"/>
<path opacity="0.77" d="M1003.8 740L722.566 1021.28" stroke="black" stroke-width="2" stroke-miterlimit="10"/>
<path opacity="0.77" d="M1020.03 740L738.798 1021.28" stroke="black" stroke-width="2" stroke-miterlimit="10"/>
<path opacity="0.77" d="M1036.26 740L755.03 1021.28" stroke="black" stroke-width="2" stroke-miterlimit="10"/>
<path opacity="0.77" d="M1052.49 740L771.262 1021.28" stroke="black" stroke-width="2" stroke-miterlimit="10"/>
<path opacity="0.77" d="M1068.73 740L787.494 1021.28" stroke="black" stroke-width="2" stroke-miterlimit="10"/>
<path opacity="0.77" d="M1084.96 740L803.726 1021.28" stroke="black" stroke-width="2" stroke-miterlimit="10"/>
</g>
</g>
<g opacity="0.81">
<g opacity="0.81">
<path opacity="0.81" d="M1328.71 686.173L661.268 1353.74" stroke="white" stroke-width="2" stroke-miterlimit="10"/>
<path opacity="0.81" d="M1344.67 686.173L677.235 1353.74" stroke="white" stroke-width="2" stroke-miterlimit="10"/>
<path opacity="0.81" d="M1360.66 686.173L693.201 1353.74" stroke="white" stroke-width="2" stroke-miterlimit="10"/>
<path opacity="0.81" d="M1376.63 686.173L709.188 1353.74" stroke="white" stroke-width="2" stroke-miterlimit="10"/>
<path opacity="0.81" d="M1392.59 686.173L725.155 1353.74" stroke="white" stroke-width="2" stroke-miterlimit="10"/>
<path opacity="0.81" d="M1408.58 686.173L741.122 1353.74" stroke="white" stroke-width="2" stroke-miterlimit="10"/>
<path opacity="0.81" d="M1424.55 686.173L757.109 1353.74" stroke="white" stroke-width="2" stroke-miterlimit="10"/>
<path opacity="0.81" d="M1440.51 686.173L773.075 1353.74" stroke="white" stroke-width="2" stroke-miterlimit="10"/>
<path opacity="0.81" d="M1456.5 686.173L789.062 1353.74" stroke="white" stroke-width="2" stroke-miterlimit="10"/>
<path opacity="0.81" d="M1472.47 686.173L805.029 1353.74" stroke="white" stroke-width="2" stroke-miterlimit="10"/>
<path opacity="0.81" d="M1488.45 686.173L820.996 1353.74" stroke="white" stroke-width="2" stroke-miterlimit="10"/>
<path opacity="0.81" d="M1504.42 686.173L836.983 1353.74" stroke="white" stroke-width="2" stroke-miterlimit="10"/>
<path opacity="0.81" d="M1520.39 686.173L852.949 1353.74" stroke="white" stroke-width="2" stroke-miterlimit="10"/>
<path opacity="0.81" d="M1536.37 686.173L868.916 1353.74" stroke="white" stroke-width="2" stroke-miterlimit="10"/>
<path opacity="0.81" d="M1552.34 686.173L884.903 1353.74" stroke="white" stroke-width="2" stroke-miterlimit="10"/>
<path opacity="0.81" d="M1568.31 686.173L900.87 1353.74" stroke="white" stroke-width="2" stroke-miterlimit="10"/>
<path opacity="0.81" d="M1584.29 686.173L916.836 1353.74" stroke="white" stroke-width="2" stroke-miterlimit="10"/>
<path opacity="0.81" d="M1600.26 686.173L932.823 1353.74" stroke="white" stroke-width="2" stroke-miterlimit="10"/>
<path opacity="0.81" d="M1616.23 686.173L948.79 1353.74" stroke="white" stroke-width="2" stroke-miterlimit="10"/>
<path opacity="0.81" d="M1632.21 686.173L964.777 1353.74" stroke="white" stroke-width="2" stroke-miterlimit="10"/>
<path opacity="0.81" d="M1648.18 686.173L980.743 1353.74" stroke="white" stroke-width="2" stroke-miterlimit="10"/>
<path opacity="0.81" d="M1664.17 686.173L996.71 1353.74" stroke="white" stroke-width="2" stroke-miterlimit="10"/>
<path opacity="0.81" d="M1680.13 686.173L1012.7 1353.74" stroke="white" stroke-width="2" stroke-miterlimit="10"/>
<path opacity="0.81" d="M1696.1 686.173L1028.66 1353.74" stroke="white" stroke-width="2" stroke-miterlimit="10"/>
<path opacity="0.81" d="M1712.09 686.173L1044.63 1353.74" stroke="white" stroke-width="2" stroke-miterlimit="10"/>
<path opacity="0.81" d="M1728.05 686.173L1060.62 1353.74" stroke="white" stroke-width="2" stroke-miterlimit="10"/>
<path opacity="0.81" d="M1744.02 686.173L1076.58 1353.74" stroke="white" stroke-width="2" stroke-miterlimit="10"/>
<path opacity="0.81" d="M1760.01 686.173L1092.55 1353.74" stroke="white" stroke-width="2" stroke-miterlimit="10"/>
<path opacity="0.81" d="M1775.97 686.173L1108.54 1353.74" stroke="white" stroke-width="2" stroke-miterlimit="10"/>
<path opacity="0.81" d="M1791.94 686.173L1124.5 1353.74" stroke="white" stroke-width="2" stroke-miterlimit="10"/>
<path opacity="0.81" d="M1807.93 686.173L1140.49 1353.74" stroke="white" stroke-width="2" stroke-miterlimit="10"/>
<path opacity="0.81" d="M1823.9 686.173L1156.46 1353.74" stroke="white" stroke-width="2" stroke-miterlimit="10"/>
<path opacity="0.81" d="M1839.88 686.173L1172.42 1353.74" stroke="white" stroke-width="2" stroke-miterlimit="10"/>
<path opacity="0.81" d="M1855.85 686.173L1188.41 1353.74" stroke="white" stroke-width="2" stroke-miterlimit="10"/>
<path opacity="0.81" d="M1871.82 686.173L1204.38 1353.74" stroke="white" stroke-width="2" stroke-miterlimit="10"/>
<path opacity="0.81" d="M1887.8 686.173L1220.35 1353.74" stroke="white" stroke-width="2" stroke-miterlimit="10"/>
<path opacity="0.81" d="M1903.77 686.173L1236.33 1353.74" stroke="white" stroke-width="2" stroke-miterlimit="10"/>
<path opacity="0.81" d="M1919.74 686.173L1252.3 1353.74" stroke="white" stroke-width="2" stroke-miterlimit="10"/>
<path opacity="0.81" d="M1935.72 686.173L1268.27 1353.74" stroke="white" stroke-width="2" stroke-miterlimit="10"/>
<path opacity="0.81" d="M1951.69 686.173L1284.25 1353.74" stroke="white" stroke-width="2" stroke-miterlimit="10"/>
<path opacity="0.81" d="M1967.66 686.173L1300.22 1353.74" stroke="white" stroke-width="2" stroke-miterlimit="10"/>
<path opacity="0.81" d="M1983.64 686.173L1316.21 1353.74" stroke="white" stroke-width="2" stroke-miterlimit="10"/>
<path opacity="0.81" d="M1999.61 686.173L1332.17 1353.74" stroke="white" stroke-width="2" stroke-miterlimit="10"/>
<path opacity="0.81" d="M2015.6 686.173L1348.14 1353.74" stroke="white" stroke-width="2" stroke-miterlimit="10"/>
<path opacity="0.81" d="M2031.56 686.173L1364.13 1353.74" stroke="white" stroke-width="2" stroke-miterlimit="10"/>
</g>
</g>
<g opacity="0.72">
<path opacity="0.5" d="M-106.536 471.829L-423 788.352L-106.536 1104.88L209.928 788.352L-106.536 471.829Z" stroke="white" stroke-width="50" stroke-miterlimit="10"/>
<path opacity="0.5" d="M1437.71 155.313L1121.24 471.836L1437.71 788.359L1754.17 471.836L1437.71 155.313Z" stroke="white" stroke-width="50" stroke-miterlimit="10"/>
<path opacity="0.5" d="M681.708 907.007L365.244 1223.53L681.708 1540.05L998.172 1223.53L681.708 907.007Z" stroke="white" stroke-width="30" stroke-miterlimit="10"/>
</g>
<path opacity="0.5" d="M86.4005 817.267C116.459 847.332 116.459 896.088 86.4005 926.172L-248.578 1261.21C-278.637 1291.28 -327.383 1291.28 -357.462 1261.21C-387.521 1231.15 -387.521 1182.39 -357.462 1152.31L-22.4836 817.267C7.5951 787.203 56.342 787.203 86.4005 817.267Z" fill="url(#paint1_linear_641_234)"/>
<path opacity="0.5" d="M437.628 786.619C470.307 819.304 470.307 872.274 437.628 904.96L92.3073 1250.32C59.6279 1283.01 6.66763 1283.01 -26.0117 1250.32C-58.6911 1217.64 -58.6911 1164.67 -26.0117 1131.98L319.289 786.619C351.968 753.933 404.949 753.933 437.628 786.619Z" fill="url(#paint2_linear_641_234)"/>
<path opacity="0.5" d="M425.068 1013.99C440.632 1029.55 440.632 1054.78 425.068 1070.32L268.546 1226.87C252.983 1242.44 227.762 1242.44 212.219 1226.87C196.656 1211.31 196.656 1186.08 212.219 1170.54L368.741 1013.99C384.305 998.439 409.525 998.439 425.068 1013.99Z" fill="url(#paint3_linear_641_234)"/>
<path opacity="0.5" d="M296.75 930.205C317.555 951.034 317.555 984.788 296.75 1005.6L-14.2987 1316.7C-35.124 1337.53 -68.8718 1337.53 -89.6769 1316.7C-110.482 1295.87 -110.482 1262.12 -89.6769 1241.31L221.372 930.205C242.177 909.376 275.925 909.376 296.75 930.205Z" fill="url(#paint4_linear_641_234)"/>
<path opacity="0.5" d="M1103.09 596.797C1070.41 564.111 1070.41 511.141 1103.09 478.456L1448.39 133.091C1481.07 100.405 1534.03 100.405 1566.71 133.091C1599.39 165.776 1599.39 218.746 1566.71 251.432L1221.41 596.797C1188.73 629.462 1135.77 629.462 1103.09 596.797Z" fill="url(#paint5_linear_641_234)"/>
<path opacity="0.5" d="M1096.7 309.564C1081.14 293.998 1081.14 268.773 1096.7 253.226L1253.22 96.6748C1268.78 81.1084 1294 81.1084 1309.55 96.6748C1325.11 112.241 1325.11 137.466 1309.55 153.012L1153.03 309.564C1137.48 325.11 1112.26 325.11 1096.7 309.564Z" fill="url(#paint6_linear_641_234)"/>
<path opacity="0.5" d="M1351.54 598.511C1335.98 582.944 1335.98 557.719 1351.54 542.173L1508.06 385.622C1523.63 370.055 1548.85 370.055 1564.39 385.622C1579.95 401.188 1579.95 426.413 1564.39 441.959L1407.87 598.511C1392.3 614.077 1367.08 614.077 1351.54 598.511Z" fill="url(#paint7_linear_641_234)"/>
<g opacity="0.49">
<path opacity="0.49" d="M332.922 177.361C337.465 177.361 341.147 173.677 341.147 169.134C341.147 164.59 337.465 160.907 332.922 160.907C328.379 160.907 324.697 164.59 324.697 169.134C324.697 173.677 328.379 177.361 332.922 177.361Z" stroke="white" stroke-width="2" stroke-miterlimit="10" stroke-linecap="round" stroke-linejoin="round"/>
<path opacity="0.49" d="M895.668 727.751C895.668 732.288 891.979 735.978 887.443 735.978C882.907 735.978 879.218 732.288 879.218 727.751C879.218 723.214 882.907 719.524 887.443 719.524C891.979 719.524 895.668 723.214 895.668 727.751Z" stroke="white" stroke-width="2" stroke-miterlimit="10" stroke-linecap="round" stroke-linejoin="round"/>
<path opacity="0.49" d="M638.467 321.31C638.467 325.847 634.778 329.537 630.242 329.537C625.706 329.537 622.017 325.847 622.017 321.31C622.017 316.773 625.706 313.083 630.242 313.083C634.798 313.083 638.467 316.753 638.467 321.31Z" stroke="white" stroke-width="2" stroke-miterlimit="10" stroke-linecap="round" stroke-linejoin="round"/>
<path opacity="0.49" d="M60.359 589.347C60.359 593.884 56.6697 597.574 52.1337 597.574C47.5977 597.574 43.9084 593.884 43.9084 589.347C43.9084 584.81 47.5977 581.12 52.1337 581.12C56.6899 581.12 60.359 584.81 60.359 589.347Z" stroke="white" stroke-width="2" stroke-miterlimit="10" stroke-linecap="round" stroke-linejoin="round"/>
<path opacity="0.49" d="M143.62 348.269C143.62 352.806 139.931 356.496 135.395 356.496C130.859 356.496 127.169 352.806 127.169 348.269C127.169 343.732 130.859 340.042 135.395 340.042C139.931 340.042 143.62 343.732 143.62 348.269Z" stroke="white" stroke-width="2" stroke-miterlimit="10" stroke-linecap="round" stroke-linejoin="round"/>
<g opacity="0.49">
<path opacity="0.49" d="M792.006 239.606V254.003" stroke="white" stroke-width="2" stroke-miterlimit="10" stroke-linecap="round" stroke-linejoin="round"/>
<path opacity="0.49" d="M799.203 246.805H784.829" stroke="white" stroke-width="2" stroke-miterlimit="10" stroke-linecap="round" stroke-linejoin="round"/>
</g>
<g opacity="0.49">
<path opacity="0.49" d="M1396.89 720.573V734.95" stroke="white" stroke-width="2" stroke-miterlimit="10" stroke-linecap="round" stroke-linejoin="round"/>
<path opacity="0.49" d="M1404.08 727.751H1389.71" stroke="white" stroke-width="2" stroke-miterlimit="10" stroke-linecap="round" stroke-linejoin="round"/>
</g>
<g opacity="0.49">
<path opacity="0.49" d="M382.254 590.315V604.691" stroke="white" stroke-width="2" stroke-miterlimit="10" stroke-linecap="round" stroke-linejoin="round"/>
<path opacity="0.49" d="M389.451 597.493H375.077" stroke="white" stroke-width="2" stroke-miterlimit="10" stroke-linecap="round" stroke-linejoin="round"/>
</g>
<g opacity="0.49">
<g opacity="0.49">
<path opacity="0.49" d="M1117.37 892.529V906.906" stroke="white" stroke-width="2" stroke-miterlimit="10" stroke-linecap="round" stroke-linejoin="round"/>
<path opacity="0.49" d="M1124.54 899.708H1110.17" stroke="white" stroke-width="2" stroke-miterlimit="10" stroke-linecap="round" stroke-linejoin="round"/>
</g>
<g opacity="0.49">
<path opacity="0.49" d="M1073.9 892.529V906.906" stroke="white" stroke-width="2" stroke-miterlimit="10" stroke-linecap="round" stroke-linejoin="round"/>
<path opacity="0.49" d="M1081.08 899.708H1066.71" stroke="white" stroke-width="2" stroke-miterlimit="10" stroke-linecap="round" stroke-linejoin="round"/>
</g>
<g opacity="0.49">
<path opacity="0.49" d="M1030.44 892.529V906.906" stroke="white" stroke-width="2" stroke-miterlimit="10" stroke-linecap="round" stroke-linejoin="round"/>
<path opacity="0.49" d="M1037.62 899.708H1023.24" stroke="white" stroke-width="2" stroke-miterlimit="10" stroke-linecap="round" stroke-linejoin="round"/>
</g>
</g>
<g opacity="0.49">
<g opacity="0.49">
<path opacity="0.49" d="M143.62 249.305V263.682" stroke="white" stroke-width="2" stroke-miterlimit="10" stroke-linecap="round" stroke-linejoin="round"/>
<path opacity="0.49" d="M150.797 256.503H136.423" stroke="white" stroke-width="2" stroke-miterlimit="10" stroke-linecap="round" stroke-linejoin="round"/>
</g>
<g opacity="0.49">
<path opacity="0.49" d="M100.155 249.305V263.682" stroke="white" stroke-width="2" stroke-miterlimit="10" stroke-linecap="round" stroke-linejoin="round"/>
<path opacity="0.49" d="M107.352 256.503H92.9578" stroke="white" stroke-width="2" stroke-miterlimit="10" stroke-linecap="round" stroke-linejoin="round"/>
</g>
<g opacity="0.49">
<path opacity="0.49" d="M56.6899 249.305V263.682" stroke="white" stroke-width="2" stroke-miterlimit="10" stroke-linecap="round" stroke-linejoin="round"/>
<path opacity="0.49" d="M63.887 256.503H49.5129" stroke="white" stroke-width="2" stroke-miterlimit="10" stroke-linecap="round" stroke-linejoin="round"/>
</g>
</g>
<path opacity="0.49" d="M553.19 548.737L564.379 529.36H542.001L553.19 548.737Z" stroke="white" stroke-width="2" stroke-miterlimit="10" stroke-linecap="round" stroke-linejoin="round"/>
<path opacity="0.49" d="M1088.28 254.003L1077.09 273.381H1099.47L1088.28 254.003Z" stroke="white" stroke-width="2" stroke-miterlimit="10" stroke-linecap="round" stroke-linejoin="round"/>
<path opacity="0.49" d="M535.812 842.301C540.691 837.422 549.239 845.971 554.118 841.092C558.996 836.212 550.449 827.663 555.327 822.783C560.206 817.903 568.754 826.453 573.633 821.573C578.511 816.694 569.964 808.144 574.822 803.264C579.701 798.385 588.249 806.934 593.127 802.055C598.006 797.175 589.458 788.626 594.337 783.726C599.216 778.846 607.764 787.396 612.662 782.516" stroke="white" stroke-width="2" stroke-miterlimit="10" stroke-linecap="round" stroke-linejoin="round"/>
<path opacity="0.49" d="M960.765 802.438C965.644 797.558 974.192 806.107 979.07 801.228C983.949 796.348 975.401 787.799 980.28 782.919C985.159 778.04 993.707 786.589 998.585 781.709C1003.46 776.83 994.916 768.28 999.775 763.401C1004.65 758.521 1013.2 767.07 1018.08 762.191C1022.96 757.311 1014.41 748.762 1019.29 743.862C1024.17 738.982 1032.72 747.532 1037.62 742.652" stroke="white" stroke-width="2" stroke-miterlimit="10" stroke-linecap="round" stroke-linejoin="round"/>
<path opacity="0.49" d="M984.816 248.942C989.695 244.062 998.243 252.612 1003.12 247.732C1008 242.853 999.452 234.303 1004.33 229.424C1009.21 224.544 1017.76 233.093 1022.64 228.214C1027.51 223.334 1018.97 214.785 1023.83 209.905C1028.7 205.025 1037.25 213.575 1042.13 208.695C1047.01 203.816 1038.46 195.266 1043.34 190.366C1048.22 185.487 1056.77 194.036 1061.67 189.157" stroke="white" stroke-width="2" stroke-miterlimit="10" stroke-linecap="round" stroke-linejoin="round"/>
</g>
</g>
<defs>
<linearGradient id="paint0_linear_641_234" x1="132.246" y1="-125.934" x2="1319.63" y2="1061.23" gradientUnits="userSpaceOnUse">
<stop stop-color="#B81F80"/>
<stop offset="0.5154" stop-color="#DF4981"/>
<stop offset="1" stop-color="#219EBC"/>
</linearGradient>
<linearGradient id="paint1_linear_641_234" x1="86.4106" y1="817.273" x2="-357.534" y2="1261.13" gradientUnits="userSpaceOnUse">
<stop stop-color="#219EBC"/>
<stop offset="1" stop-opacity="0"/>
</linearGradient>
<linearGradient id="paint2_linear_641_234" x1="437.618" y1="786.613" x2="-26.0912" y2="1250.24" gradientUnits="userSpaceOnUse">
<stop stop-color="#219EBC"/>
<stop offset="1" stop-opacity="0"/>
</linearGradient>
<linearGradient id="paint3_linear_641_234" x1="425.075" y1="1013.99" x2="212.174" y2="1226.85" gradientUnits="userSpaceOnUse">
<stop stop-color="white"/>
<stop offset="1" stop-opacity="0"/>
</linearGradient>
<linearGradient id="paint4_linear_641_234" x1="322.397" y1="904.552" x2="148.544" y2="1078.37" gradientUnits="userSpaceOnUse">
<stop stop-color="white"/>
<stop offset="1" stop-opacity="0"/>
</linearGradient>
<linearGradient id="paint5_linear_641_234" x1="1103.09" y1="596.787" x2="1566.8" y2="133.164" gradientUnits="userSpaceOnUse">
<stop stop-color="white"/>
<stop offset="1" stop-opacity="0"/>
</linearGradient>
<linearGradient id="paint6_linear_641_234" x1="1096.7" y1="309.554" x2="1309.6" y2="96.693" gradientUnits="userSpaceOnUse">
<stop stop-color="#0B315E"/>
<stop offset="1" stop-opacity="0"/>
</linearGradient>
<linearGradient id="paint7_linear_641_234" x1="1351.53" y1="598.508" x2="1564.43" y2="385.647" gradientUnits="userSpaceOnUse">
<stop stop-color="white"/>
<stop offset="1" stop-opacity="0"/>
</linearGradient>
<clipPath id="clip0_641_234">
<rect width="1512" height="1002.14" fill="white"/>
</clipPath>
</defs>
</svg>
