<svg width="728" height="618" viewBox="0 0 728 618" fill="none" xmlns="http://www.w3.org/2000/svg">
<g clip-path="url(#clip0_238_423)">
<path d="M96.8908 500.272C96.1507 500.306 95.4181 500.112 94.7921 499.715C94.1662 499.319 93.6772 498.74 93.3914 498.056C93.1056 497.373 93.0368 496.618 93.1943 495.894C93.3519 495.17 93.7281 494.512 94.2722 494.009C94.3633 493.647 94.4286 493.387 94.5197 493.025C94.4871 492.946 94.4543 492.868 94.4214 492.789C93.6758 491.028 92.4265 489.526 90.8303 488.473C89.2341 487.42 87.3623 486.862 85.45 486.869C83.5377 486.876 81.67 487.448 80.0817 488.513C78.4935 489.578 77.2553 491.089 76.5229 492.855C73.5955 499.906 69.8684 506.968 68.9507 514.423C68.5465 517.718 68.717 521.059 69.4546 524.295C62.579 509.297 59.0087 492.996 58.9857 476.497C58.9842 472.356 59.2143 468.219 59.6747 464.105C60.0552 460.731 60.5831 457.382 61.2585 454.057C64.9436 436.016 72.8559 419.106 84.3455 404.716C89.9064 401.682 94.4036 397.016 97.231 391.347C98.2553 389.309 98.9793 387.134 99.3803 384.889C98.7531 384.971 98.1155 385.022 97.4882 385.063C97.2927 385.074 97.0871 385.084 96.8917 385.094L96.818 385.098C96.1285 385.128 95.4449 384.959 94.8492 384.611C94.2536 384.262 93.7715 383.749 93.4608 383.133C93.1502 382.516 93.0242 381.824 93.0982 381.137C93.1722 380.451 93.443 379.801 93.8779 379.265C94.1487 378.932 94.4197 378.599 94.6909 378.266C95.1023 377.752 95.5239 377.248 95.9352 376.734C95.9827 376.685 96.0273 376.633 96.0689 376.579C96.542 375.993 97.015 375.417 97.4881 374.831C96.6246 373.491 95.4632 372.368 94.0945 371.551C89.3536 368.774 82.8131 370.697 79.3886 374.985C75.9538 379.274 75.306 385.29 76.4988 390.647C77.6719 395.206 79.6125 399.533 82.2373 403.44C81.9801 403.77 81.7127 404.088 81.4556 404.417C76.7559 410.461 72.6598 416.95 69.2259 423.792C70.061 416.127 69.0643 408.373 66.3179 401.168C63.5345 394.453 58.3173 388.798 53.7229 382.993C48.2044 376.02 36.888 379.063 35.9158 387.902C35.9064 387.988 35.8972 388.073 35.8882 388.159C36.5706 388.544 37.2386 388.952 37.8922 389.385C38.7133 389.933 39.3495 390.717 39.7175 391.633C40.0855 392.55 40.1681 393.556 39.9545 394.52C39.7409 395.484 39.2411 396.361 38.5205 397.036C37.7999 397.711 36.8922 398.153 35.9162 398.304L35.8163 398.319C36.0594 400.779 36.4891 403.216 37.1017 405.61C38.8769 412.295 42.0138 418.54 46.3157 423.955C50.6177 429.37 55.9919 433.838 62.1016 437.079C62.5026 437.284 62.8935 437.49 63.2945 437.686C59.8446 447.462 57.6805 457.646 56.8569 467.981C56.3906 474.079 56.4181 480.204 56.9392 486.297L56.9083 486.081C55.5919 479.306 51.9776 473.192 46.6759 468.773C38.8015 462.305 27.6765 459.923 19.1814 454.723C18.2786 454.144 17.2288 453.834 16.156 453.832C15.0831 453.829 14.0318 454.133 13.1262 454.709C12.2206 455.284 11.4983 456.106 11.0446 457.078C10.591 458.051 10.4248 459.132 10.5657 460.196C10.5771 460.272 10.5887 460.347 10.6005 460.423C11.8668 460.939 13.0998 461.533 14.2923 462.202C14.9747 462.587 15.6427 462.996 16.2963 463.428C17.1174 463.976 17.7536 464.76 18.1216 465.677C18.4896 466.593 18.5722 467.599 18.3586 468.563C18.145 469.527 17.6452 470.404 16.9246 471.079C16.204 471.755 15.2962 472.196 14.3203 472.347L14.2203 472.362C14.1483 472.373 14.0866 472.383 14.0147 472.393C16.1785 477.56 19.2154 482.315 22.9924 486.451C27.6583 491.458 33.2977 495.459 39.5647 498.208C45.8318 500.958 52.5945 502.399 59.4381 502.442H59.4484C61.3062 510.515 63.9979 518.373 67.4801 525.889H96.1718C96.2747 525.571 96.3672 525.241 96.4598 524.923C93.804 525.09 91.1378 524.931 88.5206 524.45C90.6494 521.838 92.7781 519.205 94.9069 516.593C94.9543 516.544 94.999 516.492 95.0406 516.439C96.1203 515.102 97.2104 513.775 98.2902 512.438L98.2908 512.437C98.3484 508.339 97.8773 504.25 96.8908 500.272Z" fill="#F2F2F2"/>
<path d="M737.5 526C737.501 526.131 737.45 526.262 737.352 526.383C737.253 526.505 737.108 526.615 736.925 526.708C736.742 526.801 736.525 526.875 736.286 526.925C736.047 526.975 735.791 527 735.532 527H12.4677C11.9458 527 11.4453 526.895 11.0763 526.707C10.7073 526.52 10.5 526.265 10.5 526C10.5 525.735 10.7073 525.48 11.0763 525.293C11.4453 525.105 11.9458 525 12.4677 525H735.532C735.791 525 736.047 525.025 736.286 525.075C736.525 525.125 736.742 525.199 736.925 525.292C737.108 525.385 737.253 525.495 737.352 525.617C737.45 525.738 737.501 525.869 737.5 526Z" fill="#CCCCCC"/>
<path d="M216.866 369.309C217.884 369.649 218.815 370.208 219.593 370.947C220.371 371.686 220.978 372.586 221.371 373.585C221.763 374.584 221.932 375.657 221.865 376.728C221.798 377.799 221.497 378.842 220.984 379.784L231.51 392.844L225.134 401.177L210.527 382.525C209.002 381.557 207.884 380.063 207.386 378.326C206.889 376.589 207.045 374.73 207.827 373.101C208.608 371.472 209.96 370.186 211.626 369.487C213.292 368.788 215.156 368.725 216.866 369.309Z" fill="#A0616A"/>
<path d="M221.573 404.881L215.628 390.091L226.625 382.281L231.766 391.494L239.273 396.614L249.244 405.469C251.947 403.25 272.686 386.63 279.321 393.695C280.127 394.489 280.752 395.447 281.153 396.505C281.554 397.563 281.721 398.696 281.642 399.824C281.229 405.203 275.524 409.718 275.308 409.885L262.717 421.707C262.248 422.508 257.299 430.743 251.643 432.176C250.837 432.397 249.993 432.449 249.166 432.327C248.339 432.205 247.546 431.913 246.838 431.468C233.966 423.565 225.737 415.788 222.715 408.729C222.177 407.499 221.793 406.206 221.573 404.881Z" fill="#2F2E41"/>
<path d="M215.341 598.444L205.657 598.896L199.303 561.76L213.596 561.092L215.341 598.444Z" fill="#A0616A"/>
<path d="M220.533 616.629L213.661 616.95L212.131 610.52L209.293 617.154L191.068 618.007C190.195 618.047 189.331 617.808 188.603 617.323C187.875 616.838 187.321 616.134 187.022 615.312C186.724 614.49 186.695 613.594 186.941 612.755C187.188 611.916 187.696 611.177 188.391 610.647L202.475 599.915L202.168 593.357L217.519 593.555L220.533 616.629Z" fill="#2F2E41"/>
<path d="M114.235 518.707L110.707 509.678L143.858 491.773L160.604 502.299L114.235 518.707Z" fill="#A0616A"/>
<path d="M98.6685 529.446L96.1649 523.038L101.767 519.531L94.5736 518.966L87.9336 501.972C87.6152 501.157 87.5656 500.263 87.792 499.418C88.0183 498.573 88.5087 497.823 89.1917 497.276C89.8746 496.73 90.7143 496.417 91.5881 496.381C92.462 496.346 93.3242 496.591 94.0489 497.08L108.724 506.989L114.839 504.599L119.565 519.206L98.6685 529.446Z" fill="#2F2E41"/>
<path d="M304.678 491.833C304.678 491.833 300.656 517.508 281.644 519.41C262.633 521.311 245.108 512.746 245.108 512.746L191.876 496.351C191.876 496.351 135.255 512.439 125.75 514.974C125.75 514.974 119.193 500.091 119.412 499.131C121.434 490.285 124.068 496.269 124.068 496.269L184.271 469.653C184.271 469.653 193.777 467.118 210.254 474.089C226.73 481.06 270.871 497.863 270.871 497.863L304.678 491.833Z" fill="#2F2E41"/>
<path d="M304.458 490.259C304.458 490.259 307.629 521.017 289.109 525.716C271.505 530.183 247.222 525.601 247.222 525.601L218.273 522.578C218.273 522.578 217.005 559.775 217.005 578.152C211.123 578.952 205.197 579.375 199.261 579.42C197.994 579.42 197.909 578.756 197.909 578.756L195.455 514.469C195.283 511.674 195.698 508.874 196.673 506.249C197.648 503.624 199.162 501.232 201.117 499.227C203.072 497.222 205.425 495.649 208.025 494.608C210.625 493.568 213.414 493.083 216.212 493.186C217.579 493.238 219.012 493.334 220.513 493.476C238.322 495.184 260.431 491.553 260.431 491.553L304.458 490.259Z" fill="#2F2E41"/>
<path d="M253.09 445.637C253.09 445.637 245.572 491.103 250.653 494.732C255.733 498.362 262.701 498.376 262.701 498.376L264.321 473.273L253.09 445.637Z" fill="#2F2E41"/>
<path d="M265.63 389.8L255.577 399.352C250.905 403.792 247.808 409.634 246.756 415.993C245.703 422.352 246.754 428.881 249.747 434.589L254.552 443.752L265.63 389.8Z" fill="#2F2E41"/>
<path d="M267.878 391.406L254.257 406.921C251.267 410.326 249.415 414.578 248.957 419.086C248.749 421.133 248.833 423.199 249.205 425.223L254.338 453.128L258.197 493.427C258.197 493.427 287.984 502.452 291.032 488.516C294.081 474.58 267.878 391.406 267.878 391.406Z" fill="#219EBC"/>
<path d="M260.111 480.241L255.756 470.224L252.06 444.111C251.859 442.591 255.995 417.729 261.983 391.055L269.261 380.867L273.459 377.019L285.416 384.858C289.73 387.139 299.161 416.921 293.356 437.997C291.359 445.247 294.85 454.272 295.388 460.934L303.676 481.298L305.638 493.075L305.339 493.189C305.04 493.304 300.244 493.951 280.663 497.215C264.439 499.918 273.323 486.615 260.111 480.241Z" fill="#2F2E41"/>
<path d="M221.783 469.298C222.378 468.405 223.162 467.653 224.079 467.096C224.996 466.539 226.024 466.189 227.091 466.072C228.157 465.955 229.237 466.073 230.253 466.419C231.269 466.764 232.197 467.328 232.972 468.07L248.334 461.335L254.704 469.673L232.875 478.879C231.542 480.098 229.807 480.785 228 480.81C226.194 480.835 224.441 480.197 223.074 479.016C221.706 477.835 220.82 476.193 220.582 474.402C220.344 472.611 220.771 470.795 221.783 469.298Z" fill="#A0616A"/>
<path d="M257.345 474.08L241.514 475.941L236.86 463.28L247.098 460.734L254.007 454.832L265.166 447.531C263.733 444.341 253.13 419.97 261.688 415.42C262.665 414.849 263.754 414.498 264.88 414.388C266.006 414.279 267.142 414.414 268.211 414.786C273.293 416.595 276.155 423.283 276.259 423.535L284.368 438.785C285.018 439.448 291.668 446.382 291.568 452.216C291.57 453.052 291.399 453.88 291.064 454.646C290.73 455.412 290.24 456.101 289.625 456.668C278.624 467.018 268.962 472.92 261.358 473.987C260.03 474.184 258.682 474.215 257.345 474.08Z" fill="#2F2E41"/>
<path d="M267.631 375.737C278.095 374.483 285.538 364.795 284.257 354.098C282.975 343.401 273.454 335.746 262.99 337C252.526 338.253 245.083 347.941 246.364 358.638C247.646 369.335 257.167 376.99 267.631 375.737Z" fill="#A0616A"/>
<path d="M315.002 341.894C311.332 338.524 309.204 333.725 306.118 329.769C303.033 325.812 298.095 322.532 293.481 324.092C290.3 325.167 288.124 328.348 287.232 331.711C286.34 335.073 286.525 338.642 286.717 342.136C285.942 335.001 280.419 328.655 273.679 327.156C270.264 326.485 266.725 326.916 263.571 328.385C260.416 329.855 257.81 332.287 256.126 335.332C254.155 333.901 251.728 333.243 249.305 333.481C246.881 333.72 244.629 334.84 242.976 336.629C241.398 338.573 240.526 340.994 240.5 343.498C240.475 346.002 241.299 348.441 242.837 350.417C244.421 352.272 246.627 353.486 249.043 353.829C251.458 354.173 253.916 353.623 255.954 352.283L257.622 353.485C257.409 355.008 257.74 356.558 258.554 357.862C259.369 359.167 260.616 360.144 262.078 360.622C264.421 361.257 267.558 360.729 268.675 362.974C269.456 364.543 268.573 366.423 267.562 367.821C266.551 369.22 265.327 370.685 265.397 372.444C265.501 375.099 268.439 376.615 270.975 376.874C274.075 377.117 277.178 376.428 279.885 374.898C282.592 373.367 284.781 371.063 286.171 368.281C286.225 368.172 286.285 368.062 286.35 367.951C287.981 365.257 289.046 362.26 289.479 359.141C289.912 356.022 289.704 352.848 288.869 349.812C288.531 348.62 288.617 347.693 289.42 347.305C292.891 345.628 303.346 347.023 306.698 349.014C310.05 351.005 312.882 353.831 316.139 355.988C319.397 358.145 323.397 359.63 327.069 358.497C328.536 357.954 329.88 357.122 331.021 356.051C332.162 354.98 333.077 353.691 333.711 352.26C335.007 349.341 335.866 346.247 336.26 343.078C333.108 345.321 329.286 346.426 325.423 346.211C321.561 345.996 317.886 344.473 315.002 341.894Z" fill="#2F2E41"/>
<path d="M317.888 468.852L317.878 468.839L317.888 468.865V468.852Z" fill="#2F2E41"/>
<path d="M193.762 377.748C185.551 379.007 177.151 377.803 169.624 374.289C162.098 370.774 155.782 365.106 151.477 358.002C147.171 350.898 145.069 342.677 145.436 334.378C145.803 326.08 148.622 318.076 153.538 311.38C158.454 304.683 165.244 299.595 173.052 296.758C180.859 293.922 189.332 293.464 197.4 295.442C205.468 297.421 212.768 301.748 218.376 307.875C223.985 314.003 227.651 321.656 228.91 329.867C229.746 335.319 229.5 340.882 228.186 346.238C226.872 351.595 224.516 356.641 221.252 361.087C217.988 365.533 213.881 369.293 209.164 372.151C204.447 375.01 199.213 376.912 193.762 377.748ZM181.332 296.696C173.512 297.895 166.223 301.386 160.388 306.727C154.552 312.069 150.431 319.021 148.547 326.705C146.662 334.388 147.098 342.458 149.8 349.894C152.502 357.329 157.348 363.797 163.725 368.478C170.102 373.16 177.725 375.845 185.628 376.194C193.532 376.544 201.362 374.542 208.127 370.441C214.893 366.341 220.291 360.326 223.638 353.158C226.985 345.99 228.132 337.99 226.933 330.17C226.137 324.978 224.325 319.993 221.603 315.501C218.88 311.009 215.3 307.097 211.065 303.988C206.831 300.88 202.025 298.636 196.924 297.385C191.822 296.133 186.524 295.899 181.332 296.696Z" fill="white"/>
<path d="M109.866 200.515C101.656 201.774 93.2558 200.57 85.7292 197.055C78.2026 193.54 71.8873 187.873 67.5818 180.769C63.2763 173.665 61.1741 165.444 61.541 157.145C61.9079 148.846 64.7274 140.843 69.6429 134.146C74.5585 127.45 81.3493 122.362 89.1567 119.525C96.9642 116.688 105.437 116.23 113.505 118.209C121.573 120.188 128.872 124.515 134.481 130.642C140.09 136.77 143.756 144.423 145.015 152.634C145.851 158.085 145.605 163.648 144.291 169.005C142.977 174.362 140.621 179.407 137.357 183.854C134.093 188.3 129.986 192.059 125.269 194.918C120.552 197.777 115.318 199.679 109.866 200.515ZM97.4367 119.462C89.6168 120.661 82.3282 124.153 76.4925 129.494C70.6568 134.836 66.5361 141.788 64.6515 149.471C62.7669 157.155 63.2031 165.225 65.9048 172.66C68.6066 180.096 73.4526 186.563 79.83 191.245C86.2074 195.926 93.8298 198.612 101.733 198.961C109.637 199.31 117.467 197.308 124.232 193.208C130.998 189.107 136.396 183.093 139.743 175.925C143.09 168.756 144.237 160.757 143.038 152.937C141.43 142.451 135.722 133.033 127.17 126.755C118.618 120.477 107.923 117.854 97.4367 119.462Z" fill="white"/>
<path d="M384.866 204.515C376.656 205.774 368.256 204.57 360.729 201.055C353.203 197.541 346.887 191.873 342.582 184.769C338.276 177.665 336.174 169.444 336.541 161.145C336.908 152.846 339.727 144.843 344.643 138.146C349.558 131.45 356.349 126.362 364.157 123.525C371.964 120.688 380.437 120.23 388.505 122.209C396.573 124.188 403.873 128.515 409.481 134.642C415.09 140.77 418.756 148.423 420.015 156.634C420.851 162.085 420.605 167.648 419.291 173.005C417.977 178.362 415.621 183.407 412.357 187.854C409.093 192.3 404.986 196.059 400.269 198.918C395.552 201.777 390.318 203.679 384.866 204.515ZM372.437 123.462C364.617 124.661 357.328 128.153 351.493 133.494C345.657 138.836 341.536 145.788 339.652 153.471C337.767 161.155 338.203 169.225 340.905 176.66C343.607 184.096 348.453 190.563 354.83 195.245C361.207 199.926 368.83 202.612 376.733 202.961C384.637 203.31 392.467 201.308 399.232 197.208C405.998 193.107 411.396 187.093 414.743 179.925C418.09 172.756 419.237 164.757 418.038 156.937C416.43 146.451 410.722 137.033 402.17 130.755C393.618 124.477 382.923 121.854 372.437 123.462Z" fill="white"/>
<path d="M622.867 227.515C614.656 228.774 606.256 227.57 598.729 224.055C591.203 220.54 584.887 214.873 580.582 207.769C576.276 200.665 574.174 192.444 574.541 184.145C574.908 175.846 577.727 167.843 582.643 161.146C587.558 154.45 594.349 149.362 602.157 146.525C609.964 143.688 618.437 143.23 626.505 145.209C634.573 147.188 641.873 151.515 647.481 157.642C653.09 163.77 656.756 171.423 658.015 179.634C659.703 190.644 656.949 201.874 650.357 210.854C643.765 219.833 633.877 225.826 622.867 227.515ZM610.437 146.462C602.617 147.661 595.328 151.153 589.493 156.494C583.657 161.836 579.536 168.788 577.652 176.471C575.767 184.155 576.203 192.225 578.905 199.66C581.607 207.096 586.453 213.563 592.83 218.245C599.207 222.926 606.83 225.612 614.733 225.961C622.637 226.31 630.467 224.308 637.232 220.208C643.998 216.107 649.396 210.093 652.743 202.925C656.09 195.756 657.237 187.757 656.038 179.937C654.43 169.451 648.722 160.033 640.17 153.755C631.618 147.477 620.923 144.854 610.437 146.462Z" fill="white"/>
<path d="M125.479 143.993L130.27 142.246C130.27 142.246 126.831 147.529 126.085 147.947C126.163 148.945 126.315 149.936 126.54 150.912C123.296 193.091 85.5466 180.467 85.5466 180.467C98.343 178.808 98.6269 173.403 98.6269 173.403C91.0468 173.453 88.8214 168.837 88.8214 168.837C89.5403 169.085 90.3258 169.06 91.0274 168.766C91.729 168.472 92.2973 167.929 92.6236 167.242C84.2989 166.394 84.1887 158.418 84.1887 158.418C85.7737 159.23 87.5406 159.621 89.32 159.554C88.2637 158.603 79.3721 150.76 83.2065 145.417C83.2065 145.417 90.2577 154.453 104.924 153.114L105.882 152.765C105.605 152.079 105.426 151.357 105.351 150.62C104.929 147.868 105.618 145.06 107.265 142.815C108.913 140.571 111.386 139.072 114.138 138.65C121.057 137.589 123.146 141.315 123.146 141.315L127.634 137.592C127.535 137.607 127.799 142.625 125.479 143.993Z" fill="white"/>
<path d="M386.658 140.729C389.424 140.313 392.243 141.009 394.498 142.664C396.754 144.32 398.262 146.801 398.695 149.565L401.895 170.436C402.311 173.202 401.615 176.021 399.96 178.276C398.304 180.532 395.823 182.04 393.059 182.473L372.189 185.673C369.422 186.089 366.603 185.393 364.348 183.738C362.092 182.082 360.584 179.601 360.152 176.837L356.951 155.966C356.535 153.2 357.231 150.381 358.886 148.126C360.542 145.87 363.023 144.362 365.787 143.929L386.658 140.729ZM386.018 136.555L365.147 139.755C361.277 140.36 357.804 142.472 355.486 145.63C353.169 148.787 352.195 152.733 352.777 156.606L355.978 177.477C356.583 181.347 358.694 184.82 361.852 187.138C365.009 189.456 368.955 190.43 372.829 189.847L393.699 186.646C397.569 186.041 401.042 183.93 403.36 180.772C405.678 177.615 406.652 173.669 406.069 169.795L402.868 148.925C402.264 145.055 400.152 141.582 396.994 139.264C393.837 136.947 389.891 135.972 386.018 136.555Z" fill="white"/>
<path d="M391.389 150.685C390.561 150.81 389.717 150.601 389.043 150.105C388.369 149.608 387.919 148.864 387.793 148.036C387.667 147.208 387.875 146.364 388.371 145.689C388.867 145.014 389.611 144.564 390.439 144.437C391.267 144.31 392.111 144.517 392.786 145.013C393.462 145.508 393.913 146.251 394.04 147.079C394.168 147.907 393.962 148.751 393.467 149.427C392.973 150.103 392.23 150.555 391.402 150.683L391.389 150.685Z" fill="white"/>
<path d="M378.143 154.852C379.794 154.599 381.483 154.841 382.997 155.548C384.511 156.255 385.781 157.394 386.647 158.823C387.512 160.252 387.935 161.905 387.861 163.574C387.788 165.243 387.221 166.853 386.232 168.199C385.243 169.546 383.878 170.569 382.308 171.14C380.738 171.71 379.033 171.802 377.411 171.404C375.789 171.006 374.32 170.136 373.192 168.904C372.065 167.672 371.327 166.133 371.074 164.481C370.906 163.385 370.955 162.266 371.22 161.189C371.484 160.112 371.958 159.097 372.614 158.203C373.271 157.308 374.097 156.552 375.045 155.977C375.994 155.403 377.046 155.02 378.143 154.852ZM377.503 150.678C375.026 151.058 372.717 152.164 370.869 153.855C369.021 155.547 367.715 157.749 367.119 160.183C366.522 162.616 366.66 165.172 367.515 167.528C368.371 169.883 369.906 171.931 371.926 173.414C373.946 174.897 376.36 175.747 378.864 175.858C381.367 175.969 383.847 175.334 385.99 174.036C388.133 172.737 389.842 170.832 390.902 168.562C391.963 166.291 392.326 163.757 391.946 161.281C391.437 157.959 389.629 154.976 386.92 152.988C384.212 151 380.824 150.169 377.503 150.678Z" fill="white"/>
<path d="M613.83 158.89C607.579 159.849 601.849 162.93 597.601 167.616C593.354 172.301 590.848 178.306 590.505 184.62C590.161 190.935 592.002 197.176 595.716 202.294C599.431 207.412 604.794 211.096 610.904 212.727C610.468 210.651 610.306 208.527 610.42 206.408C610.603 204.116 611.644 191.032 611.644 191.032C610.842 189.768 610.319 188.347 610.11 186.864C609.491 182.829 611.362 179.457 614.279 179.01C616.758 178.63 618.234 180.307 618.575 182.531C618.957 185.022 617.936 188.985 617.651 192.562C617.587 193.226 617.679 193.896 617.922 194.518C618.164 195.139 618.549 195.696 619.046 196.141C619.543 196.587 620.138 196.909 620.782 197.083C621.427 197.256 622.103 197.276 622.756 197.14C627.909 196.35 630.369 189.193 629.165 181.342C628.25 175.375 623.543 171.531 616.239 172.652C607.987 173.917 603.779 180.869 604.834 187.748C605.05 189.7 605.983 191.502 607.451 192.807C607.696 192.953 607.888 193.173 608 193.436C608.111 193.698 608.137 193.989 608.073 194.267C608.015 194.786 607.908 196.033 607.849 196.54C607.848 196.691 607.812 196.839 607.742 196.972C607.673 197.106 607.572 197.221 607.449 197.308C607.327 197.395 607.185 197.451 607.036 197.472C606.887 197.494 606.735 197.479 606.592 197.429C602.55 196.457 600.138 192.573 599.419 187.882C598.233 180.152 603.338 169.878 616.269 167.895C626.66 166.302 634.656 172.775 635.893 180.845C637.531 191.528 632.811 200.412 624.061 201.754C621.12 202.205 618.117 201.036 616.893 199.382C616.893 199.382 616.275 205.896 616.121 207.163C615.809 209.325 615.189 211.43 614.281 213.416C618.195 213.948 622.177 213.632 625.958 212.489C629.739 211.346 633.23 209.404 636.195 206.794C639.159 204.183 641.527 200.966 643.139 197.36C644.75 193.753 645.567 189.843 645.535 185.893C645.502 181.943 644.62 178.047 642.949 174.468C641.279 170.889 638.857 167.711 635.85 165.15C632.843 162.589 629.321 160.704 625.521 159.624C621.722 158.544 617.735 158.294 613.83 158.89Z" fill="white"/>
<path fill-rule="evenodd" clip-rule="evenodd" d="M214.559 332.234C213.763 327.048 211.497 322.199 208.031 318.261C204.564 314.322 200.041 311.459 194.998 310.011C189.955 308.563 184.603 308.591 179.575 310.09C174.547 311.589 170.054 314.498 166.627 318.471C163.201 322.445 160.985 327.317 160.242 332.511C159.498 337.705 160.259 343.003 162.433 347.778C164.607 352.553 168.104 356.606 172.509 359.455C176.915 362.305 182.044 363.832 187.291 363.857L184.383 344.894L177.49 345.951L176.287 338.104L183.18 337.047L182.262 331.066C181.22 324.266 184.696 319.885 190.894 318.934C192.934 318.651 194.992 318.516 197.051 318.533L198.076 325.213L194.652 325.738C191.283 326.254 190.549 328.507 190.879 330.656L191.659 335.747L199.186 334.593L199.187 342.625L192.863 343.595L195.771 362.559C202 360.569 207.315 356.421 210.759 350.862C214.203 345.304 215.551 338.698 214.559 332.234Z" fill="white"/>
<path d="M439.5 507.736L449.542 510.373L464.493 472.892L449.671 469L439.5 507.736Z" fill="#FFB6B6"/>
<path d="M435.5 517.219L466.382 525.329L466.485 524.938C467.322 521.75 466.858 518.36 465.196 515.514C463.534 512.668 460.809 510.599 457.622 509.761L453.104 504L441.455 505.516L438.759 504.808L435.5 517.219Z" fill="#2F2E41"/>
<path d="M495.502 512.05H505.884L510.824 472L495.5 472.001L495.502 512.05Z" fill="#FFB6B6"/>
<path d="M494.501 525.257L526.43 525.256V524.852C526.43 521.556 525.12 518.395 522.79 516.065C520.459 513.734 517.298 512.425 514.002 512.425L508.169 508L497.287 512.425L494.5 512.425L494.501 525.257Z" fill="#2F2E41"/>
<path d="M468.118 316.931C465.609 320.066 466.863 330.726 466.863 330.726C466.863 330.726 462.474 365.214 464.355 368.349C466.236 371.484 463.101 373.992 461.22 378.381C459.339 382.771 457.458 393.43 457.458 393.43C446.798 402.209 447.425 442.34 447.425 442.34L443.663 478.081C444.917 481.844 462.474 482.471 464.982 481.844C467.491 481.217 491.945 392.803 491.945 392.803C491.945 392.803 490.691 478.081 490.691 481.844C490.691 485.606 507.621 483.725 511.384 483.725C515.146 483.725 538.973 330.099 538.973 330.099V321.32L535.838 316.931C535.838 316.931 470.626 313.796 468.118 316.931Z" fill="#2F2E41"/>
<path d="M495.707 202.182C506.443 202.182 515.146 193.479 515.146 182.744C515.146 172.008 506.443 163.306 495.707 163.306C484.972 163.306 476.269 172.008 476.269 182.744C476.269 193.479 484.972 202.182 495.707 202.182Z" fill="#FFB6B6"/>
<path d="M469.592 330.799L469.486 330.65C463.823 322.722 472.339 303.673 473.624 300.911C472.099 300.416 470.792 299.408 469.927 298.058C469.062 296.708 468.691 295.1 468.878 293.507L469.432 288.8L470.009 284.184L465.875 280.049L465.863 279.946L463.483 259.125L460.024 245.296C458.72 240.068 458.831 234.587 460.346 229.416C461.86 224.246 464.723 219.571 468.641 215.872L476.638 214.603L486.357 205.238H502.03L507.404 210.373C517.97 219.033 520.478 215.271 532.392 231.574L523.862 254.048L528.63 287.195L528.633 293.194L531.116 295.954C532.011 296.948 532.661 298.138 533.014 299.427C533.368 300.717 533.416 302.072 533.153 303.383L532.827 305.016C534.089 305.557 535.203 306.393 536.076 307.453C536.948 308.513 537.554 309.768 537.841 311.11L538.714 315.18C539.46 316.165 544.385 322.733 544.385 324.528C544.385 324.798 544.186 325.058 543.759 325.347C540.403 327.62 521.85 332.254 513.638 328.968C504.892 325.471 470.123 330.717 469.772 330.771L469.592 330.799Z" fill="#219EBC"/>
<path d="M459.716 251.947L475.879 248.783C481.856 257.71 485.065 282.118 485.065 282.118L502.934 319.177C504.033 319.844 504.935 320.791 505.548 321.92C506.162 323.049 506.465 324.321 506.427 325.605C506.39 326.89 506.012 328.142 505.333 329.233C504.654 330.324 503.698 331.216 502.563 331.817C501.427 332.419 500.152 332.709 498.868 332.657C497.584 332.606 496.336 332.215 495.253 331.524C494.169 330.834 493.287 329.868 492.698 328.726C492.108 327.584 491.832 326.307 491.897 325.023L468.591 281.115L459.716 251.947Z" fill="#FFB6B6"/>
<path d="M459.626 255.782L459.166 231.76L466.772 221.584C468.273 219.592 470.3 218.059 472.626 217.159C474.952 216.259 477.484 216.027 479.934 216.49C483.252 217.14 486.2 219.025 488.18 221.765C490.161 224.505 491.028 227.895 490.605 231.249C489.314 241.421 486.383 254.151 479.752 257.031L479.685 257.06L486.557 281.095L461.071 284.655L459.626 255.782Z" fill="#219EBC"/>
<path d="M563.909 235.474C563.909 235.474 539.792 230.53 529.403 233.262L527.111 249.571L556.529 252.183L606.741 243.056C607.934 243.527 609.231 243.675 610.499 243.483C611.768 243.292 612.963 242.768 613.964 241.965C614.965 241.162 615.735 240.109 616.198 238.912C616.66 237.715 616.797 236.417 616.595 235.15C616.393 233.883 615.86 232.692 615.049 231.698C614.238 230.703 613.179 229.941 611.978 229.489C610.778 229.037 609.479 228.91 608.213 229.122C606.948 229.334 605.761 229.876 604.773 230.695L563.909 235.474Z" fill="#FFB6B6"/>
<path d="M534.707 253.39L510.825 250.757L501.712 241.906C499.93 240.161 498.67 237.953 498.077 235.531C497.483 233.109 497.579 230.569 498.353 228.198C499.424 224.991 501.673 222.311 504.645 220.699C507.617 219.087 511.09 218.663 514.362 219.514C524.283 222.102 534.211 219.688 536.215 226.634L539.79 225.464L563.273 229.938L563.526 255.67L534.707 253.39Z" fill="#219EBC"/>
<path d="M473.659 169.972C475.842 166.595 479.938 164.344 483.908 164.977C484.278 162.443 485.336 160.058 486.966 158.084C488.597 156.109 490.738 154.62 493.157 153.778C495.575 152.936 498.179 152.774 500.683 153.309C503.187 153.844 505.497 155.056 507.36 156.813C507.973 156.381 508.687 156.115 509.432 156.041C510.178 155.966 510.93 156.085 511.617 156.387C512.983 157.008 514.172 157.963 515.074 159.162C517.353 162.004 518.818 165.41 519.315 169.018C519.811 172.626 519.319 176.301 517.893 179.653C518.378 177.888 516.61 176.229 514.824 175.833C513.037 175.437 511.164 175.811 509.352 175.554C507.03 175.223 504.943 173.876 502.618 173.573C500.646 173.445 498.668 173.699 496.793 174.322C494.918 174.944 492.942 175.21 490.97 175.104C489.012 174.872 486.491 182.289 486.525 187.513C486.532 188.503 486.328 189.774 485.36 189.984C484.169 190.243 483.478 188.598 482.344 188.15C481.821 188 481.261 188.059 480.781 188.314C480.301 188.57 479.939 189.001 479.771 189.518C479.628 190.044 479.612 190.596 479.726 191.129C479.84 191.662 480.079 192.16 480.424 192.582C481.121 193.417 481.948 194.135 482.874 194.707L482.407 195.096C481.964 195.564 481.372 195.864 480.731 195.943C480.091 196.023 479.444 195.877 478.899 195.532C477.828 194.806 476.961 193.819 476.38 192.664C474.191 189.279 472.627 185.529 471.76 181.593C470.905 177.618 471.584 173.467 473.659 169.972Z" fill="#2F2E41"/>
<path d="M714.33 509.08L706.62 496.69L705.08 503.77C704.81 505.01 704.54 506.27 704.29 507.52C702.1 505.65 699.77 503.92 697.49 502.26C690.49 497.18 683.493 492.093 676.5 487L678.69 499.7C680.04 507.52 681.45 515.5 684.79 522.65C685.16 523.46 685.56 524.26 685.99 525.04H718.53C718.792 524.315 718.973 523.564 719.07 522.8C719.078 522.75 719.082 522.7 719.08 522.65C719.59 517.8 716.91 513.23 714.33 509.08Z" fill="#F0F0F0"/>
<path d="M555.866 105.515C547.656 106.774 539.256 105.57 531.729 102.055C524.203 98.5405 517.887 92.8728 513.582 85.7688C509.276 78.6649 507.174 70.4438 507.541 62.145C507.908 53.8463 510.727 45.8428 515.643 39.1465C520.558 32.4502 527.349 27.3619 535.157 24.5251C542.964 21.6882 551.437 21.2303 559.505 23.2091C567.573 25.1879 574.873 29.5147 580.481 35.6421C586.09 41.7696 589.756 49.4227 591.015 57.6335C591.851 63.0853 591.605 68.6484 590.291 74.0051C588.977 79.3618 586.621 84.4074 583.357 88.8535C580.093 93.2997 575.986 97.0595 571.269 99.9182C566.552 102.777 561.318 104.679 555.866 105.515ZM543.437 24.4622C535.617 25.6614 528.328 29.1526 522.493 34.4942C516.657 39.8357 512.536 46.7878 510.652 54.4713C508.767 62.1548 509.203 70.2246 511.905 77.6603C514.607 85.0959 519.453 91.5634 525.83 96.2449C532.207 100.926 539.83 103.612 547.733 103.961C555.637 104.31 563.467 102.308 570.232 98.2078C576.998 94.1074 582.396 88.0927 585.743 80.9245C589.09 73.7563 590.237 65.7565 589.038 57.9367C587.43 47.4506 581.722 38.0328 573.17 31.7552C564.618 25.4775 553.923 22.8541 543.437 24.4622Z" fill="white"/>
<path d="M571.089 43.9626L534.422 38.5597C533.479 38.3738 532.501 38.5698 531.703 39.1048C530.905 39.6398 530.353 40.4698 530.167 41.4124L530.164 41.4282L524.749 78.1768C524.628 79.1691 524.893 80.1699 525.488 80.9731C526.083 81.7763 526.964 82.3209 527.948 82.4948L564.604 87.8961C565.575 88.0004 566.547 87.7182 567.31 87.1107C568.074 86.5032 568.567 85.6193 568.684 84.6505L574.099 47.902C574.245 47.011 574.032 46.0983 573.506 45.3646C572.979 44.6309 572.183 44.1364 571.292 43.9898C571.225 43.9787 571.157 43.9697 571.089 43.9626ZM538.89 76.6353L532.596 75.7079L535.48 56.1382L541.774 57.0656L538.89 76.6353ZM539.283 53.6586L539.238 53.6519C538.333 53.5126 537.521 53.0205 536.978 52.2832C536.436 51.5459 536.208 50.6236 536.344 49.7185C536.48 48.8134 536.97 47.9992 537.705 47.4543C538.441 46.9094 539.362 46.6783 540.268 46.8116C541.173 46.9449 541.989 47.4317 542.537 48.1654C543.084 48.8991 543.318 49.8198 543.188 50.7259C543.057 51.6319 542.573 52.4493 541.841 52.999C541.109 53.5487 540.189 53.7859 539.283 53.6586ZM561.893 80.0249L555.599 79.0974L557.176 68.3971C557.554 65.8335 556.896 63.9471 554.619 63.6116C553.906 63.5122 553.179 63.6366 552.54 63.9676C551.901 64.2985 551.38 64.8197 551.049 65.4592C550.808 65.9318 550.657 66.445 550.603 66.9727L548.961 78.1193L542.667 77.1919L545.551 57.6221L551.845 58.5496L551.443 61.273C552.162 60.3661 553.113 59.6698 554.194 59.2572C555.275 58.8445 556.448 58.7308 557.588 58.928C561.72 59.5367 564.444 62.7207 563.579 68.5921L561.893 80.0249Z" fill="white"/>
</g>
<defs>
<clipPath id="clip0_238_423">
<rect width="741" height="618" fill="white" transform="translate(-13.5)"/>
</clipPath>
</defs>
</svg>
