<svg width="325" height="510" viewBox="0 0 325 510" fill="none" xmlns="http://www.w3.org/2000/svg">
<rect x="2.5" y="2.5" width="320" height="505" rx="17.5" fill="white"/>
<rect x="2.5" y="2.5" width="320" height="505" rx="17.5" stroke="#219EBC" stroke-width="5"/>
<path d="M209.169 153.323C221.687 153.323 231.835 143.175 231.835 130.656C231.835 118.138 221.687 107.99 209.169 107.99C196.65 107.99 186.502 118.138 186.502 130.656C186.502 143.175 196.65 153.323 209.169 153.323Z" fill="#219EBC"/>
<path d="M213.702 164.656H111.702C102.685 164.656 94.0368 161.074 87.6605 154.698C81.2843 148.321 77.7021 139.673 77.7021 130.656C77.7021 121.639 81.2843 112.991 87.6605 106.614C94.0368 100.238 102.685 96.656 111.702 96.656H213.702C222.72 96.656 231.368 100.238 237.744 106.614C244.12 112.991 247.702 121.639 247.702 130.656C247.702 139.673 244.12 148.321 237.744 154.698C231.368 161.074 222.72 164.656 213.702 164.656ZM111.702 101.189C103.887 101.189 96.3921 104.294 90.866 109.82C85.34 115.346 82.2355 122.841 82.2355 130.656C82.2355 138.471 85.34 145.966 90.866 151.492C96.3921 157.018 103.887 160.123 111.702 160.123H213.702C221.517 160.123 229.012 157.018 234.538 151.492C240.064 145.966 243.169 138.471 243.169 130.656C243.169 122.841 240.064 115.346 234.538 109.82C229.012 104.294 221.517 101.189 213.702 101.189H111.702Z" fill="#219EBC"/>
<path d="M115.376 278.101C127.894 278.101 138.042 267.953 138.042 255.434C138.042 242.916 127.894 232.768 115.376 232.768C102.857 232.768 92.709 242.916 92.709 255.434C92.709 267.953 102.857 278.101 115.376 278.101Z" fill="#E6E6E6"/>
<path d="M213.702 289.435H111.702C102.685 289.435 94.0368 285.852 87.6605 279.476C81.2843 273.1 77.7021 264.452 77.7021 255.435C77.7021 246.417 81.2843 237.769 87.6605 231.393C94.0368 225.017 102.685 221.435 111.702 221.435H213.702C222.72 221.435 231.368 225.017 237.744 231.393C244.12 237.769 247.702 246.417 247.702 255.435C247.702 264.452 244.12 273.1 237.744 279.476C231.368 285.852 222.72 289.435 213.702 289.435ZM111.702 225.968C103.887 225.968 96.3922 229.072 90.8661 234.598C85.34 240.125 82.2355 247.62 82.2355 255.435C82.2355 263.25 85.34 270.745 90.8661 276.271C96.3922 281.797 103.887 284.901 111.702 284.901H213.702C221.517 284.901 229.012 281.797 234.538 276.271C240.064 270.745 243.169 263.25 243.169 255.435C243.169 247.62 240.064 240.125 234.538 234.598C229.012 229.072 221.517 225.968 213.702 225.968H111.702Z" fill="#E6E6E6"/>
<path d="M115.376 402.879C127.894 402.879 138.042 392.731 138.042 380.213C138.042 367.694 127.894 357.546 115.376 357.546C102.857 357.546 92.709 367.694 92.709 380.213C92.709 392.731 102.857 402.879 115.376 402.879Z" fill="#E6E6E6"/>
<path d="M213.702 414.213H111.702C102.685 414.213 94.0368 410.631 87.6605 404.255C81.2843 397.878 77.7021 389.23 77.7021 380.213C77.7021 371.196 81.2843 362.548 87.6605 356.171C94.0368 349.795 102.685 346.213 111.702 346.213H213.702C222.72 346.213 231.368 349.795 237.744 356.171C244.12 362.548 247.702 371.196 247.702 380.213C247.702 389.23 244.12 397.878 237.744 404.255C231.368 410.631 222.72 414.213 213.702 414.213ZM111.702 350.746C103.887 350.746 96.3921 353.851 90.866 359.377C85.34 364.903 82.2355 372.398 82.2355 380.213C82.2355 388.028 85.34 395.523 90.866 401.049C96.3921 406.575 103.887 409.68 111.702 409.68H213.702C217.572 409.68 221.403 408.917 224.979 407.437C228.554 405.956 231.802 403.785 234.538 401.049C237.274 398.313 239.445 395.064 240.926 391.489C242.407 387.914 243.169 384.083 243.169 380.213C243.169 376.343 242.407 372.512 240.926 368.936C239.445 365.361 237.274 362.113 234.538 359.377C231.802 356.641 228.554 354.47 224.979 352.989C221.403 351.508 217.572 350.746 213.702 350.746H111.702Z" fill="#E6E6E6"/>
</svg>
