<svg width="332" height="680" viewBox="0 0 332 680" fill="none" xmlns="http://www.w3.org/2000/svg">
<g clip-path="url(#clip0_707_275)">
<path d="M338.805 161.594H335.069V59.24C335.069 43.5286 328.828 28.4607 317.718 17.351C306.609 6.24134 291.541 0 275.829 0H58.9834C43.272 0 28.2041 6.24134 17.0944 17.351C5.98477 28.4607 -0.256592 43.5286 -0.256592 59.24V620.761C-0.256592 636.472 5.98477 651.54 17.0944 662.65C28.2041 673.76 43.272 680.001 58.9834 680.001H275.833C291.545 680.001 306.613 673.76 317.722 662.65C328.832 651.54 335.073 636.472 335.073 620.761V234.451H338.805V161.594Z" fill="#219EBC"/>
<path d="M322.995 55.2761V624.728C322.994 636.64 318.261 648.064 309.839 656.488C301.417 664.912 289.994 669.647 278.082 669.651H56.7765C44.8593 669.652 33.4297 664.919 25.0018 656.494C16.5739 648.068 11.8378 636.64 11.8354 624.723V55.2761C11.8392 43.3599 16.5758 31.9331 25.0036 23.5088C33.4314 15.0846 44.8602 10.3528 56.7765 10.3541H83.6214C82.3034 13.5957 81.8018 17.1114 82.1607 20.5923C82.5196 24.0732 83.728 27.4126 85.6798 30.317C87.6316 33.2215 90.2669 35.602 93.3542 37.2495C96.4414 38.8969 99.8861 39.7607 103.385 39.7651H229.553C233.053 39.7604 236.498 38.896 239.585 37.2481C242.672 35.6002 245.307 33.2192 247.259 30.3143C249.21 27.4094 250.418 24.0696 250.776 20.5885C251.135 17.1074 250.632 13.5916 249.313 10.3501H278.069C289.981 10.3522 301.405 15.0845 309.829 23.5066C318.252 31.9287 322.987 43.3513 322.991 55.2631L322.995 55.2761Z" fill="#E6E6E6"/>
<path d="M299.415 639.926H35.4153C33.1617 639.923 31.0012 639.027 29.4077 637.433C27.8141 635.84 26.9178 633.679 26.9153 631.426V76.4258C26.9178 74.1722 27.8141 72.0117 29.4077 70.4182C31.0012 68.8246 33.1617 67.9283 35.4153 67.9258H299.415C301.669 67.9283 303.829 68.8246 305.423 70.4182C307.016 72.0117 307.913 74.1722 307.915 76.4258V631.426C307.913 633.679 307.016 635.84 305.423 637.433C303.829 639.027 301.669 639.923 299.415 639.926Z" fill="white"/>
<path d="M166.415 255.306C206.586 255.306 239.151 222.741 239.151 182.57C239.151 142.399 206.586 109.834 166.415 109.834C126.244 109.834 93.6792 142.399 93.6792 182.57C93.6792 222.741 126.244 255.306 166.415 255.306Z" fill="#E6E6E6"/>
<path d="M165.415 245.46C200.148 245.46 228.304 217.303 228.304 182.571C228.304 147.838 200.148 119.682 165.415 119.682C130.683 119.682 102.526 147.838 102.526 182.571C102.526 217.303 130.683 245.46 165.415 245.46Z" fill="white"/>
<path d="M166.815 146.901C159.724 146.901 152.791 149.004 146.895 152.944C140.998 156.884 136.402 162.484 133.689 169.035C130.975 175.587 130.265 182.797 131.648 189.752C133.032 196.707 136.447 203.096 141.461 208.111C146.476 213.125 152.865 216.54 159.82 217.924C166.775 219.307 173.985 218.597 180.537 215.883C187.089 213.17 192.689 208.574 196.628 202.677C200.568 196.781 202.671 189.849 202.671 182.757C202.671 173.247 198.894 164.127 192.169 157.403C185.445 150.679 176.325 146.901 166.815 146.901ZM166.815 157.658C168.943 157.658 171.023 158.289 172.792 159.471C174.56 160.653 175.939 162.333 176.753 164.298C177.568 166.264 177.781 168.427 177.366 170.513C176.95 172.6 175.926 174.517 174.422 176.021C172.917 177.526 171 178.55 168.914 178.965C166.827 179.38 164.664 179.167 162.699 178.353C160.733 177.539 159.053 176.16 157.871 174.391C156.689 172.622 156.058 170.542 156.058 168.415C156.058 167.002 156.337 165.603 156.877 164.298C157.418 162.993 158.21 161.807 159.209 160.809C160.208 159.81 161.394 159.017 162.699 158.477C164.004 157.936 165.403 157.658 166.815 157.658ZM166.815 209.442C162.566 209.423 158.385 208.367 154.636 206.366C150.887 204.365 147.683 201.48 145.301 197.961C145.473 190.79 159.643 186.842 166.815 186.842C173.987 186.842 188.156 190.79 188.329 197.961C185.945 201.478 182.741 204.362 178.992 206.363C175.244 208.364 171.064 209.422 166.815 209.445V209.442Z" fill="#219EBC"/>
<path d="M226.443 279.75H100.605V289.208H226.443V279.75Z" fill="#E6E6E6"/>
<path d="M242.136 304.327H83.7683V313.785H242.136V304.327Z" fill="#E6E6E6"/>
<path d="M278.962 374.923H55.8684V598.017H278.962V374.923Z" fill="#E6E6E6"/>
<path d="M273.07 379.643H59.4153V593.298H273.07V379.643Z" fill="white"/>
<path d="M186.583 400.267H103.415V406.518H186.583V400.267Z" fill="#E6E6E6"/>
<path d="M231.844 418.619H103.415V424.87H231.844V418.619Z" fill="#219EBC"/>
<path d="M209.417 436.096H104.75V442.347H209.417V436.096Z" fill="#E6E6E6"/>
<path d="M164.518 455.271H103.415V461.522H164.518V455.271Z" fill="#E6E6E6"/>
<path d="M195.635 474.002H103.415V480.253H195.635V474.002Z" fill="#219EBC"/>
<path d="M186.583 492.851H103.415V499.102H186.583V492.851Z" fill="#E6E6E6"/>
<path d="M231.844 511.202H103.415V517.453H231.844V511.202Z" fill="#219EBC"/>
<path d="M209.417 528.679H104.75V534.93H209.417V528.679Z" fill="#E6E6E6"/>
<path d="M164.518 547.855H103.415V554.107H164.518V547.855Z" fill="#E6E6E6"/>
<path d="M195.635 566.586H103.415V572.837H195.635V566.586Z" fill="#E6E6E6"/>
</g>
<defs>
<clipPath id="clip0_707_275">
<rect width="332" height="680" fill="white"/>
</clipPath>
</defs>
</svg>
