<svg width="36" height="36" viewBox="0 0 36 36" fill="none" xmlns="http://www.w3.org/2000/svg">
<path d="M26.512 9.75H26.497M25 18C25 19.7902 24.2888 21.5071 23.023 22.773C21.7571 24.0388 20.0402 24.75 18.25 24.75C16.4598 24.75 14.7429 24.0388 13.477 22.773C12.2112 21.5071 11.5 19.7902 11.5 18C11.5 16.2098 12.2112 14.4929 13.477 13.227C14.7429 11.9612 16.4598 11.25 18.25 11.25C20.0402 11.25 21.7571 11.9612 23.023 13.227C24.2888 14.4929 25 16.2098 25 18Z" stroke="black" stroke-width="1.5" stroke-linecap="round" stroke-linejoin="round"/>
<path d="M4 18C4 11.283 4 7.923 6.0865 5.8365C8.173 3.75 11.5315 3.75 18.25 3.75C24.967 3.75 28.327 3.75 30.4135 5.8365C32.5 7.923 32.5 11.2815 32.5 18C32.5 24.717 32.5 28.077 30.4135 30.1635C28.327 32.25 24.9685 32.25 18.25 32.25C11.533 32.25 8.173 32.25 6.0865 30.1635C4 28.077 4 24.7185 4 18Z" stroke="black" stroke-width="1.5" stroke-linecap="round" stroke-linejoin="round"/>
</svg>
