<svg width="36" height="36" viewBox="0 0 36 36" fill="none" xmlns="http://www.w3.org/2000/svg">
<g clip-path="url(#clip0_325_191)">
<path d="M28.825 7.36509C27.4498 5.97598 25.8117 4.87459 24.0064 4.12517C22.2011 3.37574 20.2646 2.99328 18.31 3.00009C10.12 3.00009 3.44495 9.67509 3.44495 17.8651C3.44495 20.4901 4.13495 23.0401 5.42495 25.2901L3.32495 33.0001L11.2 30.9301C13.375 32.1151 15.82 32.7451 18.31 32.7451C26.5 32.7451 33.175 26.0701 33.175 17.8801C33.175 13.9051 31.63 10.1701 28.825 7.36509ZM18.31 30.2251C16.09 30.2251 13.915 29.6251 12.01 28.5001L11.56 28.2301L6.87995 29.4601L8.12495 24.9001L7.82495 24.4351C6.59157 22.4655 5.93666 20.189 5.93495 17.8651C5.93495 11.0551 11.485 5.50509 18.295 5.50509C21.5949 5.50509 24.7 6.79509 27.025 9.13509C28.1762 10.281 29.0885 11.6441 29.709 13.1452C30.3296 14.6464 30.646 16.2558 30.64 17.8801C30.67 24.6901 25.12 30.2251 18.31 30.2251ZM25.09 20.9851C24.715 20.8051 22.885 19.9051 22.555 19.7701C22.21 19.6501 21.97 19.5901 21.715 19.9501C21.46 20.3251 20.7549 21.1651 20.545 21.4051C20.335 21.6601 20.11 21.6901 19.735 21.4951C19.36 21.3151 18.16 20.9101 16.75 19.6501C15.64 18.6601 14.905 17.4451 14.68 17.0701C14.47 16.6951 14.65 16.5001 14.8449 16.3051C15.01 16.1401 15.22 15.8701 15.4 15.6601C15.58 15.4501 15.655 15.2851 15.775 15.0451C15.895 14.7901 15.835 14.5801 15.745 14.4001C15.655 14.2201 14.905 12.3901 14.6049 11.6401C14.305 10.9201 13.99 11.0101 13.765 10.9951H13.045C12.79 10.9951 12.4 11.0851 12.055 11.4601C11.725 11.8351 10.765 12.7351 10.765 14.5651C10.765 16.3951 12.1 18.1651 12.28 18.4051C12.46 18.6601 14.905 22.4101 18.625 24.0151C19.51 24.4051 20.2 24.6301 20.74 24.7951C21.625 25.0801 22.435 25.0351 23.08 24.9451C23.8 24.8401 25.285 24.0451 25.5849 23.1751C25.9 22.3051 25.9 21.5701 25.795 21.4051C25.69 21.2401 25.465 21.1651 25.09 20.9851Z" fill="black"/>
</g>
<defs>
<clipPath id="clip0_325_191">
<rect width="36" height="36" fill="white"/>
</clipPath>
</defs>
</svg>
