<svg width="36" height="36" viewBox="0 0 36 36" fill="none" xmlns="http://www.w3.org/2000/svg">
<g clip-path="url(#clip0_325_179)">
<path d="M18.25 3C9.97 3 3.25 9.72 3.25 18C3.25 26.28 9.97 33 18.25 33C26.53 33 33.25 26.28 33.25 18C33.25 9.72 26.53 3 18.25 3ZM25.21 13.2C24.985 15.57 24.01 21.33 23.515 23.985C23.305 25.11 22.885 25.485 22.495 25.53C21.625 25.605 20.965 24.96 20.125 24.405C18.805 23.535 18.055 22.995 16.78 22.155C15.295 21.18 16.255 20.64 17.11 19.77C17.335 19.545 21.175 16.05 21.25 15.735C21.2604 15.6873 21.259 15.6378 21.246 15.5907C21.2329 15.5437 21.2085 15.5005 21.175 15.465C21.085 15.39 20.965 15.42 20.86 15.435C20.725 15.465 18.625 16.86 14.53 19.62C13.93 20.025 13.39 20.235 12.91 20.22C12.37 20.205 11.35 19.92 10.585 19.665C9.64 19.365 8.905 19.2 8.965 18.675C8.995 18.405 9.37 18.135 10.075 17.85C14.455 15.945 17.365 14.685 18.82 14.085C22.99 12.345 23.845 12.045 24.415 12.045C24.535 12.045 24.82 12.075 25 12.225C25.15 12.345 25.195 12.51 25.21 12.63C25.195 12.72 25.225 12.99 25.21 13.2Z" fill="black"/>
</g>
<defs>
<clipPath id="clip0_325_179">
<rect width="36" height="36" fill="white"/>
</clipPath>
</defs>
</svg>
