<svg width="36" height="36" viewBox="0 0 36 36" fill="none" xmlns="http://www.w3.org/2000/svg">
<g clip-path="url(#clip0_325_183)">
<path d="M28.75 4.5C29.5456 4.5 30.3087 4.81607 30.8713 5.37868C31.4339 5.94129 31.75 6.70435 31.75 7.5V28.5C31.75 29.2956 31.4339 30.0587 30.8713 30.6213C30.3087 31.1839 29.5456 31.5 28.75 31.5H7.75C6.95435 31.5 6.19129 31.1839 5.62868 30.6213C5.06607 30.0587 4.75 29.2956 4.75 28.5V7.5C4.75 6.70435 5.06607 5.94129 5.62868 5.37868C6.19129 4.81607 6.95435 4.5 7.75 4.5H28.75ZM28 27.75V19.8C28 18.5031 27.4848 17.2593 26.5678 16.3422C25.6507 15.4252 24.4069 14.91 23.11 14.91C21.835 14.91 20.35 15.69 19.63 16.86V15.195H15.445V27.75H19.63V20.355C19.63 19.2 20.56 18.255 21.715 18.255C22.272 18.255 22.8061 18.4762 23.1999 18.8701C23.5938 19.2639 23.815 19.798 23.815 20.355V27.75H28ZM10.57 12.84C11.2383 12.84 11.8793 12.5745 12.3519 12.1019C12.8245 11.6293 13.09 10.9883 13.09 10.32C13.09 8.925 11.965 7.785 10.57 7.785C9.89768 7.785 9.25289 8.05208 8.77748 8.52748C8.30208 9.00289 8.035 9.64768 8.035 10.32C8.035 11.715 9.175 12.84 10.57 12.84ZM12.655 27.75V15.195H8.5V27.75H12.655Z" fill="black"/>
</g>
<defs>
<clipPath id="clip0_325_183">
<rect width="36" height="36" fill="white"/>
</clipPath>
</defs>
</svg>
