<svg width="1245" height="341" viewBox="0 0 1245 341" fill="none" xmlns="http://www.w3.org/2000/svg">
<path d="M1186.5 196.5V263.5H1201.5V235.5H1216.81C1219.52 235.5 1222.15 236.423 1224.27 238.119V238.119C1226.96 240.268 1228.59 243.471 1228.75 246.907L1229.5 263.5H1244.5V196.5H1229.5V222.5H1207.5C1205.61 222.5 1203.83 221.611 1202.7 220.1V220.1C1201.92 219.061 1201.5 217.798 1201.5 216.5V196.5H1186.5Z" fill="#023047"/>
<path d="M274.164 310.695L278.962 293.828H281.286L279.941 300.386L274.778 318H272.471L274.164 310.695ZM269.2 293.828L273.019 310.363L274.164 318H271.873L266.013 293.828H269.2ZM287.495 310.347L291.23 293.828H294.435L288.591 318H286.3L287.495 310.347ZM281.635 293.828L286.3 310.695L287.993 318H285.686L280.705 300.386L279.344 293.828H281.635ZM314.534 315.394V318H301.734V315.394H314.534ZM302.381 293.828V318H299.177V293.828H302.381ZM312.84 304.221V306.827H301.734V304.221H312.84ZM314.368 293.828V296.451H301.734V293.828H314.368ZM329.315 293.828H337.317C339.132 293.828 340.665 294.105 341.916 294.658C343.177 295.212 344.135 296.031 344.788 297.115C345.452 298.189 345.784 299.511 345.784 301.083C345.784 302.19 345.557 303.202 345.103 304.121C344.66 305.029 344.019 305.803 343.177 306.445C342.347 307.076 341.351 307.547 340.189 307.856L339.293 308.205H331.772L331.739 305.599H337.417C338.568 305.599 339.525 305.399 340.289 305.001C341.052 304.591 341.628 304.044 342.015 303.357C342.403 302.671 342.596 301.913 342.596 301.083C342.596 300.153 342.414 299.34 342.049 298.643C341.683 297.945 341.108 297.409 340.322 297.032C339.547 296.645 338.546 296.451 337.317 296.451H332.519V318H329.315V293.828ZM343.443 318L337.566 307.043L340.903 307.026L346.863 317.801V318H343.443ZM354.893 293.828V318H351.689V293.828H354.893ZM374.793 311.891C374.793 311.326 374.704 310.828 374.527 310.396C374.361 309.954 374.062 309.555 373.631 309.201C373.21 308.847 372.623 308.509 371.871 308.188C371.129 307.868 370.189 307.541 369.049 307.209C367.853 306.855 366.774 306.462 365.811 306.03C364.848 305.588 364.024 305.084 363.338 304.52C362.651 303.955 362.126 303.308 361.761 302.577C361.395 301.847 361.213 301.011 361.213 300.07C361.213 299.13 361.406 298.261 361.794 297.464C362.181 296.667 362.735 295.975 363.454 295.389C364.184 294.791 365.053 294.326 366.06 293.994C367.068 293.662 368.191 293.496 369.43 293.496C371.246 293.496 372.784 293.845 374.046 294.542C375.318 295.228 376.287 296.13 376.951 297.248C377.615 298.355 377.947 299.539 377.947 300.801H374.76C374.76 299.893 374.566 299.091 374.179 298.394C373.791 297.685 373.205 297.132 372.419 296.733C371.633 296.324 370.637 296.119 369.43 296.119C368.29 296.119 367.35 296.291 366.608 296.634C365.867 296.977 365.313 297.442 364.948 298.028C364.594 298.615 364.417 299.285 364.417 300.037C364.417 300.546 364.522 301.011 364.732 301.432C364.954 301.841 365.291 302.223 365.745 302.577C366.21 302.931 366.796 303.258 367.505 303.557C368.224 303.855 369.082 304.143 370.078 304.42C371.45 304.807 372.635 305.239 373.631 305.715C374.627 306.191 375.446 306.728 376.088 307.325C376.741 307.912 377.222 308.581 377.532 309.334C377.853 310.076 378.013 310.917 378.013 311.857C378.013 312.842 377.814 313.733 377.416 314.53C377.017 315.327 376.447 316.008 375.706 316.572C374.964 317.137 374.073 317.574 373.033 317.884C372.004 318.183 370.853 318.332 369.58 318.332C368.462 318.332 367.361 318.177 366.276 317.867C365.203 317.557 364.223 317.092 363.338 316.473C362.463 315.853 361.761 315.089 361.229 314.182C360.709 313.263 360.449 312.201 360.449 310.994H363.637C363.637 311.824 363.797 312.538 364.118 313.136C364.439 313.722 364.876 314.209 365.429 314.597C365.994 314.984 366.63 315.272 367.339 315.46C368.058 315.637 368.805 315.726 369.58 315.726C370.698 315.726 371.644 315.571 372.419 315.261C373.193 314.951 373.78 314.508 374.179 313.933C374.588 313.357 374.793 312.676 374.793 311.891ZM398.644 315.394V318H385.844V315.394H398.644ZM386.492 293.828V318H383.287V293.828H386.492ZM396.951 304.221V306.827H385.844V304.221H396.951ZM398.478 293.828V296.451H385.844V293.828H398.478ZM422.041 306.694H415.916L415.882 304.121H421.444C422.362 304.121 423.165 303.966 423.851 303.656C424.537 303.346 425.069 302.904 425.445 302.328C425.832 301.742 426.026 301.044 426.026 300.236C426.026 299.351 425.854 298.632 425.511 298.078C425.179 297.514 424.665 297.104 423.967 296.85C423.281 296.584 422.407 296.451 421.344 296.451H416.629V318H413.425V293.828H421.344C422.584 293.828 423.691 293.955 424.665 294.21C425.638 294.453 426.463 294.841 427.138 295.372C427.824 295.892 428.345 296.556 428.699 297.364C429.053 298.172 429.23 299.141 429.23 300.27C429.23 301.266 428.975 302.168 428.466 302.976C427.957 303.772 427.249 304.425 426.341 304.935C425.445 305.444 424.393 305.77 423.187 305.914L422.041 306.694ZM421.892 318H414.654L416.463 315.394H421.892C422.91 315.394 423.774 315.216 424.482 314.862C425.201 314.508 425.749 314.01 426.125 313.368C426.502 312.715 426.69 311.946 426.69 311.061C426.69 310.164 426.529 309.389 426.208 308.736C425.888 308.083 425.384 307.58 424.698 307.226C424.012 306.871 423.126 306.694 422.041 306.694H417.476L417.509 304.121H423.751L424.432 305.051C425.594 305.15 426.579 305.482 427.387 306.047C428.195 306.6 428.809 307.309 429.23 308.172C429.662 309.035 429.877 309.987 429.877 311.027C429.877 312.533 429.545 313.805 428.881 314.846C428.228 315.875 427.304 316.661 426.109 317.203C424.914 317.734 423.508 318 421.892 318ZM435.981 293.828L442.257 305.964L448.549 293.828H452.185L443.851 308.969V318H440.647V308.969L432.313 293.828H435.981ZM480.762 315.394V318H468.676V315.394H480.762ZM469.307 293.828V318H466.103V293.828H469.307ZM489.057 293.828V318H485.853V293.828H489.057ZM499.279 293.828V318H496.074V293.828H499.279ZM509.406 304.702V307.325H498.581V304.702H509.406ZM511.049 293.828V296.451H498.581V293.828H511.049ZM525.321 293.828V318H522.167V293.828H525.321ZM533.091 293.828V296.451H514.414V293.828H533.091ZM541.303 293.828V318H538.099V293.828H541.303ZM566.914 293.828V318H563.693L551.524 299.356V318H548.32V293.828H551.524L563.743 312.521V293.828H566.914ZM591.645 305.964V314.812C591.346 315.255 590.87 315.753 590.217 316.307C589.564 316.849 588.662 317.325 587.511 317.734C586.371 318.133 584.899 318.332 583.095 318.332C581.623 318.332 580.267 318.077 579.028 317.568C577.799 317.048 576.731 316.296 575.824 315.311C574.927 314.314 574.23 313.108 573.732 311.691C573.245 310.264 573.001 308.648 573.001 306.844V304.968C573.001 303.164 573.212 301.553 573.632 300.137C574.064 298.72 574.695 297.519 575.525 296.534C576.355 295.538 577.373 294.785 578.58 294.276C579.786 293.756 581.169 293.496 582.73 293.496C584.578 293.496 586.122 293.817 587.362 294.459C588.612 295.09 589.586 295.964 590.284 297.082C590.992 298.2 591.446 299.473 591.645 300.9H588.441C588.297 300.026 588.009 299.229 587.578 298.51C587.157 297.79 586.554 297.215 585.768 296.783C584.982 296.34 583.97 296.119 582.73 296.119C581.612 296.119 580.644 296.324 579.825 296.733C579.006 297.143 578.331 297.729 577.799 298.493C577.268 299.257 576.87 300.181 576.604 301.266C576.349 302.35 576.222 303.573 576.222 304.935V306.844C576.222 308.238 576.383 309.483 576.704 310.579C577.036 311.675 577.506 312.61 578.115 313.385C578.724 314.148 579.448 314.729 580.29 315.128C581.142 315.526 582.083 315.726 583.112 315.726C584.252 315.726 585.176 315.632 585.884 315.443C586.593 315.244 587.146 315.012 587.544 314.746C587.943 314.469 588.247 314.209 588.458 313.966V308.554H582.863V305.964H591.645ZM626.382 305.15V306.678C626.382 308.493 626.155 310.12 625.701 311.559C625.247 312.997 624.594 314.22 623.742 315.228C622.89 316.235 621.866 317.004 620.671 317.535C619.486 318.066 618.158 318.332 616.686 318.332C615.258 318.332 613.947 318.066 612.752 317.535C611.567 317.004 610.538 316.235 609.664 315.228C608.8 314.22 608.131 312.997 607.655 311.559C607.179 310.12 606.941 308.493 606.941 306.678V305.15C606.941 303.335 607.173 301.714 607.638 300.286C608.114 298.847 608.784 297.624 609.647 296.617C610.51 295.599 611.534 294.824 612.718 294.293C613.914 293.762 615.225 293.496 616.653 293.496C618.125 293.496 619.453 293.762 620.637 294.293C621.833 294.824 622.856 295.599 623.709 296.617C624.572 297.624 625.23 298.847 625.684 300.286C626.149 301.714 626.382 303.335 626.382 305.15ZM623.211 306.678V305.117C623.211 303.678 623.061 302.406 622.762 301.299C622.475 300.192 622.048 299.262 621.484 298.51C620.92 297.757 620.228 297.187 619.409 296.8C618.601 296.412 617.682 296.219 616.653 296.219C615.657 296.219 614.755 296.412 613.947 296.8C613.15 297.187 612.464 297.757 611.888 298.51C611.324 299.262 610.887 300.192 610.577 301.299C610.267 302.406 610.112 303.678 610.112 305.117V306.678C610.112 308.128 610.267 309.411 610.577 310.529C610.887 311.636 611.329 312.571 611.905 313.335C612.492 314.088 613.183 314.658 613.98 315.045C614.788 315.432 615.69 315.626 616.686 315.626C617.727 315.626 618.651 315.432 619.459 315.045C620.267 314.658 620.947 314.088 621.501 313.335C622.065 312.571 622.491 311.636 622.779 310.529C623.067 309.411 623.211 308.128 623.211 306.678ZM640.836 293.828V318H637.682V293.828H640.836ZM648.606 293.828V296.451H629.929V293.828H648.606ZM669.17 304.221V306.827H656.088V304.221H669.17ZM656.586 293.828V318H653.382V293.828H656.586ZM671.959 293.828V318H668.771V293.828H671.959ZM694.2 315.394V318H681.4V315.394H694.2ZM682.047 293.828V318H678.843V293.828H682.047ZM692.506 304.221V306.827H681.4V304.221H692.506ZM694.034 293.828V296.451H681.4V293.828H694.034ZM699.357 293.828H707.359C709.174 293.828 710.707 294.105 711.958 294.658C713.22 295.212 714.177 296.031 714.83 297.115C715.494 298.189 715.826 299.511 715.826 301.083C715.826 302.19 715.599 303.202 715.145 304.121C714.703 305.029 714.061 305.803 713.22 306.445C712.39 307.076 711.393 307.547 710.231 307.856L709.335 308.205H701.814L701.781 305.599H707.459C708.61 305.599 709.567 305.399 710.331 305.001C711.095 304.591 711.67 304.044 712.057 303.357C712.445 302.671 712.639 301.913 712.639 301.083C712.639 300.153 712.456 299.34 712.091 298.643C711.725 297.945 711.15 297.409 710.364 297.032C709.589 296.645 708.588 296.451 707.359 296.451H702.561V318H699.357V293.828ZM713.485 318L707.608 307.043L710.945 307.026L716.905 317.801V318H713.485ZM734.381 311.891C734.381 311.326 734.293 310.828 734.116 310.396C733.95 309.954 733.651 309.555 733.219 309.201C732.799 308.847 732.212 308.509 731.459 308.188C730.718 307.868 729.777 307.541 728.637 307.209C727.442 306.855 726.363 306.462 725.4 306.03C724.437 305.588 723.612 305.084 722.926 304.52C722.24 303.955 721.714 303.308 721.349 302.577C720.984 301.847 720.801 301.011 720.801 300.07C720.801 299.13 720.995 298.261 721.382 297.464C721.77 296.667 722.323 295.975 723.042 295.389C723.773 294.791 724.642 294.326 725.649 293.994C726.656 293.662 727.779 293.496 729.019 293.496C730.834 293.496 732.372 293.845 733.634 294.542C734.907 295.228 735.875 296.13 736.539 297.248C737.204 298.355 737.536 299.539 737.536 300.801H734.348C734.348 299.893 734.154 299.091 733.767 298.394C733.38 297.685 732.793 297.132 732.007 296.733C731.221 296.324 730.225 296.119 729.019 296.119C727.879 296.119 726.938 296.291 726.197 296.634C725.455 296.977 724.902 297.442 724.537 298.028C724.182 298.615 724.005 299.285 724.005 300.037C724.005 300.546 724.11 301.011 724.321 301.432C724.542 301.841 724.88 302.223 725.333 302.577C725.798 302.931 726.385 303.258 727.093 303.557C727.813 303.855 728.67 304.143 729.666 304.42C731.039 304.807 732.223 305.239 733.219 305.715C734.215 306.191 735.034 306.728 735.676 307.325C736.329 307.912 736.811 308.581 737.121 309.334C737.442 310.076 737.602 310.917 737.602 311.857C737.602 312.842 737.403 313.733 737.004 314.53C736.606 315.327 736.036 316.008 735.294 316.572C734.553 317.137 733.662 317.574 732.622 317.884C731.592 318.183 730.441 318.332 729.168 318.332C728.051 318.332 726.949 318.177 725.865 317.867C724.791 317.557 723.812 317.092 722.926 316.473C722.052 315.853 721.349 315.089 720.818 314.182C720.298 313.263 720.038 312.201 720.038 310.994H723.225C723.225 311.824 723.386 312.538 723.706 313.136C724.027 313.722 724.465 314.209 725.018 314.597C725.582 314.984 726.219 315.272 726.927 315.46C727.647 315.637 728.394 315.726 729.168 315.726C730.286 315.726 731.233 315.571 732.007 315.261C732.782 314.951 733.369 314.508 733.767 313.933C734.177 313.357 734.381 312.676 734.381 311.891ZM742.461 316.373C742.461 315.853 742.621 315.416 742.942 315.062C743.274 314.696 743.75 314.514 744.37 314.514C744.99 314.514 745.46 314.696 745.781 315.062C746.113 315.416 746.279 315.853 746.279 316.373C746.279 316.882 746.113 317.314 745.781 317.668C745.46 318.022 744.99 318.199 744.37 318.199C743.75 318.199 743.274 318.022 742.942 317.668C742.621 317.314 742.461 316.882 742.461 316.373Z" fill="#023047"/>
<path d="M1012.5 196.5V208.5H1031.5V263.5H1047.5V208.5H1066.5V196.5H1012.5Z" fill="#023047"/>
<path d="M1176 212.5V197.5L1164 195.5H1152.98C1150.35 195.5 1147.75 196.018 1145.32 197.025L1142.39 198.242C1133.65 201.866 1127.13 209.4 1124.8 218.57L1123.16 225.033C1121.44 231.798 1122.13 238.951 1125.12 245.26L1125.87 246.843C1130.84 257.32 1141.39 264 1152.98 264H1162.62C1165.2 264 1167.76 263.668 1170.25 263.012L1176 261.5V247.5L1167.33 249.834C1164.46 250.608 1161.48 251 1158.5 251V251C1145.81 251 1136.16 239.472 1138.5 227V227V227C1139.02 214.797 1150.51 206.077 1162.4 208.86L1163 209L1176 212.5Z" fill="#023047"/>
<path fill-rule="evenodd" clip-rule="evenodd" d="M582.5 81.5V257H622V190.5H636.118C640.665 190.5 644.844 192.997 647 197L683.5 257H729.5L707 221L688.174 193.545C684.753 188.556 680.456 184.23 675.49 180.776L672.782 178.892C672.183 178.475 672.218 177.578 672.847 177.209L687.192 168.784C697.337 162.826 704.79 153.181 707.997 141.862C714.696 118.222 701.102 93.3974 677.72 85.847C673.957 84.6318 670.001 83.889 666.053 83.6696L627 81.5H582.5ZM622.5 159.5V111L647.641 112.212C657.294 112.677 665.435 119.559 667.5 129L667.821 132.424C668.562 140.324 665.472 148.1 659.512 153.338C654.993 157.31 649.182 159.5 643.165 159.5H622.5Z" fill="#023047" stroke="black"/>
<path fill-rule="evenodd" clip-rule="evenodd" d="M265 82V257H327.875C343.091 257 358.106 253.528 371.777 246.847L382.138 241.785C390.544 237.677 397.629 231.294 402.587 223.361L407.097 216.144C413.949 205.182 418.305 192.848 419.859 180.015L420.758 172.594C426.33 126.574 392.241 85.264 346 82H265ZM336.5 114H305V225H328.138C333.884 225 339.704 224.736 345.116 222.804C364.261 215.971 377.766 198.077 378.569 177.199L379 166L378.735 159.771C377.734 136.243 359.872 116.885 336.5 114Z" fill="#023047" stroke="black"/>
<path fill-rule="evenodd" clip-rule="evenodd" d="M114.5 256.5H79.4541C77.3586 256.5 75.4648 255.251 74.6394 253.325C73.5865 250.868 73.5124 248.102 74.4323 245.593L133.837 83.5358C134.93 80.5548 136.717 77.8768 139.05 75.7232L142.754 72.3039C146.449 68.8937 151.292 67 156.32 67H159.383C163.986 67 168.449 68.5877 172.017 71.4953L175.685 74.4844C178.508 76.7844 180.649 79.8114 181.878 83.239L244 256.5H203.272C201.039 256.5 199.077 255.02 198.464 252.874L188.5 218H132.638C128.128 218 124.177 221.018 122.99 225.369L114.5 256.5ZM140.319 184.575C142.027 186.439 144.44 187.5 146.968 187.5H179L164.772 144.341C164.283 142.857 163.162 141.665 161.711 141.085C156.136 138.854 149.825 141.704 147.81 147.36L138.5 173.5L138.017 177.361C137.689 179.987 138.531 182.624 140.319 184.575Z" fill="#023047" stroke="black"/>
<path fill-rule="evenodd" clip-rule="evenodd" d="M457 84H556V115H457V84ZM457 222H556V253H457V222ZM556 153H457V184H556V153Z" fill="#219EBC"/>
<path fill-rule="evenodd" clip-rule="evenodd" d="M1070 197H1118V209.107H1070V197ZM1070 250.893H1118V263H1070V250.893ZM1118 223.947H1070V236.053H1118V223.947Z" fill="#219EBC"/>
<path d="M905 168.5C905 215.168 867.392 253 821 253C774.608 253 737 215.168 737 168.5C737 121.832 774.608 84 821 84C867.392 84 905 121.832 905 168.5ZM766.015 168.5C766.015 199.048 790.633 223.812 821 223.812C851.367 223.812 875.985 199.048 875.985 168.5C875.985 137.952 851.367 113.188 821 113.188C790.633 113.188 766.015 137.952 766.015 168.5Z" fill="#219EBC"/>
<path d="M1111.45 189.116C1115.68 172.282 1114.63 154.553 1108.43 138.339C1102.24 122.124 1091.2 108.211 1076.82 98.4908C1062.44 88.7708 1045.41 83.7156 1028.06 84.0124C1010.7 84.3092 993.857 89.9436 979.816 100.15C965.776 110.356 955.219 124.638 949.581 141.055C943.943 157.472 943.498 175.227 948.306 191.906C953.114 208.585 962.942 223.378 976.454 234.275C989.965 245.172 1010.18 251.834 1027.5 253V224C1016.18 223.238 1003.67 218.599 994.838 211.479C986.01 204.358 979.588 194.692 976.446 183.794C973.305 172.896 973.596 161.294 977.279 150.567C980.963 139.84 987.861 130.507 997.036 123.839C1006.21 117.17 1017.22 113.488 1028.56 113.294C1039.9 113.1 1051.02 116.403 1060.42 122.755C1069.82 129.106 1077.03 138.197 1081.08 148.792C1085.13 159.387 1084.77 178.117 1082 189.116L1111.45 189.116Z" fill="#219EBC"/>
<path d="M252.21 317.863C225.28 332.795 194.772 340.062 164.001 338.875C133.231 337.687 103.374 328.09 77.6746 311.126C51.9751 294.162 31.4157 270.48 18.2297 242.653C5.04382 214.825 -0.264351 183.916 2.88188 153.284C6.02812 122.652 17.5084 93.4673 36.0757 68.9012C54.6429 44.335 79.5871 25.3266 108.198 13.941C136.81 2.55531 167.994 -0.772256 198.363 4.31978C228.733 9.41181 254.167 26.9049 277.5 47" stroke="#219EBC" stroke-width="4"/>
<circle cx="286.5" cy="59.5" r="15.5" fill="#219EBC"/>
</svg>
